<?xml version="1.0" encoding="UTF-8" standalone="no"?>
<!-- Created with Inkscape (http://www.inkscape.org/) -->

<svg
   width="500"
   height="500"
   viewBox="0 0 132.29166 132.29167"
   version="1.1"
   id="svg8"
   sodipodi:docname="bsd.svg"
   inkscape:version="1.3 (0e150ed6c4, 2023-07-21)"
   xmlns:inkscape="http://www.inkscape.org/namespaces/inkscape"
   xmlns:sodipodi="http://sodipodi.sourceforge.net/DTD/sodipodi-0.dtd"
   xmlns="http://www.w3.org/2000/svg"
   xmlns:svg="http://www.w3.org/2000/svg"
   xmlns:rdf="http://www.w3.org/1999/02/22-rdf-syntax-ns#"
   xmlns:cc="http://creativecommons.org/ns#"
   xmlns:dc="http://purl.org/dc/elements/1.1/">
  <defs
     id="defs2">
    <inkscape:path-effect
       effect="perspective-envelope"
       up_left_point="21.827091,197.06965"
       up_right_point="113.68763,197.06965"
       down_left_point="36.89482,283.54086"
       down_right_point="98.671497,283.54086"
       id="path-effect31"
       is_visible="true"
       lpeversion="1"
       deform_type="perspective"
       horizontal_mirror="false"
       vertical_mirror="false"
       overflow_perspective="false" />
    <inkscape:path-effect
       effect="perspective-envelope"
       up_left_point="24.989688,189.69801"
       up_right_point="99.392279,199.00479"
       down_left_point="24.989688,272.0103"
       down_right_point="99.339553,263.45845"
       id="path-effect30"
       is_visible="true"
       lpeversion="1"
       deform_type="perspective"
       horizontal_mirror="false"
       vertical_mirror="false"
       overflow_perspective="false" />
    <inkscape:path-effect
       effect="perspective-envelope"
       up_left_point="33.274814,221.62319"
       up_right_point="93.216988,221.25282"
       down_left_point="12.846244,284.15374"
       down_right_point="119.44542,284.15374"
       id="path-effect6"
       is_visible="true"
       lpeversion="1"
       deform_type="perspective"
       horizontal_mirror="false"
       vertical_mirror="false"
       overflow_perspective="false" />
    <rect
       x="-51.952264"
       y="219.19037"
       width="51.952264"
       height="89.676296"
       id="rect5" />
    <rect
       x="21.994148"
       y="60.7689"
       width="333.55285"
       height="273.85825"
       id="rect35" />
    <rect
       x="67.041582"
       y="122.30159"
       width="319.6528"
       height="201.90539"
       id="rect34" />
    <rect
       x="188.5884"
       y="99.673461"
       width="260.00953"
       height="279.50904"
       id="rect33" />
    <inkscape:perspective
       sodipodi:type="inkscape:persp3d"
       inkscape:vp_x="6.1093449 : 34.72819 : 1"
       inkscape:vp_y="0 : 1000 : 0"
       inkscape:vp_z="75.71349 : 35.580862 : 1"
       inkscape:persp3d-origin="66.14583 : 44.097223 : 1"
       id="perspective16" />
    <rect
       x="-51.952263"
       y="219.19037"
       width="51.952263"
       height="89.676292"
       id="rect5-6" />
    <rect
       x="-51.952263"
       y="219.19037"
       width="51.952263"
       height="89.676292"
       id="rect5-6-9" />
    <rect
       x="-51.952263"
       y="219.19037"
       width="51.952263"
       height="89.676292"
       id="rect5-1" />
  </defs>
  <sodipodi:namedview
     id="base"
     pagecolor="#ffffff"
     bordercolor="#666666"
     borderopacity="1.0"
     inkscape:pageopacity="0.0"
     inkscape:pageshadow="2"
     inkscape:zoom="0.7"
     inkscape:cx="597.85714"
     inkscape:cy="285.71429"
     inkscape:document-units="mm"
     inkscape:current-layer="layer1"
     showgrid="true"
     units="px"
     inkscape:window-width="1916"
     inkscape:window-height="1153"
     inkscape:window-x="0"
     inkscape:window-y="21"
     inkscape:window-maximized="1"
     showguides="true"
     inkscape:snap-object-midpoints="true"
     inkscape:showpageshadow="2"
     inkscape:pagecheckerboard="0"
     inkscape:deskcolor="#d1d1d1">
    <inkscape:grid
       type="xygrid"
       id="grid4988"
       spacingx="66.145832"
       spacingy="66.145832"
       snapvisiblegridlinesonly="true"
       enabled="false"
       originx="0"
       originy="0"
       units="px"
       visible="true" />
  </sodipodi:namedview>
  <metadata
     id="metadata5">
    <rdf:RDF>
      <cc:Work
         rdf:about="">
        <dc:format>image/svg+xml</dc:format>
        <dc:type
           rdf:resource="http://purl.org/dc/dcmitype/StillImage" />
      </cc:Work>
    </rdf:RDF>
  </metadata>
  <g
     inkscape:label="Layer 1"
     inkscape:groupmode="layer"
     id="layer1"
     transform="translate(0,-164.70832)">
    <path
       id="path34"
       style="fill:#010101;fill-opacity:1;stroke:none;stroke-width:5.70133;stroke-linecap:round;stroke-linejoin:round;stroke-dasharray:none;stroke-opacity:1"
       d="M 66.145833 182.35582 A 52.423355 52.423355 0 0 0 13.722677 234.7795 A 52.423355 52.423355 0 0 0 66.145833 287.20265 A 52.423355 52.423355 0 0 0 118.56899 234.7795 A 52.423355 52.423355 0 0 0 111.69499 208.9852 C 110.01001 211.77498 108.01174 214.49656 105.66797 217.02812 A 20.684546 12.496514 45 0 1 103.41746 222.02782 A 20.684546 12.496514 45 0 1 79.95481 216.23799 A 20.684546 12.496514 45 0 1 74.164982 192.77586 A 20.684546 12.496514 45 0 1 79.546049 190.44525 C 81.421689 188.82429 83.396281 187.38436 85.424243 186.10856 A 52.423355 52.423355 0 0 0 66.145833 182.35582 z " />
    <path
       id="path35-7"
       style="fill:#000000;fill-opacity:1;stroke:none;stroke-width:6.19499;stroke-linecap:round;stroke-linejoin:round;stroke-dasharray:none;stroke-opacity:1"
       d="m 76.954267,196.13109 c -0.865155,0.87364 -1.751944,1.92736 -1.574643,3.06101 1.567778,10.02429 11.484806,20.04866 21.523235,21.52323 1.468998,0.21578 3.048408,-1.24602 3.922391,-2.11084 13.37515,-13.37515 14.80792,-33.9258 12.13451,-35.4693 -2.67342,-1.5435 -23.050028,0.0404 -36.005493,12.9959 z"
       sodipodi:nodetypes="caaczc" />
    <path
       id="path35-7-2"
       style="fill:#000000;fill-opacity:1;stroke:none;stroke-width:6.19499;stroke-linecap:round;stroke-linejoin:round;stroke-dasharray:none;stroke-opacity:1"
       d="M 15.763896 182.3367 C 13.411233 182.36934 11.837372 182.78094 11.451497 183.44929 C 10.248995 185.53209 10.946419 198.35978 17.438729 210.05232 A 54.739178 54.739178 0 0 1 37.23442 188.35649 C 29.172656 183.89178 20.731936 182.26778 15.763896 182.3367 z " />
  </g>
</svg>
