<?xml version="1.0" encoding="UTF-8" standalone="no"?>
<!-- Created with Inkscape (http://www.inkscape.org/) -->

<svg
   width="500"
   height="500"
   viewBox="0 0 132.29166 132.29167"
   version="1.1"
   id="svg8"
   sodipodi:docname="egs.svg"
   inkscape:version="1.3.2 (091e20ef0f, 2023-11-25, custom)"
   xml:space="preserve"
   xmlns:inkscape="http://www.inkscape.org/namespaces/inkscape"
   xmlns:sodipodi="http://sodipodi.sourceforge.net/DTD/sodipodi-0.dtd"
   xmlns="http://www.w3.org/2000/svg"
   xmlns:svg="http://www.w3.org/2000/svg"
   xmlns:rdf="http://www.w3.org/1999/02/22-rdf-syntax-ns#"
   xmlns:cc="http://creativecommons.org/ns#"
   xmlns:dc="http://purl.org/dc/elements/1.1/"><defs
     id="defs2"><rect
       x="66.771182"
       y="108.69892"
       width="374.99453"
       height="218.33377"
       id="rect2" /><rect
       x="53.983325"
       y="50.577051"
       width="601.27373"
       height="412.49454"
       id="rect1" /><inkscape:path-effect
       effect="perspective-envelope"
       up_left_point="21.827091,197.06965"
       up_right_point="113.68763,197.06965"
       down_left_point="36.89482,283.54086"
       down_right_point="98.671497,283.54086"
       id="path-effect31"
       is_visible="true"
       lpeversion="1"
       deform_type="perspective"
       horizontal_mirror="false"
       vertical_mirror="false"
       overflow_perspective="false" /><inkscape:path-effect
       effect="perspective-envelope"
       up_left_point="24.989688,189.69801"
       up_right_point="99.392279,199.00479"
       down_left_point="24.989688,272.0103"
       down_right_point="99.339553,263.45845"
       id="path-effect30"
       is_visible="true"
       lpeversion="1"
       deform_type="perspective"
       horizontal_mirror="false"
       vertical_mirror="false"
       overflow_perspective="false" /><inkscape:path-effect
       effect="perspective-envelope"
       up_left_point="33.274814,221.62319"
       up_right_point="93.216988,221.25282"
       down_left_point="12.846244,284.15374"
       down_right_point="119.44542,284.15374"
       id="path-effect6"
       is_visible="true"
       lpeversion="1"
       deform_type="perspective"
       horizontal_mirror="false"
       vertical_mirror="false"
       overflow_perspective="false" /><rect
       x="-51.952264"
       y="219.19037"
       width="51.952264"
       height="89.676296"
       id="rect5" /><rect
       x="21.994148"
       y="60.7689"
       width="333.55285"
       height="273.85825"
       id="rect35" /><rect
       x="67.041582"
       y="122.30159"
       width="319.6528"
       height="201.90539"
       id="rect34" /><rect
       x="188.5884"
       y="99.673461"
       width="260.00953"
       height="279.50904"
       id="rect33" /><inkscape:perspective
       sodipodi:type="inkscape:persp3d"
       inkscape:vp_x="6.1093449 : 34.72819 : 1"
       inkscape:vp_y="0 : 1000 : 0"
       inkscape:vp_z="75.71349 : 35.580862 : 1"
       inkscape:persp3d-origin="66.14583 : 44.097223 : 1"
       id="perspective16" /><rect
       x="-51.952263"
       y="219.19037"
       width="51.952263"
       height="89.676292"
       id="rect5-6" /><rect
       x="-51.952263"
       y="219.19037"
       width="51.952263"
       height="89.676292"
       id="rect5-6-9" /><rect
       x="-51.952263"
       y="219.19037"
       width="51.952263"
       height="89.676292"
       id="rect5-1" /><clipPath
       clipPathUnits="userSpaceOnUse"
       id="clipPath3"><g
         id="g4"><rect
           width="647.16699"
           height="750.97699"
           fill="#ffffff"
           id="rect3"
           x="0"
           y="0" /></g></clipPath><clipPath
       clipPathUnits="userSpaceOnUse"
       id="clipPath4"><g
         id="g5"><rect
           width="647.16699"
           height="750.97699"
           fill="#ffffff"
           id="rect4"
           x="0"
           y="0" /></g></clipPath><clipPath
       clipPathUnits="userSpaceOnUse"
       id="clipPath5"><g
         id="g6"><rect
           width="647.16699"
           height="750.97699"
           fill="#ffffff"
           id="rect6"
           x="0"
           y="0" /></g></clipPath><clipPath
       clipPathUnits="userSpaceOnUse"
       id="clipPath6"><g
         id="g8"><rect
           width="647.16699"
           height="750.97699"
           fill="#ffffff"
           id="rect7"
           x="0"
           y="0" /></g></clipPath><clipPath
       clipPathUnits="userSpaceOnUse"
       id="clipPath8"><g
         id="g9"><rect
           width="647.16699"
           height="750.97699"
           fill="#ffffff"
           id="rect8"
           x="0"
           y="0" /></g></clipPath><clipPath
       clipPathUnits="userSpaceOnUse"
       id="clipPath10"><g
         id="g11"><rect
           width="647.16699"
           height="750.97699"
           fill="#ffffff"
           id="rect10"
           x="0"
           y="0" /></g></clipPath><clipPath
       clipPathUnits="userSpaceOnUse"
       id="clipPath12"><g
         id="g13"><rect
           width="647.16699"
           height="750.97699"
           fill="#ffffff"
           transform="scale(-1)"
           id="rect12"
           x="-647.16699"
           y="-986.97699" /></g></clipPath><clipPath
       clipPathUnits="userSpaceOnUse"
       id="clipPath13"><g
         id="g14"><rect
           width="647.16699"
           height="750.97699"
           fill="#ffffff"
           transform="scale(-1)"
           id="rect13"
           x="-647.16699"
           y="-986.97699" /></g></clipPath><clipPath
       clipPathUnits="userSpaceOnUse"
       id="clipPath14"><g
         id="g15"><rect
           width="647.16699"
           height="750.97699"
           fill="#ffffff"
           transform="scale(-1)"
           id="rect14"
           x="-647.16699"
           y="-986.97699" /></g></clipPath><clipPath
       clipPathUnits="userSpaceOnUse"
       id="clipPath15"><g
         id="g16"><rect
           width="647.16699"
           height="750.97699"
           fill="#ffffff"
           transform="scale(-1)"
           id="rect15"
           x="-647.16699"
           y="-986.97699" /></g></clipPath><clipPath
       clipPathUnits="userSpaceOnUse"
       id="clipPath16"><g
         id="g17"><rect
           width="647.16699"
           height="750.97699"
           fill="#ffffff"
           transform="scale(-1)"
           id="rect16"
           x="-647.16699"
           y="-986.97699" /></g></clipPath><clipPath
       clipPathUnits="userSpaceOnUse"
       id="clipPath17"><g
         id="g18"><rect
           width="647.16699"
           height="750.97699"
           fill="#ffffff"
           transform="scale(-1)"
           id="rect17"
           x="-647.16699"
           y="-986.97699" /></g></clipPath></defs><sodipodi:namedview
     id="base"
     pagecolor="#ffffff"
     bordercolor="#666666"
     borderopacity="1.0"
     inkscape:pageopacity="0.0"
     inkscape:pageshadow="2"
     inkscape:zoom="1.674186"
     inkscape:cx="156.19531"
     inkscape:cy="267.59272"
     inkscape:document-units="mm"
     inkscape:current-layer="layer1"
     showgrid="true"
     units="px"
     inkscape:window-width="1916"
     inkscape:window-height="1156"
     inkscape:window-x="0"
     inkscape:window-y="21"
     inkscape:window-maximized="1"
     showguides="true"
     inkscape:snap-object-midpoints="true"
     inkscape:showpageshadow="2"
     inkscape:pagecheckerboard="0"
     inkscape:deskcolor="#d1d1d1"><inkscape:grid
       type="xygrid"
       id="grid4988"
       spacingx="66.145832"
       spacingy="66.145832"
       snapvisiblegridlinesonly="true"
       enabled="false"
       originx="0"
       originy="0"
       units="px"
       visible="true" /></sodipodi:namedview><metadata
     id="metadata5"><rdf:RDF><cc:Work
         rdf:about=""><dc:format>image/svg+xml</dc:format><dc:type
           rdf:resource="http://purl.org/dc/dcmitype/StillImage" /></cc:Work></rdf:RDF></metadata><g
     inkscape:label="Layer 1"
     inkscape:groupmode="layer"
     id="layer1"
     transform="translate(0,-164.70832)"><path
       id="path1"
       clip-path="none"
       d="M 476.77745 97.326944 C 441.16951 97.326944 423.56138 115.01449 423.56138 150.80443 L 423.56138 336.72487 C 423.56138 372.51579 441.16951 390.19784 476.77745 390.19784 L 498.47493 390.19784 C 534.09085 390.19784 551.69099 372.51579 551.69099 336.72487 L 551.69099 269.68083 L 508.70619 269.68083 L 508.70619 334.67411 C 508.70619 346.19309 503.38315 351.53541 492.33617 351.53541 L 484.14666 351.53541 C 472.68668 351.53541 467.36199 346.19309 467.36199 334.67411 L 467.36199 152.85518 C 467.36199 141.33822 472.68668 135.99389 484.14666 135.99389 L 491.51587 135.99389 C 502.56885 135.99389 507.89039 141.33822 507.89039 152.85518 L 507.89039 209.21725 L 550.87069 209.21725 L 550.87069 150.38977 C 550.87069 114.60683 533.67622 97.326944 498.06928 97.326944 L 476.77745 97.326944 z M 95.476024 99.796869 L 95.476024 387.73243 L 193.72315 387.73243 L 193.72315 347.83503 L 139.27212 347.83503 L 139.27212 261.03609 L 190.85209 261.03609 L 190.85209 221.1432 L 139.27212 221.1432 L 139.27212 139.69427 L 192.90284 139.69427 L 192.90284 99.796869 L 95.476024 99.796869 z M 214.86625 99.796869 L 214.86625 387.73243 L 258.66685 387.73243 L 258.66685 283.2519 L 283.63653 283.2519 C 319.25045 283.2519 336.84809 265.56635 336.84809 229.78343 L 336.84809 153.26984 C 336.84809 117.48092 319.25045 99.796869 283.63653 99.796869 L 214.86625 99.796869 z M 356.60749 99.796869 L 356.60749 387.73243 L 400.4126 387.73243 L 400.4126 99.796869 L 356.60749 99.796869 z M 258.66685 138.46381 L 276.68198 138.46381 C 287.73496 138.46381 293.04748 143.80913 293.04748 155.32511 L 293.04748 227.72366 C 293.04748 239.24164 287.73496 244.58946 276.68198 244.58946 L 258.66685 244.58946 L 258.66685 138.46381 z M 138.03716 456.23228 C 121.52614 456.8934 105.31209 466.70861 98.459766 481.99973 C 90.461381 498.67858 93.467269 520.55006 106.9783 533.51208 C 118.06027 544.56227 134.65036 548.26921 149.81437 545.98791 C 160.29986 544.5379 170.22441 539.77618 178.37626 533.08841 L 178.37626 494.24569 L 139.10536 494.24569 L 139.10536 511.69291 L 156.48047 511.69291 L 156.48047 522.56869 C 145.87494 529.3306 129.71542 527.59004 122.3297 516.83108 C 114.25195 505.20847 117.07443 486.71994 129.86117 479.656 C 139.16168 474.50468 151.18853 476.95031 159.25688 483.37441 C 161.43366 486.40439 162.97331 484.04079 164.59336 481.82395 C 168.16906 477.41661 171.79593 473.03991 175.40153 468.66754 C 166.71865 461.11526 155.52826 456.59079 144.00013 456.3089 C 142.02146 456.14231 140.02216 456.27589 138.03716 456.23228 z M 518.17123 456.47116 C 516.50488 456.40995 514.83512 456.41279 513.17278 456.47567 C 501.98749 456.96322 489.78437 462.00514 485.08866 472.85019 C 480.85396 482.28203 481.85701 494.99727 490.32147 501.83575 C 500.22817 509.72146 513.45298 509.98229 524.83732 514.43777 C 528.82762 515.39587 531.33391 520.02679 528.94335 523.6414 C 525.38549 527.87893 518.95382 527.10943 514.01562 526.58908 C 505.79232 525.55641 498.24086 521.6128 491.75475 516.58769 C 487.47585 521.79012 483.06171 526.92447 478.78314 532.12839 C 492.27748 544.23532 511.74545 548.57904 529.358 545.27127 C 539.9755 543.51268 550.16025 535.96039 552.35355 525.01608 C 554.33453 516.30292 552.45817 506.04472 544.95729 500.43402 C 534.73426 492.43762 521.10142 492.38945 509.56255 487.42635 C 504.7596 485.84211 504.76791 478.42486 509.54903 476.821 C 517.42402 474.26618 525.91998 477.23257 533.04486 480.73772 C 535.14756 481.54711 537.48401 484.092 539.27827 484.06401 C 543.03361 478.69211 546.76611 473.30843 550.53716 467.94639 C 541.42463 460.43342 529.83566 456.8996 518.17123 456.47116 z M 224.08339 457.30949 C 212.80816 484.10713 201.54066 510.91396 190.22108 537.70375 C 189.17188 540.09197 188.32408 542.5614 187.19678 544.91971 L 211.22897 544.91971 C 213.40983 539.4606 215.60158 534.00753 217.77337 528.54519 L 251.92864 528.54519 C 254.10974 534.00465 256.2996 539.45676 258.47304 544.91971 L 282.99201 544.91971 C 271.77665 518.26669 260.56334 491.60559 249.31449 464.95815 C 248.16157 462.44241 247.32105 459.79933 246.10088 457.30949 L 224.08339 457.30949 z M 292.65987 457.90894 L 292.65987 544.91971 L 315.27681 544.91971 L 315.27681 493.70483 C 322.74817 505.20114 330.1902 516.74581 337.65036 528.30631 C 339.47934 527.1811 340.38823 524.28611 341.89611 522.52813 C 348.14427 512.81658 354.46128 503.16503 360.73605 493.46595 L 360.73605 544.91971 L 383.70004 544.91971 L 383.70004 457.90894 L 359.30728 457.90894 C 352.2576 469.31089 345.16979 480.74163 338.12361 492.14986 C 331.13007 480.72681 324.05915 469.33138 317.06165 457.90894 L 292.65987 457.90894 z M 401.27347 457.90894 L 401.27347 544.91971 L 470.65222 544.91971 L 470.65222 525.20088 L 423.99858 525.20088 L 423.99858 510.37682 L 465.41489 510.37682 L 465.41489 491.85689 L 423.99858 491.85689 L 423.99858 477.63229 L 470.05276 477.63229 L 470.05276 457.90894 L 401.27347 457.90894 z M 234.9096 484.74008 C 238.27805 493.19211 241.54514 501.68373 244.91099 510.13794 L 224.80003 510.13794 C 228.13743 501.6553 231.57539 493.22429 234.9096 484.74008 z M 0.00080501468 577.02423 L 0.00080501468 928.18626 C 0.00080501468 971.1341 15.843266 986.97768 58.769694 986.97768 L 588.39732 986.97768 C 631.32516 986.97768 647.16621 971.1341 647.16621 928.18626 L 647.16621 577.02423 C 647.16621 581.8842 646.96872 586.3998 646.53972 590.58177 C 645.56272 599.95674 645.37899 609.03957 636.66002 619.38254 C 635.80902 620.39554 626.90652 627.02218 626.90652 627.02218 C 622.11752 629.37018 618.85013 631.09964 613.44813 633.27361 L 352.65471 742.53624 C 339.11474 748.74224 333.45354 751.15964 323.61957 750.96464 L 323.61957 750.96914 L 323.58351 750.96914 L 323.54294 750.96914 L 323.54294 750.96464 C 313.70997 751.15964 308.05028 748.74224 294.51231 742.53624 L 33.714379 633.27361 C 28.314397 631.09964 25.048485 629.37018 20.2605 627.02218 C 20.2605 627.02218 11.359 620.39554 10.507 619.38254 C 1.7883873 609.03957 1.6046326 599.95674 0.62730058 590.58177 C 0.19796887 586.3998 0.00080501468 581.8842 0.00080501468 577.02423 z M 198.80723 648.08415 L 321.55979 690.28922 L 449.54517 648.08415 L 198.80723 648.08415 z M 535.88438 797.99688 L 535.88438 819.05885 L 496.52333 819.05885 L 496.52333 837.56976 L 530.15577 837.56976 L 530.15577 858.45595 L 496.15374 858.45595 L 496.15374 876.93982 L 537.17793 876.93982 L 537.17793 897.57812 L 472.50015 897.57812 L 472.50015 798.05998 L 535.88438 797.99688 z M 378.44469 798.28984 L 425.3958 798.39801 C 457.24964 798.39801 463.37759 844.46435 438.2367 858.98329 L 456.05352 888.85225 L 456.05352 897.70883 L 431.3768 897.70883 L 412.07713 862.33211 L 402.64815 862.33211 L 402.64815 897.83954 L 378.44469 897.83954 L 378.44469 798.28984 z M 319.82003 798.4521 C 339.49193 798.0317 359.16305 808.33234 359.16305 830.61521 L 359.16305 863.42284 C 359.16305 910.23159 280.26066 908.97258 280.26066 863.42284 L 280.47701 830.61521 C 280.47701 810.01383 300.14813 798.87249 319.82003 798.4521 z M 194.58402 798.50168 L 270.43956 798.50619 L 270.43956 820.83917 L 244.75324 820.83917 L 244.75324 898.14602 L 220.17568 898.14602 L 220.17568 820.83467 L 194.58402 820.83467 L 194.58402 798.50168 z M 148.17377 798.52872 C 154.88492 798.43077 161.93278 799.64143 167.77992 803.14406 C 184.96782 813.44003 183.96063 823.13995 183.96063 831.99891 L 161.6006 831.99891 C 161.6006 827.11291 156.86363 823.48539 151.88767 821.60539 C 147.60668 819.98713 142.7097 820.00731 139.3217 821.90737 C 137.23072 823.11936 134.75353 826.40827 136.36049 829.70026 C 137.92949 833.52425 146.69887 835.94223 152.63586 838.18724 C 165.03278 841.97612 174.81471 847.44726 180.5397 852.97524 C 186.92065 860.91317 186.31008 866.36083 185.52913 871.91885 C 184.24213 881.08185 179.91177 887.82267 173.05781 892.25065 C 166.32086 896.60261 158.15493 899.03994 144.23 898.07391 C 133.11905 897.30298 122.87614 894.8012 115.40219 886.33726 C 110.2132 880.46228 108.73159 873.71873 108.73159 865.51867 L 132.40321 865.82065 C 132.40321 868.64367 133.25622 871.26699 135.85118 872.93296 C 143.43317 877.80192 150.72919 877.50202 157.53514 874.88005 C 162.31913 873.03607 161.40125 869.05004 159.19829 867.02407 C 153.45029 861.73808 144.57056 859.98524 136.72557 857.06324 C 124.63665 852.56022 111.71754 848.62185 111.24659 831.02085 C 110.96358 820.43391 114.29406 810.58979 127.22898 803.32885 C 131.47416 800.94612 139.54511 798.65458 148.17377 798.52872 z M 319.77045 819.07237 C 312.0935 818.94241 304.41455 823.66601 304.41455 833.63501 L 304.41455 862.3907 C 304.41455 880.72172 335.12184 881.02873 335.12184 862.3907 L 335.12184 833.63501 C 335.12184 824.18601 327.4464 819.20232 319.77045 819.07237 z M 402.70674 819.57266 L 402.70674 840.83745 L 416.42655 840.83745 C 431.19546 840.7375 432.05746 819.83408 416.42655 819.83408 L 402.70674 819.57266 z "
       transform="matrix(0.11465403,0,0,0.11465403,29.04568,174.27371)" /></g></svg>
