<?xml version="1.0" encoding="UTF-8" standalone="no"?>
<!-- Created with Inkscape (http://www.inkscape.org/) -->

<svg
   width="500"
   height="500"
   viewBox="0 0 132.29166 132.29167"
   version="1.1"
   id="svg8"
   sodipodi:docname="flight-stick.svg"
   inkscape:version="1.3 (0e150ed6c4, 2023-07-21)"
   xmlns:inkscape="http://www.inkscape.org/namespaces/inkscape"
   xmlns:sodipodi="http://sodipodi.sourceforge.net/DTD/sodipodi-0.dtd"
   xmlns="http://www.w3.org/2000/svg"
   xmlns:svg="http://www.w3.org/2000/svg"
   xmlns:rdf="http://www.w3.org/1999/02/22-rdf-syntax-ns#"
   xmlns:cc="http://creativecommons.org/ns#"
   xmlns:dc="http://purl.org/dc/elements/1.1/">
  <defs
     id="defs2">
    <inkscape:path-effect
       effect="perspective-envelope"
       up_left_point="33.274814,221.62319"
       up_right_point="93.216988,221.25282"
       down_left_point="12.846244,284.15374"
       down_right_point="119.44542,284.15374"
       id="path-effect6"
       is_visible="true"
       lpeversion="1"
       deform_type="perspective"
       horizontal_mirror="false"
       vertical_mirror="false"
       overflow_perspective="false" />
    <rect
       x="-51.952264"
       y="219.19037"
       width="51.952264"
       height="89.676296"
       id="rect5" />
    <rect
       x="21.994148"
       y="60.7689"
       width="333.55285"
       height="273.85825"
       id="rect35" />
    <rect
       x="67.041582"
       y="122.30159"
       width="319.6528"
       height="201.90539"
       id="rect34" />
    <rect
       x="188.5884"
       y="99.673461"
       width="260.00953"
       height="279.50904"
       id="rect33" />
    <inkscape:perspective
       sodipodi:type="inkscape:persp3d"
       inkscape:vp_x="6.1093449 : 34.72819 : 1"
       inkscape:vp_y="0 : 1000 : 0"
       inkscape:vp_z="75.71349 : 35.580862 : 1"
       inkscape:persp3d-origin="66.14583 : 44.097223 : 1"
       id="perspective16" />
    <rect
       x="-51.952263"
       y="219.19037"
       width="51.952263"
       height="89.676292"
       id="rect5-6" />
    <rect
       x="-51.952263"
       y="219.19037"
       width="51.952263"
       height="89.676292"
       id="rect5-6-9" />
    <rect
       x="-51.952263"
       y="219.19037"
       width="51.952263"
       height="89.676292"
       id="rect5-1" />
  </defs>
  <sodipodi:namedview
     id="base"
     pagecolor="#ffffff"
     bordercolor="#666666"
     borderopacity="1.0"
     inkscape:pageopacity="0.0"
     inkscape:pageshadow="2"
     inkscape:zoom="0.98994949"
     inkscape:cx="151.01781"
     inkscape:cy="323.24881"
     inkscape:document-units="mm"
     inkscape:current-layer="layer1"
     showgrid="true"
     units="px"
     inkscape:window-width="1916"
     inkscape:window-height="1153"
     inkscape:window-x="0"
     inkscape:window-y="21"
     inkscape:window-maximized="1"
     showguides="true"
     inkscape:snap-object-midpoints="true"
     inkscape:showpageshadow="2"
     inkscape:pagecheckerboard="0"
     inkscape:deskcolor="#d1d1d1">
    <inkscape:grid
       type="xygrid"
       id="grid4988"
       spacingx="66.145832"
       spacingy="66.145832"
       snapvisiblegridlinesonly="true"
       enabled="false"
       originx="0"
       originy="0"
       units="px"
       visible="true" />
  </sodipodi:namedview>
  <metadata
     id="metadata5">
    <rdf:RDF>
      <cc:Work
         rdf:about="">
        <dc:format>image/svg+xml</dc:format>
        <dc:type
           rdf:resource="http://purl.org/dc/dcmitype/StillImage" />
      </cc:Work>
    </rdf:RDF>
  </metadata>
  <g
     inkscape:label="Layer 1"
     inkscape:groupmode="layer"
     id="layer1"
     transform="translate(0,-164.70832)">
    <path
       id="path13"
       style="color:#000000;fill:#000000;stroke-width:1.11166;stroke-linejoin:round;-inkscape-stroke:none"
       d="m 42.645623,172.89377 c -1.114326,-0.0233 -2.174645,0.0232 -3.158982,0.0626 -3.946251,0.15799 -8.569065,1.66357 -12.475654,3.07453 -3.906589,1.41099 -6.993536,2.79018 -6.993536,2.79018 a 2.9415563,2.9415563 0 0 0 -0.944421,4.69855 l 25.948006,27.65014 7.848914,30.82694 -8.278614,6.30475 a 2.9415563,2.9415563 0 0 0 -1.15927,2.34095 v 1.26554 a 2.9415563,2.9415563 0 0 0 2.941835,2.94011 h 46.591977 a 2.9415563,2.9415563 0 0 0 2.941834,-2.94011 v -1.26554 a 2.9415563,2.9415563 0 0 0 -1.897457,-2.75112 l -18.092773,-6.86941 -6.190433,-42.70572 a 2.9415563,2.9415563 0 0 0 -0.638231,-1.44594 l -16.099379,-19.5973 c -1.913083,-2.32895 -4.472903,-3.53741 -6.865431,-4.02126 -1.196263,-0.24192 -2.364058,-0.33451 -3.478385,-0.35789 z m 13.171332,0.33894 c -0.860374,-0.006 -1.728446,0.27681 -2.451242,0.86457 l 7.576618,9.31782 c 1.6521,-1.34344 1.900083,-3.75536 0.556657,-5.40745 l -2.726411,-3.35314 c -0.755678,-0.92932 -1.849427,-1.41425 -2.955622,-1.4218 z m 8.823782,10.85221 c -0.860378,-0.006 -1.728443,0.27681 -2.451243,0.86457 l 7.576618,9.31782 c 1.6521,-1.34344 1.900083,-3.75534 0.556657,-5.40743 l -2.726986,-3.35315 c -0.75567,-0.9293 -1.848859,-1.41425 -2.955046,-1.42181 z m -37.155242,13.0823 V 208.344 c -4.67e-4,1.62502 1.316821,2.94257 2.941834,2.94241 h 11.17679 z m 30.430555,60.10511 v 8.58021 h 16.459569 v -8.58021 z m -12.081572,11.00502 c -3.454659,0 -6.235817,2.78116 -6.235817,6.23582 h -8.526208 c -2.738429,0 -20.701418,3.07271 -20.701418,6.88956 v 7.41806 H 121.92063 v -7.41806 c 0,-3.81685 -17.96356,-6.88956 -20.70199,-6.88956 h -8.525633 c 0,-3.45466 -2.781158,-6.23582 -6.235817,-6.23582 z" />
  </g>
</svg>
