<?xml version="1.0" encoding="UTF-8"?>
<svg id="Layer_1" data-name="Layer 1" xmlns="http://www.w3.org/2000/svg" viewBox="0 0 500 500">
  <path d="M409.22,119.8c-6.01-3.43-18.02-9.1-30.73-9.1-8.92,0-14.24,.86-17.17,1.54-1.71,.35-3.09,2.07-3.09,3.95h-.17v1.72c23.35,3.26,42.23,6.69,53.22,8.75v-3.26c0-1.54-.69-2.92-2.06-3.6Zm-159.13-5.67h-.35c-31.07,0-62.83,2.57-90.29,5.83l15.62,65.41c2.75,11.85,13.04,20.08,25.23,20.08h99.22c12.02,0,22.5-8.23,25.24-20.08l15.63-65.41c-27.47-3.26-59.06-5.83-90.3-5.83Zm-111.59-1.89c-2.91-.68-8.23-1.54-17.16-1.54-12.87,0-24.72,5.67-30.73,9.1-1.2,.68-2.06,2.06-2.06,3.6h-.17v3.26c10.98-2.23,29.87-5.49,53.21-8.75v-1.72c0-1.88-1.2-3.43-3.09-3.95Zm16.66,8.23c-32.96,4.13-59.23,9.11-70.38,11.34-2.93,.68-5.33,2.58-6.53,5.32-9.78,21.98-41.72,98.71-41.72,157.07,0,64.89,9.28,91.67,33.31,94.93,3.6-.34,9.78-17.85,16.3-36.56,6.02-17.34,14.43-41.03,25.92-68.15,15.11-35.54,32.62-57.86,44.13-72.62,9.09-11.49,14.93-19.05,14.59-25.57l-15.62-65.76Zm-53.22,38.46c0-3.78,3.09-6.87,6.86-6.87h13.05c3.78,0,6.87,3.09,6.87,6.87v11.5c0,1.72-.68,3.44-1.89,4.64l-6.52,7.04c-.68,.68-1.5,1.24-2.39,1.63-.87,.38-1.81,.59-2.77,.59-2.06,0-3.77-.85-5.14-2.22l-6.18-7.22c-1.2-1.2-1.89-2.91-1.89-4.63v-11.33Zm-7.9,45.67h-11.33c-3.77,0-6.86-3.09-6.86-7.22v-13.05c0-3.77,3.09-6.86,6.86-6.86h11.33c1.72,0,3.44,.69,4.64,1.89l7.03,6.52c1.38,1.38,2.24,3.26,2.24,5.15s-.86,3.78-2.24,5.16l-7.03,6.51c-1.2,1.2-2.92,1.9-4.64,1.9Zm34.16,18.7c0,3.78-3.09,6.87-6.86,6.87h-13.05c-3.78,0-6.87-3.09-6.87-6.87v-11.32c0-1.72,.7-3.44,1.89-4.64l6.52-7.03c1.38-1.38,3.26-2.24,5.16-2.24s3.77,.86,5.15,2.24l6.17,7.2c1.21,1.2,1.89,2.92,1.89,4.64v11.15Zm25.92-25.4c0,3.77-3.09,6.87-6.86,6.87h-11.33c-1.72,0-3.44-.69-4.63-1.9l-7.05-6.52c-1.37-1.37-2.23-3.26-2.23-5.15s.86-3.77,2.23-4.97l7.05-6.52c1.19-1.21,2.91-1.9,4.63-1.9h11.33c3.77,0,6.86,3.1,6.86,6.87v13.22Zm-2.74-41.72c-.68,.17-1.38,.35-2.06,.35-1.03,0-2.06-.18-3.09-.69-1.72-.85-2.92-2.23-3.43-3.95l-3.44-11.15c-.68-1.9-.51-3.61,.35-5.32,.85-1.73,2.23-2.93,3.94-3.44,3.61-1.2,7.38,.86,8.58,4.47l3.61,11.15c1.21,3.61-.85,7.39-4.46,8.58Zm30.56,75.37c-11.16,0-20.09,8.93-20.09,20.08s9.1,20.09,20.09,20.09,20.08-9.11,20.08-20.09-8.92-20.08-20.08-20.08Zm0,0c-11.16,0-20.09,8.93-20.09,20.08s9.1,20.09,20.09,20.09,20.08-9.11,20.08-20.09-8.92-20.08-20.08-20.08Zm0,0c-11.16,0-20.09,8.93-20.09,20.08s9.1,20.09,20.09,20.09,20.08-9.11,20.08-20.09-8.92-20.08-20.08-20.08Zm0,0c-11.16,0-20.09,8.93-20.09,20.08s9.1,20.09,20.09,20.09,20.08-9.11,20.08-20.09-8.92-20.08-20.08-20.08Zm0,0c-11.16,0-20.09,8.93-20.09,20.08s9.1,20.09,20.09,20.09,20.08-9.11,20.08-20.09-8.92-20.08-20.08-20.08Zm0,0c-11.16,0-20.09,8.93-20.09,20.08s9.1,20.09,20.09,20.09,20.08-9.11,20.08-20.09-8.92-20.08-20.08-20.08Zm0,0c-11.16,0-20.09,8.93-20.09,20.08s9.1,20.09,20.09,20.09,20.08-9.11,20.08-20.09-8.92-20.08-20.08-20.08Zm0,0c-11.16,0-20.09,8.93-20.09,20.08s9.1,20.09,20.09,20.09,20.08-9.11,20.08-20.09-8.92-20.08-20.08-20.08Zm0,0c-11.16,0-20.09,8.93-20.09,20.08s9.1,20.09,20.09,20.09,20.08-9.11,20.08-20.09-8.92-20.08-20.08-20.08Zm0,0c-11.16,0-20.09,8.93-20.09,20.08s9.1,20.09,20.09,20.09,20.08-9.11,20.08-20.09-8.92-20.08-20.08-20.08Zm0,0c-11.16,0-20.09,8.93-20.09,20.08s9.1,20.09,20.09,20.09,20.08-9.11,20.08-20.09-8.92-20.08-20.08-20.08Zm0,0c-11.16,0-20.09,8.93-20.09,20.08s9.1,20.09,20.09,20.09,20.08-9.11,20.08-20.09-8.92-20.08-20.08-20.08Zm0,0c-11.16,0-20.09,8.93-20.09,20.08s9.1,20.09,20.09,20.09,20.08-9.11,20.08-20.09-8.92-20.08-20.08-20.08Zm0,0c-11.16,0-20.09,8.93-20.09,20.08s9.1,20.09,20.09,20.09,20.08-9.11,20.08-20.09-8.92-20.08-20.08-20.08Zm0,0c-11.16,0-20.09,8.93-20.09,20.08s9.1,20.09,20.09,20.09,20.08-9.11,20.08-20.09-8.92-20.08-20.08-20.08Zm0,0c-11.16,0-20.09,8.93-20.09,20.08s9.1,20.09,20.09,20.09,20.08-9.11,20.08-20.09-8.92-20.08-20.08-20.08Zm0,0c-11.16,0-20.09,8.93-20.09,20.08s9.1,20.09,20.09,20.09,20.08-9.11,20.08-20.09-8.92-20.08-20.08-20.08Zm0,0c-11.16,0-20.09,8.93-20.09,20.08s9.1,20.09,20.09,20.09,20.08-9.11,20.08-20.09-8.92-20.08-20.08-20.08Zm0,0c-11.16,0-20.09,8.93-20.09,20.08s9.1,20.09,20.09,20.09,20.08-9.11,20.08-20.09-8.92-20.08-20.08-20.08Zm135.95,0c-11.16,0-20.08,8.93-20.08,20.08s9.08,20.09,20.08,20.09,20.09-8.93,20.09-20.09-8.93-20.08-20.09-20.08Zm-135.95,0c-11.16,0-20.09,8.93-20.09,20.08s9.1,20.09,20.09,20.09,20.08-9.11,20.08-20.09-8.92-20.08-20.08-20.08Zm135.95,0c-11.16,0-20.08,8.93-20.08,20.08s9.08,20.09,20.08,20.09,20.09-8.93,20.09-20.09-8.93-20.08-20.09-20.08Zm-135.95,0c-11.16,0-20.09,8.93-20.09,20.08s9.1,20.09,20.09,20.09,20.08-9.11,20.08-20.09-8.92-20.08-20.08-20.08Zm0,0c-11.16,0-20.09,8.93-20.09,20.08s9.1,20.09,20.09,20.09,20.08-9.11,20.08-20.09-8.92-20.08-20.08-20.08Zm0,0c-11.16,0-20.09,8.93-20.09,20.08s9.1,20.09,20.09,20.09,20.08-9.11,20.08-20.09-8.92-20.08-20.08-20.08Zm0,0c-11.16,0-20.09,8.93-20.09,20.08s9.1,20.09,20.09,20.09,20.08-9.11,20.08-20.09-8.92-20.08-20.08-20.08Zm0,0c-11.16,0-20.09,8.93-20.09,20.08s9.1,20.09,20.09,20.09,20.08-9.11,20.08-20.09-8.92-20.08-20.08-20.08Zm0,0c-11.16,0-20.09,8.93-20.09,20.08s9.1,20.09,20.09,20.09,20.08-9.11,20.08-20.09-8.92-20.08-20.08-20.08Zm0,0c-11.16,0-20.09,8.93-20.09,20.08s9.1,20.09,20.09,20.09,20.08-9.11,20.08-20.09-8.92-20.08-20.08-20.08Zm0,0c-11.16,0-20.09,8.93-20.09,20.08s9.1,20.09,20.09,20.09,20.08-9.11,20.08-20.09-8.92-20.08-20.08-20.08Zm0,0c-11.16,0-20.09,8.93-20.09,20.08s9.1,20.09,20.09,20.09,20.08-9.11,20.08-20.09-8.92-20.08-20.08-20.08Zm0,0c-11.16,0-20.09,8.93-20.09,20.08s9.1,20.09,20.09,20.09,20.08-9.11,20.08-20.09-8.92-20.08-20.08-20.08Zm0,0c-11.16,0-20.09,8.93-20.09,20.08s9.1,20.09,20.09,20.09,20.08-9.11,20.08-20.09-8.92-20.08-20.08-20.08Zm0,0c-11.16,0-20.09,8.93-20.09,20.08s9.1,20.09,20.09,20.09,20.08-9.11,20.08-20.09-8.92-20.08-20.08-20.08Zm0,0c-11.16,0-20.09,8.93-20.09,20.08s9.1,20.09,20.09,20.09,20.08-9.11,20.08-20.09-8.92-20.08-20.08-20.08Zm0,0c-11.16,0-20.09,8.93-20.09,20.08s9.1,20.09,20.09,20.09,20.08-9.11,20.08-20.09-8.92-20.08-20.08-20.08Zm0,0c-11.16,0-20.09,8.93-20.09,20.08s9.1,20.09,20.09,20.09,20.08-9.11,20.08-20.09-8.92-20.08-20.08-20.08Zm0,0c-11.16,0-20.09,8.93-20.09,20.08s9.1,20.09,20.09,20.09,20.08-9.11,20.08-20.09-8.92-20.08-20.08-20.08Zm0,0c-11.16,0-20.09,8.93-20.09,20.08s9.1,20.09,20.09,20.09,20.08-9.11,20.08-20.09-8.92-20.08-20.08-20.08Zm0,0c-11.16,0-20.09,8.93-20.09,20.08s9.1,20.09,20.09,20.09,20.08-9.11,20.08-20.09-8.92-20.08-20.08-20.08Zm0,0c-11.16,0-20.09,8.93-20.09,20.08s9.1,20.09,20.09,20.09,20.08-9.11,20.08-20.09-8.92-20.08-20.08-20.08Zm239.81-94.25c-1.2-2.75-3.6-4.81-6.53-5.32-11.15-2.23-37.42-7.21-70.38-11.33l-15.62,65.75c-.34,6.35,5.5,14.08,14.59,25.58,11.51,14.76,29.02,37.08,44.13,72.61,11.67,26.95,19.9,50.81,25.92,68.15,6.52,18.71,12.52,36.23,16.3,36.56,24.03-3.43,33.31-30.21,33.31-94.92,0-58.37-31.94-134.94-41.72-157.08Zm-35.87,7.21c9.44,0,17.16,7.73,17.16,17.16s-7.72,17.18-17.16,17.18-17.18-7.73-17.18-17.18,7.73-17.16,17.18-17.16Zm-41.72,2.92l3.61-11.16c1.02-3.6,4.97-5.66,8.58-4.46,1.71,.51,3.09,1.71,3.94,3.43,.69,1.72,.86,3.6,.35,5.32l-3.61,11.17c-.86,2.91-3.61,4.8-6.52,4.8-.69,0-1.38-.18-2.06-.35-3.61-1.03-5.67-4.97-4.29-8.75Zm11.84,60.94c-9.44,0-17.16-7.73-17.16-17.17s7.72-17.16,17.16-17.16,17.17,7.72,17.17,17.16-7.73,17.17-17.17,17.17Zm29.53,29.7c-9.44,0-17.17-7.73-17.17-17.16s7.73-17.17,17.17-17.17,17.16,7.72,17.16,17.17-7.72,17.16-17.16,17.16Zm29.69-29.7c-9.44,0-17.16-7.73-17.16-17.17s7.72-17.16,17.16-17.16,17.18,7.72,17.18,17.16-7.73,17.17-17.18,17.17Zm-97.33,23.18c-11.16,0-20.08,8.93-20.08,20.08s9.08,20.09,20.08,20.09,20.09-8.93,20.09-20.09-8.93-20.08-20.09-20.08Z"/>
  <path d="M409.73,353.05c-6.35-18.37-14.24-41.03-25.75-67.99-14.93-35.01-31.59-56.13-43.59-71.58-6.7-8.41-11.69-14.94-14.08-20.77-5.16,9.61-15.28,15.96-26.79,15.96h-99.22c-11.5,0-21.63-6.35-26.77-15.96-2.41,5.83-7.56,12.36-14.08,20.77-12.02,15.45-28.67,36.57-43.6,71.58-11.51,26.96-19.4,49.78-25.75,67.99-6.52,18.7-10.65,30.54-14.77,35.88l10.48,1.36c4.45,.52,8.74-1.54,10.81-5.49,5.15-9.61,12.7-24.72,18.88-42.4,8.25-23.35,23.35-50.3,66.44-50.3h135.95c43.09,0,58.2,26.95,66.44,50.3,6.17,17.51,13.73,32.79,18.88,42.4,2.23,3.95,6.52,6.01,10.82,5.49l10.47-1.36c-4.12-5.34-8.25-17.01-14.77-35.88Zm-227.79-70.91c-9.96,0-19.23-4.63-25.24-12.52-4.12-5.5-6.35-12.02-6.35-19.06,0-17.34,14.08-31.59,31.59-31.59s31.58,14.08,31.58,31.59-14.07,31.58-31.58,31.58Zm161.19-12.52c-6.01,7.89-15.28,12.52-25.24,12.52-17.34,0-31.59-14.07-31.59-31.58s14.08-31.59,31.59-31.59,31.59,14.08,31.59,31.59c0,6.87-2.06,13.56-6.35,19.06Z"/>
</svg>