<?xml version="1.0" encoding="UTF-8"?>
<svg id="Layer_1" data-name="Layer 1" xmlns="http://www.w3.org/2000/svg" viewBox="0 0 500 500">
  <path d="M317.61,262.49c-16.91,0-30.62,13.71-30.62,30.62s13.71,30.63,30.62,30.63,30.63-13.71,30.63-30.63-13.71-30.62-30.63-30.62Zm-135.66,0c-16.91,0-30.63,13.71-30.63,30.62s13.72,30.63,30.63,30.63,30.63-13.71,30.63-30.63-13.72-30.62-30.63-30.62Zm0,0c-16.91,0-30.63,13.71-30.63,30.62s13.72,30.63,30.63,30.63,30.63-13.71,30.63-30.63-13.72-30.62-30.63-30.62Zm135.66,0c-16.91,0-30.62,13.71-30.62,30.62s13.71,30.63,30.62,30.63,30.63-13.71,30.63-30.63-13.71-30.62-30.63-30.62Zm0,0c-16.91,0-30.62,13.71-30.62,30.62s13.71,30.63,30.62,30.63,30.63-13.71,30.63-30.63-13.71-30.62-30.63-30.62Zm-135.66,0c-16.91,0-30.63,13.71-30.63,30.62s13.72,30.63,30.63,30.63,30.63-13.71,30.63-30.63-13.72-30.62-30.63-30.62Zm309.29,72.9c-6.21-34.2-11.09-58.81-18.04-93.01-.75-3.76-1.69-7.7-2.45-11.65-4.88,32.88-29.87,60.51-64.26,67.08-5.07,1.13-9.96,1.51-15.03,1.51-6.18,0-12.5-.89-18.6-2.33,.09-1.28,.15-2.56,.15-3.88,0-.35,0-.73-.04-1.09,10.65,2.86,21.87,3.16,32.77,1.09,40.77-7.7,67.64-47.35,59.94-88.12-6.95-36.45-39.27-61.82-75.16-61.26-4.32,0-8.46,.57-12.78,1.32-10.14,2.07-19.73,6.01-28.37,11.84,0,.18-.19,.18-.19,.18,0,.19-.19,.19-.19,.19h-.37c-23.68,16.35-36.64,45.85-31.01,75.91,.44,1.86,.85,3.71,1.38,5.57-.14-.02-.27-.02-.4-.02-1.61,0-3.21,.07-4.81,.22-.39-1.58-.77-3.17-1.05-4.83-5.64-29.68,6.01-58.81,27.81-76.85H158.84c5.64,4.7,10.9,10.34,15.22,16.73,12.02,17.66,16.35,38.89,12.4,59.94-.28,1.71-.68,3.32-1.11,4.98-1.41-.12-2.82-.19-4.26-.19,.54-1.92,.99-3.82,1.42-5.73,3.76-19.92-.37-39.84-11.65-56.56-5.45-7.89-12.02-14.47-19.73-19.73h-.18c-4.33-2.82-8.84-5.45-13.53-7.33h-.19c-1.13-.38-2.07-.75-3.19-1.13-.19,0-.38-.19-.57-.19-.94-.37-1.88-.56-2.82-.93-.37-.19-.56-.38-.94-.38-.94-.38-1.69-.56-2.63-.75-.37,0-.75-.19-1.12-.19-1.32-.19-2.45-.56-3.76-.75-1.32-.19-2.45-.38-3.76-.57-.38-.18-.56-.18-.94-.18-.94-.19-1.88-.38-2.82-.38h-.94c-.94,0-1.88-.19-2.82-.19h-4.32c-1.13,0-2.07,.19-3.19,.19h-.38c-1.13,.19-2.25,.19-3.38,.38h-.19c-8.45,.94-16.72,3.38-24.24,7.14h-.19c-.94,.37-2.06,.94-3,1.5-.19,0-.19,.19-.38,.19-.94,.37-1.88,.94-2.82,1.5-.18,.19-.37,.19-.56,.38-17.29,10.71-30.25,28.37-33.82,49.79-7.89,40.78,19.16,80.42,59.94,88.13,10.71,2.04,21.72,1.61,32.2-1-.03,.4-.03,.79-.03,1.18,0,1.26,.05,2.5,.15,3.74-6.07,1.53-12.25,2.28-18.61,2.28-5.07,0-10.14-.57-15.03-1.51-34.38-6.38-59.37-34.19-64.26-66.89-7.7,38.52-12.96,65.95-20.11,104.66-6.01,29.69,10.53,48.48,28,56,17.85,7.7,43.97,6.2,59-15.22,20.86-27.93,33.39-47.8,38.22-55.75,9.45,16.19,26.99,27.11,47.03,27.11,25.41,0,46.79-17.49,52.75-41.07h32.17c5.95,23.58,27.34,41.07,52.72,41.07,20.07,0,37.62-10.93,47.05-27.13,4.91,7.95,17.72,27.83,38.6,55.77,15.22,21.42,41.15,22.92,59,15.22,17.47-7.52,34.2-26.31,28-56ZM193.22,214.57c0-3.38,2.82-6.2,6.2-6.2h18.04c3.39,0,6.2,2.82,6.2,6.2v8.83c0,3.39-2.81,6.2-6.2,6.2h-18.04c-3.38,0-6.2-2.81-6.2-6.2v-8.83Zm-100.34-32.69c0-4.32,3.57-7.89,7.9-7.89h14.84c4.32,0,7.89,3.57,7.89,7.89v13.15c0,1.88-.75,3.76-2.06,5.26l-7.52,8.08c-1.5,1.69-3.57,2.63-5.83,2.63s-4.32-.94-5.82-2.63l-7.33-8.08c-1.31-1.31-2.07-3.38-2.07-5.26v-13.15Zm-8.83,52.42h-13.15c-4.32,0-7.89-3.57-7.89-8.08v-14.84c0-4.32,3.57-7.89,7.89-7.89h13.15c1.88,0,3.76,.75,5.26,2.06l8.08,7.52c1.7,1.5,2.63,3.57,2.63,5.82s-.93,4.33-2.63,5.83l-8.08,7.51c-1.31,1.32-3.38,2.07-5.26,2.07Zm39.09,21.8c0,4.32-3.57,7.89-7.89,7.89h-14.85c-4.32,0-7.89-3.57-7.89-7.89v-13.15c0-1.88,.75-3.76,2.07-5.27l7.51-8.08c1.51-1.69,3.57-2.63,5.83-2.63s4.32,.94,5.82,2.63l7.33,8.08c1.32,1.32,2.07,3.39,2.07,5.27v13.15Zm3.57-23.68l-8.08-7.51c-1.69-1.51-2.63-3.57-2.63-5.83s.94-4.32,2.63-5.64l8.08-7.51c1.31-1.32,3.38-2.07,5.26-2.07h13.15c4.32,0,7.89,3.57,7.89,7.89v14.85c0,4.32-3.57,7.89-7.89,7.89h-13.15c-1.88,0-3.76-.75-5.26-2.07Zm54.24,109.38c-26.83,0-48.68-21.83-48.68-48.69s21.85-48.68,48.68-48.68,48.69,21.85,48.69,48.68-21.83,48.69-48.69,48.69Zm84.05-75.93c0,3.38-2.82,6.2-6.2,6.2h-18.04c-3.38,0-6.2-2.82-6.2-6.2v-8.83c0-3.38,2.82-6.2,6.2-6.2h18.04c3.38,0,6.2,2.82,6.2,6.2v8.83Zm164.6-68.4c11.84,0,21.61,9.77,21.61,21.61s-9.77,21.61-21.61,21.61-21.6-9.77-21.6-21.61,9.77-21.61,21.6-21.61Zm-37.95-37.95c11.84,0,21.61,9.77,21.61,21.61s-9.77,21.6-21.61,21.6-21.61-9.77-21.61-21.6,9.77-21.61,21.61-21.61Zm-115.94,54.49c0-1.88,.94-3.76,2.45-4.89,1.69-1.12,3.57-1.5,5.44-.94l18.23,5.26c2.63,.76,4.32,3.2,4.32,5.83s-1.69,5.07-4.32,5.82l-18.23,5.27c-.56,.18-1.12,.18-1.69,.18-1.12,0-2.44-.56-3.57-1.31-1.5-1.13-2.44-3.01-2.63-4.51v-10.71Zm42.88,127.79c-26.83,0-48.66-21.83-48.66-48.69s21.83-48.68,48.66-48.68,48.71,21.85,48.71,48.68-21.86,48.69-48.71,48.69Zm34.91-101.11c-11.83,0-21.6-9.77-21.6-21.61s9.77-21.61,21.6-21.61,21.61,9.77,21.61,21.61-9.77,21.61-21.61,21.61Zm38.15-5.26c11.84,0,21.42,9.58,21.61,21.61,0,11.84-9.77,21.61-21.61,21.61s-21.61-9.77-21.61-21.61,9.77-21.61,21.61-21.61Zm-74.04,27.06c-16.91,0-30.62,13.71-30.62,30.62s13.71,30.63,30.62,30.63,30.63-13.71,30.63-30.63-13.71-30.62-30.63-30.62Zm-135.66,0c-16.91,0-30.63,13.71-30.63,30.62s13.72,30.63,30.63,30.63,30.63-13.71,30.63-30.63-13.72-30.62-30.63-30.62Zm0,0c-16.91,0-30.63,13.71-30.63,30.62s13.72,30.63,30.63,30.63,30.63-13.71,30.63-30.63-13.72-30.62-30.63-30.62Zm135.66,0c-16.91,0-30.62,13.71-30.62,30.62s13.71,30.63,30.62,30.63,30.63-13.71,30.63-30.63-13.71-30.62-30.63-30.62Zm0,0c-16.91,0-30.62,13.71-30.62,30.62s13.71,30.63,30.62,30.63,30.63-13.71,30.63-30.63-13.71-30.62-30.63-30.62Zm-135.66,0c-16.91,0-30.63,13.71-30.63,30.62s13.72,30.63,30.63,30.63,30.63-13.71,30.63-30.63-13.72-30.62-30.63-30.62Zm135.66,0c-16.91,0-30.62,13.71-30.62,30.62s13.71,30.63,30.62,30.63,30.63-13.71,30.63-30.63-13.71-30.62-30.63-30.62Zm-135.66,0c-16.91,0-30.63,13.71-30.63,30.62s13.72,30.63,30.63,30.63,30.63-13.71,30.63-30.63-13.72-30.62-30.63-30.62Zm135.66,0c-16.91,0-30.62,13.71-30.62,30.62s13.71,30.63,30.62,30.63,30.63-13.71,30.63-30.63-13.71-30.62-30.63-30.62Zm-135.66,0c-16.91,0-30.63,13.71-30.63,30.62s13.72,30.63,30.63,30.63,30.63-13.71,30.63-30.63-13.72-30.62-30.63-30.62Zm-37.58-133.04c-.38-1.69-1.5-3.38-3.19-4.13-1.88-.94-3.95-1.88-5.83-2.63-9.11-3.59-18.23-5.41-27.26-5.41-6.62,0-13.19,.97-19.71,2.97-2.26,.56-4.33,1.31-6.58,2.25-2.07,.75-3.95,1.69-6.01,2.63-1.7,.75-2.82,2.26-3.2,4.13l-3.94,19.92c10.52-5.82,22.17-9.39,34.19-10.14h.38c1.13-.19,2.25-.19,3.38-.19h4.89c.94,0,1.69,.19,2.63,.19,.56,.18,.94,.18,1.31,.18,.94,.19,1.88,.19,2.82,.38,.38,.19,.75,.19,1.13,.19,1.13,.19,2.44,.37,3.76,.56,1.12,.19,2.44,.38,3.57,.75,.56,.19,.94,.19,1.31,.38,.75,.19,1.51,.37,2.26,.56,.37,.19,.94,.38,1.5,.57,.56,.18,1.32,.37,1.88,.56,.56,.19,1.31,.38,1.88,.56,.37,.19,.94,.38,1.31,.57,.76,.37,1.51,.56,2.26,.94,.19,.18,.56,.18,.75,.37,3.01,1.32,5.83,2.63,8.64,4.32l-4.13-20.48Zm-14.66-21.61c-14.28-4.51-28.56-4.69-42.46-.18-2.26,.75-3.95,3-3.95,5.63v3.76h.19c.38-.19,.56-.19,.94-.37,.94-.19,1.69-.57,2.44-.76,.57-.18,.94-.18,1.32-.37,.75-.19,1.31-.38,2.06-.57,.38-.18,.94-.18,1.32-.37,.75,0,1.31-.19,2.07-.38,.37,0,.94-.19,1.31-.19,.75-.18,1.32-.18,2.07-.37,.37,0,.94-.19,1.31-.19,.76,0,1.32-.19,2.07-.19,.56-.18,.94-.18,1.32-.18,.75,0,1.69-.19,2.44-.19h8.83c.75,0,1.5,.19,2.26,.19,.37,0,.93,.18,1.31,.18,.75,0,1.32,0,2.07,.19,.37,0,.94,.19,1.31,.19,.75,.19,1.32,.19,2.07,.37,.56,0,.94,0,1.5,.19,.75,0,1.32,.19,2.07,.38,.38,.19,.94,.19,1.31,.37,.76,.19,1.32,.38,2.07,.57,.38,.19,.94,.19,1.32,.37,.75,.19,1.5,.57,2.25,.76,.38,.18,.75,.18,1.13,.37h.19v-3.57c0-2.63-1.69-4.88-4.14-5.64Zm297.45,21.24c-.37-1.69-1.5-3.39-3.19-4.14-2.07-.94-4.14-1.88-6.02-2.63-2.06-.75-3.94-1.5-5.82-2.06-.19,0-.56-.19-.75-.19-.75-.19-1.51-.38-2.26-.57-.19,0-.56-.18-.94-.18-.56-.19-1.31-.38-2.06-.57-.38,0-.76-.19-1.13-.19-.75-.18-1.32-.18-2.07-.37-.37,0-.94-.19-1.31-.19-.57,0-1.32-.19-1.88-.19s-.94-.19-1.51-.19c-.56-.18-1.12-.18-1.69-.18-.37-.19-.94-.19-1.5-.19h-6.76c-.57,0-1.13,.19-1.7,.19-.56,.18-1.12,.18-1.69,.18s-1.12,.19-1.69,.19-1.13,.19-1.69,.19c-.56,.19-1.13,.19-1.69,.38-.56,.18-1.13,.18-1.69,.37s-1.13,.19-1.69,.38c-.57,.19-1.13,.19-1.69,.37-.57,.19-1.32,.38-1.88,.57-.57,.19-.94,.19-1.51,.37-.75,.19-1.31,.38-2.06,.57-.38,0-.94,.19-1.32,.37-1.13,.38-2.25,.94-3.38,1.32-1.88,.75-3.76,1.69-5.82,2.63-1.7,.75-2.82,2.25-3.2,4.13l-4.32,19.92c7.7-4.51,16.16-7.7,25.18-9.39,3.57-.76,7.14-1.13,10.71-1.32h5.82c13.34,.19,26.31,3.76,38.15,10.33l-3.95-19.91Zm-14.47-21.24c-6.76-2.25-13.9-3.38-20.85-3.38s-14.47,1.13-21.61,3.38c-2.45,.76-4.14,3.01-4.14,5.64h-.37v3.76h.19c.18-.19,.56-.19,.93-.38,.76-.18,1.7-.56,2.45-.75,.56-.19,.94-.19,1.31-.37,.75-.19,1.51-.38,2.26-.57,.37-.19,.94-.19,1.31-.37,.75-.19,1.51-.38,2.26-.57,.37,0,.94-.19,1.31-.19,.75-.18,1.51-.18,2.26-.37,.37,0,.75-.19,1.13-.19,.75-.19,1.5-.37,2.25-.37,.38-.19,.75-.19,1.13-.19,.75,0,1.69-.19,2.63-.19h.75c2.44-.19,4.7-.19,6.95,0h.75c.94,0,1.69,.19,2.63,.19,.38,.19,.76,.19,1.13,.19,.75,0,1.51,0,2.26,.18,.37,0,.75,.19,1.12,.19,.76,.19,1.51,.19,2.26,.38,.56,0,.94,.18,1.31,.18,.57,.19,1.32,.38,2.07,.57,.56,.19,.94,.19,1.32,.37l2.25,.57c.38,.19,.75,.19,1.13,.37,.75,.19,1.69,.57,2.44,.76,.38,.18,.56,.18,.94,.37h.19v-3.57c0-2.63-1.5-4.88-3.95-5.64Zm-95.08,154.65c-16.91,0-30.62,13.71-30.62,30.62s13.71,30.63,30.62,30.63,30.63-13.71,30.63-30.63-13.71-30.62-30.63-30.62Zm-135.66,0c-16.91,0-30.63,13.71-30.63,30.62s13.72,30.63,30.63,30.63,30.63-13.71,30.63-30.63-13.72-30.62-30.63-30.62Z"/>
</svg>