<?xml version="1.0" encoding="UTF-8"?>
<svg id="Layer_1" data-name="Layer 1" xmlns="http://www.w3.org/2000/svg" viewBox="0 0 500 500">
  <path d="M308.68,230.13c-15.65,0-28.29,12.84-28.29,28.31s12.82,28.31,28.29,28.31,28.12-12.64,28.31-28.31c0-15.66-12.64-28.31-28.31-28.31Zm0,0c-15.65,0-28.29,12.84-28.29,28.31s12.82,28.31,28.29,28.31,28.12-12.64,28.31-28.31c0-15.66-12.64-28.31-28.31-28.31Zm0,0c-15.65,0-28.29,12.84-28.29,28.31s12.82,28.31,28.29,28.31,28.12-12.64,28.31-28.31c0-15.66-12.64-28.31-28.31-28.31Zm0,0c-15.65,0-28.29,12.84-28.29,28.31s12.82,28.31,28.29,28.31,28.12-12.64,28.31-28.31c0-15.66-12.64-28.31-28.31-28.31Zm0,0c-15.65,0-28.29,12.84-28.29,28.31s12.82,28.31,28.29,28.31,28.12-12.64,28.31-28.31c0-15.66-12.64-28.31-28.31-28.31Zm0,0c-15.65,0-28.29,12.84-28.29,28.31s12.82,28.31,28.29,28.31,28.12-12.64,28.31-28.31c0-15.66-12.64-28.31-28.31-28.31Zm0,0c-15.65,0-28.29,12.84-28.29,28.31s12.82,28.31,28.29,28.31,28.12-12.64,28.31-28.31c0-15.66-12.64-28.31-28.31-28.31Zm0,0c-15.65,0-28.29,12.84-28.29,28.31s12.82,28.31,28.29,28.31,28.12-12.64,28.31-28.31c0-15.66-12.64-28.31-28.31-28.31Zm0,0c-15.65,0-28.29,12.84-28.29,28.31s12.82,28.31,28.29,28.31,28.12-12.64,28.31-28.31c0-15.66-12.64-28.31-28.31-28.31Zm0,0c-15.65,0-28.29,12.84-28.29,28.31s12.82,28.31,28.29,28.31,28.12-12.64,28.31-28.31c0-15.66-12.64-28.31-28.31-28.31Zm0,0c-15.65,0-28.29,12.84-28.29,28.31s12.82,28.31,28.29,28.31,28.12-12.64,28.31-28.31c0-15.66-12.64-28.31-28.31-28.31Zm0,0c-15.65,0-28.29,12.84-28.29,28.31s12.82,28.31,28.29,28.31,28.12-12.64,28.31-28.31c0-15.66-12.64-28.31-28.31-28.31Zm0,0c-15.65,0-28.29,12.84-28.29,28.31s12.82,28.31,28.29,28.31,28.12-12.64,28.31-28.31c0-15.66-12.64-28.31-28.31-28.31Zm0,0c-15.65,0-28.29,12.84-28.29,28.31s12.82,28.31,28.29,28.31,28.12-12.64,28.31-28.31c0-15.66-12.64-28.31-28.31-28.31Zm0,0c-15.65,0-28.29,12.84-28.29,28.31s12.82,28.31,28.29,28.31,28.12-12.64,28.31-28.31c0-15.66-12.64-28.31-28.31-28.31Zm0,0c-15.65,0-28.29,12.84-28.29,28.31s12.82,28.31,28.29,28.31,28.12-12.64,28.31-28.31c0-15.66-12.64-28.31-28.31-28.31Zm104.15-94.66c-.17-.17-.17-.34-.34-.5-.16-.17-2.01-1.85-4.86-4.19v-6.88c0-2.18-1-4.35-2.85-5.7-8.55-6.38-26-17.28-45.79-17.28-7.37,0-13.74,.68-19.44,2.36-3.02,.83-5.2,3.69-5.2,6.88v5.19c-6.21,2.35-11.23,5.36-16.27,8.38-13.07,7.88-27.83,16.94-68.09,16.94s-55-8.89-68.07-16.94c-5.2-3.18-10.06-6.19-16.27-8.38v-5.19c0-3.19-2.18-6.05-5.2-6.88-5.7-1.51-12.07-2.36-19.44-2.36-19.79,0-37.07,10.74-45.79,17.28-1.85,1.35-2.85,3.52-2.85,5.7v6.88c-2.85,2.34-4.53,4.02-4.86,4.19-.17,.16-.34,.33-.34,.5-.5,1.01-46.29,97.1-46.29,188.32,0,68.08,24.33,75.29,34.73,75.29,34.54,0,46.77-14.25,59.86-29.35,17.44-20.12,37.23-43.08,114.52-43.08s97.27,22.79,114.54,43.08c13.09,15.1,25.32,29.35,59.86,29.35,10.4,0,34.73-7.38,34.73-75.29,0-91.22-45.79-187.31-46.29-188.32Zm-39.79,15.47c7.36,0,13.39,6.05,13.39,13.4s-6.03,13.38-13.39,13.38-13.52-6.03-13.38-13.38c0-7.35,6.03-13.4,13.38-13.4Zm-79.95,25.69h7.55c6.36,0,11.54,5.18,11.54,11.54s-5.18,11.54-11.54,11.54h-7.55c-6.36,0-11.54-5.17-11.54-11.54s5.18-11.54,11.54-11.54Zm-162.97,45.59c-22.18,0-40.12-17.93-40.12-40.1s18.09-40.11,40.12-40.11,40.1,17.93,40.1,40.11-17.93,40.1-40.1,40.1Zm42.66,7.82l-.9,11.87c-.36,3.95-3.41,7.01-7.37,7.37l-11.68,.9c3.23-9.52,10.6-16.89,19.95-20.14Zm-19.95,41.9l11.68,.9c3.96,.36,7.01,3.42,7.37,7.37l.9,11.69c-9.35-3.24-16.54-10.62-19.95-19.96Zm42.24,19.96l.91-11.69c.36-3.95,3.41-7.01,7.38-7.37l11.68-.9c-3.24,9.34-10.62,16.72-19.97,19.96Zm20.14-27.9l-.03,.1v.17c-.08,.45-.13,.95-.17,1.43,0,.13-.02,.25-.03,.36l-12.28,1.01c-6.75,.59-12.07,5.92-12.68,12.67l-.83,12.5c-1.8,.3-3.53,.53-5.26,.53-1.05,0-2.24,0-3.2-.16l-.11-.02h-.14l-.09-.08-.36-.08c-.48-.09-.92-.14-1.35-.19-.07,0-.14-.01-.21-.02l-.98-12.47c-.62-6.76-5.95-12.09-12.68-12.68l-12.33-1.01c-.23-1.6-.34-3.34-.34-5.08s.11-3.5,.34-5.1l12.31-1.01c6.75-.59,12.08-5.92,12.68-12.67l1-12.54c1.51-.28,3.19-.41,5.1-.41,.93,0,1.97,.03,3.16,.09h.25c.2,.01,.41,.05,.61,.08,.33,.06,.68,.1,1.01,.1,.14,0,.28,.02,.43,.05l.98,12.44c.62,6.76,5.94,12.09,12.68,12.68l12.35,1.01c.08,.5,.14,1.01,.14,1.5v.28l.03,.1c.15,.99,.15,1.96,.15,3.22,0,1.03,0,2.23-.15,3.2Zm-19.96-33.96c9.17,3.25,16.55,10.62,19.78,19.96l-11.51-.9c-3.94-.36-7-3.42-7.36-7.37l-.91-11.69Zm11.66-30.33h-7.55c-6.36,0-11.54-5.17-11.54-11.54s5.18-11.54,11.54-11.54h7.55c6.36,0,11.54,5.18,11.54,11.54s-5.18,11.54-11.54,11.54Zm43.08,14.43c-14.3,0-25.95-11.65-25.95-25.97s11.65-25.96,25.95-25.96,25.97,11.64,25.97,25.96-11.65,25.97-25.97,25.97Zm58.7,84.4c-22.18,0-40.11-17.93-40.11-40.1s18.08-40.1,40.11-40.1,40.11,17.93,40.11,40.1-17.93,40.1-40.11,40.1Zm41.7-97.19c-7.48,0-13.4-6.03-13.4-13.38s6.04-13.4,13.4-13.4,13.39,6.05,13.39,13.4-6.04,13.38-13.39,13.38Zm22.65,20.88c-7.35,0-13.39-6.04-13.39-13.4s6.04-13.38,13.39-13.38,13.39,6.03,13.39,13.38-6.03,13.4-13.39,13.4Zm22.66-20.88c-7.35,0-13.4-6.03-13.4-13.39s6.05-13.39,13.4-13.39,13.39,6.05,13.39,13.39-6.05,13.39-13.39,13.39Zm-87.02,28.78c-15.65,0-28.29,12.84-28.29,28.31s12.82,28.31,28.29,28.31,28.12-12.64,28.31-28.31c0-15.66-12.64-28.31-28.31-28.31Zm0,0c-15.65,0-28.29,12.84-28.29,28.31s12.82,28.31,28.29,28.31,28.12-12.64,28.31-28.31c0-15.66-12.64-28.31-28.31-28.31Zm0,0c-15.65,0-28.29,12.84-28.29,28.31s12.82,28.31,28.29,28.31,28.12-12.64,28.31-28.31c0-15.66-12.64-28.31-28.31-28.31Zm0,0c-15.65,0-28.29,12.84-28.29,28.31s12.82,28.31,28.29,28.31,28.12-12.64,28.31-28.31c0-15.66-12.64-28.31-28.31-28.31Zm0,0c-15.65,0-28.29,12.84-28.29,28.31s12.82,28.31,28.29,28.31,28.12-12.64,28.31-28.31c0-15.66-12.64-28.31-28.31-28.31Zm0,0c-15.65,0-28.29,12.84-28.29,28.31s12.82,28.31,28.29,28.31,28.12-12.64,28.31-28.31c0-15.66-12.64-28.31-28.31-28.31Zm0,0c-15.65,0-28.29,12.84-28.29,28.31s12.82,28.31,28.29,28.31,28.12-12.64,28.31-28.31c0-15.66-12.64-28.31-28.31-28.31Zm0,0c-15.65,0-28.29,12.84-28.29,28.31s12.82,28.31,28.29,28.31,28.12-12.64,28.31-28.31c0-15.66-12.64-28.31-28.31-28.31Zm0,0c-15.65,0-28.29,12.84-28.29,28.31s12.82,28.31,28.29,28.31,28.12-12.64,28.31-28.31c0-15.66-12.64-28.31-28.31-28.31Zm0,0c-15.65,0-28.29,12.84-28.29,28.31s12.82,28.31,28.29,28.31,28.12-12.64,28.31-28.31c0-15.66-12.64-28.31-28.31-28.31Zm0,0c-15.65,0-28.29,12.84-28.29,28.31s12.82,28.31,28.29,28.31,28.12-12.64,28.31-28.31c0-15.66-12.64-28.31-28.31-28.31Zm0,0c-15.65,0-28.29,12.84-28.29,28.31s12.82,28.31,28.29,28.31,28.12-12.64,28.31-28.31c0-15.66-12.64-28.31-28.31-28.31Zm0,0c-15.65,0-28.29,12.84-28.29,28.31s12.82,28.31,28.29,28.31,28.12-12.64,28.31-28.31c0-15.66-12.64-28.31-28.31-28.31Zm0,0c-15.65,0-28.29,12.84-28.29,28.31s12.82,28.31,28.29,28.31,28.12-12.64,28.31-28.31c0-15.66-12.64-28.31-28.31-28.31Zm0,0c-15.65,0-28.29,12.84-28.29,28.31s12.82,28.31,28.29,28.31,28.12-12.64,28.31-28.31c0-15.66-12.64-28.31-28.31-28.31Z"/>
</svg>