<?xml version="1.0" encoding="UTF-8" standalone="no"?>
<!-- Created with Inkscape (http://www.inkscape.org/) -->

<svg
   width="500"
   height="500"
   viewBox="0 0 132.29166 132.29167"
   version="1.1"
   id="svg8"
   sodipodi:docname="gog.svg"
   inkscape:version="1.3.2 (091e20ef0f, 2023-11-25, custom)"
   xml:space="preserve"
   xmlns:inkscape="http://www.inkscape.org/namespaces/inkscape"
   xmlns:sodipodi="http://sodipodi.sourceforge.net/DTD/sodipodi-0.dtd"
   xmlns="http://www.w3.org/2000/svg"
   xmlns:svg="http://www.w3.org/2000/svg"
   xmlns:rdf="http://www.w3.org/1999/02/22-rdf-syntax-ns#"
   xmlns:cc="http://creativecommons.org/ns#"
   xmlns:dc="http://purl.org/dc/elements/1.1/"><defs
     id="defs2"><rect
       x="66.771182"
       y="108.69892"
       width="374.99453"
       height="218.33377"
       id="rect2" /><rect
       x="53.983325"
       y="50.577051"
       width="601.27373"
       height="412.49454"
       id="rect1" /><inkscape:path-effect
       effect="perspective-envelope"
       up_left_point="21.827091,197.06965"
       up_right_point="113.68763,197.06965"
       down_left_point="36.89482,283.54086"
       down_right_point="98.671497,283.54086"
       id="path-effect31"
       is_visible="true"
       lpeversion="1"
       deform_type="perspective"
       horizontal_mirror="false"
       vertical_mirror="false"
       overflow_perspective="false" /><inkscape:path-effect
       effect="perspective-envelope"
       up_left_point="24.989688,189.69801"
       up_right_point="99.392279,199.00479"
       down_left_point="24.989688,272.0103"
       down_right_point="99.339553,263.45845"
       id="path-effect30"
       is_visible="true"
       lpeversion="1"
       deform_type="perspective"
       horizontal_mirror="false"
       vertical_mirror="false"
       overflow_perspective="false" /><inkscape:path-effect
       effect="perspective-envelope"
       up_left_point="33.274814,221.62319"
       up_right_point="93.216988,221.25282"
       down_left_point="12.846244,284.15374"
       down_right_point="119.44542,284.15374"
       id="path-effect6"
       is_visible="true"
       lpeversion="1"
       deform_type="perspective"
       horizontal_mirror="false"
       vertical_mirror="false"
       overflow_perspective="false" /><rect
       x="-51.952264"
       y="219.19037"
       width="51.952264"
       height="89.676296"
       id="rect5" /><rect
       x="21.994148"
       y="60.7689"
       width="333.55285"
       height="273.85825"
       id="rect35" /><rect
       x="67.041582"
       y="122.30159"
       width="319.6528"
       height="201.90539"
       id="rect34" /><rect
       x="188.5884"
       y="99.673461"
       width="260.00953"
       height="279.50904"
       id="rect33" /><inkscape:perspective
       sodipodi:type="inkscape:persp3d"
       inkscape:vp_x="6.1093449 : 34.72819 : 1"
       inkscape:vp_y="0 : 1000 : 0"
       inkscape:vp_z="75.71349 : 35.580862 : 1"
       inkscape:persp3d-origin="66.14583 : 44.097223 : 1"
       id="perspective16" /><rect
       x="-51.952263"
       y="219.19037"
       width="51.952263"
       height="89.676292"
       id="rect5-6" /><rect
       x="-51.952263"
       y="219.19037"
       width="51.952263"
       height="89.676292"
       id="rect5-6-9" /><rect
       x="-51.952263"
       y="219.19037"
       width="51.952263"
       height="89.676292"
       id="rect5-1" /><clipPath
       clipPathUnits="userSpaceOnUse"
       id="clipPath3"><path
         d="M 0,141.73 H 141.73 V 0 H 0 Z"
         transform="translate(-59.442401,-63.590299)"
         id="path3" /></clipPath><clipPath
       clipPathUnits="userSpaceOnUse"
       id="clipPath5"><path
         d="M 0,141.73 H 141.73 V 0 H 0 Z"
         transform="translate(-61.816901,-72.305202)"
         id="path5" /></clipPath><clipPath
       clipPathUnits="userSpaceOnUse"
       id="clipPath7"><path
         d="M 0,141.73 H 141.73 V 0 H 0 Z"
         transform="translate(-92.921905,-53.893099)"
         id="path7" /></clipPath><clipPath
       clipPathUnits="userSpaceOnUse"
       id="clipPath9"><path
         d="M 0,141.73 H 141.73 V 0 H 0 Z"
         transform="translate(-92.930702,-72.305202)"
         id="path9" /></clipPath><clipPath
       clipPathUnits="userSpaceOnUse"
       id="clipPath11"><path
         d="M 0,141.73 H 141.73 V 0 H 0 Z"
         transform="translate(-74.192402,-84.444902)"
         id="path11" /></clipPath><clipPath
       clipPathUnits="userSpaceOnUse"
       id="clipPath13"><path
         d="M 0,141.73 H 141.73 V 0 H 0 Z"
         transform="translate(-71.646002,-62.649904)"
         id="path13" /></clipPath><clipPath
       clipPathUnits="userSpaceOnUse"
       id="clipPath15"><path
         d="M 0,141.73 H 141.73 V 0 H 0 Z"
         transform="translate(-97.932602,-48.441904)"
         id="path15" /></clipPath></defs><sodipodi:namedview
     id="base"
     pagecolor="#ffffff"
     bordercolor="#666666"
     borderopacity="1.0"
     inkscape:pageopacity="0.0"
     inkscape:pageshadow="2"
     inkscape:zoom="0.98994949"
     inkscape:cx="259.10413"
     inkscape:cy="89.903577"
     inkscape:document-units="mm"
     inkscape:current-layer="layer1"
     showgrid="true"
     units="px"
     inkscape:window-width="1916"
     inkscape:window-height="1156"
     inkscape:window-x="0"
     inkscape:window-y="21"
     inkscape:window-maximized="1"
     showguides="true"
     inkscape:snap-object-midpoints="true"
     inkscape:showpageshadow="2"
     inkscape:pagecheckerboard="0"
     inkscape:deskcolor="#d1d1d1"><inkscape:grid
       type="xygrid"
       id="grid4988"
       spacingx="66.145832"
       spacingy="66.145832"
       snapvisiblegridlinesonly="true"
       enabled="false"
       originx="0"
       originy="0"
       units="px"
       visible="true" /><inkscape:page
       x="0"
       y="0"
       width="132.29166"
       height="132.29167"
       id="page1"
       margin="0"
       bleed="0" /><inkscape:page
       x="142.29166"
       y="0"
       width="49.999191"
       height="49.999195"
       id="page2"
       margin="59.105335 56.794132 58.132 56.794266"
       bleed="0" /></sodipodi:namedview><metadata
     id="metadata5"><rdf:RDF><cc:Work
         rdf:about=""><dc:format>image/svg+xml</dc:format><dc:type
           rdf:resource="http://purl.org/dc/dcmitype/StillImage" /></cc:Work></rdf:RDF></metadata><g
     inkscape:label="Layer 1"
     inkscape:groupmode="layer"
     id="layer1"
     transform="translate(0,-164.70832)"><path
       id="path2"
       clip-path="url(#clipPath3)"
       style="fill:#000000;fill-opacity:1;fill-rule:evenodd;stroke:none"
       d="m -12.735351,34.541104 c -1.133999,0 -2.162786,-0.460568 -2.904786,-1.205567 -0.743999,-0.740999 -1.207031,-1.773251 -1.207031,-2.90625 v -45.577148 c 0,-1.133999 0.463032,-2.167181 1.207031,-2.90918 0.742,-0.742999 1.770787,-1.204102 2.904786,-1.204102 h 48.314945 c 1.133999,0 2.164251,0.461103 2.90625,1.204102 0.743999,0.741999 1.207031,1.775181 1.207031,2.90918 v 45.577148 c 0,1.132999 -0.463032,2.165251 -1.207031,2.90625 -0.741999,0.744999 -1.772251,1.205567 -2.90625,1.205567 z m 0,-1.202637 h 48.314945 c 0.804999,-0.001 1.529641,-0.32554 2.05664,-0.852539 0.529,-0.53 0.854004,-1.251642 0.854004,-2.056641 v -45.577148 c 0,-0.806999 -0.325004,-1.530571 -0.854004,-2.059571 -0.526999,-0.526999 -1.251641,-0.851074 -2.05664,-0.851074 h -48.314945 c -0.805,0 -1.528642,0.324075 -2.056641,0.851074 -0.528,0.529 -0.850539,1.252572 -0.852539,2.059571 v 45.577148 c 0.002,0.804999 0.324539,1.526641 0.852539,2.056641 0.527999,0.526999 1.251641,0.851539 2.056641,0.852539 z m 4.5527344,-8.354004 c -1.3619987,0 -2.4624024,-1.102404 -2.4624024,-2.462402 v -8.094727 c 0,-1.359999 1.1004037,-2.460937 2.4624024,-2.460937 h 5.4770512 v 3.172851 h -3.8115238 -0.010254 c -0.5229994,0 -0.9448243,0.426684 -0.9448243,0.950684 v 0.0044 4.760742 0.0073 c 0,0.522999 0.4218249,0.946289 0.9448243,0.946289 h 0.010254 4.7636723 0.010254 c 0.5239995,0 0.94335943,-0.42329 0.94335943,-0.946289 v -0.0073 -10.473632 -0.0059 c 0,-0.5219993 -0.41935993,-0.9506834 -0.94335943,-0.9506834 h -0.010254 -8.8916021 V 6.252041 h 10.55712955 c 1.35899865,0 2.46240255,1.0974038 2.46240255,2.4624024 V 22.522061 c 0,1.359998 -1.1034039,2.462402 -2.46240255,2.462402 z m 31.1162136,0 c -1.361999,0 -2.463868,-1.102404 -2.463868,-2.462402 v -8.094727 c 0,-1.359999 1.101869,-2.460937 2.463868,-2.460937 h 5.474121 v 3.172851 h -3.810059 -0.0088 c -0.517999,0 -0.941894,0.426684 -0.941894,0.950684 v 0.0044 4.760742 0.0073 c 0,0.522999 0.423895,0.946289 0.941894,0.946289 h 0.0088 4.768067 0.0059 c 0.525,0 0.94629,-0.42329 0.94629,-0.946289 v -0.0073 -10.473632 -0.0059 c 0,-0.5219993 -0.42129,-0.9506834 -0.94629,-0.9506834 h -0.0059 -8.895997 V 6.252041 h 10.55713 c 1.356999,0 2.460938,1.0974038 2.460938,2.4624024 V 22.522061 c 0,1.359998 -1.103939,2.462402 -2.460938,2.462402 z m -15.5610367,-0.0015 c -1.3589986,0 -2.458008,-1.100939 -2.458008,-2.460937 v -8.094727 c 0,-1.359999 1.0990094,-2.460937 2.458008,-2.460937 h 8.0991217 c 1.355999,0 2.460938,1.100938 2.460938,2.460937 v 8.094727 c 0,1.359998 -1.104939,2.460937 -2.460938,2.460937 z m 1.661133,-3.172851 h 0.00732 4.7636727 0.0088 c 0.525999,0 0.936035,-0.424755 0.936035,-0.947754 v -0.0073 -4.759277 -0.0059 c 0,-0.524 -0.410036,-0.950684 -0.936035,-0.950684 h -0.0088 -4.7636727 -0.00732 c -0.5249995,0 -0.9462892,0.426684 -0.9462892,0.950684 v 0.0059 4.759277 0.0073 c 0,0.522999 0.4212897,0.947754 0.9462892,0.947754 z M -8.207519,3.1260645 c -1.3429986,0 -2.428711,-1.0854584 -2.428711,-2.41845704 V -7.2713964 c 0,-1.3389987 1.0857124,-2.4257813 2.428711,-2.4257813 v -0.00732 H 1.1774725e-6 v 3.1303711 H -5.8857415 -6.565429 -6.5771478 c -0.5159994,0 -0.9301758,0.4230356 -0.9301758,0.9360351 l 0.00293,0.00439 h -0.00293 v 4.69335934 h 0.00293 c 0,0.005 -0.00293,0.005859 -0.00293,0.005859 0,0.51699949 0.4141764,0.934570315248 0.9301758,0.934570315248 H -6.565429 1.1774725e-6 V 3.1260645 Z m 13.1381846,0 c -1.3429986,0 -2.4272463,-1.0869232 -2.4272463,-2.41992189 V -7.2728613 c 0,-1.3389987 1.0842477,-2.4243164 2.4272463,-2.4243164 h 7.9775394 c 1.337999,0 2.422852,1.0853177 2.422852,2.4243164 v 7.97900391 c 0,1.33299869 -1.084853,2.41992189 -2.422852,2.41992189 z m 15.3325204,0 c -1.342998,0 -2.427246,-1.0869232 -2.427246,-2.41992189 V -9.7045019 h 3.127442 v 8.76416014 0.005859 c 0,0.51599949 0.413641,0.934570315248 0.93164,0.934570315248 h 0.0073 2.191406 V -9.6971777 h 3.128906 v 8.75683594 0.005859 c 0,0.51599949 0.412177,0.934570315248 0.930176,0.934570315248 h 0.01172 2.187012 V -9.6971777 h 3.127442 V 3.1260645 Z M 6.5625017,8.7925248e-5 h 0.010254 4.6933593 0.0088 c 0.514,0 0.928711,-0.418570825248 0.928711,-0.934570315248 v -0.005859 -4.69335931 c 0,-0.5149995 -0.414711,-0.9360352 -0.928711,-0.9360352 -0.005,0 -0.0048,0.00439 -0.0088,0.00439 v -0.00439 H 6.5727556 v 0.00439 c 0,0 -0.00525,-0.00439 -0.010254,-0.00439 -0.5159995,0 -0.9301759,0.4210357 -0.9301759,0.9360352 v 4.69335931 0.005859 c 0,0.51599949 0.4141764,0.934570315248 0.930176,0.934570315248 z"
       transform="matrix(1.9552644,0,0,-1.9552645,43.811133,245.79234)" /></g></svg>
