<?xml version="1.0" encoding="UTF-8" standalone="no"?>
<!-- Created with Inkscape (http://www.inkscape.org/) -->

<svg
   width="500"
   height="500"
   viewBox="0 0 132.29166 132.29167"
   version="1.1"
   id="svg8"
   sodipodi:docname="icon-shopping-cart.svg"
   inkscape:version="1.3 (0e150ed6c4, 2023-07-21)"
   xmlns:inkscape="http://www.inkscape.org/namespaces/inkscape"
   xmlns:sodipodi="http://sodipodi.sourceforge.net/DTD/sodipodi-0.dtd"
   xmlns="http://www.w3.org/2000/svg"
   xmlns:svg="http://www.w3.org/2000/svg"
   xmlns:rdf="http://www.w3.org/1999/02/22-rdf-syntax-ns#"
   xmlns:cc="http://creativecommons.org/ns#"
   xmlns:dc="http://purl.org/dc/elements/1.1/">
  <defs
     id="defs2">
    <inkscape:perspective
       sodipodi:type="inkscape:persp3d"
       inkscape:vp_x="6.1093449 : 34.72819 : 1"
       inkscape:vp_y="0 : 1000 : 0"
       inkscape:vp_z="75.71349 : 35.580862 : 1"
       inkscape:persp3d-origin="66.14583 : 44.097223 : 1"
       id="perspective16" />
  </defs>
  <sodipodi:namedview
     id="base"
     pagecolor="#ffffff"
     bordercolor="#666666"
     borderopacity="1.0"
     inkscape:pageopacity="0.0"
     inkscape:pageshadow="2"
     inkscape:zoom="1.4"
     inkscape:cx="283.21428"
     inkscape:cy="129.28571"
     inkscape:document-units="mm"
     inkscape:current-layer="layer1"
     showgrid="true"
     units="px"
     inkscape:window-width="1916"
     inkscape:window-height="1153"
     inkscape:window-x="0"
     inkscape:window-y="21"
     inkscape:window-maximized="1"
     showguides="false"
     inkscape:snap-object-midpoints="true"
     inkscape:showpageshadow="2"
     inkscape:pagecheckerboard="0"
     inkscape:deskcolor="#d1d1d1">
    <inkscape:grid
       type="xygrid"
       id="grid4988"
       spacingx="66.145832"
       spacingy="66.145832"
       snapvisiblegridlinesonly="true"
       enabled="false"
       originx="0"
       originy="0"
       units="px"
       visible="true" />
  </sodipodi:namedview>
  <metadata
     id="metadata5">
    <rdf:RDF>
      <cc:Work
         rdf:about="">
        <dc:format>image/svg+xml</dc:format>
        <dc:type
           rdf:resource="http://purl.org/dc/dcmitype/StillImage" />
      </cc:Work>
    </rdf:RDF>
  </metadata>
  <g
     inkscape:label="Layer 1"
     inkscape:groupmode="layer"
     id="layer1"
     transform="translate(0,-164.70832)">
    <path
       id="path1"
       style="color:#000000;fill:#000000;stroke-linecap:round;stroke-linejoin:round;-inkscape-stroke:none"
       d="M 11.83597 187.49039 C 9.2600749 187.49109 7.1437966 189.60569 7.1427165 192.18158 C 7.1414265 194.75912 9.2584389 196.87827 11.83597 196.87897 L 21.314461 196.87897 L 22.599654 202.68378 A 1.3230472 1.3230472 0 0 0 22.601721 202.68585 L 31.429606 242.54285 L 33.935396 253.85947 C 34.409638 255.99545 36.316135 257.53048 38.50411 257.53728 L 104.21121 257.7383 C 106.78753 257.7463 108.9106 255.63644 108.91997 253.06055 C 108.92997 250.48295 106.81771 248.35868 104.24015 248.34973 L 42.288892 248.16007 L 41.851709 246.18758 L 107.60739 245.79278 C 109.62427 245.78168 111.41896 244.4717 112.04484 242.55473 L 124.92002 203.1251 C 125.89733 200.12738 123.61026 196.97506 120.45725 196.97457 L 30.951082 196.97457 L 29.665889 191.1682 A 1.3230472 1.3230472 0 0 0 29.665889 191.16769 A 1.3230472 1.3230472 0 0 0 29.665889 191.16717 A 1.3230472 1.3230472 0 0 0 29.665889 191.16665 A 1.3230472 1.3230472 0 0 0 29.665889 191.16614 C 29.190661 189.02577 27.276227 187.49149 25.08374 187.49039 L 11.83597 187.49039 z M 33.031059 206.36314 L 113.98426 206.36314 L 104.16987 236.42177 L 39.77535 236.81038 L 33.031059 206.36314 z M 42.548824 260.08596 C 38.661744 260.08607 35.482344 263.26512 35.482589 267.1522 C 35.482702 271.03903 38.661991 274.21885 42.548824 274.21895 C 46.435898 274.2192 49.614947 271.03927 49.615059 267.1522 C 49.615306 263.26488 46.436145 260.08572 42.548824 260.08596 z M 98.26377 260.08596 C 94.376689 260.08607 91.196772 263.26512 91.197017 267.1522 C 91.197129 271.03903 94.376936 274.21885 98.26377 274.21895 C 102.15084 274.2192 105.32989 271.03927 105.33 267.1522 C 105.33024 263.26488 102.15109 260.08572 98.26377 260.08596 z " />
    <g
       id="path13"
       transform="matrix(1.9083776,0,0,3.3780636,-80.736187,-642.00313)" />
  </g>
</svg>
