<?xml version="1.0" encoding="UTF-8" standalone="no"?>
<!-- Created with Inkscape (http://www.inkscape.org/) -->

<svg
   width="500"
   height="500"
   viewBox="0 0 132.29166 132.29167"
   version="1.1"
   id="svg8"
   sodipodi:docname="icon-d8.svg"
   inkscape:version="1.3 (0e150ed6c4, 2023-07-21)"
   xmlns:inkscape="http://www.inkscape.org/namespaces/inkscape"
   xmlns:sodipodi="http://sodipodi.sourceforge.net/DTD/sodipodi-0.dtd"
   xmlns="http://www.w3.org/2000/svg"
   xmlns:svg="http://www.w3.org/2000/svg"
   xmlns:rdf="http://www.w3.org/1999/02/22-rdf-syntax-ns#"
   xmlns:cc="http://creativecommons.org/ns#"
   xmlns:dc="http://purl.org/dc/elements/1.1/">
  <defs
     id="defs2">
    <rect
       x="132.68808"
       y="218.01308"
       width="232.38817"
       height="154.83712"
       id="rect10" />
    <rect
       x="53.578669"
       y="14.657297"
       width="152.68223"
       height="246.47476"
       id="rect6" />
    <rect
       x="37.761992"
       y="223.30028"
       width="272.44199"
       height="263.45589"
       id="rect5" />
    <rect
       x="38.318354"
       y="181.04534"
       width="287.00809"
       height="239.32495"
       id="rect4" />
    <rect
       x="171.43786"
       y="139.85722"
       width="295.77873"
       height="215.25414"
       id="rect3" />
    <rect
       x="82.501308"
       y="131.66548"
       width="371.29508"
       height="188.21516"
       id="rect1" />
    <rect
       x="118.70597"
       y="123.49252"
       width="302.04886"
       height="186.98164"
       id="rect2" />
    <rect
       x="171.43787"
       y="139.85722"
       width="295.77872"
       height="215.25414"
       id="rect3-6" />
    <rect
       x="171.43787"
       y="139.85722"
       width="295.77872"
       height="215.25414"
       id="rect3-7" />
    <rect
       x="171.43787"
       y="139.85722"
       width="295.77872"
       height="215.25414"
       id="rect3-7-0" />
    <rect
       x="171.43787"
       y="139.85722"
       width="295.77872"
       height="215.25414"
       id="rect3-7-9" />
    <rect
       x="171.43787"
       y="139.85722"
       width="295.77872"
       height="215.25414"
       id="rect3-7-94" />
    <rect
       x="171.43787"
       y="139.85722"
       width="295.77872"
       height="215.25414"
       id="rect3-7-5" />
  </defs>
  <sodipodi:namedview
     id="base"
     pagecolor="#ffffff"
     bordercolor="#666666"
     borderopacity="1.0"
     inkscape:pageopacity="0.0"
     inkscape:pageshadow="2"
     inkscape:zoom="0.80847385"
     inkscape:cx="204.70668"
     inkscape:cy="272.11764"
     inkscape:document-units="mm"
     inkscape:current-layer="layer1"
     showgrid="true"
     units="px"
     inkscape:window-width="956"
     inkscape:window-height="1156"
     inkscape:window-x="960"
     inkscape:window-y="21"
     inkscape:window-maximized="1"
     showguides="false"
     inkscape:showpageshadow="2"
     inkscape:pagecheckerboard="0"
     inkscape:deskcolor="#d1d1d1">
    <inkscape:grid
       type="xygrid"
       id="grid4988"
       spacingx="66.145832"
       spacingy="66.145832"
       snapvisiblegridlinesonly="true"
       enabled="false"
       originx="0"
       originy="0"
       units="px"
       visible="true" />
  </sodipodi:namedview>
  <metadata
     id="metadata5">
    <rdf:RDF>
      <cc:Work
         rdf:about="">
        <dc:format>image/svg+xml</dc:format>
        <dc:type
           rdf:resource="http://purl.org/dc/dcmitype/StillImage" />
      </cc:Work>
    </rdf:RDF>
  </metadata>
  <g
     inkscape:label="Layer 1"
     inkscape:groupmode="layer"
     id="layer1"
     transform="translate(0,-164.70832)">
    <path
       id="text10"
       style="font-weight:bold;font-size:66.6667px;font-family:Xolonium;-inkscape-font-specification:'Xolonium Bold';text-align:center;white-space:pre;stroke-width:20;stroke-linecap:round;stroke-linejoin:round"
       d="M 248.11336 183.90279 A 2.9695081 3.9983488 0 0 0 246.78231 184.93776 L 195.34978 254.18941 A 2.9695081 3.9983488 0 0 0 195.34978 259.84403 L 246.78231 329.09568 A 2.9695081 3.9983488 0 0 0 250.98138 329.09501 L 302.41391 259.84335 A 2.9695081 3.9983488 0 0 0 302.41391 254.19009 L 250.98138 184.93843 A 2.9695081 3.9983488 0 0 0 248.11336 183.90279 z M 248.88185 193.41934 L 296.11531 257.01773 L 248.88185 320.61478 L 201.64838 257.01706 L 248.88185 193.41934 z M 239.54834 235.01367 C 231.99279 235.01367 228.21489 238.03558 228.21489 244.08002 L 228.21489 247.74681 C 228.21489 251.61347 229.79271 254.2584 232.94826 255.68062 C 229.79271 257.10284 228.21489 259.7471 228.21489 263.61377 L 228.21489 269.94736 C 228.21489 275.9918 231.99279 279.01372 239.54834 279.01372 L 258.21535 279.01372 C 265.7709 279.01372 269.5488 275.9918 269.5488 269.94736 L 269.5488 263.61377 C 269.5488 259.7471 267.97098 257.10284 264.81543 255.68062 C 267.97098 254.2584 269.5488 251.61347 269.5488 247.74681 L 269.5488 244.08002 C 269.5488 238.03558 265.7709 235.01367 258.21535 235.01367 L 239.54834 235.01367 z M 243.88199 243.01343 L 253.8817 243.01343 C 255.43725 243.01343 256.21541 243.63569 256.21541 244.88013 L 256.21541 250.14714 C 256.21541 251.39158 255.43725 252.01384 253.8817 252.01384 L 243.88199 252.01384 C 242.32644 252.01384 241.54828 251.39158 241.54828 250.14714 L 241.54828 244.88013 C 241.54828 243.63569 242.32644 243.01343 243.88199 243.01343 z M 243.88199 260.0136 L 253.8817 260.0136 C 255.43725 260.0136 256.21541 260.63586 256.21541 261.8803 L 256.21541 269.14725 C 256.21541 270.3917 255.43725 271.01395 253.8817 271.01395 L 243.88199 271.01395 C 242.32644 271.01395 241.54828 270.3917 241.54828 269.14725 L 241.54828 261.8803 C 241.54828 260.63586 242.32644 260.0136 243.88199 260.0136 z "
       transform="matrix(0.76793445,0,0,0.76793445,-124.97911,33.484485)" />
  </g>
</svg>
