<?xml version="1.0" encoding="UTF-8" standalone="no"?>
<!-- Created with Inkscape (http://www.inkscape.org/) -->

<svg
   width="500"
   height="500"
   viewBox="0 0 132.29166 132.29167"
   version="1.1"
   id="svg8"
   sodipodi:docname="icon-skull.svg"
   inkscape:version="1.1.2 (0a00cf5339, 2022-02-04)"
   xmlns:inkscape="http://www.inkscape.org/namespaces/inkscape"
   xmlns:sodipodi="http://sodipodi.sourceforge.net/DTD/sodipodi-0.dtd"
   xmlns="http://www.w3.org/2000/svg"
   xmlns:svg="http://www.w3.org/2000/svg"
   xmlns:rdf="http://www.w3.org/1999/02/22-rdf-syntax-ns#"
   xmlns:cc="http://creativecommons.org/ns#"
   xmlns:dc="http://purl.org/dc/elements/1.1/">
  <defs
     id="defs2">
    <inkscape:path-effect
       effect="lattice2"
       gridpoint0="39.20546,192.59546"
       gridpoint1="117.53751,192.59546"
       gridpoint2="39.20546,240.37723"
       gridpoint3="117.53751,240.37723"
       gridpoint4="58.788472,208.2663"
       gridpoint5="97.954498,180.54673"
       gridpoint6="58.788472,256.65506"
       gridpoint7="97.954498,229.51985"
       gridpoint8x9="78.371485,192.59546"
       gridpoint10x11="78.371485,240.37723"
       gridpoint12="39.20546,204.5409"
       gridpoint13="117.53751,204.5409"
       gridpoint14="39.20546,228.43179"
       gridpoint15="117.53751,228.43179"
       gridpoint16="58.788472,204.5409"
       gridpoint17="97.954498,199.01472"
       gridpoint18="58.788472,228.43179"
       gridpoint19="97.954498,228.43179"
       gridpoint20x21="78.371485,204.5409"
       gridpoint22x23="78.371485,228.43179"
       gridpoint24x26="39.20546,216.48635"
       gridpoint25x27="117.53751,216.48635"
       gridpoint28x30="58.788472,216.48635"
       gridpoint29x31="97.954498,216.48635"
       gridpoint32x33x34x35="78.371485,216.48635"
       id="path-effect62394"
       is_visible="true"
       lpeversion="1"
       horizontal_mirror="false"
       vertical_mirror="false"
       perimetral="false"
       live_update="true" />
    <inkscape:path-effect
       effect="bend_path"
       id="path-effect59609"
       is_visible="true"
       lpeversion="1"
       bendpath="M 30.611784,217.74727 H 42.646679 106.89907"
       prop_scale="1"
       scale_y_rel="false"
       vertical="false"
       hide_knot="false"
       bendpath-nodetypes="ccc" />
    <rect
       x="55.575269"
       y="30.159666"
       width="57.597946"
       height="89.310749"
       id="rect8511" />
    <rect
       x="149.54845"
       y="177.66132"
       width="463.95497"
       height="453.97097"
       id="rect23850" />
    <rect
       x="147.25193"
       y="156.08336"
       width="361.72093"
       height="326.91555"
       id="rect5407" />
  </defs>
  <sodipodi:namedview
     id="base"
     pagecolor="#ffffff"
     bordercolor="#666666"
     borderopacity="1.0"
     inkscape:pageopacity="0.0"
     inkscape:pageshadow="2"
     inkscape:zoom="1.1662493"
     inkscape:cx="170.63247"
     inkscape:cy="245.6593"
     inkscape:document-units="mm"
     inkscape:current-layer="layer1"
     showgrid="false"
     units="px"
     inkscape:window-width="1916"
     inkscape:window-height="1029"
     inkscape:window-x="0"
     inkscape:window-y="49"
     inkscape:window-maximized="1"
     inkscape:pagecheckerboard="0"
     inkscape:object-paths="false"
     inkscape:snap-object-midpoints="false"
     inkscape:snap-others="true"
     inkscape:object-nodes="true"
     inkscape:snap-intersection-paths="true"
     inkscape:snap-nodes="true" />
  <metadata
     id="metadata5">
    <rdf:RDF>
      <cc:Work
         rdf:about="">
        <dc:format>image/svg+xml</dc:format>
        <dc:type
           rdf:resource="http://purl.org/dc/dcmitype/StillImage" />
      </cc:Work>
    </rdf:RDF>
  </metadata>
  <g
     inkscape:label="Layer 1"
     inkscape:groupmode="layer"
     id="layer1"
     transform="translate(0,-164.70832)">
    <path
       id="rect72418"
       style="fill:#000000;fill-opacity:1;stroke:none;stroke-width:1.20923;stroke-linecap:round;stroke-miterlimit:4;stroke-dasharray:none;stroke-opacity:1"
       d="m 229.72266,58.867188 c -84.59337,0 -152.697269,68.101962 -152.697269,152.695312 0,52.76651 26.501509,99.11578 66.970699,126.52344 v 48.10742 c 0,30.43582 24.49974,54.93945 54.93555,54.93945 h 102.13672 c 30.43581,0 54.93555,-24.50363 54.93555,-54.93945 v -48.10742 c 40.47004,-27.40755 66.9707,-73.75628 66.9707,-126.52344 0,-84.59335 -68.1039,-152.695312 -152.69727,-152.695312 z M 159.71484,163.24414 a 44.082115,44.082115 0 0 1 44.36524,43.70117 l 0.002,0.38086 a 44.082115,44.082115 0 0 1 -43.98633,44.08203 44.082115,44.082115 0 0 1 -44.17773,-43.89258 44.082115,44.082115 0 0 1 43.79687,-44.27148 z m 180,0 a 44.082114,44.082114 0 0 1 44.36524,43.70117 l 0.002,0.38086 a 44.082114,44.082114 0 0 1 -43.98633,44.08203 44.082114,44.082114 0 0 1 -44.17773,-43.89258 44.082114,44.082114 0 0 1 43.79687,-44.27148 z"
       transform="matrix(0.26458333,0,0,0.26458333,0,164.70832)" />
  </g>
</svg>
