<?xml version="1.0" encoding="UTF-8" standalone="no"?>
<!-- Created with Inkscape (http://www.inkscape.org/) -->

<svg
   width="500"
   height="500"
   viewBox="0 0 132.29166 132.29167"
   version="1.1"
   id="svg8"
   sodipodi:docname="icon-5.svg"
   inkscape:version="1.1.2 (0a00cf5339, 2022-02-04)"
   xmlns:inkscape="http://www.inkscape.org/namespaces/inkscape"
   xmlns:sodipodi="http://sodipodi.sourceforge.net/DTD/sodipodi-0.dtd"
   xmlns="http://www.w3.org/2000/svg"
   xmlns:svg="http://www.w3.org/2000/svg"
   xmlns:rdf="http://www.w3.org/1999/02/22-rdf-syntax-ns#"
   xmlns:cc="http://creativecommons.org/ns#"
   xmlns:dc="http://purl.org/dc/elements/1.1/">
  <defs
     id="defs2">
    <rect
       x="55.575269"
       y="30.159666"
       width="57.597946"
       height="89.310749"
       id="rect8511" />
    <rect
       x="149.54845"
       y="177.66132"
       width="463.95497"
       height="453.97097"
       id="rect23850" />
    <rect
       x="147.25193"
       y="156.08336"
       width="361.72093"
       height="326.91555"
       id="rect5407" />
  </defs>
  <sodipodi:namedview
     id="base"
     pagecolor="#ffffff"
     bordercolor="#666666"
     borderopacity="1.0"
     inkscape:pageopacity="0.0"
     inkscape:pageshadow="2"
     inkscape:zoom="0.83861515"
     inkscape:cx="372.04193"
     inkscape:cy="199.73405"
     inkscape:document-units="mm"
     inkscape:current-layer="layer1"
     showgrid="false"
     units="px"
     inkscape:window-width="956"
     inkscape:window-height="1029"
     inkscape:window-x="960"
     inkscape:window-y="49"
     inkscape:window-maximized="1"
     inkscape:pagecheckerboard="0"
     inkscape:object-paths="true"
     inkscape:snap-object-midpoints="true" />
  <metadata
     id="metadata5">
    <rdf:RDF>
      <cc:Work
         rdf:about="">
        <dc:format>image/svg+xml</dc:format>
        <dc:type
           rdf:resource="http://purl.org/dc/dcmitype/StillImage" />
      </cc:Work>
    </rdf:RDF>
  </metadata>
  <g
     inkscape:label="Layer 1"
     inkscape:groupmode="layer"
     id="layer1"
     transform="translate(0,-164.70832)">
    <path
       id="path14139"
       style="fill:#000000;fill-opacity:1;stroke:none;stroke-width:99.9938"
       d="M 248.79297,63.761719 A 186.24153,186.24153 0 0 0 63.759766,250.80469 186.24153,186.24153 0 0 0 250.40234,436.24023 186.24153,186.24153 0 0 0 436.24219,250 l -0.008,-1.60938 A 186.24153,186.24153 0 0 0 248.79297,63.761719 Z m -76.71094,58.916011 h 176.25 v 59.23633 H 228.94922 l -6.38086,40.09766 c 8.26273,-3.88835 16.40411,-6.80388 24.42383,-8.74805 8.14122,-1.94417 16.16039,-2.91601 24.05859,-2.91601 26.73238,0 48.42333,8.07929 65.07031,24.24023 16.64698,16.16094 24.97071,36.51537 24.97071,61.06055 0,17.25453 -4.31414,33.8399 -12.94141,49.75781 -8.50576,15.91791 -20.65672,28.06888 -36.45312,36.45313 -15.6749,8.38424 -35.7849,12.57617 -60.33008,12.57617 -17.61907,0 -32.74765,-1.63913 -45.38477,-4.91993 -12.51561,-3.4023 -23.20783,-8.38568 -32.07812,-14.94726 -8.74878,-6.68309 -15.85819,-14.21536 -21.32618,-22.59961 -5.46798,-8.38425 -10.02459,-18.834 -13.66992,-31.34961 l 75.09375,-8.20312 c 1.82267,12.02956 6.07667,21.20487 12.75977,27.52343 6.68309,6.19705 14.64213,9.29493 23.87695,9.29493 10.32842,-10e-6 18.83253,-3.88933 25.51563,-11.66602 6.8046,-7.8982 10.20703,-19.6224 10.20703,-35.17578 0,-15.91792 -3.40243,-27.58394 -10.20703,-34.9961 -6.80461,-7.41215 -15.85575,-11.11718 -27.15625,-11.11718 -7.16914,0 -14.09621,1.76134 -20.7793,5.28515 -4.98194,2.55173 -10.45027,7.16847 -16.4043,13.85157 l -63.24609,-9.11329 z"
       transform="matrix(0.26458333,0,0,0.26458333,0,164.70832)" />
  </g>
</svg>
