<?xml version="1.0" encoding="UTF-8" standalone="no"?>
<!-- Created with Inkscape (http://www.inkscape.org/) -->

<svg
   width="500"
   height="500"
   viewBox="0 0 132.29166 132.29167"
   version="1.1"
   id="svg8"
   sodipodi:docname="icon-pin.svg"
   inkscape:version="1.1.2 (0a00cf5339, 2022-02-04)"
   xmlns:inkscape="http://www.inkscape.org/namespaces/inkscape"
   xmlns:sodipodi="http://sodipodi.sourceforge.net/DTD/sodipodi-0.dtd"
   xmlns="http://www.w3.org/2000/svg"
   xmlns:svg="http://www.w3.org/2000/svg"
   xmlns:rdf="http://www.w3.org/1999/02/22-rdf-syntax-ns#"
   xmlns:cc="http://creativecommons.org/ns#"
   xmlns:dc="http://purl.org/dc/elements/1.1/">
  <defs
     id="defs2">
    <rect
       x="149.54845"
       y="177.66132"
       width="463.95497"
       height="453.97097"
       id="rect23850" />
    <rect
       x="147.25193"
       y="156.08336"
       width="361.72093"
       height="326.91555"
       id="rect5407" />
  </defs>
  <sodipodi:namedview
     id="base"
     pagecolor="#ffffff"
     bordercolor="#666666"
     borderopacity="1.0"
     inkscape:pageopacity="0.0"
     inkscape:pageshadow="2"
     inkscape:zoom="0.89445421"
     inkscape:cx="334.28206"
     inkscape:cy="266.64305"
     inkscape:document-units="mm"
     inkscape:current-layer="layer1"
     showgrid="false"
     units="px"
     inkscape:window-width="1916"
     inkscape:window-height="1029"
     inkscape:window-x="0"
     inkscape:window-y="49"
     inkscape:window-maximized="1"
     inkscape:pagecheckerboard="0"
     inkscape:object-paths="true"
     inkscape:snap-object-midpoints="true" />
  <metadata
     id="metadata5">
    <rdf:RDF>
      <cc:Work
         rdf:about="">
        <dc:format>image/svg+xml</dc:format>
        <dc:type
           rdf:resource="http://purl.org/dc/dcmitype/StillImage" />
      </cc:Work>
    </rdf:RDF>
  </metadata>
  <g
     inkscape:label="Layer 1"
     inkscape:groupmode="layer"
     id="layer1"
     transform="translate(0,-164.70832)">
    <path
       id="path1474"
       style="stroke-width:26.4567"
       d="m 65.941193,178.4124 c -17.43098,0.11291 -31.480688,14.3152 -31.405316,31.74638 0,0 -0.878546,11.63591 8.042402,24.18003 8.920948,12.54412 18.053703,48.73387 23.567553,48.73387 5.250006,0 14.623484,-36.28986 23.510711,-48.64602 8.887227,-12.35617 8.098705,-24.67767 8.099764,-24.40431 l -0.0011,-0.27336 C 97.604645,192.31835 83.372115,178.29941 65.941193,178.4124 Z m 0.12764,18.38027 c 6.55982,-0.0425 11.915937,5.23337 11.972396,11.79308 l 5.29e-4,0.10232 c 1.25e-4,6.5599 -5.31019,11.88178 -11.870076,11.89591 -6.559727,0.0141 -11.892864,-5.28455 -11.921236,-11.84423 -0.02846,-6.55977 5.258708,-11.9045 11.818398,-11.94708 z"
       sodipodi:nodetypes="cczszccccccsccc" />
  </g>
</svg>
