<?xml version="1.0" encoding="UTF-8" standalone="no"?>
<!-- Created with Inkscape (http://www.inkscape.org/) -->

<svg
   width="500"
   height="500"
   viewBox="0 0 132.29166 132.29167"
   version="1.1"
   id="svg8"
   sodipodi:docname="icon-d12.svg"
   inkscape:version="1.3 (0e150ed6c4, 2023-07-21)"
   xmlns:inkscape="http://www.inkscape.org/namespaces/inkscape"
   xmlns:sodipodi="http://sodipodi.sourceforge.net/DTD/sodipodi-0.dtd"
   xmlns="http://www.w3.org/2000/svg"
   xmlns:svg="http://www.w3.org/2000/svg"
   xmlns:rdf="http://www.w3.org/1999/02/22-rdf-syntax-ns#"
   xmlns:cc="http://creativecommons.org/ns#"
   xmlns:dc="http://purl.org/dc/elements/1.1/">
  <defs
     id="defs2">
    <rect
       x="132.68808"
       y="218.01308"
       width="232.38817"
       height="154.83712"
       id="rect10" />
    <rect
       x="53.578669"
       y="14.657297"
       width="152.68223"
       height="246.47476"
       id="rect6" />
    <rect
       x="37.761992"
       y="223.30028"
       width="272.44199"
       height="263.45589"
       id="rect5" />
    <rect
       x="38.318354"
       y="181.04534"
       width="287.00809"
       height="239.32495"
       id="rect4" />
    <rect
       x="171.43786"
       y="139.85722"
       width="295.77873"
       height="215.25414"
       id="rect3" />
    <rect
       x="82.501308"
       y="131.66548"
       width="371.29508"
       height="188.21516"
       id="rect1" />
    <rect
       x="118.70597"
       y="123.49252"
       width="302.04886"
       height="186.98164"
       id="rect2" />
    <rect
       x="171.43787"
       y="139.85722"
       width="295.77872"
       height="215.25414"
       id="rect3-6" />
    <rect
       x="171.43787"
       y="139.85722"
       width="295.77872"
       height="215.25414"
       id="rect3-7" />
    <rect
       x="171.43787"
       y="139.85722"
       width="295.77872"
       height="215.25414"
       id="rect3-7-0" />
    <rect
       x="171.43787"
       y="139.85722"
       width="295.77872"
       height="215.25414"
       id="rect3-7-9" />
    <rect
       x="171.43787"
       y="139.85722"
       width="295.77872"
       height="215.25414"
       id="rect3-7-94" />
    <rect
       x="171.43787"
       y="139.85722"
       width="295.77872"
       height="215.25414"
       id="rect3-7-5" />
    <rect
       x="132.68808"
       y="218.01308"
       width="232.38817"
       height="154.83711"
       id="rect10-7" />
  </defs>
  <sodipodi:namedview
     id="base"
     pagecolor="#ffffff"
     bordercolor="#666666"
     borderopacity="1.0"
     inkscape:pageopacity="0.0"
     inkscape:pageshadow="2"
     inkscape:zoom="0.80847385"
     inkscape:cx="204.70668"
     inkscape:cy="272.11764"
     inkscape:document-units="mm"
     inkscape:current-layer="layer1"
     showgrid="true"
     units="px"
     inkscape:window-width="956"
     inkscape:window-height="1156"
     inkscape:window-x="960"
     inkscape:window-y="21"
     inkscape:window-maximized="1"
     showguides="false"
     inkscape:showpageshadow="2"
     inkscape:pagecheckerboard="0"
     inkscape:deskcolor="#d1d1d1">
    <inkscape:grid
       type="xygrid"
       id="grid4988"
       spacingx="66.145832"
       spacingy="66.145832"
       snapvisiblegridlinesonly="true"
       enabled="false"
       originx="0"
       originy="0"
       units="px"
       visible="true" />
  </sodipodi:namedview>
  <metadata
     id="metadata5">
    <rdf:RDF>
      <cc:Work
         rdf:about="">
        <dc:format>image/svg+xml</dc:format>
        <dc:type
           rdf:resource="http://purl.org/dc/dcmitype/StillImage" />
      </cc:Work>
    </rdf:RDF>
  </metadata>
  <g
     inkscape:label="Layer 1"
     inkscape:groupmode="layer"
     id="layer1"
     transform="translate(0,-164.70832)">
    <path
       id="text10"
       style="-inkscape-font-specification:'Xolonium Bold';stroke-width:20;stroke-linecap:round;stroke-linejoin:round"
       d="M 251.73603 184.20158 A 3.822424 3.822424 0 0 0 249.48913 184.93103 L 184.85577 231.85024 A 3.822424 3.822424 0 0 0 183.46551 236.12265 L 208.11552 312.09148 A 3.822424 3.822424 0 0 0 211.74933 314.73406 L 291.61844 314.76636 A 3.822424 3.822424 0 0 0 295.25359 312.12714 L 319.96484 236.17783 A 3.822424 3.822424 0 0 0 318.57861 231.90407 L 253.98227 184.93305 A 3.822424 3.822424 0 0 0 251.73603 184.20158 z M 251.73334 192.74843 L 311.83722 236.45306 L 288.84463 307.1219 L 214.52986 307.09162 L 191.5938 236.40461 L 251.73334 192.74843 z M 209.21508 235.01367 L 209.21508 243.01343 L 221.2154 243.01343 L 221.2154 279.01372 L 234.54879 279.01372 L 234.54879 235.01367 L 209.21508 235.01367 z M 256.21504 235.01367 L 256.21504 243.01343 L 278.54884 243.01343 C 280.10439 243.01343 280.88188 243.6357 280.88188 244.88013 L 280.88188 250.14714 C 280.88188 251.39158 280.10439 252.01384 278.54884 252.01384 L 264.21548 252.01384 C 256.65993 252.01384 252.88203 255.03575 252.88203 261.08019 L 252.88203 279.01372 L 294.21526 279.01372 L 294.21526 271.01395 L 266.21542 271.01395 L 266.21542 261.88031 C 266.21542 260.63586 266.99291 260.0136 268.54846 260.0136 L 282.88182 260.0136 C 290.43737 260.0136 294.21526 256.99169 294.21526 250.94725 L 294.21526 244.08002 C 294.21526 238.03558 290.43737 235.01367 282.88182 235.01367 L 256.21504 235.01367 z "
       transform="matrix(0.76793445,0,0,0.76793445,-127.15492,38.776151)" />
  </g>
</svg>
