<?xml version="1.0" encoding="UTF-8" standalone="no"?>
<!-- Created with Inkscape (http://www.inkscape.org/) -->

<svg
   width="500"
   height="500"
   viewBox="0 0 132.29166 132.29167"
   version="1.1"
   id="svg8"
   sodipodi:docname="icon-text-edit.svg"
   inkscape:version="1.3 (0e150ed6c4, 2023-07-21)"
   xmlns:inkscape="http://www.inkscape.org/namespaces/inkscape"
   xmlns:sodipodi="http://sodipodi.sourceforge.net/DTD/sodipodi-0.dtd"
   xmlns="http://www.w3.org/2000/svg"
   xmlns:svg="http://www.w3.org/2000/svg"
   xmlns:rdf="http://www.w3.org/1999/02/22-rdf-syntax-ns#"
   xmlns:cc="http://creativecommons.org/ns#"
   xmlns:dc="http://purl.org/dc/elements/1.1/">
  <defs
     id="defs2">
    <rect
       x="21.994148"
       y="60.7689"
       width="333.55285"
       height="273.85825"
       id="rect35" />
    <rect
       x="67.041582"
       y="122.30159"
       width="319.6528"
       height="201.90539"
       id="rect34" />
    <rect
       x="188.5884"
       y="99.673461"
       width="260.00953"
       height="279.50904"
       id="rect33" />
    <inkscape:perspective
       sodipodi:type="inkscape:persp3d"
       inkscape:vp_x="6.1093449 : 34.72819 : 1"
       inkscape:vp_y="0 : 1000 : 0"
       inkscape:vp_z="75.71349 : 35.580862 : 1"
       inkscape:persp3d-origin="66.14583 : 44.097223 : 1"
       id="perspective16" />
  </defs>
  <sodipodi:namedview
     id="base"
     pagecolor="#ffffff"
     bordercolor="#666666"
     borderopacity="1.0"
     inkscape:pageopacity="0.0"
     inkscape:pageshadow="2"
     inkscape:zoom="0.7"
     inkscape:cx="115"
     inkscape:cy="231.42857"
     inkscape:document-units="mm"
     inkscape:current-layer="layer1"
     showgrid="true"
     units="px"
     inkscape:window-width="1916"
     inkscape:window-height="1153"
     inkscape:window-x="0"
     inkscape:window-y="21"
     inkscape:window-maximized="1"
     showguides="false"
     inkscape:snap-object-midpoints="true"
     inkscape:showpageshadow="2"
     inkscape:pagecheckerboard="0"
     inkscape:deskcolor="#d1d1d1">
    <inkscape:grid
       type="xygrid"
       id="grid4988"
       spacingx="66.145832"
       spacingy="66.145832"
       snapvisiblegridlinesonly="true"
       enabled="false"
       originx="0"
       originy="0"
       units="px"
       visible="true" />
  </sodipodi:namedview>
  <metadata
     id="metadata5">
    <rdf:RDF>
      <cc:Work
         rdf:about="">
        <dc:format>image/svg+xml</dc:format>
        <dc:type
           rdf:resource="http://purl.org/dc/dcmitype/StillImage" />
      </cc:Work>
    </rdf:RDF>
  </metadata>
  <g
     inkscape:label="Layer 1"
     inkscape:groupmode="layer"
     id="layer1"
     transform="translate(0,-164.70832)">
    <path
       id="path33"
       style="color:#000000;fill:#000000;stroke-linecap:round;stroke-linejoin:round;-inkscape-stroke:none"
       d="m 97.009585,196.49555 c -0.730193,3.6e-4 -1.322042,0.59221 -1.3224,1.3224 v 1.03767 c 5.86e-4,0.72398 0.582968,1.31304 1.306897,1.32188 3.420998,0.041 7.312338,-0.0762 10.601418,0.0961 0.2533,0.0963 0.40625,0.22891 0.54261,0.58963 0.14884,0.3937 0.19628,0.98513 0.1328,1.46658 -0.007,0.0578 -0.0107,0.11594 -0.0103,0.17415 -0.01,18.54741 0.0289,39.21039 -0.0284,57.74944 -0.0608,0.30564 -0.19902,0.46992 -0.5762,0.64233 -0.38985,0.17822 -0.99036,0.24559 -1.4335,0.17415 -0.0699,-0.011 -0.14059,-0.0163 -0.21136,-0.016 h -9.001515 c -0.730193,3.6e-4 -1.322042,0.59221 -1.3224,1.3224 v 1.03767 c 6.45e-4,0.72999 0.59241,1.32152 1.3224,1.32188 h 28.140395 c 0.72999,-3.6e-4 1.32176,-0.59189 1.3224,-1.32188 v -1.03973 c -5.9e-4,-0.72458 -0.5839,-1.31389 -1.30844,-1.32189 -3.73525,-0.041 -7.94488,0.0815 -11.55641,-0.0941 -0.25248,-0.0963 -0.40491,-0.22951 -0.54105,-0.58963 -0.14884,-0.39369 -0.19629,-0.98563 -0.13281,-1.46709 0.007,-0.0576 0.0105,-0.1156 0.01,-0.17363 0.01,-18.54739 -0.0284,-39.21038 0.0289,-57.74944 0.0608,-0.30564 0.19901,-0.46992 0.57619,-0.64234 0.38987,-0.17822 0.99038,-0.24558 1.43351,-0.17415 0.0699,0.0108 0.1406,0.016 0.21135,0.0155 h 9.9565 c 0.72999,-3.6e-4 1.32176,-0.59189 1.3224,-1.32188 v -1.03767 c -3.6e-4,-0.73019 -0.59221,-1.32204 -1.3224,-1.3224 z m -91.1903,54.74137 v 3.84277 h 97.467575 v -3.84277 z"
       sodipodi:nodetypes="cccccscccscccccccccccscccscccccccccccc" />
    <text
       xml:space="preserve"
       transform="matrix(1.174308,0,0,1.174308,-20.243472,132.0132)"
       id="text35"
       style="font-style:normal;font-weight:normal;font-size:40px;line-height:1.25;font-family:sans-serif;letter-spacing:0px;word-spacing:0px;white-space:pre;shape-inside:url(#rect35);fill:#000000;fill-opacity:1;stroke:none"><tspan
         x="21.994141"
         y="97.369531"
         id="tspan2"><tspan
           style="font-weight:bold;font-family:Xolonium;-inkscape-font-specification:'Xolonium Bold'"
           id="tspan1">Abc</tspan></tspan></text>
  </g>
</svg>
