<?xml version="1.0" encoding="UTF-8" standalone="no"?>
<!-- Created with Inkscape (http://www.inkscape.org/) -->

<svg
   width="500"
   height="500"
   viewBox="0 0 132.29166 132.29167"
   version="1.1"
   id="svg8"
   sodipodi:docname="icon-d10.svg"
   inkscape:version="1.3 (0e150ed6c4, 2023-07-21)"
   xmlns:inkscape="http://www.inkscape.org/namespaces/inkscape"
   xmlns:sodipodi="http://sodipodi.sourceforge.net/DTD/sodipodi-0.dtd"
   xmlns="http://www.w3.org/2000/svg"
   xmlns:svg="http://www.w3.org/2000/svg"
   xmlns:rdf="http://www.w3.org/1999/02/22-rdf-syntax-ns#"
   xmlns:cc="http://creativecommons.org/ns#"
   xmlns:dc="http://purl.org/dc/elements/1.1/">
  <defs
     id="defs2">
    <rect
       x="132.68808"
       y="218.01308"
       width="232.38817"
       height="154.83712"
       id="rect10" />
    <rect
       x="53.578669"
       y="14.657297"
       width="152.68223"
       height="246.47476"
       id="rect6" />
    <rect
       x="37.761992"
       y="223.30028"
       width="272.44199"
       height="263.45589"
       id="rect5" />
    <rect
       x="38.318354"
       y="181.04534"
       width="287.00809"
       height="239.32495"
       id="rect4" />
    <rect
       x="171.43786"
       y="139.85722"
       width="295.77873"
       height="215.25414"
       id="rect3" />
    <rect
       x="82.501308"
       y="131.66548"
       width="371.29508"
       height="188.21516"
       id="rect1" />
    <rect
       x="118.70597"
       y="123.49252"
       width="302.04886"
       height="186.98164"
       id="rect2" />
    <rect
       x="171.43787"
       y="139.85722"
       width="295.77872"
       height="215.25414"
       id="rect3-6" />
    <rect
       x="171.43787"
       y="139.85722"
       width="295.77872"
       height="215.25414"
       id="rect3-7" />
    <rect
       x="171.43787"
       y="139.85722"
       width="295.77872"
       height="215.25414"
       id="rect3-7-0" />
    <rect
       x="171.43787"
       y="139.85722"
       width="295.77872"
       height="215.25414"
       id="rect3-7-9" />
    <rect
       x="171.43787"
       y="139.85722"
       width="295.77872"
       height="215.25414"
       id="rect3-7-94" />
    <rect
       x="171.43787"
       y="139.85722"
       width="295.77872"
       height="215.25414"
       id="rect3-7-5" />
    <rect
       x="132.68808"
       y="218.01308"
       width="232.38817"
       height="154.83711"
       id="rect10-7" />
  </defs>
  <sodipodi:namedview
     id="base"
     pagecolor="#ffffff"
     bordercolor="#666666"
     borderopacity="1.0"
     inkscape:pageopacity="0.0"
     inkscape:pageshadow="2"
     inkscape:zoom="0.80847385"
     inkscape:cx="209.65428"
     inkscape:cy="272.11764"
     inkscape:document-units="mm"
     inkscape:current-layer="layer1"
     showgrid="true"
     units="px"
     inkscape:window-width="956"
     inkscape:window-height="1156"
     inkscape:window-x="960"
     inkscape:window-y="21"
     inkscape:window-maximized="1"
     showguides="false"
     inkscape:showpageshadow="2"
     inkscape:pagecheckerboard="0"
     inkscape:deskcolor="#d1d1d1">
    <inkscape:grid
       type="xygrid"
       id="grid4988"
       spacingx="66.145832"
       spacingy="66.145832"
       snapvisiblegridlinesonly="true"
       enabled="false"
       originx="0"
       originy="0"
       units="px"
       visible="true" />
  </sodipodi:namedview>
  <metadata
     id="metadata5">
    <rdf:RDF>
      <cc:Work
         rdf:about="">
        <dc:format>image/svg+xml</dc:format>
        <dc:type
           rdf:resource="http://purl.org/dc/dcmitype/StillImage" />
      </cc:Work>
    </rdf:RDF>
  </metadata>
  <g
     inkscape:label="Layer 1"
     inkscape:groupmode="layer"
     id="layer1"
     transform="translate(0,-164.70832)">
    <path
       id="text10"
       style="-inkscape-font-specification:'Xolonium Bold';stroke-width:20;stroke-linecap:round;stroke-linejoin:round"
       d="M 275.38204 205.00446 L 226.50865 205.49906 A 3.7950543 3.1285674 3.7271037e-06 0 0 223.83982 206.44183 L 189.70489 235.28015 A 3.7950543 3.1285674 3.7271037e-06 0 0 188.62686 237.50283 L 189.22577 277.79302 A 3.7950543 3.1285674 3.7271037e-06 0 0 190.36974 279.9935 L 225.35189 308.13399 A 3.7950543 3.1285674 3.7271037e-06 0 0 228.04831 309.02292 L 276.92102 308.529 A 3.7950543 3.1285674 3.7271037e-06 0 0 279.59053 307.58555 L 313.72546 278.74791 A 3.7950543 3.1285674 3.7271037e-06 0 0 314.80416 276.52456 L 314.20458 236.23436 A 3.7950543 3.1285674 3.7271037e-06 0 0 313.0606 234.03389 L 278.07913 205.8934 A 3.7950543 3.1285674 3.7271037e-06 0 0 275.38204 205.00446 z M 273.90294 211.27682 L 306.63549 237.60646 L 307.19537 275.30521 L 275.2562 302.28894 L 229.52673 302.75057 L 196.79486 276.42093 L 196.23498 238.72217 L 228.17347 211.73845 L 273.90294 211.27682 z M 209.21508 235.01367 L 209.21508 243.01343 L 221.2154 243.01343 L 221.2154 279.01372 L 234.54879 279.01372 L 234.54879 235.01367 L 209.21508 235.01367 z M 264.21548 235.01367 C 256.65993 235.01367 252.88203 238.03558 252.88203 244.08002 L 252.88203 269.94736 C 252.88203 275.9918 256.65993 279.01372 264.21548 279.01372 L 282.88182 279.01372 C 290.43737 279.01372 294.21526 275.9918 294.21526 269.94736 L 294.21526 244.08002 C 294.21526 238.03558 290.43737 235.01367 282.88182 235.01367 L 264.21548 235.01367 z M 268.54846 243.01343 L 278.54884 243.01343 C 280.10439 243.01343 280.88188 243.63569 280.88188 244.88013 L 280.88188 269.14725 C 280.88188 270.3917 280.10439 271.01395 278.54884 271.01395 L 268.54846 271.01395 C 266.99291 271.01395 266.21542 270.3917 266.21542 269.14725 L 266.21542 244.88013 C 266.21542 243.63569 266.99291 243.01343 268.54846 243.01343 z "
       transform="matrix(0.76793445,0,0,0.76793445,-127.15492,33.484485)" />
  </g>
</svg>
