<?xml version="1.0" encoding="UTF-8" standalone="no"?>
<!-- Created with Inkscape (http://www.inkscape.org/) -->

<svg
   width="500"
   height="500"
   viewBox="0 0 132.29166 132.29167"
   version="1.1"
   id="svg8"
   sodipodi:docname="icon-question.svg"
   inkscape:version="1.1.2 (0a00cf5339, 2022-02-04)"
   xmlns:inkscape="http://www.inkscape.org/namespaces/inkscape"
   xmlns:sodipodi="http://sodipodi.sourceforge.net/DTD/sodipodi-0.dtd"
   xmlns="http://www.w3.org/2000/svg"
   xmlns:svg="http://www.w3.org/2000/svg"
   xmlns:rdf="http://www.w3.org/1999/02/22-rdf-syntax-ns#"
   xmlns:cc="http://creativecommons.org/ns#"
   xmlns:dc="http://purl.org/dc/elements/1.1/">
  <defs
     id="defs2">
    <rect
       x="55.575269"
       y="30.159666"
       width="384.08002"
       height="465.78697"
       id="rect8511" />
    <rect
       x="149.54845"
       y="177.66132"
       width="463.95497"
       height="453.97097"
       id="rect23850" />
    <rect
       x="147.25193"
       y="156.08336"
       width="361.72093"
       height="326.91555"
       id="rect5407" />
  </defs>
  <sodipodi:namedview
     id="base"
     pagecolor="#ffffff"
     bordercolor="#666666"
     borderopacity="1.0"
     inkscape:pageopacity="0.0"
     inkscape:pageshadow="2"
     inkscape:zoom="0.89445421"
     inkscape:cx="376.76607"
     inkscape:cy="266.64305"
     inkscape:document-units="mm"
     inkscape:current-layer="layer1"
     showgrid="false"
     units="px"
     inkscape:window-width="1916"
     inkscape:window-height="1029"
     inkscape:window-x="0"
     inkscape:window-y="49"
     inkscape:window-maximized="1"
     inkscape:pagecheckerboard="0"
     inkscape:object-paths="true"
     inkscape:snap-object-midpoints="true" />
  <metadata
     id="metadata5">
    <rdf:RDF>
      <cc:Work
         rdf:about="">
        <dc:format>image/svg+xml</dc:format>
        <dc:type
           rdf:resource="http://purl.org/dc/dcmitype/StillImage" />
      </cc:Work>
    </rdf:RDF>
  </metadata>
  <g
     inkscape:label="Layer 1"
     inkscape:groupmode="layer"
     id="layer1"
     transform="translate(0,-164.70832)">
    <path
       id="path14139"
       style="fill:#000000;fill-opacity:1;stroke:none;stroke-width:26.4567"
       d="m 65.826445,181.57881 a 49.276404,49.276404 0 0 0 -48.956701,49.48845 49.276404,49.276404 0 0 0 49.382513,49.06315 49.276404,49.276404 0 0 0 49.170123,-49.27606 l -0.002,-0.42581 A 49.276404,49.276404 0 0 0 65.826445,181.57881 Z m 1.211294,14.55932 c 7.008643,0 12.667128,1.46273 16.975193,4.38836 5.85125,3.95442 8.776724,9.22694 8.776724,15.81764 0,2.73272 -0.755491,5.36925 -2.266527,7.90907 -1.511038,2.53983 -4.597156,5.64238 -9.258869,9.30745 -3.247122,2.57198 -5.304705,4.64547 -6.172747,6.2208 -0.835893,1.54319 -1.25367,3.56844 -1.25367,6.07612 H 55.512346 v -1.83244 c 0,-3.11853 0.353621,-5.64214 1.060916,-7.57112 0.707295,-1.96113 1.752253,-3.74567 3.134693,-5.35316 1.414587,-1.60749 4.565378,-4.43647 9.452137,-8.48734 2.604127,-2.12188 3.905705,-4.06707 3.905705,-5.8353 0,-1.76824 -0.530178,-3.13448 -1.59112,-4.09898 -1.02879,-0.99664 -2.603926,-1.49499 -4.725807,-1.49499 -2.282632,0 -4.179573,0.75549 -5.690611,2.26652 -1.478886,1.51104 -2.427356,4.14756 -2.845303,7.90908 l -18.711002,-2.3151 c 0.642993,-6.88005 3.134265,-12.40971 7.474479,-16.58917 4.372364,-4.21162 11.059382,-6.31744 20.061306,-6.31744 z m -12.152228,54.59046 h 19.627226 v 17.31264 H 54.885511 Z" />
  </g>
</svg>
