<?xml version="1.0" encoding="UTF-8" standalone="no"?>
<!-- Created with Inkscape (http://www.inkscape.org/) -->

<svg
   width="500"
   height="500"
   viewBox="0 0 132.29166 132.29167"
   version="1.1"
   id="svg8"
   sodipodi:docname="icon-gears.svg"
   inkscape:version="1.3 (0e150ed6c4, 2023-07-21)"
   xmlns:inkscape="http://www.inkscape.org/namespaces/inkscape"
   xmlns:sodipodi="http://sodipodi.sourceforge.net/DTD/sodipodi-0.dtd"
   xmlns="http://www.w3.org/2000/svg"
   xmlns:svg="http://www.w3.org/2000/svg"
   xmlns:rdf="http://www.w3.org/1999/02/22-rdf-syntax-ns#"
   xmlns:cc="http://creativecommons.org/ns#"
   xmlns:dc="http://purl.org/dc/elements/1.1/">
  <defs
     id="defs2">
    <inkscape:perspective
       sodipodi:type="inkscape:persp3d"
       inkscape:vp_x="6.1093449 : 34.72819 : 1"
       inkscape:vp_y="0 : 1000 : 0"
       inkscape:vp_z="75.71349 : 35.580862 : 1"
       inkscape:persp3d-origin="66.14583 : 44.097223 : 1"
       id="perspective16" />
  </defs>
  <sodipodi:namedview
     id="base"
     pagecolor="#ffffff"
     bordercolor="#666666"
     borderopacity="1.0"
     inkscape:pageopacity="0.0"
     inkscape:pageshadow="2"
     inkscape:zoom="0.49497475"
     inkscape:cx="326.27927"
     inkscape:cy="131.31983"
     inkscape:document-units="mm"
     inkscape:current-layer="layer1"
     showgrid="true"
     units="px"
     inkscape:window-width="1916"
     inkscape:window-height="1153"
     inkscape:window-x="0"
     inkscape:window-y="21"
     inkscape:window-maximized="1"
     showguides="false"
     inkscape:snap-object-midpoints="true"
     inkscape:showpageshadow="2"
     inkscape:pagecheckerboard="0"
     inkscape:deskcolor="#d1d1d1">
    <inkscape:grid
       type="xygrid"
       id="grid4988"
       spacingx="66.145832"
       spacingy="66.145832"
       snapvisiblegridlinesonly="true"
       enabled="false"
       originx="0"
       originy="0"
       units="px"
       visible="true" />
  </sodipodi:namedview>
  <metadata
     id="metadata5">
    <rdf:RDF>
      <cc:Work
         rdf:about="">
        <dc:format>image/svg+xml</dc:format>
        <dc:type
           rdf:resource="http://purl.org/dc/dcmitype/StillImage" />
      </cc:Work>
    </rdf:RDF>
  </metadata>
  <g
     inkscape:label="Layer 1"
     inkscape:groupmode="layer"
     id="layer1"
     transform="translate(0,-164.70832)">
    <path
       id="path29"
       style="color:#000000;fill:#000000;stroke-width:0.885775;stroke-linecap:round;stroke-linejoin:round;-inkscape-stroke:none"
       d="m 58.557245,175.15668 c -0.444767,-0.0125 -0.899373,0.0618 -1.33997,0.23358 l -1.948718,0.76016 c -1.762355,0.68738 -2.633877,2.67328 -1.947168,4.43591 l 0.989603,2.53783 c 0.0027,0.007 0.006,0.0122 0.0088,0.0186 -1.10619,0.83232 -2.092653,1.79129 -2.947107,2.84892 -0.01165,-0.005 -0.02234,-0.0114 -0.03411,-0.0171 l -2.492871,-1.09451 c -0.832015,-0.36516 -1.775014,-0.38491 -2.621546,-0.0548 -0.846492,0.33019 -1.527284,0.98285 -1.892391,1.81488 l -0.840258,1.91513 c -0.760204,1.73258 0.02813,3.75353 1.760616,4.51394 l 2.492354,1.0945 c 0.01185,0.004 0.02428,0.009 0.03617,0.0134 -0.199925,1.34496 -0.238204,2.72026 -0.101803,4.09794 -0.0064,0.003 -0.01317,0.004 -0.01964,0.006 l -2.536279,0.98909 c -1.762764,0.68755 -2.634617,2.67413 -1.947168,4.43694 l 0.759643,1.94768 c 0.687548,1.76276 2.674133,2.63463 4.436939,1.94717 l 2.536279,-0.98961 c 0.0065,-0.003 0.01269,-0.006 0.01912,-0.008 0.832337,1.10624 1.791208,2.09266 2.848922,2.94711 -0.0053,0.0116 -0.01191,0.0225 -0.01705,0.0341 l -1.093474,2.49338 c -0.760206,1.73258 0.02813,3.75352 1.760616,4.51394 l 1.914612,0.84026 c 1.732578,0.76021 3.753526,-0.0282 4.513937,-1.76062 l 1.093473,-2.49338 c 0.0052,-0.0119 0.0084,-0.0239 0.01344,-0.0357 1.34484,0.20026 2.720332,0.23766 4.097941,0.10128 0.0026,0.007 0.0041,0.0137 0.0067,0.0202 l 0.989604,2.53731 c 0.687984,1.76214 2.67403,2.63343 4.436421,1.94614 l 1.948719,-0.76016 c 1.762356,-0.6874 2.633877,-2.67276 1.947167,-4.43539 l -0.989603,-2.53783 c -0.0027,-0.007 -0.0061,-0.0121 -0.0088,-0.0186 1.106294,-0.83229 2.093127,-1.79177 2.947624,-2.84943 0.01145,0.005 0.02202,0.0117 0.03359,0.0171 l 2.492871,1.09502 c 1.732578,0.76022 3.753517,-0.0282 4.513937,-1.76061 l 0.840258,-1.91513 c 0.760202,-1.73259 -0.02813,-3.75301 -1.760616,-4.51342 l -2.492354,-1.09503 c -0.01163,-0.005 -0.02444,-0.008 -0.03617,-0.0134 0.19983,-1.34493 0.238253,-2.72029 0.101802,-4.09794 0.0068,-0.003 0.01309,-0.004 0.01964,-0.006 l 2.536279,-0.9896 c 1.762772,-0.68754 2.634611,-2.6736 1.947168,-4.43642 l -0.759643,-1.9482 c -0.687552,-1.76278 -2.67413,-2.6341 -4.436939,-1.94665 l -2.536279,0.98908 c -0.0068,0.003 -0.01268,0.006 -0.01912,0.008 -0.832296,-1.10626 -1.791272,-2.09264 -2.848922,-2.94711 0.0053,-0.0119 0.01184,-0.0229 0.01705,-0.0346 l 1.093474,-2.49287 c 0.760196,-1.73258 -0.02813,-3.75352 -1.760616,-4.51394 l -1.915129,-0.84026 c -0.832011,-0.36516 -1.774491,-0.3849 -2.621029,-0.0548 -0.846487,0.33019 -1.527287,0.98283 -1.892391,1.81487 l -1.093473,2.49391 c -0.0051,0.0117 -0.0086,0.0235 -0.01344,0.0351 -1.344881,-0.20028 -2.720253,-0.23774 -4.097941,-0.10129 -0.0026,-0.007 -0.004,-0.013 -0.0067,-0.0196 l -0.989603,-2.53783 c -0.515989,-1.3216 -1.762155,-2.14208 -3.096452,-2.17972 z m 6.12664,11.06583 c 4.084749,0.0863 7.822504,2.57984 9.428624,6.69804 2.141481,5.49087 -0.459846,11.42314 -5.950743,13.56462 -5.490901,2.14151 -11.423146,-0.46251 -13.564628,-5.95342 -2.141493,-5.49092 0.461622,-11.42313 5.952527,-13.56462 1.372727,-0.53537 2.772635,-0.77341 4.13422,-0.74462 z m -21.501929,22.66493 c -2.899132,8e-5 -5.249809,2.34965 -5.250842,5.24878 v 4.17442 c 5e-6,0.0108 0.002,0.0217 0.0021,0.0325 -2.042942,0.57242 -3.985496,1.39241 -5.794479,2.42673 -0.0138,-0.0141 -0.02581,-0.0294 -0.03979,-0.0434 l -2.94969,-2.95176 c -0.984642,-0.98469 -2.319911,-1.53781 -3.712435,-1.53789 -1.392525,8e-5 -2.72831,0.5532 -3.712952,1.53789 l -2.266011,2.26653 c -2.050258,2.05051 -2.050258,5.37488 0,7.42539 l 2.94969,2.95072 c 0.01398,0.014 0.02931,0.0256 0.04341,0.0393 -1.034429,1.80903 -1.854311,3.75144 -2.426725,5.79448 -0.01065,-6e-5 -0.02085,-0.002 -0.03152,-0.002 H 15.81984 c -2.899805,8e-5 -5.250763,2.3505 -5.250843,5.25032 v 3.20446 c 8e-5,2.89979 2.351038,5.25024 5.250843,5.25032 h 4.172872 c 0.01066,0 0.02086,-0.002 0.03152,-0.002 0.572414,2.04304 1.392296,3.98546 2.426725,5.79448 -0.01403,0.0137 -0.02952,0.0255 -0.04341,0.0393 l -2.94969,2.95073 c -2.050258,2.05051 -2.050258,5.37489 0,7.42538 l 2.266011,2.26653 c 2.050501,2.05027 5.374885,2.05027 7.425387,0 l 2.94969,-2.95175 c 0.01399,-0.014 0.02599,-0.0293 0.03979,-0.0434 1.808983,1.03432 3.751537,1.85431 5.794479,2.42672 -6.9e-5,0.0108 -0.0021,0.0218 -0.0021,0.0326 v 4.17442 c 0.0011,2.89913 2.351711,5.2487 5.250842,5.24878 h 3.205489 c 2.89913,-8e-5 5.249292,-2.34965 5.250325,-5.24878 v -4.17442 c -3e-6,-0.0106 -0.0015,-0.0213 -0.0016,-0.032 2.043095,-0.57235 3.985931,-1.39239 5.794995,-2.42673 0.01364,0.0139 0.02493,0.0291 0.03876,0.0429 l 2.94969,2.95175 c 2.050501,2.05027 5.374886,2.05027 7.425387,0 l 2.266011,-2.26653 c 2.050257,-2.05049 2.050257,-5.37487 0,-7.42538 l -2.949174,-2.95073 c -0.01388,-0.0139 -0.02991,-0.0257 -0.04392,-0.0393 1.034311,-1.80902 1.854905,-3.75144 2.427243,-5.79448 0.01065,6e-5 0.02085,0.002 0.03152,0.002 h 4.172872 c 2.899808,-8e-5 5.250246,-2.35053 5.250326,-5.25032 v -3.20446 c -8e-5,-2.89982 -2.350518,-5.25024 -5.250326,-5.25032 h -4.172872 c -0.01067,0 -0.02086,0.002 -0.03152,0.002 -0.572337,-2.04304 -1.392932,-3.98545 -2.427243,-5.79448 0.01409,-0.0138 0.02996,-0.0254 0.04392,-0.0393 l 2.949174,-2.95072 c 2.050257,-2.05051 2.050257,-5.37488 0,-7.42539 l -2.266528,-2.26653 c -0.984643,-0.98469 -2.31991,-1.53781 -3.712435,-1.53789 -1.392524,8e-5 -2.727793,0.5532 -3.712435,1.53789 l -2.94969,2.95176 c -0.01383,0.0138 -0.02511,0.0289 -0.03876,0.0429 -1.809063,-1.03435 -3.7519,-1.85437 -5.794995,-2.42672 6.7e-5,-0.0106 0.0016,-0.0213 0.0016,-0.032 v -4.17442 c -0.0011,-2.89913 -2.351195,-5.2487 -5.250325,-5.24878 z m 1.603272,27.88657 c 3.560711,0 6.326995,2.76767 6.326995,6.3284 0,3.56071 -2.766284,6.3284 -6.326995,6.3284 -3.560713,0 -6.32805,-2.76769 -6.32805,-6.3284 0,-3.56073 2.767337,-6.3284 6.32805,-6.3284 z m 55.256822,-1.68248 c -1.857971,-0.06 -3.564071,1.18901 -4.012674,3.06751 l -0.737423,3.0918 c -0.0018,0.008 -0.0019,0.0163 -0.0036,0.0243 -1.614038,0.0632 -3.197276,0.32754 -4.719609,0.77411 -0.008,-0.0128 -0.0139,-0.0265 -0.0217,-0.0393 l -1.662947,-2.70681 c -0.555328,-0.90311 -1.446615,-1.54826 -2.477885,-1.79421 -1.031289,-0.24583 -2.11844,-0.0721 -3.021521,0.48317 l -2.078426,1.27796 c -1.880455,1.15653 -2.467337,3.61881 -1.311031,5.49941 l 1.663464,2.70629 c 0.0079,0.0129 0.01731,0.0241 0.02532,0.0367 -1.085514,1.15708 -2.035826,2.45086 -2.820499,3.86282 -0.0079,-0.002 -0.01535,-0.005 -0.02326,-0.007 l -3.09025,-0.73639 c -2.14755,-0.51199 -4.303621,0.81352 -4.815727,2.96106 l -0.565857,2.37298 c -0.511984,2.14757 0.814052,4.30363 2.961576,4.81573 l 3.090251,0.73691 c 0.0079,0.002 0.01588,0.002 0.02377,0.004 0.06316,1.61411 0.327472,3.19721 0.774113,4.71961 -0.01282,0.008 -0.02655,0.0139 -0.03927,0.0217 l -2.705261,1.6645 c -1.880456,1.15654 -2.467854,3.61829 -1.311548,5.49889 l 1.278475,2.07843 c 1.156526,1.88047 3.618293,2.46786 5.498889,1.31154 l 2.705778,-1.66501 c 0.01275,-0.008 0.02402,-0.0174 0.03669,-0.0253 1.15706,1.08543 2.450926,2.03584 3.862814,2.8205 -0.0018,0.008 -0.0054,0.0152 -0.0072,0.0233 l -0.736906,3.0918 c -0.511276,2.1472 0.814543,4.3022 2.961576,4.81418 l 2.374016,0.56637 c 2.147055,0.51186 4.303041,-0.81315 4.815726,-2.96002 l 0.736908,-3.0918 c 0.002,-0.008 0.0021,-0.0159 0.0041,-0.0238 1.61416,-0.0631 3.19772,-0.32755 4.720128,-0.77412 0.008,0.0128 0.0135,0.0261 0.0212,0.0388 l 1.66346,2.70681 c 1.15653,1.88048 3.61828,2.46735 5.49889,1.31103 l 2.07842,-1.27847 c 1.88045,-1.15653 2.46732,-3.61829 1.31104,-5.49889 l -1.66295,-2.7063 c -0.008,-0.0127 -0.0174,-0.0242 -0.0253,-0.0367 1.08543,-1.1571 2.03589,-2.45083 2.8205,-3.86281 0.008,0.002 0.0148,0.005 0.0227,0.007 l 3.09025,0.7369 c 2.14755,0.51199 4.30362,-0.81352 4.81573,-2.96106 l 0.56586,-2.37298 c 0.51198,-2.14755 -0.81405,-4.30363 -2.96158,-4.81572 l -3.08973,-0.73691 c -0.008,-0.002 -0.0164,-0.002 -0.0243,-0.004 -0.0631,-1.6141 -0.32757,-3.19723 -0.77411,-4.71961 0.0128,-0.008 0.0266,-0.0139 0.0393,-0.0217 l 2.70578,-1.66449 c 1.88045,-1.15653 2.46733,-3.61831 1.31103,-5.49889 l -1.27847,-2.07895 c -0.55532,-0.90311 -1.44663,-1.54825 -2.47789,-1.7942 -1.03129,-0.24583 -2.11792,-0.0722 -3.021,0.48317 l -2.70578,1.66502 c -0.0127,0.008 -0.0236,0.0173 -0.0362,0.0253 -1.15709,-1.08546 -2.45132,-2.03585 -3.86333,-2.8205 0.002,-0.008 0.005,-0.0154 0.007,-0.0233 l 0.73691,-3.0918 c 0.51125,-2.14718 -0.81455,-4.30218 -2.96158,-4.81417 l -2.37453,-0.56638 c -0.26839,-0.064 -0.53711,-0.0989 -0.80254,-0.10748 z m -3.850411,18.64124 c 0.47481,0.0181 0.95671,0.0834 1.44126,0.19895 3.876381,0.92427 6.169931,4.65536 5.245671,8.53178 -0.92427,3.87639 -4.654331,6.17148 -8.530745,5.24722 -3.876393,-0.92427 -6.170453,-4.65592 -5.246191,-8.53229 0.808727,-3.39187 3.766362,-5.57265 7.090005,-5.44566 z"
       sodipodi:nodetypes="ccccccccccccccccccccccccccccccccccccccccccccccccccccscccccccccccccccccsssscccccccccccccccsccccsccccccccccscccccccccccccccsccccscccccccccccscscsssssccccccccscccccccscscccccccccccccccccccccccccccccsccccccccccccccccccccccsssc" />
  </g>
</svg>
