<?xml version="1.0" encoding="UTF-8" standalone="no"?>
<!-- Created with Inkscape (http://www.inkscape.org/) -->

<svg
   width="500"
   height="500"
   viewBox="0 0 132.29166 132.29167"
   version="1.1"
   id="svg8"
   sodipodi:docname="icon-info.svg"
   inkscape:version="1.3 (0e150ed6c4, 2023-07-21)"
   xmlns:inkscape="http://www.inkscape.org/namespaces/inkscape"
   xmlns:sodipodi="http://sodipodi.sourceforge.net/DTD/sodipodi-0.dtd"
   xmlns="http://www.w3.org/2000/svg"
   xmlns:svg="http://www.w3.org/2000/svg"
   xmlns:rdf="http://www.w3.org/1999/02/22-rdf-syntax-ns#"
   xmlns:cc="http://creativecommons.org/ns#"
   xmlns:dc="http://purl.org/dc/elements/1.1/">
  <defs
     id="defs2">
    <rect
       x="27.906813"
       y="121.70537"
       width="215.27532"
       height="200.70298"
       id="rect1" />
    <rect
       x="55.575269"
       y="30.159666"
       width="57.597946"
       height="89.310749"
       id="rect8511" />
    <rect
       x="149.54845"
       y="177.66132"
       width="463.95497"
       height="453.97097"
       id="rect23850" />
    <rect
       x="147.25193"
       y="156.08336"
       width="361.72093"
       height="326.91555"
       id="rect5407" />
  </defs>
  <sodipodi:namedview
     id="base"
     pagecolor="#ffffff"
     bordercolor="#666666"
     borderopacity="1.0"
     inkscape:pageopacity="0.0"
     inkscape:pageshadow="2"
     inkscape:zoom="0.83861515"
     inkscape:cx="372.04193"
     inkscape:cy="200.33027"
     inkscape:document-units="mm"
     inkscape:current-layer="layer1"
     showgrid="false"
     units="px"
     inkscape:window-width="1916"
     inkscape:window-height="1156"
     inkscape:window-x="0"
     inkscape:window-y="21"
     inkscape:window-maximized="1"
     inkscape:pagecheckerboard="0"
     inkscape:object-paths="true"
     inkscape:snap-object-midpoints="true"
     inkscape:showpageshadow="2"
     inkscape:deskcolor="#d1d1d1" />
  <metadata
     id="metadata5">
    <rdf:RDF>
      <cc:Work
         rdf:about="">
        <dc:format>image/svg+xml</dc:format>
        <dc:type
           rdf:resource="http://purl.org/dc/dcmitype/StillImage" />
      </cc:Work>
    </rdf:RDF>
  </metadata>
  <g
     inkscape:label="Layer 1"
     inkscape:groupmode="layer"
     id="layer1"
     transform="translate(0,-164.70832)">
    <path
       id="path14139"
       style="fill:#000000;fill-opacity:1;stroke:none;stroke-width:99.9938"
       d="M 248.79297 63.76172 C 146.09353 64.427082 63.315662 148.10405 63.759766 250.80469 C 64.203981 353.50473 147.70159 436.46235 250.40235 436.24024 C 353.10319 436.01874 436.24171 352.70109 436.24219 250 L 436.23438 248.39063 C 435.34726 145.6932 351.49208 63.096329 248.79297 63.76172 z M 267.94336 106.95899 C 275.33106 106.95899 282.60911 109.39686 288.13477 114.14844 C 294.46103 119.36154 297.27539 127.64092 297.27539 135.9375 C 297.27539 146.53464 294.58799 156.3104 287.1543 162.57031 L 287.03125 162.67188 L 286.91016 162.76172 C 281.06525 167.37614 273.90097 170.0918 266.56641 170.0918 C 259.08099 170.0918 251.77294 167.96761 246.11328 163.36914 L 245.83985 163.15625 L 245.59766 162.91406 C 239.71534 157.42397 237.23438 149.34134 237.23438 141.11328 C 237.23438 132.08389 239.64826 123.55768 245.11133 117.07031 L 245.21289 116.95899 L 245.30274 116.84766 C 250.96833 110.51552 259.38543 106.95899 267.94336 106.95899 z M 205.67774 184.61133 L 287.88086 184.61133 L 261.85547 307.46094 C 261.38662 310.03385 260.72189 313.58751 259.82227 318.31055 C 258.95108 322.88427 258.1871 327.5774 257.52735 332.38477 C 257.10043 337.13714 256.89063 341.00246 256.89063 343.69922 C 256.89063 348.26799 257.78271 350.7788 258.08008 351.33594 C 258.15605 351.33216 258.16093 351.30665 258.28516 351.30665 C 260.78435 351.30665 263.5181 350.78366 266.60743 349.59961 C 270.29947 347.94528 274.13131 345.99455 278.12305 343.6836 L 286.51563 338.82032 L 302.34961 364.33008 L 295.87891 369.91211 C 290.04085 374.95407 282.61823 379.84236 273.47266 384.89649 L 273.43164 384.92579 L 273.39258 384.94532 C 263.6197 390.228 253.25343 393.04297 242.75586 393.04297 C 231.21919 393.04297 220.375 388.32195 213.49414 379.56446 L 213.42383 379.47461 L 213.35157 379.38282 C 207.18268 371.15763 204.11133 361.03173 204.11133 350.26368 C 204.11133 344.79701 204.6112 338.63469 205.57617 331.63868 C 206.50913 324.87473 207.56722 318.10792 208.73242 311.34571 C 208.73374 311.33815 208.73111 311.33751 208.73242 311.32618 C 208.73507 311.31106 208.73984 311.30028 208.74219 311.28516 C 209.90258 304.32679 210.95352 298.58749 211.91602 294.01563 L 211.91602 294.00391 L 225.35352 230.60742 C 225.35692 230.59231 225.35014 230.58153 225.35352 230.56641 C 225.94414 227.59979 226.19336 225.21222 226.19336 223.59961 C 226.19336 221.75562 225.90577 221.02976 225.82032 220.79883 C 224.21655 220.00385 220.61154 219.10157 215.14258 219.10157 L 198.28711 219.10157 L 205.67774 184.61133 z "
       transform="matrix(0.26458333,0,0,0.26458333,0,164.70832)" />
  </g>
</svg>
