<?xml version="1.0" encoding="UTF-8" standalone="no"?>
<!-- Created with Inkscape (http://www.inkscape.org/) -->

<svg
   width="500"
   height="500"
   viewBox="0 0 132.29166 132.29167"
   version="1.1"
   id="svg8"
   sodipodi:docname="language.svg"
   inkscape:version="1.3 (0e150ed6c4, 2023-07-21)"
   xmlns:inkscape="http://www.inkscape.org/namespaces/inkscape"
   xmlns:sodipodi="http://sodipodi.sourceforge.net/DTD/sodipodi-0.dtd"
   xmlns="http://www.w3.org/2000/svg"
   xmlns:svg="http://www.w3.org/2000/svg"
   xmlns:rdf="http://www.w3.org/1999/02/22-rdf-syntax-ns#"
   xmlns:cc="http://creativecommons.org/ns#"
   xmlns:dc="http://purl.org/dc/elements/1.1/">
  <defs
     id="defs2">
    <rect
       x="53.578669"
       y="14.657297"
       width="152.68223"
       height="246.47476"
       id="rect6" />
    <rect
       x="37.761992"
       y="223.30028"
       width="272.44199"
       height="263.45589"
       id="rect5" />
    <rect
       x="38.318354"
       y="181.04534"
       width="287.00809"
       height="239.32495"
       id="rect4" />
    <rect
       x="171.43786"
       y="139.85722"
       width="295.77873"
       height="215.25414"
       id="rect3" />
    <rect
       x="82.501308"
       y="131.66548"
       width="371.29508"
       height="188.21516"
       id="rect1" />
    <rect
       x="118.70597"
       y="123.49252"
       width="302.04886"
       height="186.98164"
       id="rect2" />
    <rect
       x="171.43787"
       y="139.85722"
       width="295.77872"
       height="215.25414"
       id="rect3-6" />
    <rect
       x="171.43787"
       y="139.85722"
       width="295.77872"
       height="215.25414"
       id="rect3-7" />
    <rect
       x="171.43787"
       y="139.85722"
       width="295.77872"
       height="215.25414"
       id="rect3-7-0" />
    <rect
       x="171.43787"
       y="139.85722"
       width="295.77872"
       height="215.25414"
       id="rect3-7-9" />
    <rect
       x="171.43787"
       y="139.85722"
       width="295.77872"
       height="215.25414"
       id="rect3-7-94" />
    <rect
       x="171.43787"
       y="139.85722"
       width="295.77872"
       height="215.25414"
       id="rect3-7-5" />
  </defs>
  <sodipodi:namedview
     id="base"
     pagecolor="#ffffff"
     bordercolor="#666666"
     borderopacity="1.0"
     inkscape:pageopacity="0.0"
     inkscape:pageshadow="2"
     inkscape:zoom="0.80847385"
     inkscape:cx="204.70668"
     inkscape:cy="272.11764"
     inkscape:document-units="mm"
     inkscape:current-layer="layer1"
     showgrid="true"
     units="px"
     inkscape:window-width="1916"
     inkscape:window-height="1156"
     inkscape:window-x="0"
     inkscape:window-y="21"
     inkscape:window-maximized="1"
     showguides="false"
     inkscape:showpageshadow="2"
     inkscape:pagecheckerboard="0"
     inkscape:deskcolor="#d1d1d1">
    <inkscape:grid
       type="xygrid"
       id="grid4988"
       spacingx="66.145832"
       spacingy="66.145832"
       snapvisiblegridlinesonly="true"
       enabled="false"
       originx="0"
       originy="0"
       units="px"
       visible="true" />
  </sodipodi:namedview>
  <metadata
     id="metadata5">
    <rdf:RDF>
      <cc:Work
         rdf:about="">
        <dc:format>image/svg+xml</dc:format>
        <dc:type
           rdf:resource="http://purl.org/dc/dcmitype/StillImage" />
      </cc:Work>
    </rdf:RDF>
  </metadata>
  <g
     inkscape:label="Layer 1"
     inkscape:groupmode="layer"
     id="layer1"
     transform="translate(0,-164.70832)">
    <path
       id="rect7"
       style="fill:#070707;fill-opacity:1;stroke-width:7.43713;stroke-linecap:round"
       d="M 73.083085,181.95641 8.9952623,202.12465 v 73.98418 L 54.889638,261.66554 v -14.83025 l -3.687808,-7.43035 -19.552338,6.22329 -3.808706,10.10007 -12.442786,3.96006 18.092541,-47.65689 15.870716,-5.05099 5.528381,11.04296 v -11.60792 -3.88201 l 18.193447,-5.72543 z m 50.213325,3.64306 -64.088303,20.16873 v 73.98369 l 64.088303,-20.16871 z m -13.61367,23.16971 0.0604,6.93011 -0.38125,0.19039 c -4.98625,2.50292 -11.721812,5.24994 -17.972129,7.50747 l -0.285582,3.79727 c 2.337176,-1.2421 4.813024,-2.366 7.183329,-3.12045 l 0.533558,-0.16992 c 0.176834,-0.99749 0.358218,-2.14106 0.400771,-2.79251 l 0.0362,-0.55594 6.825393,-0.54879 0.4969,-0.0404 -0.96288,3.03525 c 5.87871,0.22868 9.84876,3.70646 9.84876,9.73832 0,3.75318 -1.10475,7.83047 -3.84726,11.71884 -2.74254,3.88839 -7.09867,7.56096 -13.520385,10.5708 l -0.297953,0.13851 -3.957208,-5.03671 0.731565,-0.31128 c 4.909261,-2.09674 8.306001,-4.68597 10.466561,-7.32373 2.16056,-2.63778 3.10523,-5.32887 3.10523,-7.73499 0,-2.7935 -1.56359,-4.71435 -4.69544,-5.09477 -2.75421,7.59166 -6.693085,14.06775 -10.522727,18.53519 0.34008,1.08355 0.717025,2.15891 1.100446,3.18709 l 0.149929,0.40124 -6.822069,4.24708 -0.660646,-1.8758 c -2.44009,1.91027 -5.053585,3.53121 -7.706417,4.37559 -1.975853,0.6289 -3.84301,0.62318 -5.213766,-0.2556 -1.370764,-0.87878 -2.211829,-2.6233 -2.211829,-5.32324 0,-6.82546 5.48095,-15.47166 12.710282,-21.28438 0.09507,-1.99781 0.23636,-3.96588 0.412664,-5.90916 l -1.156605,0.3684 c -2.706715,0.86153 -6.730786,1.9337 -9.151459,2.60117 l -0.430752,0.11899 -0.179916,-6.91725 0.553076,-0.0823 c 1.746419,-0.25648 6.308885,-1.29184 9.416097,-2.28085 l 1.650662,-0.52499 0.263211,-2.45267 c 0,-0.003 0.0013,-0.006 0.0015,-0.008 0.05252,-1.00462 0.148981,-2.25716 0.101381,-3.05096 l -0.02856,-0.48977 7.81065,-2.3056 -0.173721,0.634 c -0.302583,1.10489 -0.50556,2.08369 -0.714907,2.93672 l -0.403628,2.35367 c 6.025822,-2.19268 11.416074,-4.55446 16.877404,-7.58362 z m -68.256842,11.21145 -6.475084,16.97925 12.950169,-4.12189 z m 55.277637,10.85686 c -2.188872,0.81069 -4.145789,1.78342 -5.834907,2.81726 0.0084,2.62254 0.206931,4.8598 0.474537,6.98247 2.032238,-2.82157 3.863563,-6.00206 5.36037,-9.79973 z m -12.537984,8.19762 c -3.372199,3.62202 -5.591686,7.84829 -5.591686,10.34946 0,0.75842 0.165089,1.21055 0.447412,1.43124 0.282321,0.22072 0.721022,0.26491 1.465032,0.0281 1.246141,-0.39664 2.942951,-1.49783 4.65736,-2.99861 -0.492579,-2.69643 -0.840846,-5.70228 -0.978118,-8.81019 z" />
  </g>
</svg>
