<?xml version="1.0" encoding="UTF-8" standalone="no"?>
<!-- Created with Inkscape (http://www.inkscape.org/) -->

<svg
   width="500"
   height="500"
   viewBox="0 0 132.29166 132.29167"
   version="1.1"
   id="svg8"
   sodipodi:docname="icon-club-full.svg"
   inkscape:version="1.3.2 (091e20ef0f, 2023-11-25, custom)"
   xmlns:inkscape="http://www.inkscape.org/namespaces/inkscape"
   xmlns:sodipodi="http://sodipodi.sourceforge.net/DTD/sodipodi-0.dtd"
   xmlns="http://www.w3.org/2000/svg"
   xmlns:svg="http://www.w3.org/2000/svg"
   xmlns:rdf="http://www.w3.org/1999/02/22-rdf-syntax-ns#"
   xmlns:cc="http://creativecommons.org/ns#"
   xmlns:dc="http://purl.org/dc/elements/1.1/">
  <defs
     id="defs2">
    <rect
       x="55.575269"
       y="30.159666"
       width="57.597946"
       height="89.310749"
       id="rect8511" />
    <rect
       x="149.54845"
       y="177.66132"
       width="463.95497"
       height="453.97097"
       id="rect23850" />
    <rect
       x="147.25193"
       y="156.08336"
       width="361.72093"
       height="326.91555"
       id="rect5407" />
    <clipPath
       clipPathUnits="userSpaceOnUse"
       id="clipPath1">
      <path
         id="path1"
         style="fill:#000000;fill-opacity:1;stroke:none;stroke-width:37.7952;stroke-linecap:round;stroke-miterlimit:4;stroke-dasharray:none;stroke-opacity:1"
         d="m 42.301853,183.55685 c -14.63249,0.094 -25.428575,13.992 -26.363249,26.39115 -2.121753,28.14666 50.172603,72.43737 50.172603,72.43737 0,0 52.363663,-44.29113 50.241933,-72.43737 -0.93468,-12.39915 -11.73074,-26.29715 -26.363242,-26.39115 -10.077664,-0.0646 -19.305384,5.53374 -23.844541,14.42444 -4.53926,-8.89037 -13.766059,-14.48902 -23.843504,-14.42444 z"
         sodipodi:nodetypes="cscsccc" />
    </clipPath>
  </defs>
  <sodipodi:namedview
     id="base"
     pagecolor="#ffffff"
     bordercolor="#666666"
     borderopacity="1.0"
     inkscape:pageopacity="0.0"
     inkscape:pageshadow="2"
     inkscape:zoom="0.94909298"
     inkscape:cx="92.720104"
     inkscape:cy="417.24047"
     inkscape:document-units="mm"
     inkscape:current-layer="layer1"
     showgrid="false"
     units="px"
     inkscape:window-width="1916"
     inkscape:window-height="1156"
     inkscape:window-x="0"
     inkscape:window-y="21"
     inkscape:window-maximized="1"
     inkscape:pagecheckerboard="0"
     inkscape:object-paths="true"
     inkscape:snap-object-midpoints="true"
     inkscape:snap-others="true"
     inkscape:object-nodes="false"
     inkscape:showpageshadow="2"
     inkscape:deskcolor="#d1d1d1" />
  <metadata
     id="metadata5">
    <rdf:RDF>
      <cc:Work
         rdf:about="">
        <dc:format>image/svg+xml</dc:format>
        <dc:type
           rdf:resource="http://purl.org/dc/dcmitype/StillImage" />
      </cc:Work>
    </rdf:RDF>
  </metadata>
  <g
     inkscape:label="Layer 1"
     inkscape:groupmode="layer"
     id="layer1"
     transform="translate(0,-164.70832)">
    <g
       id="path5">
      <path
         style="color:#000000;fill:#000000;stroke-linecap:square;-inkscape-stroke:none"
         d="m 66.145835,180.81845 c -12.309606,6e-5 -22.288498,9.97895 -22.288562,22.28856 0.01804,5.00107 2.391636,9.47437 4.825029,13.76919 -1.244034,-0.21553 -2.504131,-0.32496 -3.766695,-0.32712 -12.30961,6e-5 -22.288504,9.97896 -22.288562,22.28857 6.4e-5,12.30961 9.978956,22.2885 22.288562,22.28856 9.719476,-0.0125 14.266597,-7.08842 21.230228,-15.59233 6.29175,8.26708 11.510752,15.57979 21.230229,15.59233 12.309605,-6e-5 22.288496,-9.97896 22.288556,-22.28856 -6e-5,-12.30961 -9.978947,-22.28851 -22.288556,-22.28857 -1.272358,0.0121 -2.541343,0.13311 -3.79305,0.36174 2.879566,-4.84311 4.833617,-8.78772 4.851383,-13.80381 -6.4e-5,-12.30961 -9.978956,-22.2885 -22.288562,-22.28856 z m 0,69.43917 c 0,0 2.46e-4,12.83993 -5.409489,20.86488 -2.458969,3.6477 -6.036141,6.30039 -11.23859,6.30039 v 3.46697 h 16.648079 16.64808 v -3.46697 c -5.202449,0 -8.77962,-2.65269 -11.238591,-6.30039 -3.934352,-5.83633 -5.007297,-14.21957 -5.299935,-18.35805 -0.07316,-1.03463 -0.09729,-1.80401 -0.10542,-2.20194 -0.0041,-0.19896 -0.0041,-0.30489 -0.0041,-0.30489 z"
         id="path6" />
      <path
         style="color:#000000;fill:#000000;stroke-linecap:square;-inkscape-stroke:none"
         d="m 66.146484,175.81836 c -15.011773,7e-5 -27.288984,12.27729 -27.289062,27.28906 v 0.008 0.01 c 0.01175,3.25734 0.751885,6.1909 1.792969,8.85742 -12.990007,2.07433 -23.023374,13.30371 -23.023438,26.85547 7.8e-5,15.01178 12.277289,27.28899 27.289063,27.28906 h 0.002 0.0039 c 5.933163,-0.008 10.87271,-2.40192 14.660156,-5.64453 -0.680716,2.85218 -1.560482,5.72187 -2.992187,7.8457 -1.830688,2.7157 -3.588993,4.09571 -7.091797,4.09571 h -5 v 13.46679 h 21.648437 21.646485 v -13.46679 h -5 c -3.502804,0 -5.261107,-1.38001 -7.091797,-4.09571 -1.409247,-2.09051 -2.414438,-4.98945 -3.126953,-7.84765 3.871583,3.24192 8.861481,5.63883 14.794922,5.64648 h 0.0039 0.0039 c 15.011777,-7e-5 27.287037,-12.27729 27.287107,-27.28906 -6e-5,-13.54441 -10.02027,-24.77029 -22.999998,-26.85352 1.060033,-2.73291 1.758068,-5.62265 1.769532,-8.85937 v -0.01 -0.008 c -7.8e-5,-15.01177 -12.275336,-27.28899 -27.28711,-27.28906 z m 0,10 -4.859375,57.76172 c -3.077279,3.79582 -5.668044,7.10667 -8.02539,9.17969 -2.623929,2.30744 -4.705586,3.36206 -8.351563,3.36718 -9.604626,-0.003 -17.283153,-7.68363 -17.283203,-17.28906 4.5e-5,-9.6041 7.676527,-17.28372 17.279297,-17.28906 0.979346,0.002 1.956929,0.0867 2.921875,0.2539 l 10.414062,1.80469 -5.208984,-9.19531 c -2.385033,-4.20947 -4.160833,-7.88681 -4.175781,-11.31445 0.0053,-9.60278 7.684965,-17.27925 17.289062,-17.2793 z m 17.142578,16.17969 c 0.09455,0.1476 0.141872,0.50879 0.142579,1.10156 -0.01566,3.72186 -1.371169,6.58809 -4.146485,11.25586 l -2.912109,4.90039 c 3.539391,-9.63936 6.283191,-18.24574 6.916015,-17.25781 z m 4.111329,19.55273 c 9.596165,0.0129 17.263629,7.68772 17.263669,17.28711 -4e-5,9.60542 -7.676627,17.28583 -17.281248,17.28906 -3.606931,-0.005 -5.939601,-1.14645 -8.634765,-3.48047 -2.695164,-2.33401 -5.450393,-5.97189 -8.623047,-10.14062 l -2.611328,-3.43164 c 2.501074,-4.13009 4.944206,-9.6519 7.18164,-15.45703 l 9.785157,-1.78711 c 0.963155,-0.17593 1.940826,-0.26865 2.919922,-0.2793 z m -21.205079,50.05469 c 0.42077,0.76937 0.714426,1.57016 1.214844,2.3125 0.467016,0.69278 1.084428,1.32112 1.654297,1.97265 h -2.917969 -2.919922 c 0.569999,-0.65164 1.189145,-1.27974 1.65625,-1.97265 0.502099,-0.74483 0.887243,-1.53621 1.3125,-2.3125 z"
         id="path7" />
    </g>
  </g>
</svg>
