<?xml version="1.0" encoding="UTF-8" standalone="no"?>
<!-- Created with Inkscape (http://www.inkscape.org/) -->

<svg
   width="500"
   height="500"
   viewBox="0 0 132.29166 132.29167"
   version="1.1"
   id="svg8"
   sodipodi:docname="icon-sun.svg"
   inkscape:version="1.4.2 (ebf0e940d0, 2025-05-08)"
   xmlns:inkscape="http://www.inkscape.org/namespaces/inkscape"
   xmlns:sodipodi="http://sodipodi.sourceforge.net/DTD/sodipodi-0.dtd"
   xmlns="http://www.w3.org/2000/svg"
   xmlns:svg="http://www.w3.org/2000/svg"
   xmlns:rdf="http://www.w3.org/1999/02/22-rdf-syntax-ns#"
   xmlns:cc="http://creativecommons.org/ns#"
   xmlns:dc="http://purl.org/dc/elements/1.1/">
  <defs
     id="defs2">
    <inkscape:path-effect
       effect="perspective-envelope"
       up_left_point="33.274814,221.62319"
       up_right_point="93.216988,221.25282"
       down_left_point="12.846244,284.15374"
       down_right_point="119.44542,284.15374"
       id="path-effect6"
       is_visible="true"
       lpeversion="1"
       deform_type="perspective"
       horizontal_mirror="false"
       vertical_mirror="false"
       overflow_perspective="false" />
    <rect
       x="-51.952264"
       y="219.19037"
       width="51.952264"
       height="89.676296"
       id="rect5" />
    <rect
       x="21.994148"
       y="60.7689"
       width="333.55285"
       height="273.85825"
       id="rect35" />
    <rect
       x="67.041582"
       y="122.30159"
       width="319.6528"
       height="201.90539"
       id="rect34" />
    <rect
       x="188.5884"
       y="99.673461"
       width="260.00953"
       height="279.50904"
       id="rect33" />
    <inkscape:perspective
       sodipodi:type="inkscape:persp3d"
       inkscape:vp_x="6.1093449 : 34.72819 : 1"
       inkscape:vp_y="0 : 1000 : 0"
       inkscape:vp_z="75.71349 : 35.580862 : 1"
       inkscape:persp3d-origin="66.14583 : 44.097223 : 1"
       id="perspective16" />
    <rect
       x="-51.952263"
       y="219.19037"
       width="51.952263"
       height="89.676292"
       id="rect5-6" />
    <rect
       x="-51.952263"
       y="219.19037"
       width="51.952263"
       height="89.676292"
       id="rect5-6-9" />
    <rect
       x="-51.952263"
       y="219.19037"
       width="51.952263"
       height="89.676292"
       id="rect5-1" />
  </defs>
  <sodipodi:namedview
     id="base"
     pagecolor="#ffffff"
     bordercolor="#666666"
     borderopacity="1.0"
     inkscape:pageopacity="0.0"
     inkscape:pageshadow="2"
     inkscape:zoom="0.7"
     inkscape:cx="337.14286"
     inkscape:cy="330"
     inkscape:document-units="mm"
     inkscape:current-layer="layer1"
     showgrid="true"
     units="px"
     inkscape:window-width="1920"
     inkscape:window-height="1176"
     inkscape:window-x="1920"
     inkscape:window-y="24"
     inkscape:window-maximized="1"
     showguides="true"
     inkscape:snap-object-midpoints="true"
     inkscape:showpageshadow="2"
     inkscape:pagecheckerboard="0"
     inkscape:deskcolor="#d1d1d1">
    <inkscape:grid
       type="xygrid"
       id="grid4988"
       spacingx="66.145832"
       spacingy="66.145832"
       snapvisiblegridlinesonly="true"
       enabled="false"
       originx="0"
       originy="0"
       units="px"
       visible="true" />
  </sodipodi:namedview>
  <metadata
     id="metadata5">
    <rdf:RDF>
      <cc:Work
         rdf:about="">
        <dc:format>image/svg+xml</dc:format>
        <dc:type
           rdf:resource="http://purl.org/dc/dcmitype/StillImage" />
      </cc:Work>
    </rdf:RDF>
  </metadata>
  <g
     inkscape:label="Layer 1"
     inkscape:groupmode="layer"
     id="layer1"
     transform="translate(0,-164.70832)">
    <path
       id="path10"
       style="baseline-shift:baseline;display:inline;overflow:visible;vector-effect:none;stroke-linecap:round;stroke-linejoin:round;paint-order:markers fill stroke;enable-background:accumulate;stop-color:#000000;stop-opacity:1;opacity:1"
       d="M 66.006307 178.37002 A 4.0004 4.0004 0 0 0 62.144527 182.31241 L 62.144527 202.18148 A 4.0004 4.0004 0 0 0 70.144556 202.18148 L 70.144556 182.31241 A 4.0004 4.0004 0 0 0 68.128658 178.89453 A 4.0004 4.0004 0 0 0 66.006307 178.37002 z M 31.833716 192.5707 A 4.0004 4.0004 0 0 0 30.808972 192.71126 A 4.0004 4.0004 0 0 0 28.992546 199.3584 L 43.042334 213.40819 A 4.0004 4.0004 0 0 0 48.699353 207.75117 L 34.649565 193.7019 A 4.0004 4.0004 0 0 0 31.833716 192.5707 z M 100.66466 192.57587 A 4.0004 4.0004 0 0 0 97.640035 193.7019 L 83.591797 207.75014 A 4.0004 4.0004 0 0 0 89.248816 213.40664 L 103.29705 199.3584 A 4.0004 4.0004 0 0 0 104.28872 195.51626 A 4.0004 4.0004 0 0 0 100.66466 192.57587 z M 66.14635 209.15625 C 54.222462 209.15625 44.448966 218.92975 44.448966 230.85364 C 44.448966 242.77752 54.222462 252.55102 66.14635 252.55102 C 78.070238 252.55102 87.843734 242.77752 87.843734 230.85364 C 87.843734 218.92975 78.070238 209.15625 66.14635 209.15625 z M 66.14635 219.15616 C 72.665837 219.15616 77.843827 224.33415 77.843827 230.85364 C 77.843827 237.37312 72.665837 242.5506 66.14635 242.5506 C 59.626864 242.5506 54.44939 237.37312 54.44939 230.85364 C 54.44939 224.33415 59.626864 219.15616 66.14635 219.15616 z M 94.818502 226.85336 A 4.0004 4.0004 0 0 0 94.818502 234.85339 L 114.68757 234.85339 A 4.0004 4.0004 0 0 0 118.10545 232.83801 A 4.0004 4.0004 0 0 0 114.68757 226.85336 L 94.818502 226.85336 z M 17.603577 226.85543 A 4.0004 4.0004 0 0 0 14.187248 228.87133 A 4.0004 4.0004 0 0 0 17.603577 234.85546 L 37.472648 234.85546 A 4.0004 4.0004 0 0 0 37.472648 226.85543 L 17.603577 226.85543 z M 45.995642 247.17202 A 4.0004 4.0004 0 0 0 43.043884 248.30063 L 28.994096 262.35042 A 4.0004 4.0004 0 0 0 28.002425 266.19256 A 4.0004 4.0004 0 0 0 34.651115 268.00744 L 48.700387 253.95765 A 4.0004 4.0004 0 0 0 45.995642 247.17202 z M 86.296541 247.17202 A 4.0004 4.0004 0 0 0 83.591797 253.95765 L 97.641585 268.00744 A 4.0004 4.0004 0 0 0 101.48373 268.99601 A 4.0004 4.0004 0 0 0 103.2986 262.35042 L 89.248816 248.30063 A 4.0004 4.0004 0 0 0 86.296541 247.17202 z M 65.876082 255.59269 A 4.0004 4.0004 0 0 0 62.146594 259.52734 L 62.146594 279.39641 A 4.0004 4.0004 0 0 0 64.161975 282.81274 A 4.0004 4.0004 0 0 0 70.146623 279.39641 L 70.146623 259.52734 A 4.0004 4.0004 0 0 0 65.876082 255.59269 z " />
  </g>
</svg>
