<?xml version="1.0" encoding="UTF-8" standalone="no"?>
<!-- Created with Inkscape (http://www.inkscape.org/) -->

<svg
   width="500"
   height="500"
   viewBox="0 0 132.29166 132.29167"
   version="1.1"
   id="svg8"
   sodipodi:docname="icon-voice.svg"
   inkscape:version="1.3 (0e150ed6c4, 2023-07-21)"
   xmlns:inkscape="http://www.inkscape.org/namespaces/inkscape"
   xmlns:sodipodi="http://sodipodi.sourceforge.net/DTD/sodipodi-0.dtd"
   xmlns="http://www.w3.org/2000/svg"
   xmlns:svg="http://www.w3.org/2000/svg"
   xmlns:rdf="http://www.w3.org/1999/02/22-rdf-syntax-ns#"
   xmlns:cc="http://creativecommons.org/ns#"
   xmlns:dc="http://purl.org/dc/elements/1.1/">
  <defs
     id="defs2">
    <rect
       x="132.68808"
       y="218.01308"
       width="232.38817"
       height="154.83712"
       id="rect10" />
    <rect
       x="53.578669"
       y="14.657297"
       width="152.68223"
       height="246.47476"
       id="rect6" />
    <rect
       x="37.761992"
       y="223.30028"
       width="272.44199"
       height="263.45589"
       id="rect5" />
    <rect
       x="38.318354"
       y="181.04534"
       width="287.00809"
       height="239.32495"
       id="rect4" />
    <rect
       x="171.43786"
       y="139.85722"
       width="295.77873"
       height="215.25414"
       id="rect3" />
    <rect
       x="82.501308"
       y="131.66548"
       width="371.29508"
       height="188.21516"
       id="rect1" />
    <rect
       x="118.70597"
       y="123.49252"
       width="302.04886"
       height="186.98164"
       id="rect2" />
    <rect
       x="171.43787"
       y="139.85722"
       width="295.77872"
       height="215.25414"
       id="rect3-6" />
    <rect
       x="171.43787"
       y="139.85722"
       width="295.77872"
       height="215.25414"
       id="rect3-7" />
    <rect
       x="171.43787"
       y="139.85722"
       width="295.77872"
       height="215.25414"
       id="rect3-7-0" />
    <rect
       x="171.43787"
       y="139.85722"
       width="295.77872"
       height="215.25414"
       id="rect3-7-9" />
    <rect
       x="171.43787"
       y="139.85722"
       width="295.77872"
       height="215.25414"
       id="rect3-7-94" />
    <rect
       x="171.43787"
       y="139.85722"
       width="295.77872"
       height="215.25414"
       id="rect3-7-5" />
    <rect
       x="132.68808"
       y="218.01308"
       width="232.38817"
       height="154.83711"
       id="rect10-7" />
  </defs>
  <sodipodi:namedview
     id="base"
     pagecolor="#ffffff"
     bordercolor="#666666"
     borderopacity="1.0"
     inkscape:pageopacity="0.0"
     inkscape:pageshadow="2"
     inkscape:zoom="0.641939"
     inkscape:cx="151.88359"
     inkscape:cy="228.99372"
     inkscape:document-units="mm"
     inkscape:current-layer="layer1"
     showgrid="true"
     units="px"
     inkscape:window-width="1916"
     inkscape:window-height="1156"
     inkscape:window-x="0"
     inkscape:window-y="21"
     inkscape:window-maximized="1"
     showguides="true"
     inkscape:showpageshadow="2"
     inkscape:pagecheckerboard="0"
     inkscape:deskcolor="#d1d1d1">
    <inkscape:grid
       type="xygrid"
       id="grid4988"
       spacingx="66.145832"
       spacingy="66.145832"
       snapvisiblegridlinesonly="true"
       enabled="false"
       originx="0"
       originy="0"
       units="px"
       visible="true" />
  </sodipodi:namedview>
  <metadata
     id="metadata5">
    <rdf:RDF>
      <cc:Work
         rdf:about="">
        <dc:format>image/svg+xml</dc:format>
        <dc:type
           rdf:resource="http://purl.org/dc/dcmitype/StillImage" />
      </cc:Work>
    </rdf:RDF>
  </metadata>
  <g
     inkscape:label="Layer 1"
     inkscape:groupmode="layer"
     id="layer1"
     transform="translate(0,-164.70832)">
    <path
       id="rect9"
       style="fill:#000000;fill-opacity:1;stroke:none;stroke-width:24.0042;stroke-linecap:round;stroke-linejoin:round;stroke-dasharray:none"
       d="m 37.410701,192.57038 c -15.899374,0 -28.6991327,12.79971 -28.6991327,28.69911 v 18.54421 c 0,15.89942 12.7997587,28.70009 28.6991327,28.70009 15.899375,0 28.698653,-12.80067 28.698653,-28.70009 v -18.54421 c 0,-15.8994 -12.799278,-28.69911 -28.698653,-28.69911 z m -12.034656,19.3882 c 1.680859,0 3.034306,1.35343 3.034306,3.0343 v 15.35893 c 0,1.68087 -1.353447,3.0343 -3.034306,3.0343 -1.680856,0 -3.033826,-1.35343 -3.033826,-3.0343 v -15.35893 c 0,-1.68087 1.35297,-3.0343 3.033826,-3.0343 z m 24.068834,0 c 1.680856,0 3.033825,1.35343 3.033825,3.0343 v 15.35893 c 0,1.68087 -1.352969,3.0343 -3.033825,3.0343 -1.680857,0 -3.034305,-1.35343 -3.034305,-3.0343 v -15.35893 c 0,-1.68087 1.353448,-3.0343 3.034305,-3.0343 z m 50.543885,-24.18299 c -1.544632,-0.0409 -3.015426,0.66036 -3.956272,1.88607 -1.623047,2.11379 -1.225792,5.143 0.887412,6.76681 10.693506,8.21153 16.973376,20.90712 17.007226,34.38967 0.0338,13.48256 -6.18102,26.21124 -16.833139,34.4764 -2.105473,1.6336 -2.48865,4.66441 -0.855986,6.7706 1.633995,2.10728 4.667185,2.49029 6.773725,0.85535 13.00931,-10.09413 20.60954,-25.66014 20.5682,-42.12622 -0.0414,-16.46609 -7.71955,-31.99323 -20.77936,-42.02192 -0.8085,-0.62084 -1.79279,-0.96976 -2.811806,-0.99676 z m -9.829395,15.42347 c -1.269183,0.16685 -2.420104,0.83104 -3.19958,1.84647 -1.62349,2.11449 -1.225327,5.14475 0.889295,6.76808 5.916971,4.54363 9.387698,11.56381 9.406427,19.02401 0.01873,7.46021 -3.418107,14.49724 -9.312155,19.07053 -2.105862,1.63449 -2.487977,4.66664 -0.853473,6.77248 1.634434,2.10546 4.666107,2.48756 6.771847,0.85348 8.25124,-6.40228 13.07217,-16.27663 13.04594,-26.72036 -0.0263,-10.44373 -4.89653,-20.29675 -13.179805,-26.65752 -1.015478,-0.7797 -2.299128,-1.12402 -3.568496,-0.95717 z m -9.604398,11.00276 c -1.468628,0.0271 -2.844979,0.72156 -3.739442,1.88669 -1.623047,2.11379 -1.225792,5.143 0.88741,6.76682 2.488852,1.91113 3.947763,4.85816 3.95564,7.99612 0.0079,3.13796 -1.43622,6.09258 -3.915417,8.01624 -2.105667,1.63424 -2.488041,4.66595 -0.854101,6.77185 1.63448,2.10586 4.666635,2.48797 6.772475,0.85346 4.836377,-3.75263 7.664565,-9.54395 7.649203,-15.66542 -0.01537,-6.12149 -2.871965,-11.90007 -7.727133,-15.62836 -0.867407,-0.66596 -1.935252,-1.01763 -3.028635,-0.9974 z m -43.14427,26.78996 c 4.970695,1.9e-4 9.000076,4.10618 8.999873,9.17096 -5.4e-5,5.0646 -4.02936,9.17029 -8.999873,9.1705 -4.9707,7e-5 -9.000298,-4.10571 -9.00035,-9.1705 -2.04e-4,-5.06497 4.029469,-9.17104 9.00035,-9.17096 z"
       sodipodi:nodetypes="ssssssssssssssssssssscccccccssccccscccccccccscccsccccccc" />
  </g>
</svg>
