<?xml version="1.0" encoding="UTF-8" standalone="no"?>
<!-- Created with Inkscape (http://www.inkscape.org/) -->

<svg
   width="500"
   height="500"
   viewBox="0 0 132.29166 132.29167"
   version="1.1"
   id="svg8"
   sodipodi:docname="icon-headphones.svg"
   inkscape:version="1.3 (0e150ed6c4, 2023-07-21)"
   xmlns:inkscape="http://www.inkscape.org/namespaces/inkscape"
   xmlns:sodipodi="http://sodipodi.sourceforge.net/DTD/sodipodi-0.dtd"
   xmlns="http://www.w3.org/2000/svg"
   xmlns:svg="http://www.w3.org/2000/svg"
   xmlns:rdf="http://www.w3.org/1999/02/22-rdf-syntax-ns#"
   xmlns:cc="http://creativecommons.org/ns#"
   xmlns:dc="http://purl.org/dc/elements/1.1/">
  <defs
     id="defs2">
    <rect
       x="27.906813"
       y="121.70537"
       width="215.27532"
       height="200.70298"
       id="rect1" />
    <rect
       x="55.575269"
       y="30.159666"
       width="57.597946"
       height="89.310749"
       id="rect8511" />
    <rect
       x="149.54845"
       y="177.66132"
       width="463.95497"
       height="453.97097"
       id="rect23850" />
    <rect
       x="147.25193"
       y="156.08336"
       width="361.72093"
       height="326.91555"
       id="rect5407" />
  </defs>
  <sodipodi:namedview
     id="base"
     pagecolor="#ffffff"
     bordercolor="#666666"
     borderopacity="1.0"
     inkscape:pageopacity="0.0"
     inkscape:pageshadow="2"
     inkscape:zoom="1.0958144"
     inkscape:cx="422.97309"
     inkscape:cy="323.04741"
     inkscape:document-units="mm"
     inkscape:current-layer="layer1"
     showgrid="false"
     units="px"
     inkscape:window-width="1916"
     inkscape:window-height="1156"
     inkscape:window-x="0"
     inkscape:window-y="21"
     inkscape:window-maximized="1"
     inkscape:pagecheckerboard="0"
     inkscape:object-paths="true"
     inkscape:snap-object-midpoints="true"
     inkscape:showpageshadow="2"
     inkscape:deskcolor="#d1d1d1" />
  <metadata
     id="metadata5">
    <rdf:RDF>
      <cc:Work
         rdf:about="">
        <dc:format>image/svg+xml</dc:format>
        <dc:type
           rdf:resource="http://purl.org/dc/dcmitype/StillImage" />
      </cc:Work>
    </rdf:RDF>
  </metadata>
  <g
     inkscape:label="Layer 1"
     inkscape:groupmode="layer"
     id="layer1"
     transform="translate(0,-164.70832)">
    <path
       id="rect2"
       style="fill:#040404;fill-opacity:1;stroke-width:4.26229"
       d="M 61.070174 180.22417 C 39.771915 180.22417 27.70087 188.49643 21.808488 198.34916 C 15.916105 208.2019 15.880684 219.05369 15.880684 224.22252 L 15.880684 233.05764 L 15.340149 233.05764 C 12.820826 233.05764 10.792623 235.08585 10.792623 237.60516 L 10.792623 269.95513 C 10.792623 272.47442 12.820826 274.50265 15.340149 274.50265 L 23.818184 274.50265 L 23.818184 233.05764 L 23.818184 225.42709 L 23.818184 224.22252 C 23.818184 219.20043 24.067138 210.03789 28.620992 202.42333 C 33.174846 194.80878 41.713864 188.16167 61.070174 188.16167 L 61.592623 188.16167 L 70.699044 188.16167 L 71.221493 188.16167 C 90.577803 188.16167 99.116824 194.80878 103.67067 202.42333 C 108.22454 210.03789 108.47348 219.20043 108.47348 224.22252 L 108.47348 225.42709 L 108.47348 233.05764 L 108.47348 274.50265 L 116.95152 274.50265 C 119.47085 274.50265 121.49904 272.47442 121.49904 269.95513 L 121.49904 237.60516 C 121.49904 235.08585 119.47085 233.05764 116.95152 233.05764 L 116.41098 233.05764 L 116.41098 224.22252 C 116.41098 219.05369 116.37556 208.2019 110.48318 198.34916 C 104.59078 188.49643 92.51975 180.22417 71.221493 180.22417 L 70.699044 180.22417 L 61.592623 180.22417 L 61.070174 180.22417 z M 30.977954 226.07615 C 29.42165 226.07615 28.020933 226.67281 26.947709 227.62799 L 26.947709 279.93229 C 28.020933 280.88747 29.42165 281.48414 30.977954 281.48414 L 35.667074 281.48414 C 39.035155 281.48414 41.746806 278.77246 41.746806 275.40441 L 41.746806 232.15588 C 41.746806 228.78783 39.035155 226.07615 35.667074 226.07615 L 30.977954 226.07615 z M 96.624593 226.07615 C 93.256509 226.07615 90.544861 228.78783 90.544861 232.15588 L 90.544861 275.40441 C 90.544861 278.77246 93.256509 281.48414 96.624593 281.48414 L 101.31371 281.48414 C 102.87002 281.48414 104.27074 280.88747 105.34396 279.93229 L 105.34396 227.62799 C 104.27074 226.67282 102.87002 226.07615 101.31371 226.07615 L 96.624593 226.07615 z " />
  </g>
</svg>
