<?xml version="1.0" encoding="UTF-8" standalone="no"?>
<!-- Created with Inkscape (http://www.inkscape.org/) -->

<svg
   width="500"
   height="500"
   viewBox="0 0 132.29166 132.29167"
   version="1.1"
   id="svg8"
   sodipodi:docname="icon-write.svg"
   inkscape:version="1.3 (0e150ed6c4, 2023-07-21)"
   xmlns:inkscape="http://www.inkscape.org/namespaces/inkscape"
   xmlns:sodipodi="http://sodipodi.sourceforge.net/DTD/sodipodi-0.dtd"
   xmlns="http://www.w3.org/2000/svg"
   xmlns:svg="http://www.w3.org/2000/svg"
   xmlns:rdf="http://www.w3.org/1999/02/22-rdf-syntax-ns#"
   xmlns:cc="http://creativecommons.org/ns#"
   xmlns:dc="http://purl.org/dc/elements/1.1/">
  <defs
     id="defs2">
    <rect
       x="132.68808"
       y="218.01308"
       width="232.38817"
       height="154.83712"
       id="rect10" />
    <rect
       x="53.578669"
       y="14.657297"
       width="152.68223"
       height="246.47476"
       id="rect6" />
    <rect
       x="37.761992"
       y="223.30028"
       width="272.44199"
       height="263.45589"
       id="rect5" />
    <rect
       x="38.318354"
       y="181.04534"
       width="287.00809"
       height="239.32495"
       id="rect4" />
    <rect
       x="171.43786"
       y="139.85722"
       width="295.77873"
       height="215.25414"
       id="rect3" />
    <rect
       x="82.501308"
       y="131.66548"
       width="371.29508"
       height="188.21516"
       id="rect1" />
    <rect
       x="118.70597"
       y="123.49252"
       width="302.04886"
       height="186.98164"
       id="rect2" />
    <rect
       x="171.43787"
       y="139.85722"
       width="295.77872"
       height="215.25414"
       id="rect3-6" />
    <rect
       x="171.43787"
       y="139.85722"
       width="295.77872"
       height="215.25414"
       id="rect3-7" />
    <rect
       x="171.43787"
       y="139.85722"
       width="295.77872"
       height="215.25414"
       id="rect3-7-0" />
    <rect
       x="171.43787"
       y="139.85722"
       width="295.77872"
       height="215.25414"
       id="rect3-7-9" />
    <rect
       x="171.43787"
       y="139.85722"
       width="295.77872"
       height="215.25414"
       id="rect3-7-94" />
    <rect
       x="171.43787"
       y="139.85722"
       width="295.77872"
       height="215.25414"
       id="rect3-7-5" />
    <rect
       x="132.68808"
       y="218.01308"
       width="232.38817"
       height="154.83711"
       id="rect10-7" />
  </defs>
  <sodipodi:namedview
     id="base"
     pagecolor="#ffffff"
     bordercolor="#666666"
     borderopacity="1.0"
     inkscape:pageopacity="0.0"
     inkscape:pageshadow="2"
     inkscape:zoom="0.5"
     inkscape:cx="255"
     inkscape:cy="254"
     inkscape:document-units="mm"
     inkscape:current-layer="layer1"
     showgrid="true"
     units="px"
     inkscape:window-width="1916"
     inkscape:window-height="1156"
     inkscape:window-x="0"
     inkscape:window-y="21"
     inkscape:window-maximized="1"
     showguides="true"
     inkscape:showpageshadow="2"
     inkscape:pagecheckerboard="0"
     inkscape:deskcolor="#d1d1d1">
    <inkscape:grid
       type="xygrid"
       id="grid4988"
       spacingx="66.145832"
       spacingy="66.145832"
       snapvisiblegridlinesonly="true"
       enabled="false"
       originx="0"
       originy="0"
       units="px"
       visible="true" />
  </sodipodi:namedview>
  <metadata
     id="metadata5">
    <rdf:RDF>
      <cc:Work
         rdf:about="">
        <dc:format>image/svg+xml</dc:format>
        <dc:type
           rdf:resource="http://purl.org/dc/dcmitype/StillImage" />
      </cc:Work>
    </rdf:RDF>
  </metadata>
  <g
     inkscape:label="Layer 1"
     inkscape:groupmode="layer"
     id="layer1"
     transform="translate(0,-164.70832)">
    <path
       id="rect7"
       style="fill:#000000;fill-opacity:1;stroke:none;stroke-width:5.13887;stroke-linecap:round;stroke-linejoin:round"
       d="M 47.272567 175.52368 C 44.477951 175.52368 42.227913 177.77373 42.227913 180.56833 L 42.227913 223.41843 L 76.229456 253.36182 A 5.6318784 5.6318784 0 0 1 77.830391 255.74721 L 82.269914 268.59138 C 91.243013 268.57654 100.21701 268.59017 109.19023 268.58053 C 111.14414 268.36595 113.15659 269.68876 113.56723 271.64184 C 114.18787 273.89896 112.40581 276.39102 110.0708 276.54129 C 99.147088 276.58229 88.221533 276.54716 77.297091 276.55886 C 76.797703 276.6083 76.298461 276.55395 75.824829 276.41416 L 62.107837 273.65568 A 5.6318784 5.6318784 0 0 1 59.49766 272.36066 L 42.227913 257.15332 L 42.227913 283.47471 C 42.227913 286.26934 44.477951 288.51937 47.272567 288.51937 L 117.4905 288.51937 C 120.28512 288.51937 122.53464 286.26934 122.53464 283.47471 L 122.53464 180.56833 C 122.53464 177.77373 120.28512 175.52368 117.4905 175.52368 L 47.272567 175.52368 z M 23.728267 212.03308 A 2.8159416 2.8159416 0 0 0 21.792985 212.98238 L 12.504146 223.52954 A 2.8159416 2.8159416 0 0 0 12.755811 227.50397 L 61.357495 270.30291 A 2.8159416 2.8159416 0 0 0 62.663875 270.95093 L 76.564319 273.74404 A 2.8159416 2.8159416 0 0 0 79.781177 270.06468 L 75.170089 256.72286 A 2.8159416 2.8159416 0 0 0 74.369104 255.52913 L 25.767419 212.73071 A 2.8159416 2.8159416 0 0 0 23.728267 212.03308 z M 24.158215 218.81665 L 70.089779 259.26379 L 72.851367 267.25607 L 64.513892 265.57813 L 18.59163 225.13874 L 24.158215 218.81665 z " />
  </g>
</svg>
