<?xml version="1.0" encoding="UTF-8" standalone="no"?>
<!-- Created with Inkscape (http://www.inkscape.org/) -->

<svg
   width="500"
   height="500"
   viewBox="0 0 132.29166 132.29167"
   version="1.1"
   id="svg8"
   sodipodi:docname="icon-dice-2.svg"
   inkscape:version="1.3 (0e150ed6c4, 2023-07-21)"
   xmlns:inkscape="http://www.inkscape.org/namespaces/inkscape"
   xmlns:sodipodi="http://sodipodi.sourceforge.net/DTD/sodipodi-0.dtd"
   xmlns="http://www.w3.org/2000/svg"
   xmlns:svg="http://www.w3.org/2000/svg"
   xmlns:rdf="http://www.w3.org/1999/02/22-rdf-syntax-ns#"
   xmlns:cc="http://creativecommons.org/ns#"
   xmlns:dc="http://purl.org/dc/elements/1.1/">
  <defs
     id="defs2">
    <rect
       x="55.575269"
       y="30.159666"
       width="57.597946"
       height="89.310749"
       id="rect8511" />
    <rect
       x="149.54845"
       y="177.66132"
       width="463.95497"
       height="453.97097"
       id="rect23850" />
    <rect
       x="147.25193"
       y="156.08336"
       width="361.72093"
       height="326.91555"
       id="rect5407" />
    <clipPath
       clipPathUnits="userSpaceOnUse"
       id="clipPath1">
      <path
         id="path1"
         style="fill:#000000;fill-opacity:1;stroke:none;stroke-width:37.7952;stroke-linecap:round;stroke-miterlimit:4;stroke-dasharray:none;stroke-opacity:1"
         d="m 42.301853,183.55685 c -14.63249,0.094 -25.428575,13.992 -26.363249,26.39115 -2.121753,28.14666 50.172603,72.43737 50.172603,72.43737 0,0 52.363663,-44.29113 50.241933,-72.43737 -0.93468,-12.39915 -11.73074,-26.29715 -26.363242,-26.39115 -10.077664,-0.0646 -19.305384,5.53374 -23.844541,14.42444 -4.53926,-8.89037 -13.766059,-14.48902 -23.843504,-14.42444 z"
         sodipodi:nodetypes="cscsccc" />
    </clipPath>
  </defs>
  <sodipodi:namedview
     id="base"
     pagecolor="#ffffff"
     bordercolor="#666666"
     borderopacity="1.0"
     inkscape:pageopacity="0.0"
     inkscape:pageshadow="2"
     inkscape:zoom="0.92546337"
     inkscape:cx="43.761862"
     inkscape:cy="336.04788"
     inkscape:document-units="mm"
     inkscape:current-layer="layer1"
     showgrid="false"
     units="px"
     inkscape:window-width="1916"
     inkscape:window-height="1156"
     inkscape:window-x="0"
     inkscape:window-y="21"
     inkscape:window-maximized="1"
     inkscape:pagecheckerboard="0"
     inkscape:object-paths="true"
     inkscape:snap-object-midpoints="true"
     inkscape:snap-others="true"
     inkscape:object-nodes="false"
     inkscape:showpageshadow="2"
     inkscape:deskcolor="#d1d1d1" />
  <metadata
     id="metadata5">
    <rdf:RDF>
      <cc:Work
         rdf:about="">
        <dc:format>image/svg+xml</dc:format>
        <dc:type
           rdf:resource="http://purl.org/dc/dcmitype/StillImage" />
      </cc:Work>
    </rdf:RDF>
  </metadata>
  <g
     inkscape:label="Layer 1"
     inkscape:groupmode="layer"
     id="layer1"
     transform="translate(0,-164.70832)">
    <path
       id="rect1"
       style="fill:none;stroke:#000000;stroke-width:10"
       d="m 28.965587,181.4684 h 74.360493 c 6.76185,0 12.2055,5.44365 12.2055,12.2055 v 74.3605 c 0,6.76184 -5.44365,12.2055 -12.2055,12.2055 H 28.965587 c -6.761848,0 -12.205502,-5.44366 -12.205502,-12.2055 v -74.3605 c 0,-6.76185 5.443654,-12.2055 12.205502,-12.2055 z" />
    <path
       id="path2-5"
       style="stroke-width:12.6055"
       d="m 97.234376,252.02083 a 9.921875,9.9218731 0 0 1 -9.921875,9.92188 9.921875,9.9218731 0 0 1 -9.921875,-9.92188 9.921875,9.9218731 0 0 1 9.921875,-9.92187 9.921875,9.9218731 0 0 1 9.921875,9.92187 z" />
    <path
       id="path2-5-3"
       style="stroke-width:12.6055"
       d="m 54.90104,209.68747 a 9.921875,9.9218731 0 0 1 -9.921875,9.92188 9.921875,9.9218731 0 0 1 -9.921875,-9.92188 9.921875,9.9218731 0 0 1 9.921875,-9.92187 9.921875,9.9218731 0 0 1 9.921875,9.92187 z" />
  </g>
</svg>
