<?xml version="1.0" encoding="UTF-8" standalone="no"?>
<!-- Created with Inkscape (http://www.inkscape.org/) -->

<svg
   width="500"
   height="500"
   viewBox="0 0 132.29166 132.29167"
   version="1.1"
   id="svg8"
   sodipodi:docname="icon-web.svg"
   inkscape:version="1.3 (0e150ed6c4, 2023-07-21)"
   xmlns:inkscape="http://www.inkscape.org/namespaces/inkscape"
   xmlns:sodipodi="http://sodipodi.sourceforge.net/DTD/sodipodi-0.dtd"
   xmlns="http://www.w3.org/2000/svg"
   xmlns:svg="http://www.w3.org/2000/svg"
   xmlns:rdf="http://www.w3.org/1999/02/22-rdf-syntax-ns#"
   xmlns:cc="http://creativecommons.org/ns#"
   xmlns:dc="http://purl.org/dc/elements/1.1/">
  <defs
     id="defs2">
    <rect
       x="132.68808"
       y="218.01308"
       width="232.38817"
       height="154.83712"
       id="rect10" />
    <rect
       x="53.578669"
       y="14.657297"
       width="152.68223"
       height="246.47476"
       id="rect6" />
    <rect
       x="37.761992"
       y="223.30028"
       width="272.44199"
       height="263.45589"
       id="rect5" />
    <rect
       x="38.318354"
       y="181.04534"
       width="287.00809"
       height="239.32495"
       id="rect4" />
    <rect
       x="171.43786"
       y="139.85722"
       width="295.77873"
       height="215.25414"
       id="rect3" />
    <rect
       x="82.501308"
       y="131.66548"
       width="371.29508"
       height="188.21516"
       id="rect1" />
    <rect
       x="118.70597"
       y="123.49252"
       width="302.04886"
       height="186.98164"
       id="rect2" />
    <rect
       x="171.43787"
       y="139.85722"
       width="295.77872"
       height="215.25414"
       id="rect3-6" />
    <rect
       x="171.43787"
       y="139.85722"
       width="295.77872"
       height="215.25414"
       id="rect3-7" />
    <rect
       x="171.43787"
       y="139.85722"
       width="295.77872"
       height="215.25414"
       id="rect3-7-0" />
    <rect
       x="171.43787"
       y="139.85722"
       width="295.77872"
       height="215.25414"
       id="rect3-7-9" />
    <rect
       x="171.43787"
       y="139.85722"
       width="295.77872"
       height="215.25414"
       id="rect3-7-94" />
    <rect
       x="171.43787"
       y="139.85722"
       width="295.77872"
       height="215.25414"
       id="rect3-7-5" />
    <rect
       x="132.68808"
       y="218.01308"
       width="232.38817"
       height="154.83711"
       id="rect10-7" />
  </defs>
  <sodipodi:namedview
     id="base"
     pagecolor="#ffffff"
     bordercolor="#666666"
     borderopacity="1.0"
     inkscape:pageopacity="0.0"
     inkscape:pageshadow="2"
     inkscape:zoom="0.62555016"
     inkscape:cx="-170.25014"
     inkscape:cy="150.26773"
     inkscape:document-units="mm"
     inkscape:current-layer="layer1"
     showgrid="true"
     units="px"
     inkscape:window-width="1916"
     inkscape:window-height="1156"
     inkscape:window-x="0"
     inkscape:window-y="21"
     inkscape:window-maximized="1"
     showguides="true"
     inkscape:showpageshadow="2"
     inkscape:pagecheckerboard="0"
     inkscape:deskcolor="#d1d1d1">
    <inkscape:grid
       type="xygrid"
       id="grid4988"
       spacingx="66.145832"
       spacingy="66.145832"
       snapvisiblegridlinesonly="true"
       enabled="false"
       originx="0"
       originy="0"
       units="px"
       visible="true" />
  </sodipodi:namedview>
  <metadata
     id="metadata5">
    <rdf:RDF>
      <cc:Work
         rdf:about="">
        <dc:format>image/svg+xml</dc:format>
        <dc:type
           rdf:resource="http://purl.org/dc/dcmitype/StillImage" />
      </cc:Work>
    </rdf:RDF>
  </metadata>
  <g
     inkscape:label="Layer 1"
     inkscape:groupmode="layer"
     id="layer1"
     transform="translate(0,-164.70832)">
    <path
       id="path16"
       style="color:#000000;fill:#000000;fill-opacity:1;stroke-width:1.03597;stroke-linejoin:round;-inkscape-stroke:none"
       d="m 73.769274,174.26679 c -27.808998,0 -50.427132,22.61759 -50.427133,50.42659 0,1.72588 0.08798,3.43146 0.25804,5.11317 l 21.755716,-9.08228 c 0.288061,-5.05595 1.093471,-9.877 2.363052,-14.30144 6.555835,-2.6194 14.580711,-4.31947 23.308242,-4.61636 v 20.1459 h -2.250628 l -0.75592,5.48149 h 3.006548 v 20.14591 c -1.949663,-0.0663 -3.857824,-0.2129 -5.728823,-0.41383 l -0.926698,6.71709 c 2.174633,0.23584 4.392332,0.4002 6.655521,0.4695 v 13.82124 c -2.031232,-0.12561 -4.026221,-0.38243 -5.971874,-0.77574 -0.800086,-0.40711 -1.582897,-0.88584 -2.355022,-1.40155 l -1.053577,7.6395 c 3.885346,0.96229 7.943629,1.48239 12.122556,1.48239 27.808996,0 50.426596,-22.616 50.426596,-50.42499 0,-27.809 -22.6176,-50.42659 -50.426596,-50.42659 z m -2.742083,6.94514 v 13.82124 c -7.252025,0.22204 -14.095634,1.32265 -20.234775,3.15109 0.949453,-2.02133 1.995416,-3.91777 3.135569,-5.65227 3.183296,-4.8427 6.98022,-8.43411 11.127332,-10.54433 1.945652,-0.39334 3.940644,-0.65011 5.971874,-0.77573 z m 5.48363,0 c 2.030811,0.12558 4.025534,0.38202 5.970804,0.7752 4.146779,2.11018 7.943337,5.70191 11.126797,10.54486 1.140033,1.73432 2.185513,3.63066 3.135033,5.65174 -6.138715,-1.82808 -12.981294,-2.92857 -20.232634,-3.15056 z m 20.505664,6.61216 c 6.966655,4.39581 12.596435,10.70588 16.147355,18.20578 -1.40688,-1.03566 -2.91163,-2.00778 -4.50769,-2.90162 -1.55077,-0.86846 -3.1975,-1.67084 -4.91775,-2.41391 -1.49306,-4.09478 -3.35839,-7.8607 -5.548954,-11.19318 -0.380374,-0.57866 -0.772006,-1.1441 -1.172961,-1.69707 z m -46.499241,0.003 c -0.400258,0.55208 -0.790552,1.11671 -1.170283,1.6944 -2.190766,3.33278 -4.056893,7.099 -5.550015,11.19425 -1.719298,0.74274 -3.365112,1.54482 -4.915085,2.41284 -1.595958,0.89379 -3.100255,1.86603 -4.507145,2.90162 3.55017,-7.49836 9.177838,-13.80741 16.142528,-18.20311 z m 25.993577,13.97916 c 8.726794,0.29686 16.751637,1.9963 23.307171,4.61528 1.373558,4.78493 2.232668,10.02027 2.448168,15.53063 H 76.510821 Z m 29.745339,7.75835 c 6.04146,3.58957 9.7172,7.92024 10.78899,12.38756 h -9.29053 c -0.15334,-4.29215 -0.66717,-8.44109 -1.49846,-12.38756 z m -64.976449,0.002 c -0.831083,3.94598 -1.344606,8.09439 -1.49792,12.38595 H 30.4934 c 1.071635,-4.46673 4.746287,-8.79665 10.786311,-12.38595 z m 22.643333,9.10369 -55.8272489,23.30396 26.3501229,5.13779 -25.4164655,33.00617 9.5105635,7.32311 25.416466,-33.00618 11.700161,24.16428 z m 12.587777,8.76375 h 25.755339 c -0.21534,5.51064 -1.0746,10.7458 -2.448168,15.53061 -6.555547,2.61903 -14.580343,4.31844 -23.307171,4.61529 z m 31.244329,0 h 9.29054 c -1.07114,4.46742 -4.74697,8.79763 -10.78899,12.38755 0.83114,-3.94651 1.34523,-8.09542 1.49845,-12.38755 z m 5.40922,15.92196 c -3.55041,7.49932 -9.17929,13.80901 -16.145208,18.20471 0.400091,-0.55187 0.790691,-1.11639 1.170284,-1.69386 2.190964,-3.33307 4.056824,-7.09968 5.550014,-11.19532 1.71989,-0.74294 3.36623,-1.54562 4.91669,-2.41391 1.59627,-0.89396 3.10121,-1.86592 4.50822,-2.90162 z m -16.42038,7.84614 c -0.949575,2.0211 -1.99545,3.91731 -3.135568,5.65173 -3.18346,4.84297 -6.980018,8.43469 -11.126797,10.54487 -1.945271,0.39315 -3.939992,0.64963 -5.970804,0.7752 V 254.3527 c 7.251534,-0.22199 14.094329,-1.32239 20.233169,-3.15056 z m -52.707206,9.17597 -2.414981,3.13665 c 1.892672,1.56975 3.900266,3.006 6.010419,4.28978 z" />
  </g>
</svg>
