<?xml version="1.0" encoding="UTF-8" standalone="no"?>
<!-- Created with Inkscape (http://www.inkscape.org/) -->

<svg
   width="500"
   height="500"
   viewBox="0 0 132.29166 132.29167"
   version="1.1"
   id="svg8"
   sodipodi:docname="icon-spade-full.svg"
   inkscape:version="1.3.2 (091e20ef0f, 2023-11-25, custom)"
   xmlns:inkscape="http://www.inkscape.org/namespaces/inkscape"
   xmlns:sodipodi="http://sodipodi.sourceforge.net/DTD/sodipodi-0.dtd"
   xmlns="http://www.w3.org/2000/svg"
   xmlns:svg="http://www.w3.org/2000/svg"
   xmlns:rdf="http://www.w3.org/1999/02/22-rdf-syntax-ns#"
   xmlns:cc="http://creativecommons.org/ns#"
   xmlns:dc="http://purl.org/dc/elements/1.1/">
  <defs
     id="defs2">
    <rect
       x="55.575269"
       y="30.159666"
       width="57.597946"
       height="89.310749"
       id="rect8511" />
    <rect
       x="149.54845"
       y="177.66132"
       width="463.95497"
       height="453.97097"
       id="rect23850" />
    <rect
       x="147.25193"
       y="156.08336"
       width="361.72093"
       height="326.91555"
       id="rect5407" />
    <clipPath
       clipPathUnits="userSpaceOnUse"
       id="clipPath1">
      <path
         id="path1"
         style="fill:#000000;fill-opacity:1;stroke:none;stroke-width:37.7952;stroke-linecap:round;stroke-miterlimit:4;stroke-dasharray:none;stroke-opacity:1"
         d="m 42.301853,183.55685 c -14.63249,0.094 -25.428575,13.992 -26.363249,26.39115 -2.121753,28.14666 50.172603,72.43737 50.172603,72.43737 0,0 52.363663,-44.29113 50.241933,-72.43737 -0.93468,-12.39915 -11.73074,-26.29715 -26.363242,-26.39115 -10.077664,-0.0646 -19.305384,5.53374 -23.844541,14.42444 -4.53926,-8.89037 -13.766059,-14.48902 -23.843504,-14.42444 z"
         sodipodi:nodetypes="cscsccc" />
    </clipPath>
  </defs>
  <sodipodi:namedview
     id="base"
     pagecolor="#ffffff"
     bordercolor="#666666"
     borderopacity="1.0"
     inkscape:pageopacity="0.0"
     inkscape:pageshadow="2"
     inkscape:zoom="1.375314"
     inkscape:cx="219.58621"
     inkscape:cy="380.27678"
     inkscape:document-units="mm"
     inkscape:current-layer="layer1"
     showgrid="false"
     units="px"
     inkscape:window-width="1916"
     inkscape:window-height="1156"
     inkscape:window-x="0"
     inkscape:window-y="21"
     inkscape:window-maximized="1"
     inkscape:pagecheckerboard="0"
     inkscape:object-paths="true"
     inkscape:snap-object-midpoints="true"
     inkscape:snap-others="true"
     inkscape:object-nodes="false"
     inkscape:showpageshadow="2"
     inkscape:deskcolor="#d1d1d1" />
  <metadata
     id="metadata5">
    <rdf:RDF>
      <cc:Work
         rdf:about="">
        <dc:format>image/svg+xml</dc:format>
        <dc:type
           rdf:resource="http://purl.org/dc/dcmitype/StillImage" />
      </cc:Work>
    </rdf:RDF>
  </metadata>
  <g
     inkscape:label="Layer 1"
     inkscape:groupmode="layer"
     id="layer1"
     transform="translate(0,-164.70832)">
    <g
       id="path5">
      <path
         style="color:#000000;fill:#000000;stroke-linecap:square;-inkscape-stroke:none"
         d="m 66.11121,181.4396 c 0,0 -52.294399,36.15108 -50.172648,59.12507 0.934673,10.12049 11.730773,21.4646 26.363249,21.54132 10.077434,0.0527 19.304767,-6.015 23.844022,-13.27154 4.539153,7.25681 13.766369,13.32427 23.844023,13.27154 14.632484,-0.0767 25.428574,-11.42083 26.363244,-21.54132 2.12173,-22.97365 -50.24189,-59.12507 -50.24189,-59.12507 z m 0.03462,68.81802 c 0,0 2.41e-4,12.83993 -5.409489,20.86488 -2.458966,3.64769 -6.036146,6.30039 -11.23859,6.30039 v 3.46697 h 16.648079 16.64808 v -3.46697 c -5.202444,0 -8.779622,-2.6527 -11.238591,-6.30039 -3.934348,-5.83633 -5.007297,-14.21958 -5.299935,-18.35806 -0.07316,-1.03463 -0.09729,-1.804 -0.10542,-2.20193 -0.0041,-0.19896 -0.0041,-0.30489 -0.0041,-0.30489 z"
         id="path7" />
      <path
         style="color:#000000;fill:#000000;stroke-linecap:square;-inkscape-stroke:none"
         d="m 66.109375,175.36328 -2.841797,1.96289 c 0,0 -13.316247,9.19256 -26.443359,21.39844 -6.563556,6.10294 -13.11383,12.96204 -18.046875,20.05469 -4.933045,7.09264 -8.532806,14.51017 -7.81836,22.24609 1.227449,13.29062 14.112718,25.98988 31.316407,26.08008 6.195117,0.0324 11.9619,-1.77779 16.865234,-4.71485 -0.640097,2.19024 -1.442965,4.29414 -2.550781,5.9375 -1.830683,2.71568 -3.589007,4.09571 -7.091797,4.09571 h -5 v 13.46679 h 21.648437 21.646485 v -13.46679 h -5 c -3.502791,0 -5.26111,-1.38002 -7.091797,-4.09571 -1.090088,-1.61706 -1.883749,-3.74551 -2.546875,-5.93554 4.902582,2.93576 10.667679,4.7453 16.861328,4.71289 17.203695,-0.0902 30.088965,-12.78946 31.316405,-26.08008 0.71468,-7.73834 -2.89208,-15.15548 -7.83203,-22.24805 -4.93995,-7.09256 -11.49804,-13.95186 -18.070313,-20.05468 C 82.28514,186.51701 68.951172,177.32422 68.951172,177.32422 Z m 0.0039,12.28906 c 3.416207,2.43922 12.231048,8.85211 22.511719,18.39844 6.253402,5.80673 12.38844,12.29425 16.66992,18.44141 4.28148,6.14715 6.42627,11.86481 6.08008,15.61328 -0.64189,6.95034 -9.35087,16.93676 -21.412109,17 -8.054858,0.0421 -15.990047,-5.18556 -19.578125,-10.92188 l -4.238282,-6.77734 -4.240234,6.77734 c -3.588183,5.73614 -11.523609,10.96401 -19.578125,10.92188 -12.061234,-0.0632 -20.768261,-10.04966 -21.410156,-17 -0.346428,-3.75107 1.794909,-9.47009 6.070312,-15.61719 4.275403,-6.1471 10.401672,-12.63289 16.646485,-18.43945 10.264694,-9.54434 19.06499,-15.9559 22.478515,-18.39649 z m 0.08203,83.95313 c 0.420769,0.76937 0.714427,1.57016 1.214844,2.3125 0.467015,0.69278 1.084428,1.32113 1.654297,1.97265 h -2.917969 -2.919922 c 0.569998,-0.65164 1.189146,-1.27974 1.65625,-1.97265 0.502099,-0.74483 0.887243,-1.53621 1.3125,-2.3125 z"
         id="path8" />
    </g>
  </g>
</svg>
