<?xml version="1.0" encoding="UTF-8" standalone="no"?>
<!-- Created with Inkscape (http://www.inkscape.org/) -->

<svg
   width="500"
   height="500"
   viewBox="0 0 132.29166 132.29167"
   version="1.1"
   id="svg8"
   sodipodi:docname="icon-d20.svg"
   inkscape:version="1.3 (0e150ed6c4, 2023-07-21)"
   xmlns:inkscape="http://www.inkscape.org/namespaces/inkscape"
   xmlns:sodipodi="http://sodipodi.sourceforge.net/DTD/sodipodi-0.dtd"
   xmlns="http://www.w3.org/2000/svg"
   xmlns:svg="http://www.w3.org/2000/svg"
   xmlns:rdf="http://www.w3.org/1999/02/22-rdf-syntax-ns#"
   xmlns:cc="http://creativecommons.org/ns#"
   xmlns:dc="http://purl.org/dc/elements/1.1/">
  <defs
     id="defs2">
    <rect
       x="132.68808"
       y="218.01308"
       width="232.38817"
       height="154.83712"
       id="rect10" />
    <rect
       x="53.578669"
       y="14.657297"
       width="152.68223"
       height="246.47476"
       id="rect6" />
    <rect
       x="37.761992"
       y="223.30028"
       width="272.44199"
       height="263.45589"
       id="rect5" />
    <rect
       x="38.318354"
       y="181.04534"
       width="287.00809"
       height="239.32495"
       id="rect4" />
    <rect
       x="171.43786"
       y="139.85722"
       width="295.77873"
       height="215.25414"
       id="rect3" />
    <rect
       x="82.501308"
       y="131.66548"
       width="371.29508"
       height="188.21516"
       id="rect1" />
    <rect
       x="118.70597"
       y="123.49252"
       width="302.04886"
       height="186.98164"
       id="rect2" />
    <rect
       x="171.43787"
       y="139.85722"
       width="295.77872"
       height="215.25414"
       id="rect3-6" />
    <rect
       x="171.43787"
       y="139.85722"
       width="295.77872"
       height="215.25414"
       id="rect3-7" />
    <rect
       x="171.43787"
       y="139.85722"
       width="295.77872"
       height="215.25414"
       id="rect3-7-0" />
    <rect
       x="171.43787"
       y="139.85722"
       width="295.77872"
       height="215.25414"
       id="rect3-7-9" />
    <rect
       x="171.43787"
       y="139.85722"
       width="295.77872"
       height="215.25414"
       id="rect3-7-94" />
    <rect
       x="171.43787"
       y="139.85722"
       width="295.77872"
       height="215.25414"
       id="rect3-7-5" />
    <rect
       x="132.68808"
       y="218.01308"
       width="232.38817"
       height="154.83711"
       id="rect10-7" />
  </defs>
  <sodipodi:namedview
     id="base"
     pagecolor="#ffffff"
     bordercolor="#666666"
     borderopacity="1.0"
     inkscape:pageopacity="0.0"
     inkscape:pageshadow="2"
     inkscape:zoom="0.80847385"
     inkscape:cx="204.70668"
     inkscape:cy="272.11764"
     inkscape:document-units="mm"
     inkscape:current-layer="layer1"
     showgrid="true"
     units="px"
     inkscape:window-width="1916"
     inkscape:window-height="1156"
     inkscape:window-x="0"
     inkscape:window-y="21"
     inkscape:window-maximized="1"
     showguides="false"
     inkscape:showpageshadow="2"
     inkscape:pagecheckerboard="0"
     inkscape:deskcolor="#d1d1d1">
    <inkscape:grid
       type="xygrid"
       id="grid4988"
       spacingx="66.145832"
       spacingy="66.145832"
       snapvisiblegridlinesonly="true"
       enabled="false"
       originx="0"
       originy="0"
       units="px"
       visible="true" />
  </sodipodi:namedview>
  <metadata
     id="metadata5">
    <rdf:RDF>
      <cc:Work
         rdf:about="">
        <dc:format>image/svg+xml</dc:format>
        <dc:type
           rdf:resource="http://purl.org/dc/dcmitype/StillImage" />
      </cc:Work>
    </rdf:RDF>
  </metadata>
  <g
     inkscape:label="Layer 1"
     inkscape:groupmode="layer"
     id="layer1"
     transform="translate(0,-164.70832)">
    <path
       id="text10"
       style="-inkscape-font-specification:'Xolonium Bold';stroke-width:20;stroke-linecap:round;stroke-linejoin:round"
       d="M 248.88185 187.0595 A 3.4457297 3.4457297 0 0 0 247.15915 187.52113 L 189.56058 220.77519 A 3.4457297 3.4457297 0 0 0 187.83789 223.75895 L 187.83789 290.26843 A 3.4457297 3.4457297 0 0 0 189.56058 293.25219 L 247.15915 326.50626 A 3.4457297 3.4457297 0 0 0 250.60454 326.50693 L 308.20311 293.25219 A 3.4457297 3.4457297 0 0 0 309.9258 290.26843 L 309.92648 223.75895 A 3.4457297 3.4457297 0 0 0 308.20311 220.77519 L 250.60454 187.52113 A 3.4457297 3.4457297 0 0 0 248.88185 187.0595 z M 248.88185 194.48324 L 303.03503 225.74813 L 303.03503 288.27926 L 248.88185 319.54415 L 194.72867 288.27926 L 194.72867 225.74813 L 248.88185 194.48324 z M 206.88174 235.01367 L 206.88174 243.01343 L 229.21486 243.01343 C 230.77042 243.01343 231.54858 243.63569 231.54858 244.88013 L 231.54858 250.14714 C 231.54858 251.39158 230.77042 252.01384 229.21486 252.01384 L 214.8815 252.01384 C 207.32595 252.01384 203.54873 255.03575 203.54873 261.08019 L 203.54873 279.01372 L 244.88196 279.01372 L 244.88196 271.01395 L 216.88212 271.01395 L 216.88212 261.8803 C 216.88212 260.63586 217.6596 260.0136 219.21516 260.0136 L 233.54852 260.0136 C 241.10407 260.0136 244.88196 256.99169 244.88196 250.94725 L 244.88196 244.08002 C 244.88196 238.03558 241.10407 235.01367 233.54852 235.01367 L 206.88174 235.01367 z M 264.21518 235.01367 C 256.65962 235.01367 252.88173 238.03558 252.88173 244.08002 L 252.88173 269.94736 C 252.88173 275.9918 256.65962 279.01372 264.21518 279.01372 L 282.88152 279.01372 C 290.43707 279.01372 294.21496 275.9918 294.21496 269.94736 L 294.21496 244.08002 C 294.21496 238.03558 290.43707 235.01367 282.88152 235.01367 L 264.21518 235.01367 z M 268.54883 243.01343 L 278.54853 243.01343 C 280.10409 243.01343 280.88157 243.63569 280.88157 244.88013 L 280.88157 269.14725 C 280.88157 270.3917 280.10409 271.01395 278.54853 271.01395 L 268.54883 271.01395 C 266.99328 271.01395 266.21512 270.3917 266.21512 269.14725 L 266.21512 244.88013 C 266.21512 243.63569 266.99328 243.01343 268.54883 243.01343 z "
       transform="matrix(0.76793445,0,0,0.76793445,-124.97911,33.484485)" />
  </g>
</svg>
