<?xml version="1.0" encoding="UTF-8" standalone="no"?>
<!-- Created with Inkscape (http://www.inkscape.org/) -->

<svg
   width="500"
   height="500"
   viewBox="0 0 132.29166 132.29167"
   version="1.1"
   id="svg8"
   sodipodi:docname="icon-0.svg"
   inkscape:version="1.1.2 (0a00cf5339, 2022-02-04)"
   xmlns:inkscape="http://www.inkscape.org/namespaces/inkscape"
   xmlns:sodipodi="http://sodipodi.sourceforge.net/DTD/sodipodi-0.dtd"
   xmlns="http://www.w3.org/2000/svg"
   xmlns:svg="http://www.w3.org/2000/svg"
   xmlns:rdf="http://www.w3.org/1999/02/22-rdf-syntax-ns#"
   xmlns:cc="http://creativecommons.org/ns#"
   xmlns:dc="http://purl.org/dc/elements/1.1/">
  <defs
     id="defs2">
    <rect
       x="55.575269"
       y="30.159666"
       width="57.597946"
       height="89.310749"
       id="rect8511" />
    <rect
       x="149.54845"
       y="177.66132"
       width="463.95497"
       height="453.97097"
       id="rect23850" />
    <rect
       x="147.25193"
       y="156.08336"
       width="361.72093"
       height="326.91555"
       id="rect5407" />
  </defs>
  <sodipodi:namedview
     id="base"
     pagecolor="#ffffff"
     bordercolor="#666666"
     borderopacity="1.0"
     inkscape:pageopacity="0.0"
     inkscape:pageshadow="2"
     inkscape:zoom="0.83861515"
     inkscape:cx="372.04193"
     inkscape:cy="199.73405"
     inkscape:document-units="mm"
     inkscape:current-layer="layer1"
     showgrid="false"
     units="px"
     inkscape:window-width="1916"
     inkscape:window-height="1029"
     inkscape:window-x="0"
     inkscape:window-y="49"
     inkscape:window-maximized="1"
     inkscape:pagecheckerboard="0"
     inkscape:object-paths="true"
     inkscape:snap-object-midpoints="true" />
  <metadata
     id="metadata5">
    <rdf:RDF>
      <cc:Work
         rdf:about="">
        <dc:format>image/svg+xml</dc:format>
        <dc:type
           rdf:resource="http://purl.org/dc/dcmitype/StillImage" />
      </cc:Work>
    </rdf:RDF>
  </metadata>
  <g
     inkscape:label="Layer 1"
     inkscape:groupmode="layer"
     id="layer1"
     transform="translate(0,-164.70832)">
    <path
       id="path14139"
       style="fill:#000000;fill-opacity:1;stroke:none;stroke-width:99.9938"
       d="M 248.79297,63.761719 A 186.24153,186.24153 0 0 0 63.759766,250.80469 186.24153,186.24153 0 0 0 250.40234,436.24023 186.24153,186.24153 0 0 0 436.24219,250 l -0.008,-1.60938 A 186.24153,186.24153 0 0 0 248.79297,63.761719 Z m 3.0293,48.359371 c 17.98359,0 32.74749,2.24824 44.29101,6.74414 11.54353,4.37439 20.96131,10.14532 28.25195,17.31446 7.29065,7.04762 13.00145,14.51976 17.13282,22.41797 4.25287,7.77669 7.6553,16.88991 10.20703,27.33984 4.98194,19.92777 7.47265,40.70702 7.47265,62.33594 0,48.48281 -8.20151,83.96386 -24.60546,106.44336 -16.40396,22.47949 -44.65535,33.71875 -84.75391,33.71875 -22.4795,0 -40.64582,-3.58477 -54.49805,-10.75391 -13.85223,-7.16914 -25.21369,-17.67902 -34.08398,-31.53125 -6.44007,-9.84237 -11.48358,-23.26974 -15.12891,-40.28125 -3.52381,-17.13302 -5.28515,-36.02676 -5.28515,-56.68359 0,-50.79152 9.11322,-86.33465 27.33984,-106.62696 18.34813,-20.2923 46.23483,-30.4375 83.66016,-30.4375 z m -2.55079,49.39453 c -12.27259,0 -21.14334,6.25783 -26.61132,18.77344 -5.46799,12.3941 -8.20118,35.41964 -8.20118,69.07813 0,34.02302 2.97566,57.29298 8.92969,69.80859 6.07554,12.3941 14.82408,18.58985 26.2461,18.58984 7.53367,0 14.03592,-2.61292 19.5039,-7.83789 5.5895,-5.34647 9.65921,-13.73032 12.21094,-25.15234 2.67324,-11.42201 4.00977,-29.22365 4.00977,-53.4043 0,-35.48115 -3.03775,-59.29618 -9.11329,-71.44726 -5.95403,-12.27259 -14.94504,-18.40821 -26.97461,-18.40821 z"
       transform="matrix(0.26458333,0,0,0.26458333,0,164.70832)" />
  </g>
</svg>
