<?xml version="1.0" encoding="UTF-8" standalone="no"?>
<!-- Created with Inkscape (http://www.inkscape.org/) -->

<svg
   width="500"
   height="500"
   viewBox="0 0 132.29166 132.29167"
   version="1.1"
   id="svg8"
   sodipodi:docname="icon-text-edit.svg"
   inkscape:version="1.3 (0e150ed6c4, 2023-07-21)"
   xmlns:inkscape="http://www.inkscape.org/namespaces/inkscape"
   xmlns:sodipodi="http://sodipodi.sourceforge.net/DTD/sodipodi-0.dtd"
   xmlns="http://www.w3.org/2000/svg"
   xmlns:svg="http://www.w3.org/2000/svg"
   xmlns:rdf="http://www.w3.org/1999/02/22-rdf-syntax-ns#"
   xmlns:cc="http://creativecommons.org/ns#"
   xmlns:dc="http://purl.org/dc/elements/1.1/">
  <defs
     id="defs2">
    <rect
       x="21.994148"
       y="60.7689"
       width="333.55285"
       height="273.85825"
       id="rect35" />
    <rect
       x="67.041582"
       y="122.30159"
       width="319.6528"
       height="201.90539"
       id="rect34" />
    <rect
       x="188.5884"
       y="99.673461"
       width="260.00953"
       height="279.50904"
       id="rect33" />
    <inkscape:perspective
       sodipodi:type="inkscape:persp3d"
       inkscape:vp_x="6.1093449 : 34.72819 : 1"
       inkscape:vp_y="0 : 1000 : 0"
       inkscape:vp_z="75.71349 : 35.580862 : 1"
       inkscape:persp3d-origin="66.14583 : 44.097223 : 1"
       id="perspective16" />
  </defs>
  <sodipodi:namedview
     id="base"
     pagecolor="#ffffff"
     bordercolor="#666666"
     borderopacity="1.0"
     inkscape:pageopacity="0.0"
     inkscape:pageshadow="2"
     inkscape:zoom="0.7"
     inkscape:cx="115"
     inkscape:cy="231.42857"
     inkscape:document-units="mm"
     inkscape:current-layer="layer1"
     showgrid="true"
     units="px"
     inkscape:window-width="1916"
     inkscape:window-height="1153"
     inkscape:window-x="0"
     inkscape:window-y="21"
     inkscape:window-maximized="1"
     showguides="false"
     inkscape:snap-object-midpoints="true"
     inkscape:showpageshadow="2"
     inkscape:pagecheckerboard="0"
     inkscape:deskcolor="#d1d1d1">
    <inkscape:grid
       type="xygrid"
       id="grid4988"
       spacingx="66.145832"
       spacingy="66.145832"
       snapvisiblegridlinesonly="true"
       enabled="false"
       originx="0"
       originy="0"
       units="px"
       visible="true" />
  </sodipodi:namedview>
  <metadata
     id="metadata5">
    <rdf:RDF>
      <cc:Work
         rdf:about="">
        <dc:format>image/svg+xml</dc:format>
        <dc:type
           rdf:resource="http://purl.org/dc/dcmitype/StillImage" />
      </cc:Work>
    </rdf:RDF>
  </metadata>
  <g
     inkscape:label="Layer 1"
     inkscape:groupmode="layer"
     id="layer1"
     transform="translate(0,-164.70832)">
    <path
       id="path33"
       style="color:#000000;fill:#000000;stroke-linecap:round;stroke-linejoin:round;-inkscape-stroke:none"
       d="M 97.009583 196.49553 C 96.27939 196.49589 95.687541 197.08774 95.687183 197.81793 L 95.687183 198.85559 C 95.687769 199.57957 96.270151 200.16863 96.99408 200.17747 C 100.41507 200.21847 104.30642 200.10129 107.5955 200.27359 C 107.8488 200.36989 108.00174 200.5025 108.1381 200.86322 C 108.28694 201.25692 108.33439 201.84835 108.27091 202.3298 C 108.26391 202.3876 108.26018 202.44574 108.26058 202.50395 C 108.25058 221.05134 108.28945 241.71436 108.23215 260.25339 C 108.17135 260.55903 108.03314 260.72332 107.65596 260.89573 C 107.26611 261.07395 106.6656 261.14132 106.22246 261.06988 C 106.15256 261.05888 106.08187 261.05356 106.0111 261.05386 L 97.009583 261.05386 C 96.27939 261.05422 95.687541 261.64607 95.687183 262.37626 L 95.687183 263.41392 C 95.687828 264.14391 96.279593 264.73545 97.009583 264.73581 L 125.14998 264.73581 C 125.87997 264.73545 126.47174 264.14391 126.47238 263.41392 L 126.47238 262.37419 C 126.47179 261.64961 125.88848 261.06031 125.16394 261.05231 C 121.42869 261.01131 117.21906 261.13386 113.60754 260.95826 C 113.35506 260.86196 113.20262 260.72875 113.06648 260.36863 C 112.91764 259.97494 112.8702 259.383 112.93368 258.90154 C 112.94068 258.84394 112.94399 258.78593 112.94349 258.7279 C 112.95349 240.18053 112.91513 219.5175 112.97243 200.97846 C 113.03323 200.67282 113.17145 200.50854 113.54862 200.33612 C 113.93849 200.1579 114.539 200.09054 114.98213 200.16197 C 115.05203 200.17277 115.12274 200.17797 115.19349 200.17747 L 125.14998 200.17747 C 125.87997 200.17711 126.47174 199.58558 126.47238 198.85559 L 126.47238 197.81793 C 126.47202 197.08774 125.88017 196.49589 125.14998 196.49553 L 97.009583 196.49553 z M 19.20658 215.35329 L 5.819283 246.35502 L 15.025956 246.35502 L 17.844389 239.77867 L 32.311723 239.77867 L 35.130155 246.35502 L 44.336829 246.35502 L 30.949532 215.35329 L 19.20658 215.35329 z M 47.389872 215.35329 L 47.389872 246.35502 L 66.648645 246.35502 C 71.345872 246.35502 73.69421 244.47593 73.69421 240.71815 L 73.69421 228.9752 C 73.69421 225.21742 71.345872 223.33833 66.648645 223.33833 L 55.844653 223.33833 L 55.844653 215.35329 L 47.389872 215.35329 z M 25.078056 223.10372 L 29.868978 234.14232 L 20.286617 234.14232 L 25.078056 223.10372 z M 86.37664 223.33833 C 81.679413 223.33833 79.331075 225.21742 79.331075 228.9752 L 79.331075 240.71815 C 79.331075 244.47593 81.679413 246.35502 86.37664 246.35502 L 103.28672 246.35502 L 103.28672 241.42302 L 88.960461 241.42302 C 88.17759 241.42302 87.785856 241.10984 87.785856 240.48354 L 87.785856 229.21033 C 87.785856 228.58403 88.17759 228.27085 88.960461 228.27085 L 103.28672 228.27085 L 103.28672 223.33833 L 86.37664 223.33833 z M 55.844653 228.27085 L 64.064823 228.27085 C 64.847695 228.27085 65.239429 228.58403 65.239429 229.21033 L 65.239429 240.48354 C 65.239429 241.10984 64.847695 241.42302 64.064823 241.42302 L 55.844653 241.42302 L 55.844653 228.27085 z M 5.819283 251.23689 L 5.819283 255.07955 L 103.28672 255.07955 L 103.28672 251.23689 L 5.819283 251.23689 z " />
  </g>
</svg>
