<?xml version="1.0" encoding="UTF-8" standalone="no"?>
<!-- Created with Inkscape (http://www.inkscape.org/) -->

<svg
   width="500"
   height="500"
   viewBox="0 0 132.29166 132.29167"
   version="1.1"
   id="svg8"
   sodipodi:docname="icon-2.svg"
   inkscape:version="1.1.2 (0a00cf5339, 2022-02-04)"
   xmlns:inkscape="http://www.inkscape.org/namespaces/inkscape"
   xmlns:sodipodi="http://sodipodi.sourceforge.net/DTD/sodipodi-0.dtd"
   xmlns="http://www.w3.org/2000/svg"
   xmlns:svg="http://www.w3.org/2000/svg"
   xmlns:rdf="http://www.w3.org/1999/02/22-rdf-syntax-ns#"
   xmlns:cc="http://creativecommons.org/ns#"
   xmlns:dc="http://purl.org/dc/elements/1.1/">
  <defs
     id="defs2">
    <rect
       x="55.575269"
       y="30.159666"
       width="57.597946"
       height="89.310749"
       id="rect8511" />
    <rect
       x="149.54845"
       y="177.66132"
       width="463.95497"
       height="453.97097"
       id="rect23850" />
    <rect
       x="147.25193"
       y="156.08336"
       width="361.72093"
       height="326.91555"
       id="rect5407" />
  </defs>
  <sodipodi:namedview
     id="base"
     pagecolor="#ffffff"
     bordercolor="#666666"
     borderopacity="1.0"
     inkscape:pageopacity="0.0"
     inkscape:pageshadow="2"
     inkscape:zoom="0.83861515"
     inkscape:cx="372.04193"
     inkscape:cy="199.73405"
     inkscape:document-units="mm"
     inkscape:current-layer="layer1"
     showgrid="false"
     units="px"
     inkscape:window-width="956"
     inkscape:window-height="1029"
     inkscape:window-x="960"
     inkscape:window-y="49"
     inkscape:window-maximized="1"
     inkscape:pagecheckerboard="0"
     inkscape:object-paths="true"
     inkscape:snap-object-midpoints="true" />
  <metadata
     id="metadata5">
    <rdf:RDF>
      <cc:Work
         rdf:about="">
        <dc:format>image/svg+xml</dc:format>
        <dc:type
           rdf:resource="http://purl.org/dc/dcmitype/StillImage" />
      </cc:Work>
    </rdf:RDF>
  </metadata>
  <g
     inkscape:label="Layer 1"
     inkscape:groupmode="layer"
     id="layer1"
     transform="translate(0,-164.70832)">
    <path
       id="path14139"
       style="fill:#000000;fill-opacity:1;stroke:none;stroke-width:99.9938"
       d="M 248.79297,63.761719 A 186.24153,186.24153 0 0 0 63.759766,250.80469 186.24153,186.24153 0 0 0 250.40234,436.24023 186.24153,186.24153 0 0 0 436.24219,250 l -0.008,-1.60938 A 186.24153,186.24153 0 0 0 248.79297,63.761719 Z m 3.0293,38.359371 c 26.12482,0 46.41716,2.97566 60.87695,8.92969 14.58129,5.95403 26.00289,15.12934 34.26562,27.52344 8.38425,12.27259 12.57618,26.06269 12.57618,41.37305 0,16.28244 -4.79909,31.83583 -14.39844,46.66015 -9.47784,14.82432 -26.79258,31.10708 -51.94531,48.84766 -14.94583,10.32842 -24.97077,17.55808 -30.07422,21.68945 -4.98195,4.13137 -10.87509,9.53956 -17.67969,16.22266 h 115.92187 v 60.51172 H 138.63477 c 2.55172,-21.99346 10.26829,-42.65049 23.14843,-61.97071 13.00166,-19.44172 37.30359,-42.34504 72.90625,-68.71289 21.75044,-16.16093 35.66274,-28.43411 41.73828,-36.81836 6.07554,-8.38424 9.11329,-16.34328 9.11329,-23.87695 0,-8.14122 -3.03775,-15.06829 -9.11329,-20.7793 -5.95402,-5.83252 -13.4863,-8.74804 -22.59961,-8.74804 -9.47784,0 -17.25453,2.97761 -23.33007,8.93164 -5.95403,5.95403 -9.96362,16.46391 -12.0293,31.53125 l -74.36523,-6.01367 c 2.91625,-20.89986 8.26237,-37.18262 16.03906,-48.84766 7.77669,-11.78655 18.71334,-20.77951 32.80859,-26.97656 14.21677,-6.31857 33.83987,-9.47657 58.8711,-9.47657 z"
       transform="matrix(0.26458333,0,0,0.26458333,0,164.70832)" />
  </g>
</svg>
