<?xml version="1.0" encoding="UTF-8" standalone="no"?>
<!-- Created with Inkscape (http://www.inkscape.org/) -->

<svg
   width="500"
   height="500"
   viewBox="0 0 132.29166 132.29167"
   version="1.1"
   id="svg8"
   sodipodi:docname="icon-club-empty.svg"
   inkscape:version="1.3.2 (091e20ef0f, 2023-11-25, custom)"
   xmlns:inkscape="http://www.inkscape.org/namespaces/inkscape"
   xmlns:sodipodi="http://sodipodi.sourceforge.net/DTD/sodipodi-0.dtd"
   xmlns="http://www.w3.org/2000/svg"
   xmlns:svg="http://www.w3.org/2000/svg"
   xmlns:rdf="http://www.w3.org/1999/02/22-rdf-syntax-ns#"
   xmlns:cc="http://creativecommons.org/ns#"
   xmlns:dc="http://purl.org/dc/elements/1.1/">
  <defs
     id="defs2">
    <rect
       x="55.575269"
       y="30.159666"
       width="57.597946"
       height="89.310749"
       id="rect8511" />
    <rect
       x="149.54845"
       y="177.66132"
       width="463.95497"
       height="453.97097"
       id="rect23850" />
    <rect
       x="147.25193"
       y="156.08336"
       width="361.72093"
       height="326.91555"
       id="rect5407" />
    <clipPath
       clipPathUnits="userSpaceOnUse"
       id="clipPath1">
      <path
         id="path1"
         style="fill:#000000;fill-opacity:1;stroke:none;stroke-width:37.7952;stroke-linecap:round;stroke-miterlimit:4;stroke-dasharray:none;stroke-opacity:1"
         d="m 42.301853,183.55685 c -14.63249,0.094 -25.428575,13.992 -26.363249,26.39115 -2.121753,28.14666 50.172603,72.43737 50.172603,72.43737 0,0 52.363663,-44.29113 50.241933,-72.43737 -0.93468,-12.39915 -11.73074,-26.29715 -26.363242,-26.39115 -10.077664,-0.0646 -19.305384,5.53374 -23.844541,14.42444 -4.53926,-8.89037 -13.766059,-14.48902 -23.843504,-14.42444 z"
         sodipodi:nodetypes="cscsccc" />
    </clipPath>
  </defs>
  <sodipodi:namedview
     id="base"
     pagecolor="#ffffff"
     bordercolor="#666666"
     borderopacity="1.0"
     inkscape:pageopacity="0.0"
     inkscape:pageshadow="2"
     inkscape:zoom="0.94909298"
     inkscape:cx="92.720104"
     inkscape:cy="417.24047"
     inkscape:document-units="mm"
     inkscape:current-layer="layer1"
     showgrid="false"
     units="px"
     inkscape:window-width="1916"
     inkscape:window-height="1156"
     inkscape:window-x="0"
     inkscape:window-y="21"
     inkscape:window-maximized="1"
     inkscape:pagecheckerboard="0"
     inkscape:object-paths="true"
     inkscape:snap-object-midpoints="true"
     inkscape:snap-others="true"
     inkscape:object-nodes="false"
     inkscape:showpageshadow="2"
     inkscape:deskcolor="#d1d1d1" />
  <metadata
     id="metadata5">
    <rdf:RDF>
      <cc:Work
         rdf:about="">
        <dc:format>image/svg+xml</dc:format>
        <dc:type
           rdf:resource="http://purl.org/dc/dcmitype/StillImage" />
      </cc:Work>
    </rdf:RDF>
  </metadata>
  <g
     inkscape:label="Layer 1"
     inkscape:groupmode="layer"
     id="layer1"
     transform="translate(0,-164.70832)">
    <path
       id="path5"
       style="fill:none;fill-opacity:1;stroke:#000000;stroke-width:10;stroke-linecap:square;stroke-dasharray:none;stroke-opacity:1"
       d="m 66.145835,180.81845 c -12.309606,6e-5 -22.288498,9.97895 -22.288562,22.28856 0.01804,5.00107 2.391636,9.47437 4.825029,13.76919 -1.244034,-0.21553 -2.504131,-0.32496 -3.766695,-0.32712 -12.30961,6e-5 -22.288504,9.97896 -22.288562,22.28857 6.4e-5,12.30961 9.978956,22.2885 22.288562,22.28856 9.719476,-0.0125 14.266597,-7.08842 21.230228,-15.59233 6.29175,8.26708 11.510752,15.57979 21.230229,15.59233 12.309605,-6e-5 22.288496,-9.97896 22.288556,-22.28856 -6e-5,-12.30961 -9.978947,-22.28851 -22.288556,-22.28857 -1.272358,0.0121 -2.541343,0.13311 -3.79305,0.36174 2.879566,-4.84311 4.833617,-8.78772 4.851383,-13.80381 -6.4e-5,-12.30961 -9.978956,-22.2885 -22.288562,-22.28856 z m 0,69.43917 c 0,0 2.46e-4,12.83993 -5.409489,20.86488 -2.458969,3.6477 -6.036141,6.30039 -11.23859,6.30039 v 3.46697 h 16.648079 16.64808 v -3.46697 c -5.202449,0 -8.77962,-2.65269 -11.238591,-6.30039 -3.934352,-5.83633 -5.007297,-14.21957 -5.299935,-18.35805 -0.07316,-1.03463 -0.09729,-1.80401 -0.10542,-2.20194 -0.0041,-0.19896 -0.0041,-0.30489 -0.0041,-0.30489 z"
       sodipodi:nodetypes="ccccccccccccccscccccssscc" />
  </g>
</svg>
