<?xml version="1.0" encoding="UTF-8" standalone="no"?>
<!-- Created with Inkscape (http://www.inkscape.org/) -->

<svg
   width="500"
   height="500"
   viewBox="0 0 132.29166 132.29167"
   version="1.1"
   id="svg8"
   sodipodi:docname="icon-spark.svg"
   inkscape:version="1.4.2 (ebf0e940d0, 2025-05-08)"
   xmlns:inkscape="http://www.inkscape.org/namespaces/inkscape"
   xmlns:sodipodi="http://sodipodi.sourceforge.net/DTD/sodipodi-0.dtd"
   xmlns="http://www.w3.org/2000/svg"
   xmlns:svg="http://www.w3.org/2000/svg"
   xmlns:rdf="http://www.w3.org/1999/02/22-rdf-syntax-ns#"
   xmlns:cc="http://creativecommons.org/ns#"
   xmlns:dc="http://purl.org/dc/elements/1.1/">
  <defs
     id="defs2">
    <inkscape:path-effect
       effect="perspective-envelope"
       up_left_point="33.274814,221.62319"
       up_right_point="93.216988,221.25282"
       down_left_point="12.846244,284.15374"
       down_right_point="119.44542,284.15374"
       id="path-effect6"
       is_visible="true"
       lpeversion="1"
       deform_type="perspective"
       horizontal_mirror="false"
       vertical_mirror="false"
       overflow_perspective="false" />
    <rect
       x="-51.952264"
       y="219.19037"
       width="51.952264"
       height="89.676296"
       id="rect5" />
    <rect
       x="21.994148"
       y="60.7689"
       width="333.55285"
       height="273.85825"
       id="rect35" />
    <rect
       x="67.041582"
       y="122.30159"
       width="319.6528"
       height="201.90539"
       id="rect34" />
    <rect
       x="188.5884"
       y="99.673461"
       width="260.00953"
       height="279.50904"
       id="rect33" />
    <inkscape:perspective
       sodipodi:type="inkscape:persp3d"
       inkscape:vp_x="6.1093449 : 34.72819 : 1"
       inkscape:vp_y="0 : 1000 : 0"
       inkscape:vp_z="75.71349 : 35.580862 : 1"
       inkscape:persp3d-origin="66.14583 : 44.097223 : 1"
       id="perspective16" />
    <rect
       x="-51.952263"
       y="219.19037"
       width="51.952263"
       height="89.676292"
       id="rect5-6" />
    <rect
       x="-51.952263"
       y="219.19037"
       width="51.952263"
       height="89.676292"
       id="rect5-6-9" />
    <rect
       x="-51.952263"
       y="219.19037"
       width="51.952263"
       height="89.676292"
       id="rect5-1" />
  </defs>
  <sodipodi:namedview
     id="base"
     pagecolor="#ffffff"
     bordercolor="#666666"
     borderopacity="1.0"
     inkscape:pageopacity="0.0"
     inkscape:pageshadow="2"
     inkscape:zoom="0.70710678"
     inkscape:cx="176.7767"
     inkscape:cy="192.33304"
     inkscape:document-units="mm"
     inkscape:current-layer="layer1"
     showgrid="true"
     units="px"
     inkscape:window-width="1920"
     inkscape:window-height="1176"
     inkscape:window-x="1920"
     inkscape:window-y="24"
     inkscape:window-maximized="1"
     showguides="true"
     inkscape:snap-object-midpoints="true"
     inkscape:showpageshadow="2"
     inkscape:pagecheckerboard="0"
     inkscape:deskcolor="#d1d1d1">
    <inkscape:grid
       type="xygrid"
       id="grid4988"
       spacingx="66.145832"
       spacingy="66.145832"
       snapvisiblegridlinesonly="true"
       enabled="false"
       originx="0"
       originy="0"
       units="px"
       visible="true" />
  </sodipodi:namedview>
  <metadata
     id="metadata5">
    <rdf:RDF>
      <cc:Work
         rdf:about="">
        <dc:format>image/svg+xml</dc:format>
        <dc:type
           rdf:resource="http://purl.org/dc/dcmitype/StillImage" />
      </cc:Work>
    </rdf:RDF>
  </metadata>
  <g
     inkscape:label="Layer 1"
     inkscape:groupmode="layer"
     id="layer1"
     transform="translate(0,-164.70832)">
    <path
       id="path13"
       style="baseline-shift:baseline;display:inline;overflow:visible;vector-effect:none;stroke-linecap:round;stroke-linejoin:round;paint-order:markers fill stroke;enable-background:accumulate;stop-color:#000000"
       d="M 87.142485 175.66011 A 0.50005 0.50005 0 0 0 86.640706 176.14845 L 86.640706 176.15827 C 86.640564 176.16727 86.596591 179.01672 86.238147 182.18167 C 86.058635 183.7667 85.800615 185.42724 85.435612 186.82635 C 85.070609 188.22546 84.570012 189.36041 84.066187 189.85976 C 83.562362 190.35912 82.423721 190.84875 81.021411 191.20128 C 79.619101 191.55381 77.955548 191.7976 76.368982 191.96299 C 73.201988 192.29313 70.35456 192.31277 70.34351 192.31284 L 70.332141 192.31284 A 0.50005 0.50005 0 0 0 70.328007 193.31278 L 70.339893 193.31278 C 70.350933 193.31295 73.197302 193.35699 76.36123 193.71533 C 77.946259 193.89485 79.606793 194.15494 81.005908 194.51994 C 82.405024 194.88495 83.539952 195.38295 84.039315 195.88678 C 84.538677 196.39061 85.028305 197.52976 85.380835 198.93207 C 85.733365 200.33438 85.977156 201.99742 86.142546 203.58398 C 86.472686 206.75098 86.492323 209.59842 86.492395 209.60946 L 86.492395 209.62134 A 0.50005 0.50005 0 0 0 87.492334 209.62547 L 87.492334 209.61359 C 87.492505 209.60259 87.536043 206.75618 87.894377 203.59225 C 88.073891 202.00722 88.333973 200.34668 88.698979 198.94757 C 89.063985 197.54845 89.562507 196.41354 90.066337 195.91417 C 90.570156 195.41481 91.710876 194.92518 93.11318 194.57265 C 94.515485 194.22011 96.17698 193.97633 97.763542 193.81094 C 100.93053 193.48079 103.77796 193.46116 103.78901 193.46109 L 103.8009 193.46109 A 0.50005 0.50005 0 0 0 103.80452 192.46115 L 103.7947 192.46115 C 103.7857 192.46101 100.93624 192.41756 97.771293 192.05911 C 96.186266 191.8796 94.525728 191.61899 93.126615 191.25399 C 91.727502 190.88899 90.593085 190.39096 90.093726 189.88714 C 89.594365 189.38331 89.104219 188.24468 88.751689 186.84237 C 88.399159 185.44006 88.155368 183.77651 87.989978 182.18994 C 87.659838 179.02295 87.640717 176.17552 87.640645 176.16447 L 87.640645 176.15258 A 0.50005 0.50005 0 0 0 87.142485 175.66062 L 87.142485 175.66011 z M 66.37321 179.91411 A 0.50005 0.50005 0 0 0 65.870915 180.40245 L 65.870915 180.41382 C 65.870635 180.43212 65.736175 189.0853 64.64825 198.69126 C 64.103713 203.49931 63.319378 208.54271 62.199304 212.83613 C 61.079229 217.12955 59.595657 220.66977 57.808358 222.44123 C 56.021045 224.21269 52.467217 225.66613 48.163985 226.74794 C 43.860754 227.82974 38.810643 228.56858 33.997925 229.07028 C 24.380967 230.0728 15.724382 230.12903 15.709119 230.12913 L 15.6993 230.12913 A 0.50005 0.50005 0 0 0 15.693099 231.12907 L 15.704985 231.12907 C 15.723285 231.12935 24.378528 231.26382 33.984489 232.35174 C 38.792549 232.89628 43.833352 233.6806 48.126778 234.80068 C 52.420204 235.92076 55.962996 237.40431 57.73446 239.19163 C 59.505923 240.97894 60.957309 244.53276 62.039107 248.836 C 63.120906 253.13923 63.861298 258.18934 64.362996 263.00206 C 65.365508 272.61903 65.421749 281.2756 65.421847 281.29087 L 65.421847 281.3012 A 0.50005 0.50005 0 0 0 66.421785 281.30689 L 66.421785 281.29552 C 66.422065 281.27722 66.554461 272.62197 67.642383 263.01601 C 68.18692 258.20796 68.971772 253.16663 70.091846 248.87321 C 71.21192 244.57979 72.697043 241.0375 74.484342 239.26604 C 76.271655 237.49458 79.825482 236.0432 84.128715 234.9614 C 88.431948 233.87959 93.479987 233.13869 98.292708 232.63699 C 107.90798 231.63465 116.56373 231.57878 116.58203 231.57866 L 116.59392 231.57866 A 0.50005 0.50005 0 0 0 116.59753 230.57872 C 116.59753 230.57872 116.58617 230.57873 116.58617 230.57872 C 116.56787 230.57844 107.9147 230.44553 98.308728 229.3576 C 93.500667 228.81306 88.457282 228.02874 84.163855 226.90866 C 79.870429 225.78858 76.330218 224.30348 74.558757 222.51616 C 72.787294 220.72885 71.333843 217.17451 70.252043 212.87127 C 69.170244 208.56804 68.431403 203.52 67.929704 198.70728 C 66.927368 189.09201 66.870971 180.43677 66.870854 180.41847 L 66.870854 180.40659 A 0.50005 0.50005 0 0 0 66.37321 179.91463 L 66.37321 179.91411 z M 109.15251 198.77704 L 109.15251 198.77756 A 0.50005 0.50005 0 0 0 108.65022 199.26538 L 108.65022 199.27727 C 108.65005 199.28827 108.62465 200.85141 108.42749 202.5918 C 108.32859 203.46505 108.18442 204.37847 107.98617 205.13841 C 107.78791 205.89835 107.50737 206.50231 107.28699 206.72074 C 107.06661 206.93917 106.46064 207.21656 105.69897 207.40804 C 104.93729 207.59952 104.02233 207.73291 103.14823 207.82403 C 101.40513 208.00574 99.839288 208.01724 99.830082 208.0173 L 99.820264 208.0173 A 0.50023594 0.50023594 0 0 0 99.814579 209.01776 L 99.825948 209.01776 C 99.836968 209.01793 101.40214 209.04282 103.14254 209.23997 C 104.0158 209.33887 104.92767 209.48148 105.68761 209.67974 C 106.44755 209.87799 107.05099 210.1606 107.26942 210.38098 C 107.48785 210.60136 107.76524 211.20681 107.95672 211.96848 C 108.1482 212.73015 108.28366 213.64565 108.37478 214.51975 C 108.55638 216.26183 108.56642 217.82479 108.5665 217.83583 L 108.5665 217.84771 A 0.50005 0.50005 0 0 0 109.56644 217.85185 L 109.56644 217.84151 C 109.56658 217.83251 109.59191 216.26684 109.78916 214.52543 C 109.88806 213.65217 110.03015 212.73823 110.22841 211.9783 C 110.42666 211.21836 110.70927 210.61493 110.92966 210.39649 C 111.15004 210.17807 111.75601 209.90222 112.51768 209.71074 C 113.27935 209.51926 114.19433 209.3838 115.06843 209.29268 C 116.81152 209.11097 118.37736 209.09947 118.38657 209.09941 L 118.39691 209.09941 A 0.50005 0.50005 0 0 0 118.40052 208.09947 L 118.39071 208.09947 C 118.38171 208.09933 116.81552 208.07601 115.07411 207.87881 C 114.20085 207.77991 113.28744 207.63574 112.5275 207.43749 C 111.76757 207.23924 111.16565 206.95663 110.94723 206.73625 C 110.7288 206.51586 110.45141 205.9099 110.25994 205.14823 C 110.06846 204.38655 109.93299 203.47365 109.84187 202.59955 C 109.66026 200.85747 109.65023 199.29192 109.65015 199.28089 L 109.65015 199.26952 A 0.50005 0.50005 0 0 0 109.15251 198.77704 z " />
  </g>
</svg>
