<?xml version="1.0" encoding="UTF-8" standalone="no"?>
<!-- Created with Inkscape (http://www.inkscape.org/) -->

<svg
   width="500"
   height="500"
   viewBox="0 0 132.29166 132.29167"
   version="1.1"
   id="svg8"
   sodipodi:docname="icon-d6.svg"
   inkscape:version="1.3 (0e150ed6c4, 2023-07-21)"
   xmlns:inkscape="http://www.inkscape.org/namespaces/inkscape"
   xmlns:sodipodi="http://sodipodi.sourceforge.net/DTD/sodipodi-0.dtd"
   xmlns="http://www.w3.org/2000/svg"
   xmlns:svg="http://www.w3.org/2000/svg"
   xmlns:rdf="http://www.w3.org/1999/02/22-rdf-syntax-ns#"
   xmlns:cc="http://creativecommons.org/ns#"
   xmlns:dc="http://purl.org/dc/elements/1.1/">
  <defs
     id="defs2">
    <rect
       x="132.68808"
       y="218.01308"
       width="232.38817"
       height="154.83712"
       id="rect10" />
    <rect
       x="53.578669"
       y="14.657297"
       width="152.68223"
       height="246.47476"
       id="rect6" />
    <rect
       x="37.761992"
       y="223.30028"
       width="272.44199"
       height="263.45589"
       id="rect5" />
    <rect
       x="38.318354"
       y="181.04534"
       width="287.00809"
       height="239.32495"
       id="rect4" />
    <rect
       x="171.43786"
       y="139.85722"
       width="295.77873"
       height="215.25414"
       id="rect3" />
    <rect
       x="82.501308"
       y="131.66548"
       width="371.29508"
       height="188.21516"
       id="rect1" />
    <rect
       x="118.70597"
       y="123.49252"
       width="302.04886"
       height="186.98164"
       id="rect2" />
    <rect
       x="171.43787"
       y="139.85722"
       width="295.77872"
       height="215.25414"
       id="rect3-6" />
    <rect
       x="171.43787"
       y="139.85722"
       width="295.77872"
       height="215.25414"
       id="rect3-7" />
    <rect
       x="171.43787"
       y="139.85722"
       width="295.77872"
       height="215.25414"
       id="rect3-7-0" />
    <rect
       x="171.43787"
       y="139.85722"
       width="295.77872"
       height="215.25414"
       id="rect3-7-9" />
    <rect
       x="171.43787"
       y="139.85722"
       width="295.77872"
       height="215.25414"
       id="rect3-7-94" />
    <rect
       x="171.43787"
       y="139.85722"
       width="295.77872"
       height="215.25414"
       id="rect3-7-5" />
  </defs>
  <sodipodi:namedview
     id="base"
     pagecolor="#ffffff"
     bordercolor="#666666"
     borderopacity="1.0"
     inkscape:pageopacity="0.0"
     inkscape:pageshadow="2"
     inkscape:zoom="0.80847385"
     inkscape:cx="204.70668"
     inkscape:cy="272.11764"
     inkscape:document-units="mm"
     inkscape:current-layer="layer1"
     showgrid="true"
     units="px"
     inkscape:window-width="956"
     inkscape:window-height="1156"
     inkscape:window-x="960"
     inkscape:window-y="21"
     inkscape:window-maximized="1"
     showguides="false"
     inkscape:showpageshadow="2"
     inkscape:pagecheckerboard="0"
     inkscape:deskcolor="#d1d1d1">
    <inkscape:grid
       type="xygrid"
       id="grid4988"
       spacingx="66.145832"
       spacingy="66.145832"
       snapvisiblegridlinesonly="true"
       enabled="false"
       originx="0"
       originy="0"
       units="px"
       visible="true" />
  </sodipodi:namedview>
  <metadata
     id="metadata5">
    <rdf:RDF>
      <cc:Work
         rdf:about="">
        <dc:format>image/svg+xml</dc:format>
        <dc:type
           rdf:resource="http://purl.org/dc/dcmitype/StillImage" />
      </cc:Work>
    </rdf:RDF>
  </metadata>
  <g
     inkscape:label="Layer 1"
     inkscape:groupmode="layer"
     id="layer1"
     transform="translate(0,-164.70832)">
    <path
       id="text10"
       style="-inkscape-font-specification:'Xolonium Bold';stroke-width:20;stroke-linecap:round;stroke-linejoin:round"
       d="M 200.2137 204.89948 A 3.4457341 3.4457341 0 0 0 196.76831 208.34555 L 196.76831 305.68184 A 3.4457341 3.4457341 0 0 0 200.2137 309.12723 L 297.54999 309.12723 A 3.4457341 3.4457341 0 0 0 300.99538 305.68184 L 300.99538 208.34555 A 3.4457341 3.4457341 0 0 0 297.54999 204.89948 L 200.2137 204.89948 z M 203.65909 211.79094 L 294.1046 211.79094 L 294.1046 302.23645 L 203.65909 302.23645 L 203.65909 211.79094 z M 241.54828 235.01367 C 232.6594 235.01367 228.21489 238.56914 228.21489 245.68024 L 228.21489 269.94736 C 228.21489 275.9918 231.99279 279.01372 239.54834 279.01372 L 258.21535 279.01372 C 265.7709 279.01372 269.5488 275.9918 269.5488 269.94736 L 269.5488 261.08019 C 269.5488 255.03575 265.7709 252.01384 258.21535 252.01384 L 241.54828 252.01384 L 241.54828 246.74684 C 241.54828 244.25795 243.10392 243.01343 246.21503 243.01343 L 266.21512 243.01343 L 266.21512 235.01367 L 241.54828 235.01367 z M 241.54828 260.0136 L 253.8817 260.0136 C 255.43725 260.0136 256.21541 260.63586 256.21541 261.8803 L 256.21541 269.14725 C 256.21541 270.3917 255.43725 271.01395 253.8817 271.01395 L 243.88199 271.01395 C 242.32644 271.01395 241.54828 270.3917 241.54828 269.14725 L 241.54828 260.0136 z "
       transform="matrix(0.76793445,0,0,0.76793445,-124.97911,33.484485)" />
  </g>
</svg>
