<?xml version="1.0" encoding="UTF-8" standalone="no"?>
<!-- Created with Inkscape (http://www.inkscape.org/) -->

<svg
   width="500"
   height="500"
   viewBox="0 0 132.29166 132.29167"
   version="1.1"
   id="svg8"
   sodipodi:docname="itchio.svg"
   inkscape:version="1.3.2 (091e20ef0f, 2023-11-25, custom)"
   xmlns:inkscape="http://www.inkscape.org/namespaces/inkscape"
   xmlns:sodipodi="http://sodipodi.sourceforge.net/DTD/sodipodi-0.dtd"
   xmlns="http://www.w3.org/2000/svg"
   xmlns:svg="http://www.w3.org/2000/svg"
   xmlns:rdf="http://www.w3.org/1999/02/22-rdf-syntax-ns#"
   xmlns:cc="http://creativecommons.org/ns#"
   xmlns:dc="http://purl.org/dc/elements/1.1/">
  <defs
     id="defs2">
    <rect
       x="53.983325"
       y="50.577051"
       width="601.27373"
       height="412.49454"
       id="rect1" />
    <inkscape:path-effect
       effect="perspective-envelope"
       up_left_point="21.827091,197.06965"
       up_right_point="113.68763,197.06965"
       down_left_point="36.89482,283.54086"
       down_right_point="98.671497,283.54086"
       id="path-effect31"
       is_visible="true"
       lpeversion="1"
       deform_type="perspective"
       horizontal_mirror="false"
       vertical_mirror="false"
       overflow_perspective="false" />
    <inkscape:path-effect
       effect="perspective-envelope"
       up_left_point="24.989688,189.69801"
       up_right_point="99.392279,199.00479"
       down_left_point="24.989688,272.0103"
       down_right_point="99.339553,263.45845"
       id="path-effect30"
       is_visible="true"
       lpeversion="1"
       deform_type="perspective"
       horizontal_mirror="false"
       vertical_mirror="false"
       overflow_perspective="false" />
    <inkscape:path-effect
       effect="perspective-envelope"
       up_left_point="33.274814,221.62319"
       up_right_point="93.216988,221.25282"
       down_left_point="12.846244,284.15374"
       down_right_point="119.44542,284.15374"
       id="path-effect6"
       is_visible="true"
       lpeversion="1"
       deform_type="perspective"
       horizontal_mirror="false"
       vertical_mirror="false"
       overflow_perspective="false" />
    <rect
       x="-51.952264"
       y="219.19037"
       width="51.952264"
       height="89.676296"
       id="rect5" />
    <rect
       x="21.994148"
       y="60.7689"
       width="333.55285"
       height="273.85825"
       id="rect35" />
    <rect
       x="67.041582"
       y="122.30159"
       width="319.6528"
       height="201.90539"
       id="rect34" />
    <rect
       x="188.5884"
       y="99.673461"
       width="260.00953"
       height="279.50904"
       id="rect33" />
    <inkscape:perspective
       sodipodi:type="inkscape:persp3d"
       inkscape:vp_x="6.1093449 : 34.72819 : 1"
       inkscape:vp_y="0 : 1000 : 0"
       inkscape:vp_z="75.71349 : 35.580862 : 1"
       inkscape:persp3d-origin="66.14583 : 44.097223 : 1"
       id="perspective16" />
    <rect
       x="-51.952263"
       y="219.19037"
       width="51.952263"
       height="89.676292"
       id="rect5-6" />
    <rect
       x="-51.952263"
       y="219.19037"
       width="51.952263"
       height="89.676292"
       id="rect5-6-9" />
    <rect
       x="-51.952263"
       y="219.19037"
       width="51.952263"
       height="89.676292"
       id="rect5-1" />
  </defs>
  <sodipodi:namedview
     id="base"
     pagecolor="#ffffff"
     bordercolor="#666666"
     borderopacity="1.0"
     inkscape:pageopacity="0.0"
     inkscape:pageshadow="2"
     inkscape:zoom="0.98994949"
     inkscape:cx="259.6092"
     inkscape:cy="89.903577"
     inkscape:document-units="mm"
     inkscape:current-layer="layer1"
     showgrid="true"
     units="px"
     inkscape:window-width="1916"
     inkscape:window-height="1156"
     inkscape:window-x="0"
     inkscape:window-y="21"
     inkscape:window-maximized="1"
     showguides="true"
     inkscape:snap-object-midpoints="true"
     inkscape:showpageshadow="2"
     inkscape:pagecheckerboard="0"
     inkscape:deskcolor="#d1d1d1">
    <inkscape:grid
       type="xygrid"
       id="grid4988"
       spacingx="66.145832"
       spacingy="66.145832"
       snapvisiblegridlinesonly="true"
       enabled="false"
       originx="0"
       originy="0"
       units="px"
       visible="true" />
  </sodipodi:namedview>
  <metadata
     id="metadata5">
    <rdf:RDF>
      <cc:Work
         rdf:about="">
        <dc:format>image/svg+xml</dc:format>
        <dc:type
           rdf:resource="http://purl.org/dc/dcmitype/StillImage" />
      </cc:Work>
    </rdf:RDF>
  </metadata>
  <g
     inkscape:label="Layer 1"
     inkscape:groupmode="layer"
     id="layer1"
     transform="translate(0,-164.70832)">
    <path
       style="color:#000000;-inkscape-font-specification:'Concourse T7 Bold';fill:#080000;stroke-width:0.578179;stroke-linecap:square;-inkscape-stroke:none"
       d="m 26.2515,182.90661 q -3.902708,2.60181 -8.8895,8.02223 v 0 0 q -4.769975,5.63725 -5.20361,8.23905 v 4.55316 0 q 0.216818,4.55316 3.469073,7.80542 3.035439,3.03544 6.938147,3.25225 4.769975,-0.21681 7.805414,-3.25225 3.035439,-3.03544 3.252256,-7.5886 0,4.55316 3.035439,7.5886 3.035439,3.03544 7.805414,3.25225 4.553158,-0.21681 7.37178,-3.25225 3.035439,-3.03544 3.252256,-7.5886 0,4.55316 3.252256,7.5886 3.035439,3.03544 7.805415,3.25225 v 0 0 q 4.769975,-0.21681 7.805414,-3.25225 3.252256,-3.03544 3.252256,-7.5886 0.216817,4.55316 3.252256,7.5886 2.818622,3.03544 7.37178,3.25225 4.769976,-0.21681 7.805414,-3.25225 3.035439,-3.03544 3.035439,-7.5886 0.216817,4.55316 3.252261,7.5886 3.03543,3.03544 7.80541,3.25225 3.90271,-0.21681 6.93815,-3.25225 3.25225,-3.25226 3.46907,-7.80542 v -4.55316 0 q -0.43364,-2.6018 -5.42043,-8.23905 -4.76997,-5.42042 -8.67268,-8.02223 -10.624037,-0.43363 -19.730353,-0.65045 -9.106317,0 -20.163987,0 -11.924939,0 -24.066695,0.21682 -12.141755,0.21682 -15.827645,0.43363 z m 28.619852,29.05349 q -3.902707,6.28769 -10.840853,6.28769 v 0 0 q -6.721329,0 -10.840853,-6.28769 -2.384988,3.90271 -6.070878,5.42043 -3.68589,1.3009 -6.070878,0.65045 -0.433634,4.98679 -0.867268,17.56218 -0.216817,12.35857 0.650451,24.50033 0.867268,12.14175 4.119524,16.26128 9.323134,2.16817 25.367597,2.81862 16.044463,0.65045 32.088925,-0.21682 15.827646,-0.65045 24.933961,-2.6018 3.25226,-4.11953 4.11953,-16.4781 0.86726,-12.14175 0.65045,-24.71714 -0.43364,-12.35858 -0.86727,-17.12855 -2.38499,0.65045 -6.07088,-0.65045 -3.68589,-1.51772 -6.070876,-5.42043 -4.119525,6.28769 -10.840854,6.28769 -6.938146,0 -10.840853,-6.28769 -1.084085,2.16817 -3.902707,4.11952 -2.818622,1.95136 -7.37178,2.16817 -7.371781,0 -11.274488,-6.28769 z m -8.889499,11.70812 q 2.601804,-0.21682 5.203609,0.43364 v 0 0 q 2.384988,0.65045 5.420427,3.9027 9.539951,-1.08408 19.079901,0 3.035439,-3.03544 5.420427,-3.9027 2.601805,-0.65046 5.20361,-0.43364 0,0 0,0 7.37178,0.43364 10.840853,8.02223 3.68589,7.5886 5.85406,17.779 0.86727,2.81862 1.51772,5.42043 2.6018,9.75677 0,12.14175 -2.38499,2.16817 -7.37178,1.73454 -6.938146,-0.43363 -10.407219,-4.33634 -3.68589,-4.11952 -3.68589,-9.32313 -6.721329,1.08408 -15.827646,1.3009 -9.106317,0.21682 -17.995816,-1.3009 0,5.20361 -3.685891,9.32313 -3.68589,3.90271 -10.407219,4.33634 -4.986792,0.43363 -7.37178,-1.73454 -2.601805,-2.38498 0,-12.14175 0.650451,-2.60181 1.51772,-5.42043 2.16817,-10.1904 5.85406,-17.779 3.469073,-7.58859 10.840854,-8.02223 z m 20.163987,10.40722 q -0.650452,0.43363 -4.986793,4.76998 v 0 0 q -4.553158,4.33634 -6.287695,7.15496 l 6.287695,-0.21682 v 0 5.42043 0 q 0,0.21682 1.51772,0.21682 1.517719,0 2.818621,-0.21682 0.433635,0 0.650452,0 4.336341,0.43363 4.986792,0 v -5.42043 0 l 6.287695,0.21682 v 0 q -1.734537,-2.81862 -6.287695,-7.15496 -4.553158,-4.33635 -4.986792,-4.76998 z"
       id="path1" />
  </g>
</svg>
