<?xml version="1.0" encoding="UTF-8" standalone="no"?>
<!-- Created with Inkscape (http://www.inkscape.org/) -->

<svg
   width="500"
   height="500"
   viewBox="0 0 132.29166 132.29167"
   version="1.1"
   id="svg8"
   sodipodi:docname="light-gun.svg"
   inkscape:version="1.3 (0e150ed6c4, 2023-07-21)"
   xmlns:inkscape="http://www.inkscape.org/namespaces/inkscape"
   xmlns:sodipodi="http://sodipodi.sourceforge.net/DTD/sodipodi-0.dtd"
   xmlns="http://www.w3.org/2000/svg"
   xmlns:svg="http://www.w3.org/2000/svg"
   xmlns:rdf="http://www.w3.org/1999/02/22-rdf-syntax-ns#"
   xmlns:cc="http://creativecommons.org/ns#"
   xmlns:dc="http://purl.org/dc/elements/1.1/">
  <defs
     id="defs2">
    <inkscape:path-effect
       effect="perspective-envelope"
       up_left_point="33.274814,221.62319"
       up_right_point="93.216988,221.25282"
       down_left_point="12.846244,284.15374"
       down_right_point="119.44542,284.15374"
       id="path-effect6"
       is_visible="true"
       lpeversion="1"
       deform_type="perspective"
       horizontal_mirror="false"
       vertical_mirror="false"
       overflow_perspective="false" />
    <rect
       x="-51.952264"
       y="219.19037"
       width="51.952264"
       height="89.676296"
       id="rect5" />
    <rect
       x="21.994148"
       y="60.7689"
       width="333.55285"
       height="273.85825"
       id="rect35" />
    <rect
       x="67.041582"
       y="122.30159"
       width="319.6528"
       height="201.90539"
       id="rect34" />
    <rect
       x="188.5884"
       y="99.673461"
       width="260.00953"
       height="279.50904"
       id="rect33" />
    <inkscape:perspective
       sodipodi:type="inkscape:persp3d"
       inkscape:vp_x="6.1093449 : 34.72819 : 1"
       inkscape:vp_y="0 : 1000 : 0"
       inkscape:vp_z="75.71349 : 35.580862 : 1"
       inkscape:persp3d-origin="66.14583 : 44.097223 : 1"
       id="perspective16" />
    <rect
       x="-51.952263"
       y="219.19037"
       width="51.952263"
       height="89.676292"
       id="rect5-6" />
    <rect
       x="-51.952263"
       y="219.19037"
       width="51.952263"
       height="89.676292"
       id="rect5-6-9" />
    <rect
       x="-51.952263"
       y="219.19037"
       width="51.952263"
       height="89.676292"
       id="rect5-1" />
  </defs>
  <sodipodi:namedview
     id="base"
     pagecolor="#ffffff"
     bordercolor="#666666"
     borderopacity="1.0"
     inkscape:pageopacity="0.0"
     inkscape:pageshadow="2"
     inkscape:zoom="0.7"
     inkscape:cx="95"
     inkscape:cy="161.42857"
     inkscape:document-units="mm"
     inkscape:current-layer="layer1"
     showgrid="true"
     units="px"
     inkscape:window-width="1916"
     inkscape:window-height="1153"
     inkscape:window-x="0"
     inkscape:window-y="21"
     inkscape:window-maximized="1"
     showguides="true"
     inkscape:snap-object-midpoints="true"
     inkscape:showpageshadow="2"
     inkscape:pagecheckerboard="0"
     inkscape:deskcolor="#d1d1d1">
    <inkscape:grid
       type="xygrid"
       id="grid4988"
       spacingx="66.145832"
       spacingy="66.145832"
       snapvisiblegridlinesonly="true"
       enabled="false"
       originx="0"
       originy="0"
       units="px"
       visible="true" />
  </sodipodi:namedview>
  <metadata
     id="metadata5">
    <rdf:RDF>
      <cc:Work
         rdf:about="">
        <dc:format>image/svg+xml</dc:format>
        <dc:type
           rdf:resource="http://purl.org/dc/dcmitype/StillImage" />
      </cc:Work>
    </rdf:RDF>
  </metadata>
  <g
     inkscape:label="Layer 1"
     inkscape:groupmode="layer"
     id="layer1"
     transform="translate(0,-164.70832)">
    <path
       id="path18"
       style="color:#000000;fill:#000000;stroke-width:1.05822;stroke-linejoin:round;-inkscape-stroke:none"
       d="m 104.24901,190.19336 a 2.8001564,2.8001564 0 0 0 -2.80042,2.79878 v 3.32102 H 76.420883 l -2.225682,-3.85858 A 2.8001564,2.8001564 0 0 0 71.768825,191.0552 H 16.443411 a 2.8001564,2.8001564 0 0 0 -1.979599,0.82082 l -6.0498074,6.04926 a 2.8001564,2.8001564 0 0 0 -0.8208224,1.98015 v 3.68522 a 2.8001564,2.8001564 0 0 0 0.8208224,1.98015 l 6.6759514,6.67595 a 2.8001564,2.8001564 0 0 0 1.979599,0.82027 h 2.674646 c 0.271368,0.62619 0.376145,0.80552 0.758481,1.82922 0.719612,1.92674 1.377417,4.37078 1.399391,5.32414 0.140801,6.10878 -2.147329,12.24966 -4.724789,18.7258 -2.577458,6.47612 -5.440352,13.2659 -5.679589,20.76938 -0.06811,2.13612 0.441268,4.39139 0.911599,6.3369 0.470334,1.94552 0.954802,3.49711 0.954802,3.49711 a 2.8001564,2.8001564 0 0 0 2.672458,1.96538 H 48.48393 a 2.8001564,2.8001564 0 0 0 2.798234,-2.79823 v -3.55726 a 2.8001564,2.8001564 0 0 0 -0.818635,-1.9796 l -3.641478,-3.64202 9.443016,-42.09929 H 89.52889 a 2.8001564,2.8001564 0 0 0 1.980145,-0.82083 l 2.920182,-2.92237 h 21.457873 a 2.8001564,2.8001564 0 0 0 2.46574,-1.47157 l 6.34565,-11.78299 a 2.8001564,2.8001564 0 0 0 -2.46574,-4.12763 h -5.69654 l -6.122,-5.41709 a 2.8001564,2.8001564 0 0 0 -1.85601,-0.70271 z m -46.31769,29.31502 -3.211653,15.03073 h 13.318544 v -2.23389 c -3.885039,-3.60801 -2.306068,-12.79684 -2.306068,-12.79684 z" />
  </g>
</svg>
