<?xml version="1.0" encoding="UTF-8"?>
<svg id="Layer_1" xmlns="http://www.w3.org/2000/svg" version="1.1" viewBox="0 0 500 500">
  <!-- Generator: Adobe Illustrator 29.5.1, SVG Export Plug-In . SVG Version: 2.1.0 Build 141)  -->
  <defs>
    <style>
      .st0 {
        fill-rule: evenodd;
      }
    </style>
  </defs>
  <path class="st0" d="M160.8,110.2c33.5,0,61.5,16.3,94.9,59l4.9-6.5c3.3-4.3,6.7-8.5,10.1-12.4l5.5-6.1c19-20.2,40-34,65.1-34s43.2,9.7,61,26.5l3.8,3.7c30.2,30.9,51,82.3,53.4,140.3l.2,6.9v4.4c0,26.2-4.9,48.2-14.3,64.7l-2.4,4-1.9,2.7c-5.3,7.3-11.6,13.3-19,17.6l-4.6,2.5-1.5.7c-1.7.8-3.5,1.5-5.3,2.1-7.5,2.5-15.4,3.7-23.2,3.6-9.2,0-17.4-1.2-25.1-3.8-10.7-3.6-20.3-9.8-30.2-19.5l-4-4.1c-13.2-14.2-26.8-34.5-43.6-62.7l-25-42.1-9.5-15.6-30.9,54.7-6,10.3c-40.2,68.1-64.2,82.8-96.9,82.8s-38.5-7.3-51.3-20.7l-2.9-3.2c-8.5-10-14.6-22.9-18.2-38.3l-1.2-5.6c-1.4-7.4-2.1-15-2.4-22.5v-6.5c0-13,.9-26,2.9-39l1.7-10c5.2-26.7,14.5-51.7,26.8-72.7l3.7-5.9c20.6-32,48.8-53.4,80.7-55.2h4.6ZM160.2,155.9l-3.5.2c-14.5,1.5-28.1,11.8-39.4,27.6l-2.4,3.5-.2.3c-11.7,17.8-20.7,41.6-25.5,67.2v.4c-2.5,13-3.7,26.2-3.7,39.4v3.3c.1,3.1.3,6.3.7,9.4l.8,5.1c1.6,8.8,4.5,15.9,8.5,21.1l2,2.4c5.3,5.6,12.2,8.6,20.5,8.6,19.2,0,31.4-11.8,64.6-63.6l38-59.4,7.9-12.3-2.4-3.5c-26.7-37.7-44.7-49.6-66-49.6h0ZM338.5,146.2h-3.1c-11.1,1-21.4,6.4-31.8,16.4l-3.4,3.5c-7.7,8.1-15.5,18.6-23.9,31.6l4.6,7c3.1,4.8,6.3,9.8,9.6,15l5.1,8.3,24.4,40.8,12.1,19.5c10.2,16.2,18,28,24.6,36.4l3.7,4.6c4.9,5.7,9.2,9.4,13.6,11.8l1.8.9c4,1.7,8,2.4,12.6,2.4,3.1,0,6.1-.4,9.1-1.3,5.9-1.8,10.7-5.6,14.2-11.1l1.7-2.8,1.3-2.8c3.4-8,5.1-18.5,5.1-31.2v-7.8c-1.5-50.2-16.5-93.9-38.6-118.8l-3.1-3.3c-11.7-11.9-25.2-18.8-39.7-18.8Z"/>
</svg>