<?xml version="1.0" encoding="UTF-8" standalone="no"?>
<!-- Created with Inkscape (http://www.inkscape.org/) -->

<svg
   width="500"
   height="500"
   viewBox="0 0 132.29166 132.29167"
   version="1.1"
   id="svg8"
   sodipodi:docname="steam.svg"
   inkscape:version="1.3.2 (091e20ef0f, 2023-11-25, custom)"
   xmlns:inkscape="http://www.inkscape.org/namespaces/inkscape"
   xmlns:sodipodi="http://sodipodi.sourceforge.net/DTD/sodipodi-0.dtd"
   xmlns="http://www.w3.org/2000/svg"
   xmlns:svg="http://www.w3.org/2000/svg"
   xmlns:rdf="http://www.w3.org/1999/02/22-rdf-syntax-ns#"
   xmlns:cc="http://creativecommons.org/ns#"
   xmlns:dc="http://purl.org/dc/elements/1.1/">
  <defs
     id="defs2">
    <rect
       x="66.771182"
       y="108.69892"
       width="374.99453"
       height="218.33377"
       id="rect2" />
    <rect
       x="53.983325"
       y="50.577051"
       width="601.27373"
       height="412.49454"
       id="rect1" />
    <inkscape:path-effect
       effect="perspective-envelope"
       up_left_point="21.827091,197.06965"
       up_right_point="113.68763,197.06965"
       down_left_point="36.89482,283.54086"
       down_right_point="98.671497,283.54086"
       id="path-effect31"
       is_visible="true"
       lpeversion="1"
       deform_type="perspective"
       horizontal_mirror="false"
       vertical_mirror="false"
       overflow_perspective="false" />
    <inkscape:path-effect
       effect="perspective-envelope"
       up_left_point="24.989688,189.69801"
       up_right_point="99.392279,199.00479"
       down_left_point="24.989688,272.0103"
       down_right_point="99.339553,263.45845"
       id="path-effect30"
       is_visible="true"
       lpeversion="1"
       deform_type="perspective"
       horizontal_mirror="false"
       vertical_mirror="false"
       overflow_perspective="false" />
    <inkscape:path-effect
       effect="perspective-envelope"
       up_left_point="33.274814,221.62319"
       up_right_point="93.216988,221.25282"
       down_left_point="12.846244,284.15374"
       down_right_point="119.44542,284.15374"
       id="path-effect6"
       is_visible="true"
       lpeversion="1"
       deform_type="perspective"
       horizontal_mirror="false"
       vertical_mirror="false"
       overflow_perspective="false" />
    <rect
       x="-51.952264"
       y="219.19037"
       width="51.952264"
       height="89.676296"
       id="rect5" />
    <rect
       x="21.994148"
       y="60.7689"
       width="333.55285"
       height="273.85825"
       id="rect35" />
    <rect
       x="67.041582"
       y="122.30159"
       width="319.6528"
       height="201.90539"
       id="rect34" />
    <rect
       x="188.5884"
       y="99.673461"
       width="260.00953"
       height="279.50904"
       id="rect33" />
    <inkscape:perspective
       sodipodi:type="inkscape:persp3d"
       inkscape:vp_x="6.1093449 : 34.72819 : 1"
       inkscape:vp_y="0 : 1000 : 0"
       inkscape:vp_z="75.71349 : 35.580862 : 1"
       inkscape:persp3d-origin="66.14583 : 44.097223 : 1"
       id="perspective16" />
    <rect
       x="-51.952263"
       y="219.19037"
       width="51.952263"
       height="89.676292"
       id="rect5-6" />
    <rect
       x="-51.952263"
       y="219.19037"
       width="51.952263"
       height="89.676292"
       id="rect5-6-9" />
    <rect
       x="-51.952263"
       y="219.19037"
       width="51.952263"
       height="89.676292"
       id="rect5-1" />
  </defs>
  <sodipodi:namedview
     id="base"
     pagecolor="#ffffff"
     bordercolor="#666666"
     borderopacity="1.0"
     inkscape:pageopacity="0.0"
     inkscape:pageshadow="2"
     inkscape:zoom="1.1031124"
     inkscape:cx="271.95778"
     inkscape:cy="218.47275"
     inkscape:document-units="mm"
     inkscape:current-layer="layer1"
     showgrid="true"
     units="px"
     inkscape:window-width="1138"
     inkscape:window-height="1156"
     inkscape:window-x="778"
     inkscape:window-y="21"
     inkscape:window-maximized="1"
     showguides="true"
     inkscape:snap-object-midpoints="true"
     inkscape:showpageshadow="2"
     inkscape:pagecheckerboard="0"
     inkscape:deskcolor="#d1d1d1">
    <inkscape:grid
       type="xygrid"
       id="grid4988"
       spacingx="66.145832"
       spacingy="66.145832"
       snapvisiblegridlinesonly="true"
       enabled="false"
       originx="0"
       originy="0"
       units="px"
       visible="true" />
  </sodipodi:namedview>
  <metadata
     id="metadata5">
    <rdf:RDF>
      <cc:Work
         rdf:about="">
        <dc:format>image/svg+xml</dc:format>
        <dc:type
           rdf:resource="http://purl.org/dc/dcmitype/StillImage" />
      </cc:Work>
    </rdf:RDF>
  </metadata>
  <g
     inkscape:label="Layer 1"
     inkscape:groupmode="layer"
     id="layer1"
     transform="translate(0,-164.70832)">
    <path
       d="m 120.57069,230.85417 q -0.21941,15.13955 -7.46006,27.42669 v 0 0 q -7.24065,12.28715 -19.527805,19.5278 v 0 0 Q 81.295666,285.04931 66.156131,285.26873 47.067152,284.8299 32.805271,274.07863 18.762804,263.10797 13.716292,245.7743 l 20.844287,8.55713 v 0 q 1.097069,5.26592 5.265926,8.77654 4.168856,3.51062 9.87361,3.51062 6.582405,0 10.970676,-4.6077 4.388271,-4.60768 4.388271,-11.40949 l 18.430739,-13.16483 v 0 q 8.995956,0 14.920121,-5.92415 5.924168,-5.70476 6.143578,-14.70072 -0.21941,-8.77654 -5.924164,-14.4813 -5.924165,-5.70473 -14.481295,-5.92415 -8.776542,0.21937 -14.700708,5.92415 -5.704751,5.70476 -5.924165,14.4813 v 0.21938 0 l -12.945399,18.86955 v 0 q -5.265925,-0.21937 -9.654196,2.63298 L 11.74157,226.46587 v 0 q 2.194137,-21.50254 17.33367,-35.545 14.920121,-14.04247 37.080891,-14.4813 15.139535,0.21937 27.426694,7.46006 12.287155,7.24065 19.527805,19.52781 7.24065,12.28716 7.46006,27.42669 z m -74.600606,28.08493 -6.80182,-2.63295 6.80182,2.63295 -6.80182,-2.63295 q 1.974723,3.94943 5.924166,5.48532 4.607685,1.97473 8.995956,0.21937 4.168857,-1.7553 6.143579,-6.36298 1.974723,-4.38826 0.219417,-8.77654 -1.974723,-4.38826 -6.362994,-6.36299 -4.388271,-1.75531 -8.557128,0 l 7.021234,2.85237 v 0 q 3.291203,1.31648 4.607683,4.60768 1.097068,3.0718 0,6.363 -1.535895,3.2912 -4.827097,4.60768 -3.071791,1.31648 -6.362994,0 z m 38.177957,-28.52376 q -5.924166,0 -9.873608,-3.94943 v 0 0 q -3.730031,-3.73003 -3.949445,-9.65421 0.219416,-5.70475 3.949445,-9.65418 3.949442,-3.94945 9.873608,-3.94945 5.704753,0 9.654196,3.94945 3.730031,3.94943 3.949445,9.65418 -0.219416,5.92418 -3.949445,9.65421 -3.949443,3.94943 -9.654196,3.94943 z m 0,-3.2912 q 4.388271,-0.21937 7.240648,-3.07179 v 0 0 q 2.852376,-2.85236 3.07179,-7.24065 -0.219416,-4.38826 -3.07179,-7.24065 -2.852377,-2.85236 -7.240648,-3.07178 -4.388271,0.21937 -7.46006,3.07178 -2.852377,2.85239 -2.852377,7.24065 0,4.38829 3.071791,7.24065 2.852375,2.85237 7.240646,3.07179 z"
       id="text2"
       style="font-weight:bold;font-size:192px;line-height:0.8;font-family:'Concourse T7';-inkscape-font-specification:'Concourse T7 Bold';text-align:center;letter-spacing:0px;text-anchor:middle;white-space:pre;fill:#080000;stroke:none;stroke-width:0.585102;stroke-linecap:square"
       aria-label="" />
  </g>
</svg>
