<?xml version="1.0" encoding="UTF-8" standalone="no"?>
<!-- Created with Inkscape (http://www.inkscape.org/) -->

<svg
   width="500"
   height="500"
   viewBox="0 0 132.29166 132.29167"
   version="1.1"
   id="svg8"
   sodipodi:docname="steering-wheel.svg"
   inkscape:version="1.3 (0e150ed6c4, 2023-07-21)"
   xmlns:inkscape="http://www.inkscape.org/namespaces/inkscape"
   xmlns:sodipodi="http://sodipodi.sourceforge.net/DTD/sodipodi-0.dtd"
   xmlns="http://www.w3.org/2000/svg"
   xmlns:svg="http://www.w3.org/2000/svg"
   xmlns:rdf="http://www.w3.org/1999/02/22-rdf-syntax-ns#"
   xmlns:cc="http://creativecommons.org/ns#"
   xmlns:dc="http://purl.org/dc/elements/1.1/">
  <defs
     id="defs2">
    <inkscape:path-effect
       effect="perspective-envelope"
       up_left_point="33.274814,221.62319"
       up_right_point="93.216988,221.25282"
       down_left_point="12.846244,284.15374"
       down_right_point="119.44542,284.15374"
       id="path-effect6"
       is_visible="true"
       lpeversion="1"
       deform_type="perspective"
       horizontal_mirror="false"
       vertical_mirror="false"
       overflow_perspective="false" />
    <rect
       x="-51.952264"
       y="219.19037"
       width="51.952264"
       height="89.676296"
       id="rect5" />
    <rect
       x="21.994148"
       y="60.7689"
       width="333.55285"
       height="273.85825"
       id="rect35" />
    <rect
       x="67.041582"
       y="122.30159"
       width="319.6528"
       height="201.90539"
       id="rect34" />
    <rect
       x="188.5884"
       y="99.673461"
       width="260.00953"
       height="279.50904"
       id="rect33" />
    <inkscape:perspective
       sodipodi:type="inkscape:persp3d"
       inkscape:vp_x="6.1093449 : 34.72819 : 1"
       inkscape:vp_y="0 : 1000 : 0"
       inkscape:vp_z="75.71349 : 35.580862 : 1"
       inkscape:persp3d-origin="66.14583 : 44.097223 : 1"
       id="perspective16" />
    <rect
       x="-51.952263"
       y="219.19037"
       width="51.952263"
       height="89.676292"
       id="rect5-6" />
    <rect
       x="-51.952263"
       y="219.19037"
       width="51.952263"
       height="89.676292"
       id="rect5-6-9" />
    <rect
       x="-51.952263"
       y="219.19037"
       width="51.952263"
       height="89.676292"
       id="rect5-1" />
  </defs>
  <sodipodi:namedview
     id="base"
     pagecolor="#ffffff"
     bordercolor="#666666"
     borderopacity="1.0"
     inkscape:pageopacity="0.0"
     inkscape:pageshadow="2"
     inkscape:zoom="0.98994949"
     inkscape:cx="144.95689"
     inkscape:cy="128.28937"
     inkscape:document-units="mm"
     inkscape:current-layer="layer1"
     showgrid="true"
     units="px"
     inkscape:window-width="1916"
     inkscape:window-height="1153"
     inkscape:window-x="0"
     inkscape:window-y="21"
     inkscape:window-maximized="1"
     showguides="true"
     inkscape:snap-object-midpoints="true"
     inkscape:showpageshadow="2"
     inkscape:pagecheckerboard="0"
     inkscape:deskcolor="#d1d1d1">
    <inkscape:grid
       type="xygrid"
       id="grid4988"
       spacingx="66.145832"
       spacingy="66.145832"
       snapvisiblegridlinesonly="true"
       enabled="false"
       originx="0"
       originy="0"
       units="px"
       visible="true" />
  </sodipodi:namedview>
  <metadata
     id="metadata5">
    <rdf:RDF>
      <cc:Work
         rdf:about="">
        <dc:format>image/svg+xml</dc:format>
        <dc:type
           rdf:resource="http://purl.org/dc/dcmitype/StillImage" />
      </cc:Work>
    </rdf:RDF>
  </metadata>
  <g
     inkscape:label="Layer 1"
     inkscape:groupmode="layer"
     id="layer1"
     transform="translate(0,-164.70832)">
    <path
       id="path19"
       style="color:#000000;fill:#000000;stroke-width:1.12785;stroke-linecap:round;stroke-linejoin:round;-inkscape-stroke:none"
       d="m 66.147001,172.10323 c -32.376529,0 -58.7520846,26.37322 -58.7520846,58.74976 0,32.37652 26.3755556,58.75208 58.7520846,58.75208 32.376531,0 58.749749,-26.37556 58.749749,-58.75208 0,-32.37654 -26.373218,-58.74976 -58.749749,-58.74976 z m 0,11.93472 c 20.997937,0 38.688019,13.70488 44.655639,32.68828 H 21.49136 c 5.967565,-18.98349 23.657646,-32.68828 44.655641,-32.68828 z m -5.83e-4,37.31599 a 9.4994147,9.4994147 0 0 1 9.499626,9.49962 9.4994147,9.4994147 0 0 1 -9.499626,9.49964 9.4994147,9.4994147 0 0 1 -9.499624,-9.49964 9.4994147,9.4994147 0 0 1 9.499624,-9.49962 z m 46.791732,10.4514 c -0.43468,21.88634 -15.753013,39.9975 -36.294875,44.67487 1.227741,-32.9574 24.940525,-42.15093 36.294875,-44.67487 z m -93.569473,0.48724 c 10.628352,1.99016 35.496477,10.25625 36.702858,44.2838 -20.600019,-4.49074 -36.04777,-22.46722 -36.702858,-44.2838 z" />
  </g>
</svg>
