<?xml version="1.0" encoding="UTF-8" standalone="no"?>
<!-- Created with Inkscape (http://www.inkscape.org/) -->

<svg
   width="500"
   height="500"
   viewBox="0 0 132.29166 132.29167"
   version="1.1"
   id="svg8"
   sodipodi:docname="vr-controller.svg"
   inkscape:version="1.3 (0e150ed6c4, 2023-07-21)"
   xmlns:inkscape="http://www.inkscape.org/namespaces/inkscape"
   xmlns:sodipodi="http://sodipodi.sourceforge.net/DTD/sodipodi-0.dtd"
   xmlns="http://www.w3.org/2000/svg"
   xmlns:svg="http://www.w3.org/2000/svg"
   xmlns:rdf="http://www.w3.org/1999/02/22-rdf-syntax-ns#"
   xmlns:cc="http://creativecommons.org/ns#"
   xmlns:dc="http://purl.org/dc/elements/1.1/">
  <defs
     id="defs2">
    <inkscape:path-effect
       effect="perspective-envelope"
       up_left_point="24.989688,189.69801"
       up_right_point="99.392279,199.00479"
       down_left_point="24.989688,272.0103"
       down_right_point="99.339553,263.45845"
       id="path-effect30"
       is_visible="true"
       lpeversion="1"
       deform_type="perspective"
       horizontal_mirror="false"
       vertical_mirror="false"
       overflow_perspective="false" />
    <inkscape:path-effect
       effect="perspective-envelope"
       up_left_point="33.274814,221.62319"
       up_right_point="93.216988,221.25282"
       down_left_point="12.846244,284.15374"
       down_right_point="119.44542,284.15374"
       id="path-effect6"
       is_visible="true"
       lpeversion="1"
       deform_type="perspective"
       horizontal_mirror="false"
       vertical_mirror="false"
       overflow_perspective="false" />
    <rect
       x="-51.952264"
       y="219.19037"
       width="51.952264"
       height="89.676296"
       id="rect5" />
    <rect
       x="21.994148"
       y="60.7689"
       width="333.55285"
       height="273.85825"
       id="rect35" />
    <rect
       x="67.041582"
       y="122.30159"
       width="319.6528"
       height="201.90539"
       id="rect34" />
    <rect
       x="188.5884"
       y="99.673461"
       width="260.00953"
       height="279.50904"
       id="rect33" />
    <inkscape:perspective
       sodipodi:type="inkscape:persp3d"
       inkscape:vp_x="6.1093449 : 34.72819 : 1"
       inkscape:vp_y="0 : 1000 : 0"
       inkscape:vp_z="75.71349 : 35.580862 : 1"
       inkscape:persp3d-origin="66.14583 : 44.097223 : 1"
       id="perspective16" />
    <rect
       x="-51.952263"
       y="219.19037"
       width="51.952263"
       height="89.676292"
       id="rect5-6" />
    <rect
       x="-51.952263"
       y="219.19037"
       width="51.952263"
       height="89.676292"
       id="rect5-6-9" />
    <rect
       x="-51.952263"
       y="219.19037"
       width="51.952263"
       height="89.676292"
       id="rect5-1" />
  </defs>
  <sodipodi:namedview
     id="base"
     pagecolor="#ffffff"
     bordercolor="#666666"
     borderopacity="1.0"
     inkscape:pageopacity="0.0"
     inkscape:pageshadow="2"
     inkscape:zoom="0.98994949"
     inkscape:cx="232.84016"
     inkscape:cy="178.797"
     inkscape:document-units="mm"
     inkscape:current-layer="layer1"
     showgrid="true"
     units="px"
     inkscape:window-width="1916"
     inkscape:window-height="1153"
     inkscape:window-x="0"
     inkscape:window-y="21"
     inkscape:window-maximized="1"
     showguides="true"
     inkscape:snap-object-midpoints="true"
     inkscape:showpageshadow="2"
     inkscape:pagecheckerboard="0"
     inkscape:deskcolor="#d1d1d1">
    <inkscape:grid
       type="xygrid"
       id="grid4988"
       spacingx="66.145832"
       spacingy="66.145832"
       snapvisiblegridlinesonly="true"
       enabled="false"
       originx="0"
       originy="0"
       units="px"
       visible="true" />
  </sodipodi:namedview>
  <metadata
     id="metadata5">
    <rdf:RDF>
      <cc:Work
         rdf:about="">
        <dc:format>image/svg+xml</dc:format>
        <dc:type
           rdf:resource="http://purl.org/dc/dcmitype/StillImage" />
      </cc:Work>
    </rdf:RDF>
  </metadata>
  <g
     inkscape:label="Layer 1"
     inkscape:groupmode="layer"
     id="layer1"
     transform="translate(0,-164.70832)">
    <path
       id="path1"
       style="fill:#000000;stroke-width:5.84452;stroke-linecap:round;stroke-linejoin:round"
       d="m 66.095892,170.88501 c -14.069133,0.0217 -26.574553,6.18843 -31.158042,15.36471 -0.106803,0.16503 -0.209901,0.33344 -0.309348,0.50568 l -9.866628,17.08953 c -3.153104,5.46134 -1.29483,12.39651 4.166506,15.54963 5.461336,3.15308 12.396523,1.29481 15.549627,-4.16652 l 1.901182,-3.29268 c 0.642871,-1.29621 2.323367,0.11827 2.542709,1.14266 l 6.998705,63.87881 c 0.492228,7.65265 3.664316,13.86647 8.215709,13.86647 h 3.91916 c 4.551393,0 7.723443,-6.21382 8.21571,-13.86647 l 6.998704,-63.87368 c 0.154384,-0.97671 1.861965,-2.50907 2.621473,-1.18432 l 1.922302,3.32921 c 3.153103,5.46133 10.08829,7.3196 15.549629,4.16652 5.46131,-3.15312 7.31962,-10.08829 4.1665,-15.54963 L 97.663165,186.7554 c -0.139729,-0.24201 -0.289353,-0.47428 -0.443476,-0.70203 -4.67573,-9.09062 -17.141378,-15.16582 -31.123797,-15.16836 z m 0,1.32758 c 11.109577,-5e-5 20.115604,4.41619 20.115089,9.86377 -1.32e-4,5.44735 -9.005971,9.86325 -20.115089,9.8632 -11.109119,5e-5 -20.114957,-4.41585 -20.11509,-9.8632 -5.14e-4,-5.44758 9.005513,-9.86382 20.11509,-9.86377 z m 0,33.26641 c 2.511313,8e-5 4.547116,2.03588 4.547199,4.54719 -7.7e-5,2.51132 -2.035882,4.54712 -4.547199,4.5472 -2.511317,-8e-5 -4.547121,-2.03588 -4.547198,-4.5472 8.3e-5,-2.51131 2.035885,-4.54711 4.547198,-4.54719 z m 0,10.56979 c 4.420682,-1.3e-4 8.004385,3.58358 8.004257,8.00426 -1.93e-4,4.42046 -3.583801,8.00381 -8.004257,8.00368 -4.420456,1.3e-4 -8.004064,-3.58322 -8.004257,-8.00368 -1.28e-4,-4.42068 3.583575,-8.00439 8.004257,-8.00426 z m 0,17.48392 c 2.511317,8e-5 4.547122,2.03588 4.547199,4.5472 -8.3e-5,2.51131 -2.035886,4.54711 -4.547199,4.54719 -2.511313,-8e-5 -4.547115,-2.03588 -4.547198,-4.54719 7.7e-5,-2.51132 2.035881,-4.54712 4.547198,-4.5472 z"
       sodipodi:nodetypes="cccscccccssccccccccccccccccccccccccccccc" />
  </g>
</svg>
