<?xml version="1.0" encoding="UTF-8" standalone="no"?>
<!-- Created with Inkscape (http://www.inkscape.org/) -->

<svg
   width="500"
   height="500"
   viewBox="0 0 132.29166 132.29167"
   version="1.1"
   id="svg8"
   sodipodi:docname="vr-headset.svg"
   inkscape:version="1.3 (0e150ed6c4, 2023-07-21)"
   xmlns:inkscape="http://www.inkscape.org/namespaces/inkscape"
   xmlns:sodipodi="http://sodipodi.sourceforge.net/DTD/sodipodi-0.dtd"
   xmlns="http://www.w3.org/2000/svg"
   xmlns:svg="http://www.w3.org/2000/svg"
   xmlns:rdf="http://www.w3.org/1999/02/22-rdf-syntax-ns#"
   xmlns:cc="http://creativecommons.org/ns#"
   xmlns:dc="http://purl.org/dc/elements/1.1/">
  <defs
     id="defs2">
    <inkscape:path-effect
       effect="perspective-envelope"
       up_left_point="33.274814,221.62319"
       up_right_point="93.216988,221.25282"
       down_left_point="12.846244,284.15374"
       down_right_point="119.44542,284.15374"
       id="path-effect6"
       is_visible="true"
       lpeversion="1"
       deform_type="perspective"
       horizontal_mirror="false"
       vertical_mirror="false"
       overflow_perspective="false" />
    <rect
       x="-51.952264"
       y="219.19037"
       width="51.952264"
       height="89.676296"
       id="rect5" />
    <rect
       x="21.994148"
       y="60.7689"
       width="333.55285"
       height="273.85825"
       id="rect35" />
    <rect
       x="67.041582"
       y="122.30159"
       width="319.6528"
       height="201.90539"
       id="rect34" />
    <rect
       x="188.5884"
       y="99.673461"
       width="260.00953"
       height="279.50904"
       id="rect33" />
    <inkscape:perspective
       sodipodi:type="inkscape:persp3d"
       inkscape:vp_x="6.1093449 : 34.72819 : 1"
       inkscape:vp_y="0 : 1000 : 0"
       inkscape:vp_z="75.71349 : 35.580862 : 1"
       inkscape:persp3d-origin="66.14583 : 44.097223 : 1"
       id="perspective16" />
    <rect
       x="-51.952263"
       y="219.19037"
       width="51.952263"
       height="89.676292"
       id="rect5-6" />
    <rect
       x="-51.952263"
       y="219.19037"
       width="51.952263"
       height="89.676292"
       id="rect5-6-9" />
    <rect
       x="-51.952263"
       y="219.19037"
       width="51.952263"
       height="89.676292"
       id="rect5-1" />
  </defs>
  <sodipodi:namedview
     id="base"
     pagecolor="#ffffff"
     bordercolor="#666666"
     borderopacity="1.0"
     inkscape:pageopacity="0.0"
     inkscape:pageshadow="2"
     inkscape:zoom="0.7"
     inkscape:cx="59.285714"
     inkscape:cy="-2.8571429"
     inkscape:document-units="mm"
     inkscape:current-layer="layer1"
     showgrid="true"
     units="px"
     inkscape:window-width="1916"
     inkscape:window-height="1153"
     inkscape:window-x="0"
     inkscape:window-y="21"
     inkscape:window-maximized="1"
     showguides="true"
     inkscape:snap-object-midpoints="true"
     inkscape:showpageshadow="2"
     inkscape:pagecheckerboard="0"
     inkscape:deskcolor="#d1d1d1">
    <inkscape:grid
       type="xygrid"
       id="grid4988"
       spacingx="66.145832"
       spacingy="66.145832"
       snapvisiblegridlinesonly="true"
       enabled="false"
       originx="0"
       originy="0"
       units="px"
       visible="true" />
  </sodipodi:namedview>
  <metadata
     id="metadata5">
    <rdf:RDF>
      <cc:Work
         rdf:about="">
        <dc:format>image/svg+xml</dc:format>
        <dc:type
           rdf:resource="http://purl.org/dc/dcmitype/StillImage" />
      </cc:Work>
    </rdf:RDF>
  </metadata>
  <g
     inkscape:label="Layer 1"
     inkscape:groupmode="layer"
     id="layer1"
     transform="translate(0,-164.70832)">
    <path
       id="path23"
       style="color:#000000;fill:#000000;fill-opacity:1;stroke-linecap:round;stroke-linejoin:round;-inkscape-stroke:none"
       d="m 37.324576,201.61382 c -0.983878,0 -9.770463,2.43235 -9.770463,5.45341 h 77.181857 c 0,-3.02106 -8.786597,-5.45341 -9.770468,-5.45341 z m -8.733317,7.2564 c -7.538298,0 -13.689603,6.15116 -13.689603,13.6896 v 23.84558 c 0,7.53844 6.151305,13.68908 13.689603,13.68908 h 30.019357 a 2.6460978,2.6460978 0 0 0 2.64635,-2.64635 v -2.52542 c 0,-2.75421 2.134605,-4.89066 4.88859,-4.89066 2.753987,0 4.888591,2.13645 4.888591,4.89066 v 2.52542 a 2.6460978,2.6460978 0 0 0 2.644799,2.64635 h 30.019364 c 7.5383,0 13.69166,-6.15064 13.69167,-13.68908 v -23.84558 c 0,-7.53844 -6.15337,-13.6896 -13.69167,-13.6896 z m -0.0098,6.50555 h 34.275427 a 1.3229166,1.3229166 0 0 1 1.32395,1.32446 1.3229166,1.3229166 0 0 1 -1.32395,1.3224 H 28.581441 c -0.786833,0 -1.938989,0.60395 -2.828251,1.58595 -0.889263,0.982 -1.451075,2.28097 -1.451075,3.11712 v 24.11326 a 1.3229166,1.3229166 0 0 1 -1.3224,1.3224 1.3229166,1.3229166 0 0 1 -1.324467,-1.3224 V 222.7257 c 0,-1.80888 0.896296,-3.52283 2.136821,-4.89272 1.240524,-1.3699 2.891691,-2.45721 4.789372,-2.45721 z m -15.267285,8.44082 c -2.664466,0 -4.8095255,2.14457 -4.8095255,4.80901 v 11.71402 c 0,2.66445 2.1450595,4.80901 4.8095255,4.80901 z m 105.663326,0 v 21.33204 c 2.66445,0 4.80952,-2.14456 4.80952,-4.80901 V 228.6256 c 0,-2.66444 -2.14507,-4.80901 -4.80952,-4.80901 z" />
  </g>
</svg>
