<?xml version="1.0" encoding="UTF-8" standalone="no"?>
<!-- Created with Inkscape (http://www.inkscape.org/) -->

<svg
   width="500"
   height="500"
   viewBox="0 0 132.29166 132.29167"
   version="1.1"
   id="svg8"
   sodipodi:docname="playstation.png"
   inkscape:version="1.1.1 (3bf5ae0d25, 2021-09-20, custom)"
   xmlns:inkscape="http://www.inkscape.org/namespaces/inkscape"
   xmlns:sodipodi="http://sodipodi.sourceforge.net/DTD/sodipodi-0.dtd"
   xmlns="http://www.w3.org/2000/svg"
   xmlns:svg="http://www.w3.org/2000/svg"
   xmlns:rdf="http://www.w3.org/1999/02/22-rdf-syntax-ns#"
   xmlns:cc="http://creativecommons.org/ns#"
   xmlns:dc="http://purl.org/dc/elements/1.1/">
  <defs
     id="defs2" />
  <sodipodi:namedview
     id="base"
     pagecolor="#ffffff"
     bordercolor="#666666"
     borderopacity="1.0"
     inkscape:pageopacity="0.0"
     inkscape:pageshadow="2"
     inkscape:zoom="1.4142136"
     inkscape:cx="241.10189"
     inkscape:cy="217.81271"
     inkscape:document-units="mm"
     inkscape:current-layer="layer1"
     showgrid="false"
     units="px"
     inkscape:window-width="1831"
     inkscape:window-height="2109"
     inkscape:window-x="1920"
     inkscape:window-y="49"
     inkscape:window-maximized="1"
     inkscape:pagecheckerboard="0"
     inkscape:snap-object-midpoints="true"
     inkscape:snap-midpoints="true" />
  <metadata
     id="metadata5">
    <rdf:RDF>
      <cc:Work
         rdf:about="">
        <dc:format>image/svg+xml</dc:format>
        <dc:type
           rdf:resource="http://purl.org/dc/dcmitype/StillImage" />
      </cc:Work>
    </rdf:RDF>
  </metadata>
  <g
     inkscape:label="Layer 1"
     inkscape:groupmode="layer"
     id="layer1"
     transform="translate(0,-164.70832)">
    <path
       id="path2894"
       style="color:#000000;fill:#000000;stroke-width:3.77953;stroke-linecap:round;stroke-linejoin:round;-inkscape-stroke:none"
       d="m 250.00195,28.917969 c -121.99322,0 -221.087887,99.086831 -221.087888,221.080081 0,121.99321 99.094668,221.08789 221.087888,221.08789 121.99323,0 221.08008,-99.09468 221.08008,-221.08789 0,-121.99325 -99.08685,-221.080081 -221.08008,-221.080081 z m 0,18.152343 c 40.40921,0 78.03559,11.774622 109.64258,32.083985 L 250.13281,123.4707 140.45703,79.089844 C 172.04464,58.819805 209.63528,47.070312 250.00195,47.070312 Z m 129.19141,46.357422 c 45.05198,37.202166 73.73633,93.498106 73.73633,156.570316 0,39.10466 -11.03518,75.59789 -30.15235,106.55859 L 307.88086,170.56055 Z m -258.92969,0.460938 68.25,76.671878 L 76.947266,356.11523 C 57.996911,325.24962 47.066406,288.9163 47.066406,249.99805 c 0,-62.81533 28.459723,-118.90403 73.197264,-156.109378 z M 250.13281,255.61523 410.60742,374.125 c -37.0962,47.95507 -95.20311,78.80859 -160.60547,78.80859 -65.34575,0 -123.41114,-30.79962 -160.513669,-78.68359 z"
       transform="matrix(0.26458333,0,0,0.26458333,0,164.70832)" />
  </g>
</svg>
