<?xml version="1.0" encoding="UTF-8" standalone="no"?>
<!-- Created with Inkscape (http://www.inkscape.org/) -->

<svg
   width="500"
   height="500"
   viewBox="0 0 132.29166 132.29167"
   version="1.1"
   id="svg8"
   sodipodi:docname="dollar.svg"
   inkscape:version="1.4.2 (ebf0e940d0, 2025-05-08)"
   xmlns:inkscape="http://www.inkscape.org/namespaces/inkscape"
   xmlns:sodipodi="http://sodipodi.sourceforge.net/DTD/sodipodi-0.dtd"
   xmlns="http://www.w3.org/2000/svg"
   xmlns:svg="http://www.w3.org/2000/svg"
   xmlns:rdf="http://www.w3.org/1999/02/22-rdf-syntax-ns#"
   xmlns:cc="http://creativecommons.org/ns#"
   xmlns:dc="http://purl.org/dc/elements/1.1/">
  <defs
     id="defs2">
    <rect
       x="-188.61147"
       y="103.09198"
       width="141.75148"
       height="173.38197"
       id="rect4" />
    <rect
       x="171.43786"
       y="139.85722"
       width="295.77873"
       height="215.25414"
       id="rect3" />
    <rect
       x="82.501308"
       y="131.66548"
       width="371.29508"
       height="188.21516"
       id="rect1" />
    <rect
       x="118.70597"
       y="123.49252"
       width="302.04886"
       height="186.98164"
       id="rect2" />
    <rect
       x="171.43787"
       y="139.85722"
       width="295.77872"
       height="215.25414"
       id="rect3-6" />
    <rect
       x="171.43787"
       y="139.85722"
       width="295.77872"
       height="215.25414"
       id="rect3-7" />
    <rect
       x="171.43787"
       y="139.85722"
       width="295.77872"
       height="215.25414"
       id="rect3-7-0" />
    <rect
       x="171.43787"
       y="139.85722"
       width="295.77872"
       height="215.25414"
       id="rect3-7-9" />
    <rect
       x="171.43787"
       y="139.85722"
       width="295.77872"
       height="215.25414"
       id="rect3-7-94" />
    <rect
       x="171.43787"
       y="139.85722"
       width="295.77872"
       height="215.25414"
       id="rect3-7-5" />
    <rect
       x="171.43787"
       y="139.85722"
       width="295.77872"
       height="215.25414"
       id="rect3-7-1" />
  </defs>
  <sodipodi:namedview
     id="base"
     pagecolor="#ffffff"
     bordercolor="#666666"
     borderopacity="1.0"
     inkscape:pageopacity="0.0"
     inkscape:pageshadow="2"
     inkscape:zoom="0.85360663"
     inkscape:cx="137.06548"
     inkscape:cy="174.55347"
     inkscape:document-units="mm"
     inkscape:current-layer="layer1"
     showgrid="true"
     units="px"
     inkscape:window-width="1920"
     inkscape:window-height="1176"
     inkscape:window-x="1920"
     inkscape:window-y="24"
     inkscape:window-maximized="1"
     showguides="false"
     inkscape:showpageshadow="2"
     inkscape:pagecheckerboard="0"
     inkscape:deskcolor="#d1d1d1">
    <inkscape:grid
       type="xygrid"
       id="grid4988"
       spacingx="66.145832"
       spacingy="66.145832"
       snapvisiblegridlinesonly="true"
       enabled="false"
       originx="0"
       originy="0"
       units="px"
       visible="true" />
  </sodipodi:namedview>
  <metadata
     id="metadata5">
    <rdf:RDF>
      <cc:Work
         rdf:about="">
        <dc:format>image/svg+xml</dc:format>
        <dc:type
           rdf:resource="http://purl.org/dc/dcmitype/StillImage" />
      </cc:Work>
    </rdf:RDF>
  </metadata>
  <g
     inkscape:label="Layer 1"
     inkscape:groupmode="layer"
     id="layer1"
     transform="translate(0,-164.70832)">
    <path
       id="rect6592"
       style="fill:#000000;fill-opacity:1;stroke:none;stroke-width:5.65073;stroke-linecap:square;stroke-linejoin:round;stroke-miterlimit:4.3;stroke-dasharray:none;stroke-opacity:1;paint-order:markers stroke fill"
       d="M 39.649259 172.89852 C 27.790238 172.89852 18.242814 182.44593 18.242814 194.30496 L 18.242814 244.82849 C 18.242814 256.68752 27.790238 266.23494 39.649259 266.23494 L 92.642407 266.23494 C 104.50143 266.23494 114.04885 256.68752 114.04885 244.82849 L 114.04885 194.30496 C 114.04885 182.44593 104.50143 172.89852 92.642407 172.89852 L 39.649259 172.89852 z M 61.674272 188.48361 L 70.617395 188.48361 L 70.617395 196.73841 L 84.719377 196.73841 L 84.719377 204.99372 L 60.298645 204.99372 C 58.693506 204.99372 57.89104 205.63559 57.89104 206.9197 L 57.89104 212.35399 C 57.89104 213.6381 58.693506 214.28049 60.298645 214.28049 L 76.464583 214.28049 C 84.260973 214.28049 88.15896 217.39888 88.15896 223.63599 L 88.15896 232.7853 C 88.15896 239.02241 84.260973 242.1408 76.464583 242.1408 L 70.617395 242.1408 L 70.617395 250.39611 L 61.674272 250.39611 L 61.674272 242.1408 L 44.132707 242.1408 L 44.132707 233.88601 L 71.993022 233.88601 C 73.598161 233.88601 74.400627 233.24414 74.400627 231.96003 L 74.400627 224.46178 C 74.400627 223.17767 73.598161 222.53528 71.993022 222.53528 L 55.827083 222.53528 C 48.030694 222.53528 44.132707 219.41689 44.132707 213.17978 L 44.132707 206.09442 C 44.132707 199.85731 48.030694 196.73841 55.827083 196.73841 L 61.674272 196.73841 L 61.674272 188.48361 z M 18.243331 254.26254 L 18.243331 267.40438 C 18.243331 279.26345 25.915143 288.81031 35.444865 288.81031 L 96.846802 288.81031 C 106.37652 288.81031 114.04834 279.26345 114.04834 267.40438 L 114.04834 254.26254 C 114.04834 266.1216 106.37652 275.66951 96.846802 275.66951 L 35.444865 275.66951 C 25.915143 275.66951 18.243331 266.1216 18.243331 254.26254 z " />
  </g>
</svg>
