<?xml version="1.0" encoding="UTF-8" standalone="no"?>
<!-- Created with Inkscape (http://www.inkscape.org/) -->

<svg
   width="500"
   height="500"
   viewBox="0 0 132.29166 132.29167"
   version="1.1"
   id="svg8"
   sodipodi:docname="percentage.svg"
   inkscape:version="1.4.2 (ebf0e940d0, 2025-05-08)"
   xmlns:inkscape="http://www.inkscape.org/namespaces/inkscape"
   xmlns:sodipodi="http://sodipodi.sourceforge.net/DTD/sodipodi-0.dtd"
   xmlns="http://www.w3.org/2000/svg"
   xmlns:svg="http://www.w3.org/2000/svg"
   xmlns:rdf="http://www.w3.org/1999/02/22-rdf-syntax-ns#"
   xmlns:cc="http://creativecommons.org/ns#"
   xmlns:dc="http://purl.org/dc/elements/1.1/">
  <defs
     id="defs2">
    <rect
       x="-188.61147"
       y="103.09198"
       width="141.75148"
       height="173.38197"
       id="rect4" />
    <rect
       x="171.43786"
       y="139.85722"
       width="295.77873"
       height="215.25414"
       id="rect3" />
    <rect
       x="82.501308"
       y="131.66548"
       width="371.29508"
       height="188.21516"
       id="rect1" />
    <rect
       x="118.70597"
       y="123.49252"
       width="302.04886"
       height="186.98164"
       id="rect2" />
    <rect
       x="171.43787"
       y="139.85722"
       width="295.77872"
       height="215.25414"
       id="rect3-6" />
    <rect
       x="171.43787"
       y="139.85722"
       width="295.77872"
       height="215.25414"
       id="rect3-7" />
    <rect
       x="171.43787"
       y="139.85722"
       width="295.77872"
       height="215.25414"
       id="rect3-7-0" />
    <rect
       x="171.43787"
       y="139.85722"
       width="295.77872"
       height="215.25414"
       id="rect3-7-9" />
    <rect
       x="171.43787"
       y="139.85722"
       width="295.77872"
       height="215.25414"
       id="rect3-7-94" />
    <rect
       x="171.43787"
       y="139.85722"
       width="295.77872"
       height="215.25414"
       id="rect3-7-5" />
    <rect
       x="171.43787"
       y="139.85722"
       width="295.77872"
       height="215.25414"
       id="rect3-7-1" />
  </defs>
  <sodipodi:namedview
     id="base"
     pagecolor="#ffffff"
     bordercolor="#666666"
     borderopacity="1.0"
     inkscape:pageopacity="0.0"
     inkscape:pageshadow="2"
     inkscape:zoom="0.85360663"
     inkscape:cx="137.06548"
     inkscape:cy="174.55347"
     inkscape:document-units="mm"
     inkscape:current-layer="layer1"
     showgrid="true"
     units="px"
     inkscape:window-width="1920"
     inkscape:window-height="1176"
     inkscape:window-x="1920"
     inkscape:window-y="24"
     inkscape:window-maximized="1"
     showguides="false"
     inkscape:showpageshadow="2"
     inkscape:pagecheckerboard="0"
     inkscape:deskcolor="#d1d1d1">
    <inkscape:grid
       type="xygrid"
       id="grid4988"
       spacingx="66.145832"
       spacingy="66.145832"
       snapvisiblegridlinesonly="true"
       enabled="false"
       originx="0"
       originy="0"
       units="px"
       visible="true" />
  </sodipodi:namedview>
  <metadata
     id="metadata5">
    <rdf:RDF>
      <cc:Work
         rdf:about="">
        <dc:format>image/svg+xml</dc:format>
        <dc:type
           rdf:resource="http://purl.org/dc/dcmitype/StillImage" />
      </cc:Work>
    </rdf:RDF>
  </metadata>
  <g
     inkscape:label="Layer 1"
     inkscape:groupmode="layer"
     id="layer1"
     transform="translate(0,-164.70832)">
    <path
       id="rect6592"
       style="fill:#000000;fill-opacity:1;stroke:none;stroke-width:5.65073;stroke-linecap:square;stroke-linejoin:round;stroke-miterlimit:4.3;stroke-dasharray:none;stroke-opacity:1;paint-order:markers stroke fill"
       d="M 39.649259 172.89852 C 27.790238 172.89852 18.242814 182.44593 18.242814 194.30496 L 18.242814 244.82849 C 18.242814 256.68752 27.790238 266.23494 39.649259 266.23494 L 92.642407 266.23494 C 104.50143 266.23494 114.04885 256.68752 114.04885 244.82849 L 114.04885 194.30496 C 114.04885 182.44593 104.50143 172.89852 92.642407 172.89852 L 39.649259 172.89852 z M 37.941353 196.73841 L 49.63573 196.73841 C 54.451147 196.73841 56.859062 198.66453 56.859062 202.51686 L 56.859062 217.10099 C 56.859062 220.95332 54.451147 222.87945 49.63573 222.87945 L 37.941353 222.87945 C 33.125936 222.87945 30.718022 220.95332 30.718022 217.10099 L 30.718022 202.51686 C 30.718022 198.66453 33.125936 196.73841 37.941353 196.73841 z M 73.162459 196.73841 L 84.031563 196.73841 L 59.129207 242.1408 L 48.260103 242.1408 L 73.162459 196.73841 z M 41.724585 202.24195 C 40.807363 202.24195 40.348958 202.60888 40.348958 203.34265 L 40.348958 216.2752 C 40.348958 217.00898 40.807363 217.37591 41.724585 217.37591 L 45.852498 217.37591 C 46.769721 217.37591 47.228125 217.00898 47.228125 216.2752 L 47.228125 203.34265 C 47.228125 202.60888 46.769721 202.24195 45.852498 202.24195 L 41.724585 202.24195 z M 82.655937 216.00028 L 94.350313 216.00028 C 99.16573 216.00028 101.57365 217.9264 101.57365 221.77874 L 101.57365 236.36234 C 101.57365 240.21468 99.16573 242.1408 94.350313 242.1408 L 82.655937 242.1408 C 77.84052 242.1408 75.432605 240.21468 75.432605 236.36234 L 75.432605 221.77874 C 75.432605 217.9264 77.84052 216.00028 82.655937 216.00028 z M 86.439168 221.5033 C 85.521946 221.5033 85.063542 221.87023 85.063542 222.60401 L 85.063542 235.53707 C 85.063542 236.27085 85.521946 236.63778 86.439168 236.63778 L 90.567082 236.63778 C 91.484304 236.63778 91.942708 236.27085 91.942708 235.53707 L 91.942708 222.60401 C 91.942708 221.87023 91.484304 221.5033 90.567082 221.5033 L 86.439168 221.5033 z M 18.243331 254.26254 L 18.243331 267.40438 C 18.243331 279.26345 25.915143 288.81031 35.444865 288.81031 L 96.846802 288.81031 C 106.37652 288.81031 114.04834 279.26345 114.04834 267.40438 L 114.04834 254.26254 C 114.04834 266.1216 106.37652 275.66951 96.846802 275.66951 L 35.444865 275.66951 C 25.915143 275.66951 18.243331 266.1216 18.243331 254.26254 z " />
  </g>
</svg>
