<?xml version="1.0" encoding="UTF-8" standalone="no"?>
<!-- Created with Inkscape (http://www.inkscape.org/) -->

<svg
   width="500"
   height="500"
   viewBox="0 0 132.29166 132.29167"
   version="1.1"
   id="svg8"
   sodipodi:docname="alt-r.svg"
   inkscape:version="1.3.2 (091e20ef0f, 2023-11-25, custom)"
   xmlns:inkscape="http://www.inkscape.org/namespaces/inkscape"
   xmlns:sodipodi="http://sodipodi.sourceforge.net/DTD/sodipodi-0.dtd"
   xmlns="http://www.w3.org/2000/svg"
   xmlns:svg="http://www.w3.org/2000/svg"
   xmlns:rdf="http://www.w3.org/1999/02/22-rdf-syntax-ns#"
   xmlns:cc="http://creativecommons.org/ns#"
   xmlns:dc="http://purl.org/dc/elements/1.1/">
  <defs
     id="defs2">
    <rect
       x="288.72881"
       y="152.98356"
       width="234.18426"
       height="119.60794"
       id="rect6" />
    <rect
       x="108.69042"
       y="178.12182"
       width="326.0226"
       height="110.87694"
       id="rect1" />
  </defs>
  <sodipodi:namedview
     id="base"
     pagecolor="#ffffff"
     bordercolor="#666666"
     borderopacity="1.0"
     inkscape:pageopacity="0.0"
     inkscape:pageshadow="2"
     inkscape:zoom="1.1075576"
     inkscape:cx="172.45154"
     inkscape:cy="316.01067"
     inkscape:document-units="mm"
     inkscape:current-layer="layer1"
     showgrid="true"
     units="px"
     inkscape:window-width="1916"
     inkscape:window-height="1156"
     inkscape:window-x="0"
     inkscape:window-y="21"
     inkscape:window-maximized="1"
     showguides="true"
     inkscape:showpageshadow="2"
     inkscape:pagecheckerboard="0"
     inkscape:deskcolor="#d1d1d1">
    <inkscape:grid
       type="xygrid"
       id="grid4988"
       spacingx="66.145832"
       spacingy="66.145832"
       snapvisiblegridlinesonly="true"
       enabled="false"
       originx="0"
       originy="0"
       units="px"
       visible="true" />
  </sodipodi:namedview>
  <metadata
     id="metadata5">
    <rdf:RDF>
      <cc:Work
         rdf:about="">
        <dc:format>image/svg+xml</dc:format>
        <dc:type
           rdf:resource="http://purl.org/dc/dcmitype/StillImage" />
      </cc:Work>
    </rdf:RDF>
  </metadata>
  <g
     inkscape:label="Layer 1"
     inkscape:groupmode="layer"
     id="layer1"
     transform="translate(0,-164.70832)">
    <path
       id="rect6592"
       style="opacity:1;fill:#000000;fill-opacity:1;stroke:none;stroke-width:18.8976;stroke-linecap:square;stroke-linejoin:round;stroke-miterlimit:4.3;stroke-dasharray:none;stroke-opacity:1;paint-order:markers stroke fill"
       d="m 95.98047,80.294923 c -35.552291,0 -64.173829,28.621547 -64.173829,64.173827 V 295.9336 c 0,35.55228 28.621538,64.17383 64.173829,64.17383 h 308.03907 c 35.55228,0 64.17383,-28.62155 64.17383,-64.17383 V 144.46875 c 0,-35.55228 -28.62155,-64.173827 -64.17383,-64.173827 z m 283.58203,48.978517 53.24414,30.77539 -53.24414,30.77539 v -25.77734 h -63.92773 -4.99805 v -9.9961 h 4.99805 63.92773 z m -169.80273,71.07813 h 30.18945 l 34.41406,79.69726 h -23.66796 l -7.24415,-16.9043 h -37.19335 l -7.24415,16.9043 h -23.66796 z m 73.66992,0 h 24.15039 v 65.20703 h 49.50977 v 14.49023 h -73.66016 z m 64.00977,0 h 89.35742 v 14.49023 h -32.60352 v 65.20703 H 380.04297 V 214.8418 h -32.60351 z m -122.58594,19.92578 -12.31641,28.37695 h 24.63477 z M 31.806641,324.2168 v 39.39649 c 0,35.55231 28.621538,64.17382 64.173829,64.17382 h 308.03711 c 35.5523,0 64.17383,-28.62151 64.17383,-64.17382 V 324.2168 c 0,35.5523 -28.62153,64.17578 -64.17383,64.17578 H 95.98047 c -35.552291,0 -64.173829,-28.62348 -64.173829,-64.17578 z"
       transform="matrix(0.26458333,0,0,0.26458333,0,164.70832)"
       sodipodi:nodetypes="sssssssssccccccccccccccccccccccccccccccccccccccccsssscssc" />
  </g>
</svg>
