<?xml version="1.0" encoding="UTF-8" standalone="no"?>
<!-- Created with Inkscape (http://www.inkscape.org/) -->

<svg
   xmlns:dc="http://purl.org/dc/elements/1.1/"
   xmlns:cc="http://creativecommons.org/ns#"
   xmlns:rdf="http://www.w3.org/1999/02/22-rdf-syntax-ns#"
   xmlns:svg="http://www.w3.org/2000/svg"
   xmlns="http://www.w3.org/2000/svg"
   xmlns:sodipodi="http://sodipodi.sourceforge.net/DTD/sodipodi-0.dtd"
   xmlns:inkscape="http://www.inkscape.org/namespaces/inkscape"
   width="500"
   height="500"
   viewBox="0 0 132.29166 132.29167"
   version="1.1"
   id="svg8"
   sodipodi:docname="backspace.svg"
   inkscape:version="0.92.2 2405546, 2018-03-11">
  <defs
     id="defs2" />
  <sodipodi:namedview
     id="base"
     pagecolor="#ffffff"
     bordercolor="#666666"
     borderopacity="1.0"
     inkscape:pageopacity="0.0"
     inkscape:pageshadow="2"
     inkscape:zoom="0.7"
     inkscape:cx="267.58362"
     inkscape:cy="59.368592"
     inkscape:document-units="mm"
     inkscape:current-layer="layer1"
     showgrid="true"
     units="px"
     inkscape:window-width="1171"
     inkscape:window-height="1153"
     inkscape:window-x="2665"
     inkscape:window-y="45"
     inkscape:window-maximized="0"
     showguides="false">
    <inkscape:grid
       type="xygrid"
       id="grid4988"
       spacingx="66.145832"
       spacingy="66.145832"
       snapvisiblegridlinesonly="true"
       enabled="false" />
  </sodipodi:namedview>
  <metadata
     id="metadata5">
    <rdf:RDF>
      <cc:Work
         rdf:about="">
        <dc:format>image/svg+xml</dc:format>
        <dc:type
           rdf:resource="http://purl.org/dc/dcmitype/StillImage" />
        <dc:title></dc:title>
      </cc:Work>
    </rdf:RDF>
  </metadata>
  <g
     inkscape:label="Layer 1"
     inkscape:groupmode="layer"
     id="layer1"
     transform="translate(0,-164.70832)">
    <text
       xml:space="preserve"
       style="font-style:normal;font-variant:normal;font-weight:normal;font-stretch:normal;font-size:10.58333302px;line-height:6.61458302px;font-family:Xolonium;-inkscape-font-specification:Xolonium;text-align:center;letter-spacing:0px;word-spacing:0px;text-anchor:middle;fill:#000000;fill-opacity:1;stroke:none;stroke-width:0.26458332px;stroke-linecap:butt;stroke-linejoin:miter;stroke-opacity:1"
       x="52.919361"
       y="223.76813"
       id="text1408"><tspan
         sodipodi:role="line"
         id="tspan1406"
         x="52.919361"
         y="229.8246"
         style="stroke-width:0.26458332px" /></text>
    <path
       style="opacity:1;fill:#000000;fill-opacity:1;stroke:none;stroke-width:15.11809921;stroke-linecap:square;stroke-linejoin:round;stroke-miterlimit:4.30000019;stroke-dasharray:none;stroke-opacity:1;paint-order:markers stroke fill"
       d="M 69.490234 140.24023 C 47.030828 140.24023 28.949219 158.32184 28.949219 180.78125 L 28.949219 276.46484 C 28.949219 298.92425 47.030828 317.00586 69.490234 317.00586 L 430.50977 317.00586 C 452.96917 317.00586 471.05078 298.92425 471.05078 276.46484 L 471.05078 180.78125 C 471.05078 158.32184 452.96917 140.24023 430.50977 140.24023 L 69.490234 140.24023 z M 195.19922 173.44141 L 195.19922 186.06836 L 333.58984 186.06836 L 333.58984 199.19922 L 195.19922 199.19922 L 195.19922 211.82617 L 166.41016 192.63477 L 195.19922 173.44141 z M 52.109375 230.36523 L 85.548828 230.36523 C 93.283074 230.36523 97.150391 233.45909 97.150391 239.64648 L 97.150391 243.60352 C 97.150391 247.42514 95.672055 250.06563 92.714844 251.52148 C 96.127011 252.88635 97.833984 255.63725 97.833984 259.77734 L 97.833984 266.125 C 97.833984 272.3124 93.966667 275.40625 86.232422 275.40625 L 52.109375 275.40625 L 52.109375 230.36523 z M 192.04688 230.36523 L 204.33008 230.36523 L 204.33008 254.25 L 216.95508 241.9668 L 231.62695 241.9668 L 217.22852 255.95703 L 232.31055 275.40625 L 219.00195 275.40625 L 209.65234 263.32617 L 204.33008 268.51367 L 204.33008 275.40625 L 192.04688 275.40625 L 192.04688 230.36523 z M 65.759766 238.55469 L 65.759766 247.76758 L 81.113281 247.76758 C 82.705626 247.76758 83.501953 247.1313 83.501953 245.85742 L 83.501953 240.46484 C 83.501953 239.19097 82.705626 238.55469 81.113281 238.55469 L 65.759766 238.55469 z M 108.12305 241.9668 L 132.00781 241.9668 C 138.83215 241.9668 142.24414 244.69678 142.24414 250.15625 L 142.24414 275.40625 L 115.63086 275.40625 C 108.80653 275.40625 105.39258 272.67626 105.39258 267.2168 L 105.39258 262.78125 C 105.39258 257.32178 108.80653 254.5918 115.63086 254.5918 L 129.96094 254.5918 L 129.96094 250.49609 C 129.96094 249.58618 129.39325 249.13281 128.25586 249.13281 L 108.12305 249.13281 L 108.12305 241.9668 z M 160.69727 241.9668 L 185.26562 241.9668 L 185.26562 249.13281 L 164.45117 249.13281 C 163.31378 249.13281 162.74414 249.58618 162.74414 250.49609 L 162.74414 266.875 C 162.74414 267.78491 163.31378 268.24023 164.45117 268.24023 L 185.26562 268.24023 L 185.26562 275.40625 L 160.69727 275.40625 C 153.87293 275.40625 150.46094 272.67626 150.46094 267.2168 L 150.46094 250.15625 C 150.46094 244.69678 153.87293 241.9668 160.69727 241.9668 z M 246.65234 241.9668 L 268.49023 241.9668 L 268.49023 249.13281 L 250.4043 249.13281 C 249.26691 249.13281 248.69922 249.58618 248.69922 250.49609 L 248.69922 253.22656 C 248.69922 254.13647 249.26691 254.5918 250.4043 254.5918 L 260.98242 254.5918 C 267.80676 254.5918 271.21875 257.32178 271.21875 262.78125 L 271.21875 267.2168 C 271.21875 272.67626 267.80676 275.40625 260.98242 275.40625 L 236.41602 275.40625 L 236.41602 268.24023 L 257.23047 268.24023 C 258.36786 268.24023 258.93555 267.78491 258.93555 266.875 L 258.93555 263.12109 C 258.93555 262.21118 258.36786 261.75781 257.23047 261.75781 L 246.65234 261.75781 C 239.82801 261.75781 236.41602 259.02783 236.41602 253.56836 L 236.41602 250.15625 C 236.41602 244.69678 239.82801 241.9668 246.65234 241.9668 z M 278.68359 241.9668 L 306.66406 241.9668 C 313.4884 241.9668 316.90039 244.69678 316.90039 250.15625 L 316.90039 267.2168 C 316.90039 272.67626 313.4884 275.40625 306.66406 275.40625 L 290.9668 275.40625 L 290.9668 289.73633 L 278.68359 289.73633 L 278.68359 241.9668 z M 327.11523 241.9668 L 351 241.9668 C 357.82433 241.9668 361.23633 244.69678 361.23633 250.15625 L 361.23633 275.40625 L 334.62109 275.40625 C 327.79676 275.40625 324.38477 272.67626 324.38477 267.2168 L 324.38477 262.78125 C 324.38477 257.32178 327.79676 254.5918 334.62109 254.5918 L 348.95312 254.5918 L 348.95312 250.49609 C 348.95312 249.58618 348.38348 249.13281 347.24609 249.13281 L 327.11523 249.13281 L 327.11523 241.9668 z M 379.68945 241.9668 L 404.25586 241.9668 L 404.25586 249.13281 L 383.44336 249.13281 C 382.30597 249.13281 381.73633 249.58618 381.73633 250.49609 L 381.73633 266.875 C 381.73633 267.78491 382.30597 268.24023 383.44336 268.24023 L 404.25586 268.24023 L 404.25586 275.40625 L 379.68945 275.40625 C 372.86512 275.40625 369.45312 272.67626 369.45312 267.2168 L 369.45312 250.15625 C 369.45312 244.69678 372.86512 241.9668 379.68945 241.9668 z M 421.27539 241.9668 L 437.65234 241.9668 C 444.47668 241.9668 447.89063 244.69678 447.89062 250.15625 L 447.89062 261.75781 L 423.32227 261.75781 L 423.32227 266.875 C 423.32227 267.78491 423.88995 268.24023 425.02734 268.24023 L 446.52539 268.24023 L 446.52539 275.40625 L 421.27539 275.40625 C 414.45106 275.40625 411.03906 272.67626 411.03906 267.2168 L 411.03906 250.15625 C 411.03906 244.69678 414.45106 241.9668 421.27539 241.9668 z M 290.9668 249.13281 L 290.9668 268.24023 L 302.91016 268.24023 C 304.04755 268.24023 304.61523 267.78491 304.61523 266.875 L 304.61523 250.49609 C 304.61523 249.58618 304.04755 249.13281 302.91016 249.13281 L 290.9668 249.13281 z M 425.02734 249.13281 C 423.88995 249.13281 423.32227 249.58618 423.32227 250.49609 L 423.32227 254.5918 L 435.60547 254.5918 L 435.60547 250.49609 C 435.60547 249.58618 435.03778 249.13281 433.90039 249.13281 L 425.02734 249.13281 z M 65.759766 255.95703 L 65.759766 267.2168 L 81.796875 267.2168 C 83.38922 267.2168 84.185547 266.58052 84.185547 265.30664 L 84.185547 257.86719 C 84.185547 256.59331 83.38922 255.95703 81.796875 255.95703 L 65.759766 255.95703 z M 119.38281 261.75781 C 118.24542 261.75781 117.67773 262.21118 117.67773 263.12109 L 117.67773 266.875 C 117.67773 267.78491 118.24542 268.24023 119.38281 268.24023 L 129.96094 268.24023 L 129.96094 261.75781 L 119.38281 261.75781 z M 338.375 261.75781 C 337.23761 261.75781 336.66992 262.21118 336.66992 263.12109 L 336.66992 266.875 C 336.66992 267.78491 337.23761 268.24023 338.375 268.24023 L 348.95312 268.24023 L 348.95312 261.75781 L 338.375 261.75781 z "
       transform="matrix(0.26458333,0,0,0.26458333,0,164.70832)"
       id="rect6592" />
    <path
       style="opacity:1;fill:#000000;fill-opacity:1;stroke:none;stroke-width:3.99999714;stroke-linecap:square;stroke-linejoin:round;stroke-miterlimit:4.30000019;stroke-dasharray:none;stroke-opacity:1;paint-order:markers stroke fill"
       d="m 7.6597967,242.58362 v 6.5849 c 0,5.9424 7.6719153,10.7263 17.2016633,10.7263 h 82.56871 c 9.52975,0 17.20166,-4.7839 17.20166,-10.7263 v -6.5849 c 0,5.94239 -7.67191,10.72663 -17.20166,10.72663 H 24.86146 c -9.529748,0 -17.2016633,-4.78424 -17.2016633,-10.72663 z"
       id="rect6592-9"
       inkscape:connector-curvature="0" />
  </g>
</svg>
