<?xml version="1.0" encoding="UTF-8" standalone="no"?>
<!-- Created with Inkscape (http://www.inkscape.org/) -->

<svg
   width="500"
   height="500"
   viewBox="0 0 132.29166 132.29167"
   version="1.1"
   id="svg8"
   sodipodi:docname="ctrl.svg"
   inkscape:version="1.3.2 (091e20ef0f, 2023-11-25, custom)"
   xmlns:inkscape="http://www.inkscape.org/namespaces/inkscape"
   xmlns:sodipodi="http://sodipodi.sourceforge.net/DTD/sodipodi-0.dtd"
   xmlns="http://www.w3.org/2000/svg"
   xmlns:svg="http://www.w3.org/2000/svg"
   xmlns:rdf="http://www.w3.org/1999/02/22-rdf-syntax-ns#"
   xmlns:cc="http://creativecommons.org/ns#"
   xmlns:dc="http://purl.org/dc/elements/1.1/">
  <defs
     id="defs2" />
  <sodipodi:namedview
     id="base"
     pagecolor="#ffffff"
     bordercolor="#666666"
     borderopacity="1.0"
     inkscape:pageopacity="0.0"
     inkscape:pageshadow="2"
     inkscape:zoom="0.3932277"
     inkscape:cx="122.06668"
     inkscape:cy="96.636122"
     inkscape:document-units="mm"
     inkscape:current-layer="layer1"
     showgrid="true"
     units="px"
     inkscape:window-width="906"
     inkscape:window-height="1156"
     inkscape:window-x="370"
     inkscape:window-y="21"
     inkscape:window-maximized="0"
     showguides="false"
     inkscape:showpageshadow="2"
     inkscape:pagecheckerboard="0"
     inkscape:deskcolor="#d1d1d1">
    <inkscape:grid
       type="xygrid"
       id="grid4988"
       spacingx="66.145832"
       spacingy="66.145832"
       snapvisiblegridlinesonly="true"
       enabled="false"
       originx="0"
       originy="0"
       units="px"
       visible="true" />
  </sodipodi:namedview>
  <metadata
     id="metadata5">
    <rdf:RDF>
      <cc:Work
         rdf:about="">
        <dc:format>image/svg+xml</dc:format>
        <dc:type
           rdf:resource="http://purl.org/dc/dcmitype/StillImage" />
      </cc:Work>
    </rdf:RDF>
  </metadata>
  <g
     inkscape:label="Layer 1"
     inkscape:groupmode="layer"
     id="layer1"
     transform="translate(0,-164.70832)">
    <path
       id="rect6592"
       style="opacity:1;fill:#000000;fill-opacity:1;stroke:none;stroke-width:18.89763832;stroke-linecap:square;stroke-linejoin:round;stroke-miterlimit:4.30000019;stroke-dasharray:none;stroke-opacity:1;paint-order:markers stroke fill"
       d="M 95.98047 80.294923 C 60.428107 80.294923 31.806641 108.91639 31.806641 144.46875 L 31.806641 295.9336 C 31.806641 331.48596 60.428107 360.10743 95.98047 360.10743 L 404.01954 360.10743 C 439.5719 360.10743 468.19337 331.48596 468.19337 295.9336 L 468.19337 144.46875 C 468.19337 108.91639 439.5719 80.294923 404.01954 80.294923 L 95.98047 80.294923 z M 93.132814 180.35156 L 149.88672 180.35156 L 149.88672 194.8418 L 100.98242 194.8418 C 98.16483 194.8418 96.755861 195.96858 96.755861 198.22266 L 96.755861 242.17774 C 96.755861 244.43182 98.16483 245.5586 100.98242 245.5586 L 149.88672 245.5586 L 149.88672 260.04883 L 93.132814 260.04883 C 79.44735 260.04883 72.60547 254.57534 72.60547 243.62696 L 72.60547 196.77539 C 72.60547 185.82702 79.44735 180.35156 93.132814 180.35156 z M 158.3125 180.35156 L 247.66992 180.35156 L 247.66992 194.8418 L 215.06641 194.8418 L 215.06641 260.04883 L 190.91602 260.04883 L 190.91602 194.8418 L 158.3125 194.8418 L 158.3125 180.35156 z M 258.45313 180.35156 L 317.62305 180.35156 C 331.30851 180.35156 338.15039 185.82702 338.15039 196.77539 L 338.15039 213.43946 C 338.15039 223.09979 332.71748 228.57328 321.84961 229.86133 L 341.77344 260.04883 L 315.68946 260.04883 L 295.76563 229.86133 L 282.60352 229.86133 L 282.60352 260.04883 L 258.45313 260.04883 L 258.45313 180.35156 z M 353.73633 180.35156 L 377.88672 180.35156 L 377.88672 245.5586 L 427.39454 245.5586 L 427.39454 260.04883 L 353.73633 260.04883 L 353.73633 180.35156 z M 282.60352 194.8418 L 282.60352 215.3711 L 309.77344 215.3711 C 312.59104 215.3711 314 214.24431 314 211.99024 L 314 198.22266 C 314 195.96858 312.59104 194.8418 309.77344 194.8418 L 282.60352 194.8418 z M 31.806641 324.2168 L 31.806641 363.61329 C 31.806641 399.16568 60.428107 427.78711 95.98047 427.78711 L 404.01758 427.78711 C 439.56994 427.78711 468.19141 399.16568 468.19141 363.61329 L 468.19141 324.2168 C 468.19141 359.76916 439.56994 388.39258 404.01758 388.39258 L 95.98047 388.39258 C 60.428107 388.39258 31.806641 359.76916 31.806641 324.2168 z "
       transform="matrix(0.26458333,0,0,0.26458333,0,164.70832)" />
  </g>
</svg>
