<?xml version="1.0" encoding="UTF-8" standalone="no"?>
<!-- Created with Inkscape (http://www.inkscape.org/) -->

<svg
   xmlns:dc="http://purl.org/dc/elements/1.1/"
   xmlns:cc="http://creativecommons.org/ns#"
   xmlns:rdf="http://www.w3.org/1999/02/22-rdf-syntax-ns#"
   xmlns:svg="http://www.w3.org/2000/svg"
   xmlns="http://www.w3.org/2000/svg"
   xmlns:sodipodi="http://sodipodi.sourceforge.net/DTD/sodipodi-0.dtd"
   xmlns:inkscape="http://www.inkscape.org/namespaces/inkscape"
   width="500"
   height="500"
   viewBox="0 0 132.29166 132.29167"
   version="1.1"
   id="svg8"
   sodipodi:docname="delete.svg"
   inkscape:version="0.92.2 2405546, 2018-03-11">
  <defs
     id="defs2" />
  <sodipodi:namedview
     id="base"
     pagecolor="#ffffff"
     bordercolor="#666666"
     borderopacity="1.0"
     inkscape:pageopacity="0.0"
     inkscape:pageshadow="2"
     inkscape:zoom="0.7"
     inkscape:cx="136.51581"
     inkscape:cy="174.90256"
     inkscape:document-units="mm"
     inkscape:current-layer="layer1"
     showgrid="true"
     units="px"
     inkscape:window-width="1171"
     inkscape:window-height="1153"
     inkscape:window-x="2665"
     inkscape:window-y="45"
     inkscape:window-maximized="0"
     showguides="false">
    <inkscape:grid
       type="xygrid"
       id="grid4988"
       spacingx="66.145832"
       spacingy="66.145832"
       snapvisiblegridlinesonly="true"
       enabled="false" />
  </sodipodi:namedview>
  <metadata
     id="metadata5">
    <rdf:RDF>
      <cc:Work
         rdf:about="">
        <dc:format>image/svg+xml</dc:format>
        <dc:type
           rdf:resource="http://purl.org/dc/dcmitype/StillImage" />
        <dc:title></dc:title>
      </cc:Work>
    </rdf:RDF>
  </metadata>
  <g
     inkscape:label="Layer 1"
     inkscape:groupmode="layer"
     id="layer1"
     transform="translate(0,-164.70832)">
    <text
       xml:space="preserve"
       style="font-style:normal;font-variant:normal;font-weight:normal;font-stretch:normal;font-size:10.58333302px;line-height:6.61458302px;font-family:Xolonium;-inkscape-font-specification:Xolonium;text-align:center;letter-spacing:0px;word-spacing:0px;text-anchor:middle;fill:#000000;fill-opacity:1;stroke:none;stroke-width:0.26458332px;stroke-linecap:butt;stroke-linejoin:miter;stroke-opacity:1"
       x="52.919361"
       y="223.76813"
       id="text1408"><tspan
         sodipodi:role="line"
         id="tspan1406"
         x="52.919361"
         y="229.8246"
         style="stroke-width:0.26458332px" /></text>
    <path
       style="opacity:1;fill:#000000;fill-opacity:1;stroke:none;stroke-width:21.35711288;stroke-linecap:square;stroke-linejoin:round;stroke-miterlimit:4.30000019;stroke-dasharray:none;stroke-opacity:1;paint-order:markers stroke fill"
       d="M 109.85547 34.994141 C 65.033699 34.994141 28.949219 71.078621 28.949219 115.90039 L 28.949219 306.85547 C 28.949219 351.67724 65.033699 387.76172 109.85547 387.76172 L 390.14453 387.76172 C 434.9663 387.76172 471.05078 351.67724 471.05078 306.85547 L 471.05078 115.90039 C 471.05078 71.078621 434.9663 34.994141 390.14453 34.994141 L 109.85547 34.994141 z M 49.148438 172.5918 L 90.285156 172.5918 C 116.92612 172.5918 130.24805 183.24778 130.24805 204.56055 L 130.24805 218.19531 C 130.24805 239.50808 116.92612 250.16406 90.285156 250.16406 L 49.148438 250.16406 L 49.148438 172.5918 z M 221.97852 172.5918 L 243.13477 172.5918 L 243.13477 250.16406 L 221.97852 250.16406 L 221.97852 172.5918 z M 334.92188 172.5918 L 356.07812 172.5918 L 356.07812 192.57227 L 376.05859 192.57227 L 376.05859 204.91406 L 356.07812 204.91406 L 356.07812 235.47266 C 356.07812 237.03977 357.05673 237.82227 359.01562 237.82227 L 376.05859 237.82227 L 376.05859 250.16406 L 352.55078 250.16406 C 340.79742 250.16406 334.92187 245.46324 334.92188 236.06055 L 334.92188 172.5918 z M 72.65625 186.69531 L 72.65625 236.06055 L 85.583984 236.06055 C 99.688022 236.06055 106.74023 230.418 106.74023 219.13477 L 106.74023 203.62109 C 106.74023 192.33786 99.688022 186.69531 85.583984 186.69531 L 72.65625 186.69531 z M 162.01758 192.57227 L 190.22656 192.57227 C 201.97993 192.57227 207.85547 197.27309 207.85547 206.67578 L 207.85547 226.6582 L 165.54492 226.6582 L 165.54492 235.47266 C 165.54492 237.03977 166.52353 237.82227 168.48242 237.82227 L 205.50586 237.82227 L 205.50586 250.16406 L 162.01758 250.16406 C 150.26421 250.16406 144.38867 245.46324 144.38867 236.06055 L 144.38867 206.67578 C 144.38867 197.27309 150.26421 192.57227 162.01758 192.57227 z M 274.96094 192.57227 L 303.16797 192.57227 C 314.92133 192.57227 320.79883 197.27309 320.79883 206.67578 L 320.79883 226.6582 L 278.48633 226.6582 L 278.48633 235.47266 C 278.48633 237.03977 279.46689 237.82227 281.42578 237.82227 L 318.44922 237.82227 L 318.44922 250.16406 L 274.96094 250.16406 C 263.20757 250.16406 257.33008 245.46324 257.33008 236.06055 L 257.33008 206.67578 C 257.33008 197.27309 263.20757 192.57227 274.96094 192.57227 z M 405.34961 192.57227 L 433.55859 192.57227 C 445.31196 192.57227 451.1875 197.27309 451.1875 206.67578 L 451.1875 226.6582 L 408.875 226.6582 L 408.875 235.47266 C 408.875 237.03977 409.85556 237.82227 411.81445 237.82227 L 448.83789 237.82227 L 448.83789 250.16406 L 405.34961 250.16406 C 393.59624 250.16406 387.71875 245.46324 387.71875 236.06055 L 387.71875 206.67578 C 387.71875 197.27309 393.59624 192.57227 405.34961 192.57227 z M 168.48242 204.91406 C 166.52353 204.91406 165.54492 205.69656 165.54492 207.26367 L 165.54492 214.31641 L 186.70117 214.31641 L 186.70117 207.26367 C 186.70117 205.69656 185.72061 204.91406 183.76172 204.91406 L 168.48242 204.91406 z M 281.42578 204.91406 C 279.46689 204.91406 278.48633 205.69656 278.48633 207.26367 L 278.48633 214.31641 L 299.64258 214.31641 L 299.64258 207.26367 C 299.64258 205.69656 298.66397 204.91406 296.70508 204.91406 L 281.42578 204.91406 z M 411.81445 204.91406 C 409.85556 204.91406 408.875 205.69656 408.875 207.26367 L 408.875 214.31641 L 430.03125 214.31641 L 430.03125 207.26367 C 430.03125 205.69656 429.05264 204.91406 427.09375 204.91406 L 411.81445 204.91406 z "
       transform="matrix(0.26458333,0,0,0.26458333,0,164.70832)"
       id="rect6592" />
    <path
       style="opacity:1;fill:#000000;fill-opacity:1;stroke:none;stroke-width:5.65073633;stroke-linecap:square;stroke-linejoin:round;stroke-miterlimit:4.30000019;stroke-dasharray:none;stroke-opacity:1;paint-order:markers stroke fill"
       d="m 7.6597967,255.33147 v 13.14135 c 0,11.85911 7.6719153,21.40625 17.2016633,21.40625 h 82.56871 c 9.52975,0 17.20166,-9.54714 17.20166,-21.40625 v -13.14135 c 0,11.85909 -7.67191,21.4069 -17.20166,21.4069 H 24.86146 c -9.529748,0 -17.2016633,-9.54781 -17.2016633,-21.4069 z"
       id="rect6592-9"
       inkscape:connector-curvature="0" />
  </g>
</svg>
