<?xml version="1.0" encoding="UTF-8" standalone="no"?>
<!-- Created with Inkscape (http://www.inkscape.org/) -->

<svg
   xmlns:dc="http://purl.org/dc/elements/1.1/"
   xmlns:cc="http://creativecommons.org/ns#"
   xmlns:rdf="http://www.w3.org/1999/02/22-rdf-syntax-ns#"
   xmlns:svg="http://www.w3.org/2000/svg"
   xmlns="http://www.w3.org/2000/svg"
   xmlns:sodipodi="http://sodipodi.sourceforge.net/DTD/sodipodi-0.dtd"
   xmlns:inkscape="http://www.inkscape.org/namespaces/inkscape"
   width="500"
   height="500"
   viewBox="0 0 132.29166 132.29167"
   version="1.1"
   id="svg8"
   sodipodi:docname="end.svg"
   inkscape:version="0.92.2 2405546, 2018-03-11">
  <defs
     id="defs2" />
  <sodipodi:namedview
     id="base"
     pagecolor="#ffffff"
     bordercolor="#666666"
     borderopacity="1.0"
     inkscape:pageopacity="0.0"
     inkscape:pageshadow="2"
     inkscape:zoom="0.7"
     inkscape:cx="136.51581"
     inkscape:cy="174.90256"
     inkscape:document-units="mm"
     inkscape:current-layer="layer1"
     showgrid="true"
     units="px"
     inkscape:window-width="1171"
     inkscape:window-height="1153"
     inkscape:window-x="2665"
     inkscape:window-y="45"
     inkscape:window-maximized="0"
     showguides="false">
    <inkscape:grid
       type="xygrid"
       id="grid4988"
       spacingx="66.145832"
       spacingy="66.145832"
       snapvisiblegridlinesonly="true"
       enabled="false" />
  </sodipodi:namedview>
  <metadata
     id="metadata5">
    <rdf:RDF>
      <cc:Work
         rdf:about="">
        <dc:format>image/svg+xml</dc:format>
        <dc:type
           rdf:resource="http://purl.org/dc/dcmitype/StillImage" />
        <dc:title></dc:title>
      </cc:Work>
    </rdf:RDF>
  </metadata>
  <g
     inkscape:label="Layer 1"
     inkscape:groupmode="layer"
     id="layer1"
     transform="translate(0,-164.70832)">
    <text
       xml:space="preserve"
       style="font-style:normal;font-variant:normal;font-weight:normal;font-stretch:normal;font-size:10.58333302px;line-height:6.61458302px;font-family:Xolonium;-inkscape-font-specification:Xolonium;text-align:center;letter-spacing:0px;word-spacing:0px;text-anchor:middle;fill:#000000;fill-opacity:1;stroke:none;stroke-width:0.26458332px;stroke-linecap:butt;stroke-linejoin:miter;stroke-opacity:1"
       x="52.919361"
       y="223.76813"
       id="text1408"><tspan
         sodipodi:role="line"
         id="tspan1406"
         x="52.919361"
         y="229.8246"
         style="stroke-width:0.26458332px" /></text>
    <path
       style="opacity:1;fill:#000000;fill-opacity:1;stroke:none;stroke-width:21.35711288;stroke-linecap:square;stroke-linejoin:round;stroke-miterlimit:4.30000019;stroke-dasharray:none;stroke-opacity:1;paint-order:markers stroke fill"
       d="M 109.85547 34.994141 C 65.033699 34.994141 28.949219 71.078621 28.949219 115.90039 L 28.949219 306.85547 C 28.949219 351.67724 65.033699 387.76172 109.85547 387.76172 L 390.14453 387.76172 C 434.9663 387.76172 471.05078 351.67724 471.05078 306.85547 L 471.05078 115.90039 C 471.05078 71.078621 434.9663 34.994141 390.14453 34.994141 L 109.85547 34.994141 z M 111.75195 165.44922 L 200.82617 165.44922 L 200.82617 182.15039 L 139.58789 182.15039 L 139.58789 200.93945 L 193.86719 200.93945 L 193.86719 217.64062 L 139.58789 217.64062 L 139.58789 240.60547 L 200.82617 240.60547 L 200.82617 257.30664 L 111.75195 257.30664 L 111.75195 165.44922 z M 363.58789 165.44922 L 388.64062 165.44922 L 388.64062 257.30664 L 331.57812 257.30664 C 317.66026 257.30664 310.70117 251.73976 310.70117 240.60547 L 310.70117 205.81055 C 310.70117 194.67625 317.66026 189.10938 331.57812 189.10938 L 363.58789 189.10938 L 363.58789 165.44922 z M 216.10352 189.10938 L 273.16602 189.10938 C 287.08388 189.10938 294.04297 194.67625 294.04297 205.81055 L 294.04297 257.30664 L 268.99023 257.30664 L 268.99023 206.50586 C 268.99023 204.65014 267.83136 203.72266 265.51172 203.72266 L 241.1543 203.72266 L 241.1543 257.30664 L 216.10352 257.30664 L 216.10352 189.10938 z M 339.23242 203.72266 C 336.91278 203.72266 335.75195 204.65014 335.75195 206.50586 L 335.75195 239.91016 C 335.75195 241.76587 336.91278 242.69336 339.23242 242.69336 L 363.58789 242.69336 L 363.58789 203.72266 L 339.23242 203.72266 z "
       transform="matrix(0.26458333,0,0,0.26458333,0,164.70832)"
       id="rect6592" />
    <path
       style="opacity:1;fill:#000000;fill-opacity:1;stroke:none;stroke-width:5.65073633;stroke-linecap:square;stroke-linejoin:round;stroke-miterlimit:4.30000019;stroke-dasharray:none;stroke-opacity:1;paint-order:markers stroke fill"
       d="m 7.6597967,255.33147 v 13.14135 c 0,11.85911 7.6719153,21.40625 17.2016633,21.40625 h 82.56871 c 9.52975,0 17.20166,-9.54714 17.20166,-21.40625 v -13.14135 c 0,11.85909 -7.67191,21.4069 -17.20166,21.4069 H 24.86146 c -9.529748,0 -17.2016633,-9.54781 -17.2016633,-21.4069 z"
       id="rect6592-9"
       inkscape:connector-curvature="0" />
  </g>
</svg>
