<?xml version="1.0" encoding="UTF-8" standalone="no"?>
<!-- Created with Inkscape (http://www.inkscape.org/) -->

<svg
   width="500"
   height="500"
   viewBox="0 0 132.29166 132.29167"
   version="1.1"
   id="svg8"
   sodipodi:docname="enter-narrow.svg"
   inkscape:version="1.4.2 (ebf0e940d0, 2025-05-08)"
   xmlns:inkscape="http://www.inkscape.org/namespaces/inkscape"
   xmlns:sodipodi="http://sodipodi.sourceforge.net/DTD/sodipodi-0.dtd"
   xmlns="http://www.w3.org/2000/svg"
   xmlns:svg="http://www.w3.org/2000/svg"
   xmlns:rdf="http://www.w3.org/1999/02/22-rdf-syntax-ns#"
   xmlns:cc="http://creativecommons.org/ns#"
   xmlns:dc="http://purl.org/dc/elements/1.1/">
  <defs
     id="defs2">
    <rect
       x="85.548827"
       y="230.36523"
       width="314.24052"
       height="48.086118"
       id="rect1" />
  </defs>
  <sodipodi:namedview
     id="base"
     pagecolor="#ffffff"
     bordercolor="#666666"
     borderopacity="1.0"
     inkscape:pageopacity="0.0"
     inkscape:pageshadow="2"
     inkscape:zoom="4.0504157"
     inkscape:cx="229.35918"
     inkscape:cy="235.53138"
     inkscape:document-units="mm"
     inkscape:current-layer="layer1"
     showgrid="true"
     units="px"
     inkscape:window-width="3832"
     inkscape:window-height="2312"
     inkscape:window-x="0"
     inkscape:window-y="42"
     inkscape:window-maximized="1"
     showguides="true"
     inkscape:showpageshadow="2"
     inkscape:pagecheckerboard="0"
     inkscape:deskcolor="#d1d1d1">
    <inkscape:grid
       type="xygrid"
       id="grid4988"
       spacingx="66.145832"
       spacingy="66.145832"
       snapvisiblegridlinesonly="true"
       enabled="false"
       originx="0"
       originy="0"
       units="px" />
  </sodipodi:namedview>
  <metadata
     id="metadata5">
    <rdf:RDF>
      <cc:Work
         rdf:about="">
        <dc:format>image/svg+xml</dc:format>
        <dc:type
           rdf:resource="http://purl.org/dc/dcmitype/StillImage" />
      </cc:Work>
    </rdf:RDF>
  </metadata>
  <g
     inkscape:label="Layer 1"
     inkscape:groupmode="layer"
     id="layer1"
     transform="translate(0,-164.70832)">
    <path
       id="rect6592"
       style="opacity:1;fill:#000000;fill-opacity:1;stroke:none;stroke-width:15.1181;stroke-linecap:square;stroke-linejoin:round;stroke-miterlimit:4.3;stroke-dasharray:none;stroke-opacity:1;paint-order:markers stroke fill"
       d="M 69.490235 140.24024 C 47.030829 140.24024 28.949219 158.32184 28.949219 180.78125 L 28.949219 276.46485 C 28.949219 298.92426 47.030829 317.00586 69.490235 317.00586 L 430.50977 317.00586 C 452.96917 317.00586 471.05079 298.92426 471.05079 276.46485 L 471.05079 180.78125 C 471.05079 158.32184 452.96917 140.24024 430.50977 140.24024 L 69.490235 140.24024 z M 320.69336 155.70117 L 333.58985 155.70117 L 333.58985 189.57813 L 333.58985 195.68946 L 320.69336 195.68946 L 195.19922 195.68946 L 195.19922 211.82617 L 154.41016 192.63477 L 195.19922 173.44141 L 195.19922 189.57813 L 320.69336 189.57813 L 320.69336 155.70117 z M 153.6836 230.24219 L 197.47852 230.24219 L 197.47852 238.45313 L 167.36914 238.45313 L 167.36914 247.69141 L 194.0586 247.69141 L 194.0586 255.9043 L 167.36914 255.9043 L 167.36914 267.19532 L 197.47852 267.19532 L 197.47852 275.40625 L 153.6836 275.40625 L 153.6836 230.24219 z M 248.97266 230.24219 L 261.29102 230.24219 L 261.29102 241.875 L 272.92383 241.875 L 272.92383 249.06055 L 261.29102 249.06055 L 261.29102 266.85157 C 261.29102 267.76399 261.86144 268.22071 263.00196 268.22071 L 272.92383 268.22071 L 272.92383 275.40625 L 259.23828 275.40625 C 252.39519 275.40625 248.97266 272.66981 248.97266 267.19532 L 248.97266 230.24219 z M 203.72266 241.875 L 231.7793 241.875 C 238.62241 241.875 242.04492 244.61145 242.04492 250.08594 L 242.04492 275.40625 L 229.72657 275.40625 L 229.72657 250.42969 C 229.72657 249.51729 229.15614 249.06055 228.01563 249.06055 L 216.04102 249.06055 L 216.04102 275.40625 L 203.72266 275.40625 L 203.72266 241.875 z M 288.75 241.875 L 305.17188 241.875 C 312.01497 241.875 315.4375 244.61145 315.4375 250.08594 L 315.4375 261.72071 L 290.80274 261.72071 L 290.80274 266.85157 C 290.80274 267.76399 291.37314 268.22071 292.51368 268.22071 L 314.06836 268.22071 L 314.06836 275.40625 L 288.75 275.40625 C 281.90689 275.40625 278.48438 272.66981 278.48438 267.19532 L 278.48438 250.08594 C 278.48438 244.61145 281.90689 241.875 288.75 241.875 z M 332.63086 241.875 L 346.31641 241.875 L 346.31641 249.06055 L 336.39454 249.06055 C 335.25402 249.06055 334.6836 249.51729 334.6836 250.42969 L 334.6836 275.40625 L 322.36524 275.40625 L 322.36524 250.08594 C 322.36524 244.61145 325.78775 241.875 332.63086 241.875 z M 292.51368 249.06055 C 291.37314 249.06055 290.80274 249.51729 290.80274 250.42969 L 290.80274 254.53516 L 303.11914 254.53516 L 303.11914 250.42969 C 303.11914 249.51729 302.54872 249.06055 301.40821 249.06055 L 292.51368 249.06055 z "
       transform="matrix(0.26458333,0,0,0.26458333,0,164.70832)" />
    <path
       style="opacity:1;fill:#000000;fill-opacity:1;stroke:none;stroke-width:3.99999714;stroke-linecap:square;stroke-linejoin:round;stroke-miterlimit:4.30000019;stroke-dasharray:none;stroke-opacity:1;paint-order:markers stroke fill"
       d="m 7.6597967,242.58362 v 6.5849 c 0,5.9424 7.6719153,10.7263 17.2016633,10.7263 h 82.56871 c 9.52975,0 17.20166,-4.7839 17.20166,-10.7263 v -6.5849 c 0,5.94239 -7.67191,10.72663 -17.20166,10.72663 H 24.86146 c -9.529748,0 -17.2016633,-4.78424 -17.2016633,-10.72663 z"
       id="rect6592-9"
       inkscape:connector-curvature="0" />
  </g>
</svg>
