<?xml version="1.0" encoding="UTF-8" standalone="no"?>
<!-- Created with Inkscape (http://www.inkscape.org/) -->

<svg
   xmlns:dc="http://purl.org/dc/elements/1.1/"
   xmlns:cc="http://creativecommons.org/ns#"
   xmlns:rdf="http://www.w3.org/1999/02/22-rdf-syntax-ns#"
   xmlns:svg="http://www.w3.org/2000/svg"
   xmlns="http://www.w3.org/2000/svg"
   xmlns:sodipodi="http://sodipodi.sourceforge.net/DTD/sodipodi-0.dtd"
   xmlns:inkscape="http://www.inkscape.org/namespaces/inkscape"
   width="500"
   height="500"
   viewBox="0 0 132.29166 132.29167"
   version="1.1"
   id="svg8"
   sodipodi:docname="esc.svg"
   inkscape:version="0.92.2 2405546, 2018-03-11">
  <defs
     id="defs2" />
  <sodipodi:namedview
     id="base"
     pagecolor="#ffffff"
     bordercolor="#666666"
     borderopacity="1.0"
     inkscape:pageopacity="0.0"
     inkscape:pageshadow="2"
     inkscape:zoom="0.7"
     inkscape:cx="313.65867"
     inkscape:cy="174.90256"
     inkscape:document-units="mm"
     inkscape:current-layer="layer1"
     showgrid="true"
     units="px"
     inkscape:window-width="1478"
     inkscape:window-height="1153"
     inkscape:window-x="2358"
     inkscape:window-y="45"
     inkscape:window-maximized="0"
     showguides="true">
    <inkscape:grid
       type="xygrid"
       id="grid4988"
       spacingx="66.145832"
       spacingy="66.145832"
       snapvisiblegridlinesonly="true"
       enabled="false" />
  </sodipodi:namedview>
  <metadata
     id="metadata5">
    <rdf:RDF>
      <cc:Work
         rdf:about="">
        <dc:format>image/svg+xml</dc:format>
        <dc:type
           rdf:resource="http://purl.org/dc/dcmitype/StillImage" />
        <dc:title></dc:title>
      </cc:Work>
    </rdf:RDF>
  </metadata>
  <g
     inkscape:label="Layer 1"
     inkscape:groupmode="layer"
     id="layer1"
     transform="translate(0,-164.70832)">
    <text
       xml:space="preserve"
       style="font-style:normal;font-variant:normal;font-weight:normal;font-stretch:normal;font-size:10.58333302px;line-height:6.61458302px;font-family:Xolonium;-inkscape-font-specification:Xolonium;text-align:center;letter-spacing:0px;word-spacing:0px;text-anchor:middle;fill:#000000;fill-opacity:1;stroke:none;stroke-width:0.26458332px;stroke-linecap:butt;stroke-linejoin:miter;stroke-opacity:1"
       x="52.919361"
       y="223.76813"
       id="text1408"><tspan
         sodipodi:role="line"
         id="tspan1406"
         x="52.919361"
         y="229.8246"
         style="stroke-width:0.26458332px" /></text>
    <path
       style="opacity:1;fill:#000000;fill-opacity:1;stroke:none;stroke-width:21.35711288;stroke-linecap:square;stroke-linejoin:round;stroke-miterlimit:4.30000019;stroke-dasharray:none;stroke-opacity:1;paint-order:markers stroke fill"
       d="M 109.85547 34.994141 C 65.033699 34.994141 28.949219 71.078621 28.949219 115.90039 L 28.949219 306.85547 C 28.949219 351.67724 65.033699 387.76172 109.85547 387.76172 L 390.14453 387.76172 C 434.9663 387.76172 471.05078 351.67724 471.05078 306.85547 L 471.05078 115.90039 C 471.05078 71.078621 434.9663 34.994141 390.14453 34.994141 L 109.85547 34.994141 z M 59.863281 153.78906 L 171.55078 153.78906 L 171.55078 174.73047 L 94.765625 174.73047 L 94.765625 198.28906 L 162.82617 198.28906 L 162.82617 219.23047 L 94.765625 219.23047 L 94.765625 248.02539 L 171.55078 248.02539 L 171.55078 268.9668 L 59.863281 268.9668 L 59.863281 153.78906 z M 220.37305 153.78906 L 297.16016 153.78906 L 297.16016 174.73047 L 231.7168 174.73047 C 227.64484 174.73047 225.60938 176.35962 225.60938 179.61719 L 225.60938 193.40234 C 225.60937 196.65991 227.64484 198.28906 231.7168 198.28906 L 276.2168 198.28906 C 295.99489 198.28906 305.88477 206.20096 305.88477 222.02344 L 305.88477 245.23438 C 305.88477 261.05685 295.99489 268.9668 276.2168 268.9668 L 190.70703 268.9668 L 190.70703 248.02539 L 264.875 248.02539 C 268.94696 248.02539 270.98242 246.39624 270.98242 243.13867 L 270.98242 224.11719 C 270.98242 220.85962 268.94696 219.23047 264.875 219.23047 L 220.37305 219.23047 C 200.59495 219.23047 190.70703 211.32052 190.70703 195.49805 L 190.70703 177.52344 C 190.70703 161.70096 200.59495 153.78906 220.37305 153.78906 z M 358.11523 153.78906 L 440.13672 153.78906 L 440.13672 174.73047 L 369.45898 174.73047 C 365.38702 174.73047 363.35156 176.35962 363.35156 179.61719 L 363.35156 243.13867 C 363.35156 246.39624 365.38702 248.02539 369.45898 248.02539 L 440.13672 248.02539 L 440.13672 268.9668 L 358.11523 268.9668 C 338.33714 268.9668 328.44922 261.05685 328.44922 245.23438 L 328.44922 177.52344 C 328.44922 161.70096 338.33714 153.78906 358.11523 153.78906 z "
       transform="matrix(0.26458333,0,0,0.26458333,0,164.70832)"
       id="rect6592" />
    <path
       style="opacity:1;fill:#000000;fill-opacity:1;stroke:none;stroke-width:5.65073633;stroke-linecap:square;stroke-linejoin:round;stroke-miterlimit:4.30000019;stroke-dasharray:none;stroke-opacity:1;paint-order:markers stroke fill"
       d="m 7.6597967,255.33147 v 13.14135 c 0,11.85911 7.6719153,21.40625 17.2016633,21.40625 h 82.56871 c 9.52975,0 17.20166,-9.54714 17.20166,-21.40625 v -13.14135 c 0,11.85909 -7.67191,21.4069 -17.20166,21.4069 H 24.86146 c -9.529748,0 -17.2016633,-9.54781 -17.2016633,-21.4069 z"
       id="rect6592-9"
       inkscape:connector-curvature="0" />
  </g>
</svg>
