<?xml version="1.0" encoding="UTF-8" standalone="no"?>
<!-- Created with Inkscape (http://www.inkscape.org/) -->

<svg
   width="500"
   height="500"
   viewBox="0 0 132.29166 132.29167"
   version="1.1"
   id="svg8"
   sodipodi:docname="ijkl.svg"
   inkscape:version="1.3 (0e150ed6c4, 2023-07-21)"
   xmlns:inkscape="http://www.inkscape.org/namespaces/inkscape"
   xmlns:sodipodi="http://sodipodi.sourceforge.net/DTD/sodipodi-0.dtd"
   xmlns="http://www.w3.org/2000/svg"
   xmlns:svg="http://www.w3.org/2000/svg"
   xmlns:rdf="http://www.w3.org/1999/02/22-rdf-syntax-ns#"
   xmlns:cc="http://creativecommons.org/ns#"
   xmlns:dc="http://purl.org/dc/elements/1.1/">
  <defs
     id="defs2">
    <rect
       x="171.43786"
       y="139.85722"
       width="295.77873"
       height="215.25414"
       id="rect3" />
    <rect
       x="82.501308"
       y="131.66548"
       width="371.29508"
       height="188.21516"
       id="rect1" />
    <rect
       x="118.70597"
       y="123.49252"
       width="302.04886"
       height="186.98164"
       id="rect2" />
    <rect
       x="171.43787"
       y="139.85722"
       width="295.77872"
       height="215.25414"
       id="rect3-6" />
    <rect
       x="171.43787"
       y="139.85722"
       width="295.77872"
       height="215.25414"
       id="rect3-7" />
    <rect
       x="171.43787"
       y="139.85722"
       width="295.77872"
       height="215.25414"
       id="rect3-7-0" />
    <rect
       x="171.43787"
       y="139.85722"
       width="295.77872"
       height="215.25414"
       id="rect3-7-9" />
    <rect
       x="171.43787"
       y="139.85722"
       width="295.77872"
       height="215.25414"
       id="rect3-7-94" />
    <rect
       x="171.43787"
       y="139.85722"
       width="295.77872"
       height="215.25414"
       id="rect3-7-5" />
  </defs>
  <sodipodi:namedview
     id="base"
     pagecolor="#ffffff"
     bordercolor="#666666"
     borderopacity="1.0"
     inkscape:pageopacity="0.0"
     inkscape:pageshadow="2"
     inkscape:zoom="0.85360663"
     inkscape:cx="136.47973"
     inkscape:cy="174.55347"
     inkscape:document-units="mm"
     inkscape:current-layer="layer1"
     showgrid="true"
     units="px"
     inkscape:window-width="1916"
     inkscape:window-height="1156"
     inkscape:window-x="0"
     inkscape:window-y="21"
     inkscape:window-maximized="1"
     showguides="false"
     inkscape:showpageshadow="2"
     inkscape:pagecheckerboard="0"
     inkscape:deskcolor="#d1d1d1">
    <inkscape:grid
       type="xygrid"
       id="grid4988"
       spacingx="66.145832"
       spacingy="66.145832"
       snapvisiblegridlinesonly="true"
       enabled="false"
       originx="0"
       originy="0"
       units="px"
       visible="true" />
  </sodipodi:namedview>
  <metadata
     id="metadata5">
    <rdf:RDF>
      <cc:Work
         rdf:about="">
        <dc:format>image/svg+xml</dc:format>
        <dc:type
           rdf:resource="http://purl.org/dc/dcmitype/StillImage" />
      </cc:Work>
    </rdf:RDF>
  </metadata>
  <g
     inkscape:label="Layer 1"
     inkscape:groupmode="layer"
     id="layer1"
     transform="translate(0,-164.70832)">
    <path
       id="rect6592-37"
       style="fill:#000000;fill-opacity:1;stroke:none;stroke-width:2.35517;stroke-linecap:square;stroke-linejoin:round;stroke-miterlimit:4.3;stroke-dasharray:none;stroke-opacity:1;paint-order:markers stroke fill"
       d="m 46.280306,185.74642 c -4.942713,0 -8.921977,3.97926 -8.921977,8.92198 v 21.05765 c 0,4.94272 3.979264,8.92199 8.921977,8.92199 h 22.086977 c 4.942713,0 8.921975,-3.97927 8.921975,-8.92199 V 194.6684 c 0,-4.94272 -3.979262,-8.92198 -8.921975,-8.92198 z m 8.18171,9.85522 h 5.723556 V 214.4887 H 54.462016 Z M 13.197657,227.6511 c -4.9427124,0 -8.9219766,3.97926 -8.9219766,8.92198 v 21.05767 c 0,4.94272 3.9792642,8.92197 8.9219766,8.92197 h 22.086975 c 4.942712,0 8.921978,-3.97925 8.921978,-8.92197 v -21.05767 c 0,-4.94272 -3.979266,-8.92198 -8.921978,-8.92198 z m 41.904689,0 c -4.942714,0 -8.921978,3.97926 -8.921978,8.92198 v 21.05767 c 0,4.94272 3.979264,8.92197 8.921978,8.92197 H 77.18932 c 4.942717,0 8.921973,-3.97925 8.921973,-8.92197 v -21.05767 c 0,-4.94272 -3.979256,-8.92198 -8.921973,-8.92198 z m 41.904691,0 c -4.942718,0 -8.921972,3.97926 -8.921972,8.92198 v 21.05767 c 0,4.94272 3.979254,8.92197 8.921972,8.92197 h 22.086973 c 4.94272,0 8.92198,-3.97925 8.92198,-8.92197 v -21.05767 c 0,-4.94272 -3.97926,-8.92198 -8.92198,-8.92198 z m -69.761099,9.85523 h 5.723341 v 14.99532 c 0,2.59459 -1.621589,3.89173 -4.86483,3.89173 h -7.726608 c -3.815579,0 -5.723341,-1.52613 -5.723341,-4.57858 v -3.86332 h 5.723341 v 3.40541 c 0,1.06837 0.667814,1.60244 2.003267,1.60244 h 3.863088 c 0.667727,0 1.001742,-0.26704 1.001742,-0.80122 z m 29.456263,0 h 5.723342 v 7.29735 l 7.583595,-7.29735 h 7.011107 l -8.09857,7.81233 8.384813,11.07472 h -6.410192 l -5.694911,-7.52609 -2.775842,2.6899 v 4.83619 h -5.723342 z m 43.335689,0 h 5.72334 v 15.453 h 11.73292 v 3.43405 H 100.03789 Z M 4.2758956,261.56276 v 5.47738 c 0,4.94273 3.1975299,8.92175 7.1694154,8.92175 H 37.03698 c 3.971882,0 7.169415,-3.97902 7.169415,-8.92175 v -5.47738 c 0,4.94273 -3.197533,8.92219 -7.169415,8.92219 H 11.445311 c -3.9718855,0 -7.1694154,-3.97946 -7.1694154,-8.92219 z m 41.9046894,0 v 5.47738 c 0,4.94273 3.197528,8.92175 7.169414,8.92175 h 25.59167 c 3.971885,0 7.169416,-3.97902 7.169416,-8.92175 v -5.47738 c 0,4.94273 -3.197531,8.92219 -7.169416,8.92219 h -25.59167 c -3.971886,0 -7.169414,-3.97946 -7.169414,-8.92219 z m 41.904688,0 v 5.47738 c 0,4.94273 3.197527,8.92175 7.169422,8.92175 h 25.591655 c 3.97189,0 7.16942,-3.97902 7.16942,-8.92175 v -5.47738 c 0,4.94273 -3.19753,8.92219 -7.16942,8.92219 H 95.254695 c -3.971895,0 -7.169422,-3.97946 -7.169422,-8.92219 z" />
  </g>
</svg>
