<?xml version="1.0" encoding="UTF-8" standalone="no"?>
<!-- Created with Inkscape (http://www.inkscape.org/) -->

<svg
   width="500"
   height="500"
   viewBox="0 0 132.29166 132.29167"
   version="1.1"
   id="svg8"
   sodipodi:docname="lurd.svg"
   inkscape:version="1.3 (0e150ed6c4, 2023-07-21)"
   xmlns:inkscape="http://www.inkscape.org/namespaces/inkscape"
   xmlns:sodipodi="http://sodipodi.sourceforge.net/DTD/sodipodi-0.dtd"
   xmlns="http://www.w3.org/2000/svg"
   xmlns:svg="http://www.w3.org/2000/svg"
   xmlns:rdf="http://www.w3.org/1999/02/22-rdf-syntax-ns#"
   xmlns:cc="http://creativecommons.org/ns#"
   xmlns:dc="http://purl.org/dc/elements/1.1/">
  <defs
     id="defs2">
    <rect
       x="82.501308"
       y="131.66548"
       width="371.29508"
       height="188.21516"
       id="rect1" />
    <rect
       x="118.70597"
       y="123.49252"
       width="302.04886"
       height="186.98164"
       id="rect2" />
  </defs>
  <sodipodi:namedview
     id="base"
     pagecolor="#ffffff"
     bordercolor="#666666"
     borderopacity="1.0"
     inkscape:pageopacity="0.0"
     inkscape:pageshadow="2"
     inkscape:zoom="1.1735102"
     inkscape:cx="277.79903"
     inkscape:cy="217.29679"
     inkscape:document-units="mm"
     inkscape:current-layer="layer1"
     showgrid="true"
     units="px"
     inkscape:window-width="1916"
     inkscape:window-height="1156"
     inkscape:window-x="0"
     inkscape:window-y="21"
     inkscape:window-maximized="1"
     showguides="false"
     inkscape:showpageshadow="2"
     inkscape:pagecheckerboard="0"
     inkscape:deskcolor="#d1d1d1">
    <inkscape:grid
       type="xygrid"
       id="grid4988"
       spacingx="66.145832"
       spacingy="66.145832"
       snapvisiblegridlinesonly="true"
       enabled="false"
       originx="0"
       originy="0"
       units="px"
       visible="true" />
  </sodipodi:namedview>
  <metadata
     id="metadata5">
    <rdf:RDF>
      <cc:Work
         rdf:about="">
        <dc:format>image/svg+xml</dc:format>
        <dc:type
           rdf:resource="http://purl.org/dc/dcmitype/StillImage" />
      </cc:Work>
    </rdf:RDF>
  </metadata>
  <g
     inkscape:label="Layer 1"
     inkscape:groupmode="layer"
     id="layer1"
     transform="translate(0,-164.70832)">
    <text
       xml:space="preserve"
       style="font-style:normal;font-variant:normal;font-weight:normal;font-stretch:normal;font-size:10.58333302px;line-height:6.61458302px;font-family:Xolonium;-inkscape-font-specification:Xolonium;text-align:center;letter-spacing:0px;word-spacing:0px;text-anchor:middle;fill:#000000;fill-opacity:1;stroke:none;stroke-width:0.26458332px;stroke-linecap:butt;stroke-linejoin:miter;stroke-opacity:1"
       x="52.919361"
       y="223.76813"
       id="text1408"><tspan
         sodipodi:role="line"
         id="tspan1406"
         x="52.919361"
         y="229.8246"
         style="stroke-width:0.26458332px" /></text>
    <text
       xml:space="preserve"
       style="font-style:normal;font-variant:normal;font-weight:normal;font-stretch:normal;font-size:10.5833px;line-height:6.61458px;font-family:Xolonium;-inkscape-font-specification:Xolonium;text-align:center;letter-spacing:0px;word-spacing:0px;text-anchor:middle;fill:#000000;fill-opacity:1;stroke:none;stroke-width:0.264583px;stroke-linecap:butt;stroke-linejoin:miter;stroke-opacity:1"
       x="-76.292358"
       y="223.76813"
       id="text1408-5"><tspan
         sodipodi:role="line"
         id="tspan1406-6"
         x="-76.292358"
         y="223.76813"
         style="stroke-width:0.264583px" /></text>
    <text
       xml:space="preserve"
       style="font-style:normal;font-variant:normal;font-weight:normal;font-stretch:normal;font-size:10.5833px;line-height:6.61458px;font-family:Xolonium;-inkscape-font-specification:Xolonium;text-align:center;letter-spacing:0px;word-spacing:0px;text-anchor:middle;fill:#000000;fill-opacity:1;stroke:none;stroke-width:0.264583px;stroke-linecap:butt;stroke-linejoin:miter;stroke-opacity:1"
       x="-206.87558"
       y="223.76813"
       id="text1408-5-1"
       transform="scale(-1,1)"><tspan
         sodipodi:role="line"
         id="tspan1406-6-2"
         x="-206.87558"
         y="223.76813"
         style="stroke-width:0.264583px" /></text>
    <g
       id="g3"
       transform="translate(-0.00721782,6.0905283)">
      <path
         id="rect6592"
         style="opacity:1;fill:#000000;fill-opacity:1;stroke:none;stroke-width:1.84706;stroke-linecap:square;stroke-linejoin:round;stroke-miterlimit:4.3;stroke-dasharray:none;stroke-opacity:1;paint-order:markers stroke fill"
         d="m 54.030368,221.9973 c -3.876375,0 -6.997133,3.12076 -6.997133,6.99713 v 16.51464 c 0,3.87638 3.120758,6.99714 6.997133,6.99714 h 24.240647 c 3.876373,0 6.997133,-3.12076 6.997133,-6.99714 v -16.51464 c 0,-3.87637 -3.12076,-6.99713 -6.997133,-6.99713 z m 10.725593,14.0267 h 2.884898 v 8.58071 l 3.722886,-2.66126 h 3.508701 l -8.721755,7.13953 -8.721754,-7.13953 h 3.508701 l 3.818323,2.78862 z" />
      <path
         style="opacity:1;fill:#000000;fill-opacity:1;stroke:none;stroke-width:1.84706;stroke-linecap:square;stroke-linejoin:round;stroke-miterlimit:4.3;stroke-dasharray:none;stroke-opacity:1;paint-order:markers stroke fill"
         d="m 47.033338,248.59287 v 4.29552 c 0,3.87639 2.507722,6.99706 5.622714,6.99706 h 26.989266 c 3.114993,0 5.622713,-3.12067 5.622713,-6.99706 v -4.29552 c 0,3.87639 -2.50772,6.99728 -5.622713,6.99728 H 52.656052 c -3.114992,0 -5.622714,-3.12089 -5.622714,-6.99728 z"
         id="rect6592-9"
         inkscape:connector-curvature="0" />
      <path
         id="rect6592-3"
         style="fill:#000000;fill-opacity:1;stroke:none;stroke-width:1.84706;stroke-linecap:square;stroke-linejoin:round;stroke-miterlimit:4.3;stroke-dasharray:none;stroke-opacity:1;paint-order:markers stroke fill"
         d="m 12.35805,221.9973 c -3.8763787,0 -6.9971377,3.12075 -6.9971377,6.99713 v 16.51464 c 0,3.87639 3.120759,6.99714 6.9971377,6.99714 h 24.240647 c 3.876378,0 6.997133,-3.12075 6.997133,-6.99714 v -16.51464 c 0,-3.87638 -3.120755,-6.99713 -6.997133,-6.99713 z m 7.008788,7.92194 v 3.5087 l -2.661255,1.9932 h 12.040089 v 2.8849 H 16.578221 l 2.788617,2.08863 v 3.5087 l -9.3881237,-6.99206 z" />
      <path
         style="fill:#000000;fill-opacity:1;stroke:none;stroke-width:1.84706;stroke-linecap:square;stroke-linejoin:round;stroke-miterlimit:4.3;stroke-dasharray:none;stroke-opacity:1;paint-order:markers stroke fill"
         d="m 5.3610163,248.59287 v 4.29552 c 0,3.87639 2.50772,6.99706 5.6227167,6.99706 H 37.973 c 3.114993,0 5.622713,-3.12067 5.622713,-6.99706 v -4.29552 c 0,3.87639 -2.50772,6.99728 -5.622713,6.99728 H 10.983733 c -3.1149967,0 -5.6227167,-3.12089 -5.6227167,-6.99728 z"
         id="rect6592-9-2"
         inkscape:connector-curvature="0" />
      <path
         id="rect6592-3-9"
         style="fill:#000000;fill-opacity:1;stroke:none;stroke-width:1.84706;stroke-linecap:square;stroke-linejoin:round;stroke-miterlimit:4.3;stroke-dasharray:none;stroke-opacity:1;paint-order:markers stroke fill"
         d="m 119.94806,221.9973 c 3.87637,0 6.99713,3.12075 6.99713,6.99713 v 16.51464 c 0,3.87639 -3.12076,6.99714 -6.99713,6.99714 H 95.707403 c -3.876373,0 -6.997129,-3.12075 -6.997129,-6.99714 v -16.51464 c 0,-3.87638 3.120756,-6.99713 6.997129,-6.99713 z m -7.00879,7.92194 v 3.5087 l 2.66125,1.9932 h -12.04008 v 2.8849 h 12.16744 l -2.78861,2.08863 v 3.5087 l 9.38812,-6.99206 z" />
      <path
         style="fill:#000000;fill-opacity:1;stroke:none;stroke-width:1.84706;stroke-linecap:square;stroke-linejoin:round;stroke-miterlimit:4.3;stroke-dasharray:none;stroke-opacity:1;paint-order:markers stroke fill"
         d="m 126.94508,248.59287 v 4.29552 c 0,3.87639 -2.50771,6.99706 -5.62271,6.99706 H 94.333102 c -3.114991,0 -5.622713,-3.12067 -5.622713,-6.99706 v -4.29552 c 0,3.87639 2.507722,6.99728 5.622713,6.99728 h 26.989268 c 3.115,0 5.62271,-3.12089 5.62271,-6.99728 z"
         id="rect6592-9-2-7"
         inkscape:connector-curvature="0" />
      <path
         id="rect6592-0"
         style="fill:#000000;fill-opacity:1;stroke:none;stroke-width:1.84706;stroke-linecap:square;stroke-linejoin:round;stroke-miterlimit:4.3;stroke-dasharray:none;stroke-opacity:1;paint-order:markers stroke fill"
         d="m 54.030367,189.6418 c -3.876375,0 -6.997133,3.12075 -6.997133,6.99713 v 16.51465 c 0,3.87637 3.120758,6.99713 6.997133,6.99713 h 24.240651 c 3.876372,0 6.997131,-3.12076 6.997131,-6.99713 v -16.51465 c 0,-3.87638 -3.120759,-6.99713 -6.997131,-6.99713 z m 12.120325,3.64856 8.721754,7.13953 h -3.508702 l -3.722887,-2.66126 v 8.58072 h -2.884895 v -8.70807 l -3.818325,2.78861 h -3.5087 z" />
    </g>
    <text
       xml:space="preserve"
       style="font-style:normal;font-variant:normal;font-weight:normal;font-stretch:normal;font-size:10.5833px;line-height:6.61458px;font-family:Xolonium;-inkscape-font-specification:Xolonium;text-align:center;letter-spacing:0px;word-spacing:0px;text-anchor:middle;fill:#000000;fill-opacity:1;stroke:none;stroke-width:0.264583px;stroke-linecap:butt;stroke-linejoin:miter;stroke-opacity:1"
       x="52.919365"
       y="107.62766"
       id="text1408-9"><tspan
         sodipodi:role="line"
         id="tspan1406-3"
         x="52.919365"
         y="107.62766"
         style="stroke-width:0.264583px" /></text>
  </g>
</svg>
