<?xml version="1.0" encoding="UTF-8" standalone="no"?>
<!-- Created with Inkscape (http://www.inkscape.org/) -->

<svg
   xmlns:dc="http://purl.org/dc/elements/1.1/"
   xmlns:cc="http://creativecommons.org/ns#"
   xmlns:rdf="http://www.w3.org/1999/02/22-rdf-syntax-ns#"
   xmlns:svg="http://www.w3.org/2000/svg"
   xmlns="http://www.w3.org/2000/svg"
   xmlns:sodipodi="http://sodipodi.sourceforge.net/DTD/sodipodi-0.dtd"
   xmlns:inkscape="http://www.inkscape.org/namespaces/inkscape"
   width="500"
   height="500"
   viewBox="0 0 132.29166 132.29167"
   version="1.1"
   id="svg8"
   sodipodi:docname="pageup.svg"
   inkscape:version="0.92.2 2405546, 2018-03-11">
  <defs
     id="defs2" />
  <sodipodi:namedview
     id="base"
     pagecolor="#ffffff"
     bordercolor="#666666"
     borderopacity="1.0"
     inkscape:pageopacity="0.0"
     inkscape:pageshadow="2"
     inkscape:zoom="0.7"
     inkscape:cx="136.51581"
     inkscape:cy="174.90256"
     inkscape:document-units="mm"
     inkscape:current-layer="layer1"
     showgrid="true"
     units="px"
     inkscape:window-width="1171"
     inkscape:window-height="1153"
     inkscape:window-x="2665"
     inkscape:window-y="45"
     inkscape:window-maximized="0"
     showguides="false">
    <inkscape:grid
       type="xygrid"
       id="grid4988"
       spacingx="66.145832"
       spacingy="66.145832"
       snapvisiblegridlinesonly="true"
       enabled="false" />
  </sodipodi:namedview>
  <metadata
     id="metadata5">
    <rdf:RDF>
      <cc:Work
         rdf:about="">
        <dc:format>image/svg+xml</dc:format>
        <dc:type
           rdf:resource="http://purl.org/dc/dcmitype/StillImage" />
        <dc:title></dc:title>
      </cc:Work>
    </rdf:RDF>
  </metadata>
  <g
     inkscape:label="Layer 1"
     inkscape:groupmode="layer"
     id="layer1"
     transform="translate(0,-164.70832)">
    <text
       xml:space="preserve"
       style="font-style:normal;font-variant:normal;font-weight:normal;font-stretch:normal;font-size:10.58333302px;line-height:6.61458302px;font-family:Xolonium;-inkscape-font-specification:Xolonium;text-align:center;letter-spacing:0px;word-spacing:0px;text-anchor:middle;fill:#000000;fill-opacity:1;stroke:none;stroke-width:0.26458332px;stroke-linecap:butt;stroke-linejoin:miter;stroke-opacity:1"
       x="52.919361"
       y="223.76813"
       id="text1408"><tspan
         sodipodi:role="line"
         id="tspan1406"
         x="52.919361"
         y="229.8246"
         style="stroke-width:0.26458332px" /></text>
    <path
       style="opacity:1;fill:#000000;fill-opacity:1;stroke:none;stroke-width:21.35711288;stroke-linecap:square;stroke-linejoin:round;stroke-miterlimit:4.30000019;stroke-dasharray:none;stroke-opacity:1;paint-order:markers stroke fill"
       d="M 109.85547 34.994141 C 65.033699 34.994141 28.949219 71.078621 28.949219 115.90039 L 28.949219 306.85547 C 28.949219 351.67724 65.033699 387.76172 109.85547 387.76172 L 390.14453 387.76172 C 434.9663 387.76172 471.05078 351.67724 471.05078 306.85547 L 471.05078 115.90039 C 471.05078 71.078621 434.9663 34.994141 390.14453 34.994141 L 109.85547 34.994141 z M 78.558594 99.740234 L 142.51367 99.740234 C 157.30601 99.740234 164.70312 105.65636 164.70312 117.49023 L 164.70312 137.46094 C 164.70312 149.29481 157.30601 155.21094 142.51367 155.21094 L 104.66406 155.21094 L 104.66406 185.88281 L 78.558594 185.88281 L 78.558594 99.740234 z M 104.66406 115.40234 L 104.66406 139.54883 L 134.03125 139.54883 C 137.07673 139.54883 138.59961 138.33092 138.59961 135.89453 L 138.59961 119.05664 C 138.59961 116.62025 137.07673 115.40234 134.03125 115.40234 L 104.66406 115.40234 z M 181.60938 121.92773 L 227.29102 121.92773 C 240.34308 121.92773 246.86914 127.14819 246.86914 137.58984 L 246.86914 185.88281 L 195.9668 185.88281 C 182.91473 185.88281 176.38867 180.66236 176.38867 170.2207 L 176.38867 161.73633 C 176.38867 151.29468 182.91473 146.07422 195.9668 146.07422 L 223.37695 146.07422 L 223.37695 138.24219 C 223.37695 136.50191 222.28863 135.63281 220.11328 135.63281 L 181.60938 135.63281 L 181.60938 121.92773 z M 282.16211 121.92773 L 335.67578 121.92773 L 335.67578 197.63086 C 335.67578 208.07251 329.14972 213.29297 316.09766 213.29297 L 265.19336 213.29297 L 265.19336 199.58789 L 306.96094 199.58789 C 310.44149 199.58789 312.18164 198.19655 312.18164 195.41211 L 312.18164 185.88281 L 282.16211 185.88281 C 269.11004 185.88281 262.58398 180.66236 262.58398 170.2207 L 262.58398 137.58984 C 262.58398 127.14819 269.11004 121.92773 282.16211 121.92773 z M 370.875 121.92773 L 402.19922 121.92773 C 415.25129 121.92773 421.77734 127.14819 421.77734 137.58984 L 421.77734 159.7793 L 374.79102 159.7793 L 374.79102 169.56836 C 374.79102 171.30863 375.87739 172.17773 378.05273 172.17773 L 419.16797 172.17773 L 419.16797 185.88281 L 370.875 185.88281 C 357.82293 185.88281 351.29687 180.66236 351.29688 170.2207 L 351.29688 137.58984 C 351.29687 127.14819 357.82293 121.92773 370.875 121.92773 z M 289.33984 135.63281 C 287.1645 135.63281 286.07617 136.50191 286.07617 138.24219 L 286.07617 169.56836 C 286.07617 171.30863 287.1645 172.17773 289.33984 172.17773 L 312.18164 172.17773 L 312.18164 135.63281 L 289.33984 135.63281 z M 378.05273 135.63281 C 375.87739 135.63281 374.79102 136.50191 374.79102 138.24219 L 374.79102 146.07422 L 398.2832 146.07422 L 398.2832 138.24219 C 398.2832 136.50191 397.19683 135.63281 395.02148 135.63281 L 378.05273 135.63281 z M 203.14453 159.7793 C 200.96919 159.7793 199.88281 160.6484 199.88281 162.38867 L 199.88281 169.56836 C 199.88281 171.30863 200.96919 172.17773 203.14453 172.17773 L 223.37695 172.17773 L 223.37695 159.7793 L 203.14453 159.7793 z M 160.13477 209.46289 L 186.23828 209.46289 L 186.23828 276.28906 C 186.23828 278.72545 187.76116 279.94531 190.80664 279.94531 L 219.52148 279.94531 C 222.56697 279.94531 224.08984 278.72545 224.08984 276.28906 L 224.08984 209.46289 L 250.19336 209.46289 L 250.19336 277.85547 C 250.19336 289.68934 242.7982 295.60742 228.00586 295.60742 L 182.32422 295.60742 C 167.53188 295.60742 160.13477 289.68934 160.13477 277.85547 L 160.13477 209.46289 z M 267.17188 231.65234 L 320.68555 231.65234 C 333.73761 231.65234 340.26367 236.8728 340.26367 247.31445 L 340.26367 279.94531 C 340.26367 290.38697 333.73761 295.60742 320.68555 295.60742 L 290.66602 295.60742 L 290.66602 323.01562 L 267.17188 323.01562 L 267.17188 231.65234 z M 290.66602 245.35742 L 290.66602 281.90234 L 313.50586 281.90234 C 315.6812 281.90234 316.76953 281.03129 316.76953 279.29102 L 316.76953 247.9668 C 316.76953 246.22652 315.6812 245.35742 313.50586 245.35742 L 290.66602 245.35742 z "
       transform="matrix(0.26458333,0,0,0.26458333,0,164.70832)"
       id="rect6592" />
    <path
       style="opacity:1;fill:#000000;fill-opacity:1;stroke:none;stroke-width:5.65073633;stroke-linecap:square;stroke-linejoin:round;stroke-miterlimit:4.30000019;stroke-dasharray:none;stroke-opacity:1;paint-order:markers stroke fill"
       d="m 7.6597967,255.33147 v 13.14135 c 0,11.85911 7.6719153,21.40625 17.2016633,21.40625 h 82.56871 c 9.52975,0 17.20166,-9.54714 17.20166,-21.40625 v -13.14135 c 0,11.85909 -7.67191,21.4069 -17.20166,21.4069 H 24.86146 c -9.529748,0 -17.2016633,-9.54781 -17.2016633,-21.4069 z"
       id="rect6592-9"
       inkscape:connector-curvature="0" />
  </g>
</svg>
