<?xml version="1.0" encoding="UTF-8" standalone="no"?>
<!-- Created with Inkscape (http://www.inkscape.org/) -->

<svg
   xmlns:dc="http://purl.org/dc/elements/1.1/"
   xmlns:cc="http://creativecommons.org/ns#"
   xmlns:rdf="http://www.w3.org/1999/02/22-rdf-syntax-ns#"
   xmlns:svg="http://www.w3.org/2000/svg"
   xmlns="http://www.w3.org/2000/svg"
   xmlns:sodipodi="http://sodipodi.sourceforge.net/DTD/sodipodi-0.dtd"
   xmlns:inkscape="http://www.inkscape.org/namespaces/inkscape"
   width="500"
   height="500"
   viewBox="0 0 132.29166 132.29167"
   version="1.1"
   id="svg8"
   sodipodi:docname="pause.svg"
   inkscape:version="0.92.2 2405546, 2018-03-11">
  <defs
     id="defs2" />
  <sodipodi:namedview
     id="base"
     pagecolor="#ffffff"
     bordercolor="#666666"
     borderopacity="1.0"
     inkscape:pageopacity="0.0"
     inkscape:pageshadow="2"
     inkscape:zoom="0.7"
     inkscape:cx="136.51581"
     inkscape:cy="174.90256"
     inkscape:document-units="mm"
     inkscape:current-layer="layer1"
     showgrid="true"
     units="px"
     inkscape:window-width="1171"
     inkscape:window-height="1153"
     inkscape:window-x="2665"
     inkscape:window-y="45"
     inkscape:window-maximized="0"
     showguides="false">
    <inkscape:grid
       type="xygrid"
       id="grid4988"
       spacingx="66.145832"
       spacingy="66.145832"
       snapvisiblegridlinesonly="true"
       enabled="false" />
  </sodipodi:namedview>
  <metadata
     id="metadata5">
    <rdf:RDF>
      <cc:Work
         rdf:about="">
        <dc:format>image/svg+xml</dc:format>
        <dc:type
           rdf:resource="http://purl.org/dc/dcmitype/StillImage" />
        <dc:title></dc:title>
      </cc:Work>
    </rdf:RDF>
  </metadata>
  <g
     inkscape:label="Layer 1"
     inkscape:groupmode="layer"
     id="layer1"
     transform="translate(0,-164.70832)">
    <text
       xml:space="preserve"
       style="font-style:normal;font-variant:normal;font-weight:normal;font-stretch:normal;font-size:10.58333302px;line-height:6.61458302px;font-family:Xolonium;-inkscape-font-specification:Xolonium;text-align:center;letter-spacing:0px;word-spacing:0px;text-anchor:middle;fill:#000000;fill-opacity:1;stroke:none;stroke-width:0.26458332px;stroke-linecap:butt;stroke-linejoin:miter;stroke-opacity:1"
       x="52.919361"
       y="223.76813"
       id="text1408"><tspan
         sodipodi:role="line"
         id="tspan1406"
         x="52.919361"
         y="229.8246"
         style="stroke-width:0.26458332px" /></text>
    <path
       style="opacity:1;fill:#000000;fill-opacity:1;stroke:none;stroke-width:21.35711288;stroke-linecap:square;stroke-linejoin:round;stroke-miterlimit:4.30000019;stroke-dasharray:none;stroke-opacity:1;paint-order:markers stroke fill"
       d="M 109.85547 34.994141 C 65.033699 34.994141 28.949219 71.078621 28.949219 115.90039 L 28.949219 306.85547 C 28.949219 351.67724 65.033699 387.76172 109.85547 387.76172 L 390.14453 387.76172 C 434.9663 387.76172 471.05078 351.67724 471.05078 306.85547 L 471.05078 115.90039 C 471.05078 71.078621 434.9663 34.994141 390.14453 34.994141 L 109.85547 34.994141 z M 60.708984 172.70508 L 118.13281 172.70508 C 131.41471 172.70508 138.05664 178.01706 138.05664 188.64258 L 138.05664 206.57227 C 138.05664 217.19778 131.41471 222.51172 118.13281 222.51172 L 84.146484 222.51172 L 84.146484 250.05078 L 60.708984 250.05078 L 60.708984 172.70508 z M 84.146484 186.76758 L 84.146484 208.44727 L 110.51562 208.44727 C 113.25013 208.44727 114.61719 207.35362 114.61719 205.16602 L 114.61719 190.04883 C 114.61719 187.86122 113.25013 186.76758 110.51562 186.76758 L 84.146484 186.76758 z M 153.23633 192.62695 L 194.25391 192.62695 C 205.97323 192.62695 211.83203 197.314 211.83203 206.68945 L 211.83203 250.05078 L 166.12695 250.05078 C 154.40763 250.05078 148.54883 245.36374 148.54883 235.98828 L 148.54883 228.37109 C 148.54883 218.99564 154.40763 214.30859 166.12695 214.30859 L 190.73828 214.30859 L 190.73828 207.27539 C 190.73828 205.71281 189.76181 204.93164 187.80859 204.93164 L 153.23633 204.93164 L 153.23633 192.62695 z M 225.94141 192.62695 L 247.03711 192.62695 L 247.03711 235.40234 C 247.03711 236.96492 248.01358 237.74609 249.9668 237.74609 L 270.47461 237.74609 L 270.47461 192.62695 L 291.57031 192.62695 L 291.57031 250.05078 L 243.51953 250.05078 C 231.80021 250.05078 225.94141 245.36374 225.94141 235.98828 L 225.94141 192.62695 z M 322.00391 192.62695 L 359.50586 192.62695 L 359.50586 204.93164 L 328.44922 204.93164 C 326.496 204.93164 325.51953 205.71281 325.51953 207.27539 L 325.51953 211.96484 C 325.51953 213.52742 326.496 214.30859 328.44922 214.30859 L 346.61328 214.30859 C 358.3326 214.30859 364.19336 218.99564 364.19336 228.37109 L 364.19336 235.98828 C 364.19336 245.36374 358.3326 250.05078 346.61328 250.05078 L 304.42383 250.05078 L 304.42383 237.74609 L 340.16797 237.74609 C 342.12119 237.74609 343.09766 236.96492 343.09766 235.40234 L 343.09766 228.95703 C 343.09766 227.39445 342.12119 226.61328 340.16797 226.61328 L 322.00391 226.61328 C 310.28458 226.61328 304.42383 221.92624 304.42383 212.55078 L 304.42383 206.68945 C 304.42383 197.314 310.28458 192.62695 322.00391 192.62695 z M 394.58984 192.62695 L 422.7168 192.62695 C 434.43612 192.62695 440.29492 197.314 440.29492 206.68945 L 440.29492 226.61328 L 398.10547 226.61328 L 398.10547 235.40234 C 398.10547 236.96492 399.08194 237.74609 401.03516 237.74609 L 437.95117 237.74609 L 437.95117 250.05078 L 394.58984 250.05078 C 382.87052 250.05078 377.01172 245.36374 377.01172 235.98828 L 377.01172 206.68945 C 377.01172 197.314 382.87052 192.62695 394.58984 192.62695 z M 401.03516 204.93164 C 399.08194 204.93164 398.10547 205.71281 398.10547 207.27539 L 398.10547 214.30859 L 419.20117 214.30859 L 419.20117 207.27539 C 419.20117 205.71281 418.2247 204.93164 416.27148 204.93164 L 401.03516 204.93164 z M 172.57227 226.61328 C 170.61905 226.61328 169.64258 227.39445 169.64258 228.95703 L 169.64258 235.40234 C 169.64258 236.96492 170.61905 237.74609 172.57227 237.74609 L 190.73828 237.74609 L 190.73828 226.61328 L 172.57227 226.61328 z "
       transform="matrix(0.26458333,0,0,0.26458333,0,164.70832)"
       id="rect6592" />
    <path
       style="opacity:1;fill:#000000;fill-opacity:1;stroke:none;stroke-width:5.65073633;stroke-linecap:square;stroke-linejoin:round;stroke-miterlimit:4.30000019;stroke-dasharray:none;stroke-opacity:1;paint-order:markers stroke fill"
       d="m 7.6597967,255.33147 v 13.14135 c 0,11.85911 7.6719153,21.40625 17.2016633,21.40625 h 82.56871 c 9.52975,0 17.20166,-9.54714 17.20166,-21.40625 v -13.14135 c 0,11.85909 -7.67191,21.4069 -17.20166,21.4069 H 24.86146 c -9.529748,0 -17.2016633,-9.54781 -17.2016633,-21.4069 z"
       id="rect6592-9"
       inkscape:connector-curvature="0" />
  </g>
</svg>
