<?xml version="1.0" encoding="UTF-8" standalone="no"?>
<!-- Created with Inkscape (http://www.inkscape.org/) -->

<svg
   xmlns:dc="http://purl.org/dc/elements/1.1/"
   xmlns:cc="http://creativecommons.org/ns#"
   xmlns:rdf="http://www.w3.org/1999/02/22-rdf-syntax-ns#"
   xmlns:svg="http://www.w3.org/2000/svg"
   xmlns="http://www.w3.org/2000/svg"
   xmlns:sodipodi="http://sodipodi.sourceforge.net/DTD/sodipodi-0.dtd"
   xmlns:inkscape="http://www.inkscape.org/namespaces/inkscape"
   width="500"
   height="500"
   viewBox="0 0 132.29166 132.29167"
   version="1.1"
   id="svg8"
   sodipodi:docname="prtsc.svg"
   inkscape:version="0.92.2 2405546, 2018-03-11">
  <defs
     id="defs2" />
  <sodipodi:namedview
     id="base"
     pagecolor="#ffffff"
     bordercolor="#666666"
     borderopacity="1.0"
     inkscape:pageopacity="0.0"
     inkscape:pageshadow="2"
     inkscape:zoom="0.7"
     inkscape:cx="136.51581"
     inkscape:cy="174.90256"
     inkscape:document-units="mm"
     inkscape:current-layer="layer1"
     showgrid="true"
     units="px"
     inkscape:window-width="1171"
     inkscape:window-height="1153"
     inkscape:window-x="2665"
     inkscape:window-y="45"
     inkscape:window-maximized="0"
     showguides="false">
    <inkscape:grid
       type="xygrid"
       id="grid4988"
       spacingx="66.145832"
       spacingy="66.145832"
       snapvisiblegridlinesonly="true"
       enabled="false" />
  </sodipodi:namedview>
  <metadata
     id="metadata5">
    <rdf:RDF>
      <cc:Work
         rdf:about="">
        <dc:format>image/svg+xml</dc:format>
        <dc:type
           rdf:resource="http://purl.org/dc/dcmitype/StillImage" />
        <dc:title></dc:title>
      </cc:Work>
    </rdf:RDF>
  </metadata>
  <g
     inkscape:label="Layer 1"
     inkscape:groupmode="layer"
     id="layer1"
     transform="translate(0,-164.70832)">
    <text
       xml:space="preserve"
       style="font-style:normal;font-variant:normal;font-weight:normal;font-stretch:normal;font-size:10.58333302px;line-height:6.61458302px;font-family:Xolonium;-inkscape-font-specification:Xolonium;text-align:center;letter-spacing:0px;word-spacing:0px;text-anchor:middle;fill:#000000;fill-opacity:1;stroke:none;stroke-width:0.26458332px;stroke-linecap:butt;stroke-linejoin:miter;stroke-opacity:1"
       x="52.919361"
       y="223.76813"
       id="text1408"><tspan
         sodipodi:role="line"
         id="tspan1406"
         x="52.919361"
         y="229.8246"
         style="stroke-width:0.26458332px" /></text>
    <path
       style="opacity:1;fill:#000000;fill-opacity:1;stroke:none;stroke-width:21.35711288;stroke-linecap:square;stroke-linejoin:round;stroke-miterlimit:4.30000019;stroke-dasharray:none;stroke-opacity:1;paint-order:markers stroke fill"
       d="M 109.85547 34.994141 C 65.033699 34.994141 28.949219 71.078621 28.949219 115.90039 L 28.949219 306.85547 C 28.949219 351.67724 65.033699 387.76172 109.85547 387.76172 L 390.14453 387.76172 C 434.9663 387.76172 471.05078 351.67724 471.05078 306.85547 L 471.05078 115.90039 C 471.05078 71.078621 434.9663 34.994141 390.14453 34.994141 L 109.85547 34.994141 z M 59.658203 168.33789 L 123.56641 168.33789 C 138.34789 168.33789 145.73828 174.25098 145.73828 186.07617 L 145.73828 206.03125 C 145.73828 217.85644 138.34789 223.76758 123.56641 223.76758 L 85.744141 223.76758 L 85.744141 254.41797 L 59.658203 254.41797 L 59.658203 168.33789 z M 217.31055 168.33789 L 240.78516 168.33789 L 240.78516 190.50977 L 262.95898 190.50977 L 262.95898 204.20508 L 240.78516 204.20508 L 240.78516 238.11523 C 240.78516 239.85423 241.87313 240.72266 244.04688 240.72266 L 262.95898 240.72266 L 262.95898 254.41797 L 236.87305 254.41797 C 223.83056 254.41797 217.31055 249.20157 217.31055 238.76758 L 217.31055 168.33789 z M 298.07031 168.33789 L 355.45898 168.33789 L 355.45898 183.98828 L 306.54883 183.98828 C 303.50558 183.98828 301.98438 185.20603 301.98438 187.64062 L 301.98438 197.94336 C 301.98438 200.37796 303.50558 201.5957 306.54883 201.5957 L 339.80664 201.5957 C 354.58813 201.5957 361.97852 207.50879 361.97852 219.33398 L 361.97852 236.67969 C 361.97852 248.50488 354.58813 254.41797 339.80664 254.41797 L 275.89844 254.41797 L 275.89844 238.76758 L 331.33008 238.76758 C 334.37333 238.76758 335.89453 237.54983 335.89453 235.11523 L 335.89453 220.89844 C 335.89453 218.46384 334.37333 217.24609 331.33008 217.24609 L 298.07031 217.24609 C 283.28883 217.24609 275.89844 211.33496 275.89844 199.50977 L 275.89844 186.07617 C 275.89844 174.25098 283.28883 168.33789 298.07031 168.33789 z M 85.744141 183.98828 L 85.744141 208.11719 L 115.08984 208.11719 C 118.13309 208.11719 119.6543 206.89944 119.6543 204.46484 L 119.6543 187.64062 C 119.6543 185.20603 118.13309 183.98828 115.08984 183.98828 L 85.744141 183.98828 z M 179.55859 190.50977 L 205.64258 190.50977 L 205.64258 204.20508 L 186.73047 204.20508 C 184.55672 204.20508 183.4707 205.0735 183.4707 206.8125 L 183.4707 254.41797 L 159.99414 254.41797 L 159.99414 206.16016 C 159.99414 195.72617 166.51611 190.50977 179.55859 190.50977 z M 397.10156 190.50977 L 444.05469 190.50977 L 444.05469 204.20508 L 404.27539 204.20508 C 402.10164 204.20508 401.01562 205.0735 401.01562 206.8125 L 401.01562 238.11523 C 401.01562 239.85423 402.10164 240.72266 404.27539 240.72266 L 444.05469 240.72266 L 444.05469 254.41797 L 397.10156 254.41797 C 384.05907 254.41797 377.53906 249.20157 377.53906 238.76758 L 377.53906 206.16016 C 377.53906 195.72617 384.05907 190.50977 397.10156 190.50977 z "
       transform="matrix(0.26458333,0,0,0.26458333,0,164.70832)"
       id="rect6592" />
    <path
       style="opacity:1;fill:#000000;fill-opacity:1;stroke:none;stroke-width:5.65073633;stroke-linecap:square;stroke-linejoin:round;stroke-miterlimit:4.30000019;stroke-dasharray:none;stroke-opacity:1;paint-order:markers stroke fill"
       d="m 7.6597967,255.33147 v 13.14135 c 0,11.85911 7.6719153,21.40625 17.2016633,21.40625 h 82.56871 c 9.52975,0 17.20166,-9.54714 17.20166,-21.40625 v -13.14135 c 0,11.85909 -7.67191,21.4069 -17.20166,21.4069 H 24.86146 c -9.529748,0 -17.2016633,-9.54781 -17.2016633,-21.4069 z"
       id="rect6592-9"
       inkscape:connector-curvature="0" />
  </g>
</svg>
