<?xml version="1.0" encoding="UTF-8" standalone="no"?>
<!-- Created with Inkscape (http://www.inkscape.org/) -->

<svg
   xmlns:dc="http://purl.org/dc/elements/1.1/"
   xmlns:cc="http://creativecommons.org/ns#"
   xmlns:rdf="http://www.w3.org/1999/02/22-rdf-syntax-ns#"
   xmlns:svg="http://www.w3.org/2000/svg"
   xmlns="http://www.w3.org/2000/svg"
   xmlns:sodipodi="http://sodipodi.sourceforge.net/DTD/sodipodi-0.dtd"
   xmlns:inkscape="http://www.inkscape.org/namespaces/inkscape"
   width="500"
   height="500"
   viewBox="0 0 132.29166 132.29167"
   version="1.1"
   id="svg8"
   sodipodi:docname="shift.svg"
   inkscape:version="0.92.2 2405546, 2018-03-11">
  <defs
     id="defs2" />
  <sodipodi:namedview
     id="base"
     pagecolor="#ffffff"
     bordercolor="#666666"
     borderopacity="1.0"
     inkscape:pageopacity="0.0"
     inkscape:pageshadow="2"
     inkscape:zoom="0.9899495"
     inkscape:cx="256.33954"
     inkscape:cy="264.71606"
     inkscape:document-units="mm"
     inkscape:current-layer="layer1"
     showgrid="true"
     units="px"
     inkscape:window-width="1581"
     inkscape:window-height="1153"
     inkscape:window-x="2255"
     inkscape:window-y="45"
     inkscape:window-maximized="0"
     showguides="false">
    <inkscape:grid
       type="xygrid"
       id="grid4988"
       spacingx="66.145832"
       spacingy="66.145832"
       snapvisiblegridlinesonly="true"
       enabled="false" />
  </sodipodi:namedview>
  <metadata
     id="metadata5">
    <rdf:RDF>
      <cc:Work
         rdf:about="">
        <dc:format>image/svg+xml</dc:format>
        <dc:type
           rdf:resource="http://purl.org/dc/dcmitype/StillImage" />
        <dc:title></dc:title>
      </cc:Work>
    </rdf:RDF>
  </metadata>
  <g
     inkscape:label="Layer 1"
     inkscape:groupmode="layer"
     id="layer1"
     transform="translate(0,-164.70832)">
    <text
       xml:space="preserve"
       style="font-style:normal;font-variant:normal;font-weight:normal;font-stretch:normal;font-size:10.58333302px;line-height:6.61458302px;font-family:Xolonium;-inkscape-font-specification:Xolonium;text-align:center;letter-spacing:0px;word-spacing:0px;text-anchor:middle;fill:#000000;fill-opacity:1;stroke:none;stroke-width:0.26458332px;stroke-linecap:butt;stroke-linejoin:miter;stroke-opacity:1"
       x="52.919361"
       y="223.76813"
       id="text1408"><tspan
         sodipodi:role="line"
         id="tspan1406"
         x="52.919361"
         y="229.8246"
         style="stroke-width:0.26458332px" /></text>
    <path
       style="opacity:1;fill:#000000;fill-opacity:1;stroke:none;stroke-width:18.89763832;stroke-linecap:square;stroke-linejoin:round;stroke-miterlimit:4.30000019;stroke-dasharray:none;stroke-opacity:1;paint-order:markers stroke fill"
       d="M 95.980469 80.294922 C 60.42807 80.294922 31.806641 108.91635 31.806641 144.46875 L 31.806641 295.93359 C 31.806641 331.48599 60.42807 360.10742 95.980469 360.10742 L 404.01953 360.10742 C 439.57193 360.10742 468.19336 331.48599 468.19336 295.93359 L 468.19336 144.46875 C 468.19336 108.91635 439.57193 80.294922 404.01953 80.294922 L 95.980469 80.294922 z M 250 120.18359 L 351.01562 187.86328 L 320.71094 187.86328 L 320.71094 236.34961 L 179.28906 236.34961 L 179.28906 187.86328 L 148.98438 187.86328 L 250 120.18359 z M 121.10156 257.12305 L 158.07227 257.12305 L 158.07227 267.20703 L 126.56445 267.20703 C 124.60395 267.20703 123.62305 267.99019 123.62305 269.55859 L 123.62305 276.19727 C 123.62305 277.76567 124.60395 278.54883 126.56445 278.54883 L 147.99023 278.54883 C 157.51266 278.54883 162.27344 282.35862 162.27344 289.97656 L 162.27344 301.15039 C 162.27344 308.76833 157.51266 312.57812 147.99023 312.57812 L 106.81836 312.57812 L 106.81836 302.49414 L 142.52734 302.49414 C 144.48784 302.49414 145.46875 301.71098 145.46875 300.14258 L 145.46875 290.98438 C 145.46875 289.41598 144.48784 288.63086 142.52734 288.63086 L 121.10156 288.63086 C 111.57914 288.63086 106.81836 284.82302 106.81836 277.20508 L 106.81836 268.55078 C 106.81836 260.93284 111.57914 257.12305 121.10156 257.12305 z M 173.13672 257.12305 L 189.94141 257.12305 L 189.94141 278.54883 L 214.30664 278.54883 L 214.30664 257.12305 L 231.11133 257.12305 L 231.11133 312.57812 L 214.30664 312.57812 L 214.30664 288.63086 L 189.94141 288.63086 L 189.94141 312.57812 L 173.13672 312.57812 L 173.13672 257.12305 z M 242.88086 257.12305 L 259.68555 257.12305 L 259.68555 312.57812 L 242.88086 312.57812 L 242.88086 257.12305 z M 271.43555 257.12305 L 324.36914 257.12305 L 324.36914 267.20703 L 288.24023 267.20703 L 288.24023 279.38867 L 320.16797 279.38867 L 320.16797 289.47266 L 288.24023 289.47266 L 288.24023 312.57812 L 271.43555 312.57812 L 271.43555 257.12305 z M 329.42969 257.12305 L 391.60547 257.12305 L 391.60547 267.20703 L 368.91992 267.20703 L 368.91992 312.57812 L 352.11523 312.57812 L 352.11523 267.20703 L 329.42969 267.20703 L 329.42969 257.12305 z "
       transform="matrix(0.26458333,0,0,0.26458333,0,164.70832)"
       id="rect6592" />
    <path
       style="opacity:1;fill:#000000;fill-opacity:1;stroke:none;stroke-width:5;stroke-linecap:square;stroke-linejoin:round;stroke-miterlimit:4.30000019;stroke-dasharray:none;stroke-opacity:1;paint-order:markers stroke fill"
       d="m 8.4157475,250.49053 v 10.42365 c 0,9.40658 7.5727535,16.97933 16.9793255,16.97933 h 81.501487 c 9.40657,0 16.97932,-7.57275 16.97932,-16.97933 v -10.42365 c 0,9.40657 -7.57275,16.97984 -16.97932,16.97984 H 25.395073 c -9.406572,0 -16.9793255,-7.57327 -16.9793255,-16.97984 z"
       id="rect6592-9"
       inkscape:connector-curvature="0" />
  </g>
</svg>
