<?xml version="1.0" encoding="UTF-8"?>
<svg width="500" height="500" version="1.1" viewBox="0 0 132.29 132.29" xmlns="http://www.w3.org/2000/svg">
 <g transform="translate(0 -164.71)">
  <text x="52.919361" y="223.76813" fill="#000000" font-family="Xolonium" font-size="10.583px" letter-spacing="0px" text-align="center" text-anchor="middle" word-spacing="0px" style="line-height:6.61458px" xml:space="preserve"/>
  <path transform="matrix(.26458 0 0 .26458 0 164.71)" d="m69.49 140.24c-22.459 0-40.541 18.082-40.541 40.541v95.684c0 22.459 18.082 40.541 40.541 40.541h361.02c22.459 0 40.541-18.082 40.541-40.541v-95.684c0-22.459-18.082-40.541-40.541-40.541zm67.908 31.998h8.5391v15.924h208.12v-15.924h8.5391v25.592h-225.18v-4.3262h-0.0254zm11.375 59.689h30.508v8.3203h-26c-1.6178 0-2.4277 0.64718-2.4277 1.9414v5.4785c0 1.2942 0.80996 1.9414 2.4277 1.9414h17.68c7.8578 0 11.785 3.1415 11.785 9.4277v9.2227c0 6.2862-3.9274 9.4297-11.785 9.4297h-33.975v-8.3203h29.467c1.6178 0 2.4277-0.64719 2.4277-1.9414v-7.5586c0-1.2942-0.80996-1.9414-2.4277-1.9414h-17.68c-7.8578 0-11.787-3.1415-11.787-9.4277v-7.1426c0-6.2862 3.9294-9.4297 11.787-9.4297zm42.293 11.787h28.428c6.9333 0 10.398 2.7737 10.398 8.3203v17.334c0 5.5466-3.4651 8.3203-10.398 8.3203h-15.947v14.559h-12.48zm49.227 0h24.268c6.9333 0 10.398 2.7737 10.398 8.3203v25.654h-27.039c-6.9333 0-10.4-2.7737-10.4-8.3203v-4.5078c0-5.5467 3.4671-8.3203 10.4-8.3203h14.561v-4.1582c0-0.92444-0.57882-1.3867-1.7344-1.3867h-20.453zm53.387 0h24.961v7.2812h-21.148c-1.1556 0-1.7324 0.46228-1.7324 1.3867v16.639c0 0.92445 0.57686 1.3867 1.7324 1.3867h21.148v7.2812h-24.961c-6.9333 0-10.4-2.7737-10.4-8.3203v-17.334c0-5.5467 3.4671-8.3203 10.4-8.3203zm42.293 0h16.641c6.9333 0 10.4 2.7737 10.4 8.3203v11.787h-24.961v5.1992c0 0.92445 0.57883 1.3867 1.7344 1.3867h21.84v7.2812h-25.654c-6.9333 0-10.4-2.7737-10.4-8.3203v-17.334c0-5.5467 3.4671-8.3203 10.4-8.3203zm-132.43 7.2812v19.412h12.133c1.1556 0 1.7344-0.46227 1.7344-1.3867v-16.639c0-0.92444-0.57882-1.3867-1.7344-1.3867zm136.24 0c-1.1556 0-1.7344 0.46228-1.7344 1.3867v4.1582h12.48v-4.1582c0-0.92444-0.57882-1.3867-1.7344-1.3867zm-88.055 12.826c-1.1556 0-1.7324 0.46227-1.7324 1.3867v3.8125c0 0.92445 0.57687 1.3867 1.7324 1.3867h10.748v-6.5859z" style="paint-order:markers stroke fill"/>
  <path d="m7.6598 242.58v6.5849c0 5.9424 7.6719 10.726 17.202 10.726h82.569c9.5298 0 17.202-4.7839 17.202-10.726v-6.5849c0 5.9424-7.6719 10.727-17.202 10.727h-82.569c-9.5297 0-17.202-4.7842-17.202-10.727z" style="paint-order:markers stroke fill"/>
 </g>
</svg>
