<?xml version="1.0" encoding="UTF-8" standalone="no"?>
<!-- Created with Inkscape (http://www.inkscape.org/) -->

<svg
   xmlns:dc="http://purl.org/dc/elements/1.1/"
   xmlns:cc="http://creativecommons.org/ns#"
   xmlns:rdf="http://www.w3.org/1999/02/22-rdf-syntax-ns#"
   xmlns:svg="http://www.w3.org/2000/svg"
   xmlns="http://www.w3.org/2000/svg"
   xmlns:sodipodi="http://sodipodi.sourceforge.net/DTD/sodipodi-0.dtd"
   xmlns:inkscape="http://www.inkscape.org/namespaces/inkscape"
   width="500"
   height="500"
   viewBox="0 0 132.29166 132.29167"
   version="1.1"
   id="svg8"
   sodipodi:docname="tab.svg"
   inkscape:version="0.92.2 2405546, 2018-03-11">
  <defs
     id="defs2" />
  <sodipodi:namedview
     id="base"
     pagecolor="#ffffff"
     bordercolor="#666666"
     borderopacity="1.0"
     inkscape:pageopacity="0.0"
     inkscape:pageshadow="2"
     inkscape:zoom="1.4"
     inkscape:cx="252.98729"
     inkscape:cy="307.10122"
     inkscape:document-units="mm"
     inkscape:current-layer="layer1"
     showgrid="true"
     units="px"
     inkscape:window-width="1581"
     inkscape:window-height="1153"
     inkscape:window-x="2255"
     inkscape:window-y="45"
     inkscape:window-maximized="0"
     showguides="true">
    <inkscape:grid
       type="xygrid"
       id="grid4988"
       spacingx="66.145832"
       spacingy="66.145832"
       snapvisiblegridlinesonly="true"
       enabled="false" />
  </sodipodi:namedview>
  <metadata
     id="metadata5">
    <rdf:RDF>
      <cc:Work
         rdf:about="">
        <dc:format>image/svg+xml</dc:format>
        <dc:type
           rdf:resource="http://purl.org/dc/dcmitype/StillImage" />
        <dc:title></dc:title>
      </cc:Work>
    </rdf:RDF>
  </metadata>
  <g
     inkscape:label="Layer 1"
     inkscape:groupmode="layer"
     id="layer1"
     transform="translate(0,-164.70832)">
    <text
       xml:space="preserve"
       style="font-style:normal;font-variant:normal;font-weight:normal;font-stretch:normal;font-size:10.58333302px;line-height:6.61458302px;font-family:Xolonium;-inkscape-font-specification:Xolonium;text-align:center;letter-spacing:0px;word-spacing:0px;text-anchor:middle;fill:#000000;fill-opacity:1;stroke:none;stroke-width:0.26458332px;stroke-linecap:butt;stroke-linejoin:miter;stroke-opacity:1"
       x="52.919361"
       y="223.76813"
       id="text1408"><tspan
         sodipodi:role="line"
         id="tspan1406"
         x="52.919361"
         y="229.8246"
         style="stroke-width:0.26458332px" /></text>
    <path
       style="opacity:1;fill:#000000;fill-opacity:1;stroke:none;stroke-width:18.89763832;stroke-linecap:square;stroke-linejoin:round;stroke-miterlimit:4.30000019;stroke-dasharray:none;stroke-opacity:1;paint-order:markers stroke fill"
       d="M 95.980469 80.294922 C 60.42807 80.294922 31.806641 108.91635 31.806641 144.46875 L 31.806641 295.93359 C 31.806641 331.48599 60.42807 360.10742 95.980469 360.10742 L 404.01953 360.10742 C 439.57193 360.10742 468.19336 331.48599 468.19336 295.93359 L 468.19336 144.46875 C 468.19336 108.91635 439.57193 80.294922 404.01953 80.294922 L 95.980469 80.294922 z M 339.48047 174.74414 L 339.48047 192.16992 L 430.82227 192.16992 L 430.82227 202.77539 L 339.48047 202.77539 L 339.48047 220.20117 L 265.46094 197.47266 L 339.48047 174.74414 z M 53.650391 192.47461 L 115.82617 192.47461 L 115.82617 202.55664 L 93.140625 202.55664 L 93.140625 247.92773 L 76.335938 247.92773 L 76.335938 202.55664 L 53.650391 202.55664 L 53.650391 192.47461 z M 131.80273 192.47461 L 152.80859 192.47461 L 176.75391 247.92773 L 160.28516 247.92773 L 155.24414 236.16406 L 129.36523 236.16406 L 124.32422 247.92773 L 107.85742 247.92773 L 131.80273 192.47461 z M 183.0625 192.47461 L 224.23242 192.47461 C 233.75485 192.47461 238.51562 196.28245 238.51562 203.90039 L 238.51562 208.77344 C 238.51562 213.47864 236.69561 216.72707 233.05469 218.51953 C 237.25576 220.19996 239.35742 223.5902 239.35742 228.6875 L 239.35742 236.50195 C 239.35742 244.11989 234.59469 247.92773 225.07227 247.92773 L 183.0625 247.92773 L 183.0625 192.47461 z M 199.86719 202.55664 L 199.86719 213.89844 L 218.77148 213.89844 C 220.73198 213.89844 221.71289 213.11526 221.71289 211.54688 L 221.71289 204.9082 C 221.71289 203.3398 220.73198 202.55664 218.77148 202.55664 L 199.86719 202.55664 z M 142.30469 206.33789 L 133.73438 226.08203 L 150.875 226.08203 L 142.30469 206.33789 z M 356.80273 220.20117 L 430.82227 242.92969 L 356.80273 265.6582 L 356.80273 248.23242 L 265.46094 248.23242 L 265.46094 237.625 L 356.80273 237.625 L 356.80273 220.20117 z M 199.86719 223.98242 L 199.86719 237.8457 L 219.61133 237.8457 C 221.57183 237.8457 222.55273 237.06059 222.55273 235.49219 L 222.55273 226.33398 C 222.55273 224.76558 221.57183 223.98242 219.61133 223.98242 L 199.86719 223.98242 z "
       transform="matrix(0.26458333,0,0,0.26458333,0,164.70832)"
       id="rect6592" />
    <path
       style="opacity:1;fill:#000000;fill-opacity:1;stroke:none;stroke-width:5;stroke-linecap:square;stroke-linejoin:round;stroke-miterlimit:4.30000019;stroke-dasharray:none;stroke-opacity:1;paint-order:markers stroke fill"
       d="m 8.4157475,250.49053 v 10.42365 c 0,9.40658 7.5727535,16.97933 16.9793255,16.97933 h 81.501487 c 9.40657,0 16.97932,-7.57275 16.97932,-16.97933 v -10.42365 c 0,9.40657 -7.57275,16.97984 -16.97932,16.97984 H 25.395073 c -9.406572,0 -16.9793255,-7.57327 -16.9793255,-16.97984 z"
       id="rect6592-9"
       inkscape:connector-curvature="0" />
  </g>
</svg>
