<?xml version="1.0" encoding="UTF-8" standalone="no"?>
<!-- Created with Inkscape (http://www.inkscape.org/) -->

<svg
   width="500"
   height="500"
   viewBox="0 0 132.29166 132.29167"
   version="1.1"
   id="svg8"
   sodipodi:docname="wasd.svg"
   inkscape:version="1.3 (0e150ed6c4, 2023-07-21)"
   xmlns:inkscape="http://www.inkscape.org/namespaces/inkscape"
   xmlns:sodipodi="http://sodipodi.sourceforge.net/DTD/sodipodi-0.dtd"
   xmlns="http://www.w3.org/2000/svg"
   xmlns:svg="http://www.w3.org/2000/svg"
   xmlns:rdf="http://www.w3.org/1999/02/22-rdf-syntax-ns#"
   xmlns:cc="http://creativecommons.org/ns#"
   xmlns:dc="http://purl.org/dc/elements/1.1/">
  <defs
     id="defs2">
    <rect
       x="171.43786"
       y="139.85722"
       width="295.77873"
       height="215.25414"
       id="rect3" />
    <rect
       x="82.501308"
       y="131.66548"
       width="371.29508"
       height="188.21516"
       id="rect1" />
    <rect
       x="118.70597"
       y="123.49252"
       width="302.04886"
       height="186.98164"
       id="rect2" />
    <rect
       x="171.43787"
       y="139.85722"
       width="295.77872"
       height="215.25414"
       id="rect3-6" />
    <rect
       x="171.43787"
       y="139.85722"
       width="295.77872"
       height="215.25414"
       id="rect3-7" />
    <rect
       x="171.43787"
       y="139.85722"
       width="295.77872"
       height="215.25414"
       id="rect3-7-0" />
    <rect
       x="171.43787"
       y="139.85722"
       width="295.77872"
       height="215.25414"
       id="rect3-7-9" />
    <rect
       x="171.43787"
       y="139.85722"
       width="295.77872"
       height="215.25414"
       id="rect3-7-94" />
    <rect
       x="171.43787"
       y="139.85722"
       width="295.77872"
       height="215.25414"
       id="rect3-7-5" />
  </defs>
  <sodipodi:namedview
     id="base"
     pagecolor="#ffffff"
     bordercolor="#666666"
     borderopacity="1.0"
     inkscape:pageopacity="0.0"
     inkscape:pageshadow="2"
     inkscape:zoom="0.85360663"
     inkscape:cx="136.47973"
     inkscape:cy="174.55347"
     inkscape:document-units="mm"
     inkscape:current-layer="layer1"
     showgrid="true"
     units="px"
     inkscape:window-width="1916"
     inkscape:window-height="1156"
     inkscape:window-x="0"
     inkscape:window-y="21"
     inkscape:window-maximized="1"
     showguides="false"
     inkscape:showpageshadow="2"
     inkscape:pagecheckerboard="0"
     inkscape:deskcolor="#d1d1d1">
    <inkscape:grid
       type="xygrid"
       id="grid4988"
       spacingx="66.145832"
       spacingy="66.145832"
       snapvisiblegridlinesonly="true"
       enabled="false"
       originx="0"
       originy="0"
       units="px"
       visible="true" />
  </sodipodi:namedview>
  <metadata
     id="metadata5">
    <rdf:RDF>
      <cc:Work
         rdf:about="">
        <dc:format>image/svg+xml</dc:format>
        <dc:type
           rdf:resource="http://purl.org/dc/dcmitype/StillImage" />
      </cc:Work>
    </rdf:RDF>
  </metadata>
  <g
     inkscape:label="Layer 1"
     inkscape:groupmode="layer"
     id="layer1"
     transform="translate(0,-164.70832)">
    <path
       id="rect6592"
       style="fill:#000000;fill-opacity:1;stroke:none;stroke-width:2.34847;stroke-linecap:square;stroke-linejoin:round;stroke-miterlimit:4.3;stroke-dasharray:none;stroke-opacity:1;paint-order:markers stroke fill"
       d="M 46.336707 185.87447 C 41.408042 185.87447 37.440092 189.84242 37.440092 194.77108 L 37.440092 215.76929 C 37.440092 220.69796 41.408042 224.6659 46.336707 224.6659 L 68.361202 224.6659 C 73.289864 224.6659 77.257817 220.69796 77.257817 215.76929 L 77.257817 194.77108 C 77.257817 189.84242 73.289864 185.87447 68.361202 185.87447 L 46.336707 185.87447 z M 40.6554 195.70178 L 46.219918 195.70178 L 49.958191 208.97073 L 54.352755 195.70178 L 60.345154 195.70178 L 64.739718 208.97073 L 68.477991 195.70178 L 74.041992 195.70178 L 68.763245 214.53525 L 61.486169 214.53525 L 57.348954 202.06521 L 53.211222 214.53525 L 45.934664 214.53525 L 40.6554 195.70178 z M 13.348022 227.66003 C 8.4193584 227.66003 4.4514079 231.62798 4.4514079 236.55665 L 4.4514079 257.55485 C 4.4514079 262.48352 8.4193584 266.45146 13.348022 266.45146 L 35.372518 266.45146 C 40.301181 266.45146 44.269132 262.48352 44.269132 257.55485 L 44.269132 236.55665 C 44.269132 231.62798 40.301181 227.66003 35.372518 227.66003 L 13.348022 227.66003 z M 55.133586 227.66003 C 50.204921 227.66003 46.236971 231.62798 46.236971 236.55665 L 46.236971 257.55485 C 46.236971 262.48352 50.204921 266.45146 55.133586 266.45146 L 77.158081 266.45146 C 82.086746 266.45146 86.054696 262.48352 86.054696 257.55485 L 86.054696 236.55665 C 86.054696 231.62798 82.086746 227.66003 77.158081 227.66003 L 55.133586 227.66003 z M 96.919149 227.66003 C 91.990484 227.66003 88.022534 231.62798 88.022534 236.55665 L 88.022534 257.55485 C 88.022534 262.48352 91.990484 266.45146 96.919149 266.45146 L 118.94364 266.45146 C 123.87231 266.45146 127.84026 262.48352 127.84026 257.55485 L 127.84026 236.55665 C 127.84026 231.62798 123.87231 227.66003 118.94364 227.66003 L 96.919149 227.66003 z M 20.793563 237.48734 L 27.926978 237.48734 L 36.059814 256.32082 L 30.466874 256.32082 L 28.754834 252.32623 L 19.965706 252.32623 L 18.253666 256.32082 L 12.660726 256.32082 L 20.793563 237.48734 z M 61.580221 237.48734 L 74.135527 237.48734 L 74.135527 240.91194 L 63.434888 240.91194 C 62.769059 240.91194 62.435982 241.1782 62.435982 241.71085 L 62.435982 243.96498 C 62.435982 244.49765 62.769059 244.7639 63.434888 244.7639 L 70.711446 244.7639 C 73.945469 244.7639 75.56283 246.05758 75.56283 248.6448 L 75.56283 252.43992 C 75.56283 255.02713 73.945469 256.32082 70.711446 256.32082 L 56.728837 256.32082 L 56.728837 252.89674 L 68.856779 252.89674 C 69.522607 252.89674 69.855684 252.63049 69.855684 252.09782 L 69.855684 248.98741 C 69.855684 248.45475 69.522607 248.1885 68.856779 248.1885 L 61.580221 248.1885 C 58.346197 248.1885 56.728837 246.89482 56.728837 244.3076 L 56.728837 241.36824 C 56.728837 238.78102 58.346197 237.48734 61.580221 237.48734 z M 98.229663 237.48734 L 108.21665 237.48734 C 114.68469 237.48734 117.9189 240.0747 117.9189 245.24914 L 117.9189 248.55902 C 117.9189 253.73345 114.68469 256.32082 108.21665 256.32082 L 98.229663 256.32082 L 98.229663 237.48734 z M 103.93629 240.91194 L 103.93629 252.89674 L 107.07512 252.89674 C 110.49937 252.89674 112.21176 251.52683 112.21176 248.78743 L 112.21176 245.02073 C 112.21176 242.28132 110.49937 240.91194 107.07512 240.91194 L 103.93629 240.91194 z M 24.36027 242.19558 L 21.449854 248.90163 L 27.270687 248.90163 L 24.36027 242.19558 z M 4.4519246 261.47554 L 4.4519246 266.93722 C 4.4519246 271.86591 7.6402442 275.83384 11.600842 275.83384 L 37.119698 275.83384 C 41.080292 275.83384 44.268616 271.86591 44.268616 266.93722 L 44.268616 261.47554 C 44.268616 266.40422 41.080292 270.37215 37.119698 270.37215 L 11.600842 270.37215 C 7.6402442 270.37215 4.4519246 266.40422 4.4519246 261.47554 z M 46.237488 261.47554 L 46.237488 266.93722 C 46.237488 271.86591 49.425808 275.83384 53.386405 275.83384 L 78.905261 275.83384 C 82.865857 275.83384 86.054179 271.86591 86.054179 266.93722 L 86.054179 261.47554 C 86.054179 266.40422 82.865857 270.37215 78.905261 270.37215 L 53.386405 270.37215 C 49.425808 270.37215 46.237488 266.40422 46.237488 261.47554 z M 88.023051 261.47554 L 88.023051 266.93722 C 88.023051 271.86591 91.211373 275.83384 95.171969 275.83384 L 120.69082 275.83384 C 124.65142 275.83384 127.83974 271.86591 127.83974 266.93722 L 127.83974 261.47554 C 127.83974 266.40422 124.65142 270.37215 120.69082 270.37215 L 95.171969 270.37215 C 91.211373 270.37215 88.023051 266.40422 88.023051 261.47554 z " />
  </g>
</svg>
