<?xml version="1.0" encoding="UTF-8" standalone="no"?>
<!-- Created with Inkscape (http://www.inkscape.org/) -->

<svg
   xmlns:dc="http://purl.org/dc/elements/1.1/"
   xmlns:cc="http://creativecommons.org/ns#"
   xmlns:rdf="http://www.w3.org/1999/02/22-rdf-syntax-ns#"
   xmlns:svg="http://www.w3.org/2000/svg"
   xmlns="http://www.w3.org/2000/svg"
   xmlns:sodipodi="http://sodipodi.sourceforge.net/DTD/sodipodi-0.dtd"
   xmlns:inkscape="http://www.inkscape.org/namespaces/inkscape"
   width="500"
   height="500"
   viewBox="0 0 132.29166 132.29167"
   version="1.1"
   id="svg8"
   sodipodi:docname="analog-lr-cl.svg"
   inkscape:version="0.92.4 5da689c313, 2019-01-14">
  <defs
     id="defs2" />
  <sodipodi:namedview
     id="base"
     pagecolor="#ffffff"
     bordercolor="#666666"
     borderopacity="1.0"
     inkscape:pageopacity="0.0"
     inkscape:pageshadow="2"
     inkscape:zoom="0.49497475"
     inkscape:cx="290.52739"
     inkscape:cy="178.39395"
     inkscape:document-units="mm"
     inkscape:current-layer="layer1"
     showgrid="false"
     units="px"
     inkscape:window-width="1916"
     inkscape:window-height="1153"
     inkscape:window-x="1920"
     inkscape:window-y="45"
     inkscape:window-maximized="0" />
  <metadata
     id="metadata5">
    <rdf:RDF>
      <cc:Work
         rdf:about="">
        <dc:format>image/svg+xml</dc:format>
        <dc:type
           rdf:resource="http://purl.org/dc/dcmitype/StillImage" />
        <dc:title></dc:title>
      </cc:Work>
    </rdf:RDF>
  </metadata>
  <g
     inkscape:label="Layer 1"
     inkscape:groupmode="layer"
     id="layer1"
     transform="translate(0,-164.70832)">
    <path
       style="opacity:1;fill:#000000;fill-opacity:1;stroke:none;stroke-width:2.8167789;stroke-linecap:square;stroke-linejoin:round;stroke-miterlimit:4.30000019;stroke-dasharray:none;stroke-opacity:1;paint-order:markers stroke fill"
       d="m 104.77371,217.00198 a 13.852244,13.85224 0 0 0 -13.852179,13.85217 13.852244,13.85224 0 0 0 13.852179,13.85219 13.852244,13.85224 0 0 0 13.85218,-13.85219 13.852244,13.85224 0 0 0 -13.85218,-13.85217 z m -7.010426,7.14664 h 9.956806 c 2.30294,0 3.45447,0.9211 3.45447,2.76345 v 2.80418 c 0,1.6256 -0.91439,2.54669 -2.74319,2.76344 l 3.35276,5.08 h -4.38919 l -3.35276,-5.08 h -2.21485 v 5.08 h -4.064046 z m 4.064046,2.4383 v 3.45446 h 4.57191 c 0.47414,0 0.71128,-0.18975 0.71128,-0.56906 v -2.31633 c 0,-0.37931 -0.23714,-0.56907 -0.71128,-0.56907 z"
       id="path1225"
       inkscape:connector-curvature="0" />
    <path
       style="opacity:1;fill:#000000;fill-opacity:1;stroke:none;stroke-width:4.06688929;stroke-linecap:square;stroke-linejoin:round;stroke-miterlimit:4.30000019;stroke-dasharray:none;stroke-opacity:1;paint-order:markers stroke fill"
       d="m 104.77371,210.85415 a 19.999983,19.999979 0 0 0 -20,20 19.999983,19.999979 0 0 0 20,20 19.999983,19.999979 0 0 0 20,-20 19.999983,19.999979 0 0 0 -20,-20 z m 0,3.93113 a 16.069034,16.069031 0 0 1 16.06888,16.06887 16.069034,16.069031 0 0 1 -16.06888,16.06888 16.069034,16.069031 0 0 1 -16.068875,-16.06888 16.069034,16.069031 0 0 1 16.068875,-16.06887 z"
       id="path1225-8"
       inkscape:connector-curvature="0" />
    <text
       xml:space="preserve"
       style="font-style:normal;font-variant:normal;font-weight:normal;font-stretch:normal;font-size:5.29166651px;line-height:3.30729151px;font-family:Xolonium;-inkscape-font-specification:Xolonium;text-align:center;letter-spacing:0px;word-spacing:0px;text-anchor:middle;fill:#000000;fill-opacity:1;stroke:none;stroke-width:0.13229166px;stroke-linecap:butt;stroke-linejoin:miter;stroke-opacity:1"
       x="98.160469"
       y="227.31114"
       id="text1408"><tspan
         sodipodi:role="line"
         id="tspan1406"
         x="98.160469"
         y="230.49937"
         style="stroke-width:0.13229166px" /></text>
    <path
       style="color:#000000;font-style:normal;font-variant:normal;font-weight:normal;font-stretch:normal;font-size:medium;line-height:normal;font-family:sans-serif;font-variant-ligatures:normal;font-variant-position:normal;font-variant-caps:normal;font-variant-numeric:normal;font-variant-alternates:normal;font-feature-settings:normal;text-indent:0;text-align:start;text-decoration:none;text-decoration-line:none;text-decoration-style:solid;text-decoration-color:#000000;letter-spacing:normal;word-spacing:normal;text-transform:none;writing-mode:lr-tb;direction:ltr;text-orientation:mixed;dominant-baseline:auto;baseline-shift:baseline;text-anchor:start;white-space:normal;shape-padding:0;clip-rule:nonzero;display:inline;overflow:visible;visibility:visible;opacity:1;isolation:auto;mix-blend-mode:normal;color-interpolation:sRGB;color-interpolation-filters:linearRGB;solid-color:#000000;solid-opacity:1;vector-effect:none;fill:#000000;fill-opacity:1;fill-rule:nonzero;stroke:none;stroke-width:2.5;stroke-linecap:square;stroke-linejoin:round;stroke-miterlimit:4.30000019;stroke-dasharray:none;stroke-dashoffset:0;stroke-opacity:1;paint-order:markers stroke fill;color-rendering:auto;image-rendering:auto;shape-rendering:auto;text-rendering:auto;enable-background:accumulate"
       d="m 104.70085,201.04125 6.87632,3.49642 -6.87632,3.49618 v -2.19755 c -13.774781,0.0391 -24.905898,11.17021 -24.944994,24.94499 H 77.25575 c 0.03928,-15.12607 12.319028,-27.40581 27.4451,-27.44509 z"
       id="path907"
       inkscape:connector-curvature="0" />
    <path
       inkscape:connector-curvature="0"
       style="color:#000000;font-style:normal;font-variant:normal;font-weight:normal;font-stretch:normal;font-size:medium;line-height:normal;font-family:sans-serif;font-variant-ligatures:normal;font-variant-position:normal;font-variant-caps:normal;font-variant-numeric:normal;font-variant-alternates:normal;font-feature-settings:normal;text-indent:0;text-align:start;text-decoration:none;text-decoration-line:none;text-decoration-style:solid;text-decoration-color:#000000;letter-spacing:normal;word-spacing:normal;text-transform:none;writing-mode:lr-tb;direction:ltr;text-orientation:mixed;dominant-baseline:auto;baseline-shift:baseline;text-anchor:start;white-space:normal;shape-padding:0;clip-rule:nonzero;display:inline;overflow:visible;visibility:visible;opacity:1;isolation:auto;mix-blend-mode:normal;color-interpolation:sRGB;color-interpolation-filters:linearRGB;solid-color:#000000;solid-opacity:1;vector-effect:none;fill:#000000;fill-opacity:1;fill-rule:nonzero;stroke:none;stroke-width:2.5;stroke-linecap:square;stroke-linejoin:round;stroke-miterlimit:4.30000019;stroke-dasharray:none;stroke-dashoffset:0;stroke-opacity:1;paint-order:markers stroke fill;color-rendering:auto;image-rendering:auto;shape-rendering:auto;text-rendering:auto;enable-background:accumulate"
       d="m 104.84657,260.66706 -6.876321,-3.49643 6.876321,-3.49617 v 2.19754 c 13.77478,-0.0391 24.9059,-11.17021 24.94499,-24.94499 h 2.50011 c -0.0393,15.12607 -12.31903,27.40582 -27.4451,27.4451 z"
       id="path907-3"
       inkscape:transform-center-x="-20.714499"
       inkscape:transform-center-y="29.885766" />
    <path
       style="opacity:1;fill:#000000;fill-opacity:1;stroke:none;stroke-width:2.8167789;stroke-linecap:square;stroke-linejoin:round;stroke-miterlimit:4.30000019;stroke-dasharray:none;stroke-opacity:1;paint-order:markers stroke fill"
       d="m 27.517959,217.00198 a 13.852243,13.852241 0 0 0 -13.852178,13.85217 13.852243,13.852241 0 0 0 13.852178,13.85219 13.852243,13.852241 0 0 0 13.852178,-13.85219 13.852243,13.852241 0 0 0 -13.852178,-13.85217 z m -6.197658,7.14664 h 4.064041 v 10.97276 h 8.331275 v 2.43831 H 21.320301 Z"
       id="path1225-3"
       inkscape:connector-curvature="0" />
    <path
       style="opacity:1;fill:#000000;fill-opacity:1;stroke:none;stroke-width:4.06688929;stroke-linecap:square;stroke-linejoin:round;stroke-miterlimit:4.30000019;stroke-dasharray:none;stroke-opacity:1;paint-order:markers stroke fill"
       d="m 27.517963,210.85415 a 19.999984,19.99998 0 0 0 -20.000003,20 19.999984,19.99998 0 0 0 20.000003,20 19.999984,19.99998 0 0 0 19.999994,-20 19.999984,19.99998 0 0 0 -19.999994,-20 z m 0,3.93113 a 16.069035,16.069032 0 0 1 16.068875,16.06887 16.069035,16.069032 0 0 1 -16.068875,16.06888 16.069035,16.069032 0 0 1 -16.068878,-16.06888 16.069035,16.069032 0 0 1 16.068878,-16.06887 z"
       id="path1225-8-6"
       inkscape:connector-curvature="0" />
    <text
       xml:space="preserve"
       style="font-style:normal;font-variant:normal;font-weight:normal;font-stretch:normal;font-size:5.29166651px;line-height:3.30729175px;font-family:Xolonium;-inkscape-font-specification:Xolonium;text-align:center;letter-spacing:0px;word-spacing:0px;text-anchor:middle;fill:#000000;fill-opacity:1;stroke:none;stroke-width:0.13229166px;stroke-linecap:butt;stroke-linejoin:miter;stroke-opacity:1"
       x="20.904724"
       y="227.31114"
       id="text1408-7"><tspan
         sodipodi:role="line"
         id="tspan1406-5"
         x="20.904724"
         y="230.49937"
         style="stroke-width:0.13229166px" /></text>
    <path
       style="color:#000000;font-style:normal;font-variant:normal;font-weight:normal;font-stretch:normal;font-size:medium;line-height:normal;font-family:sans-serif;font-variant-ligatures:normal;font-variant-position:normal;font-variant-caps:normal;font-variant-numeric:normal;font-variant-alternates:normal;font-feature-settings:normal;text-indent:0;text-align:start;text-decoration:none;text-decoration-line:none;text-decoration-style:solid;text-decoration-color:#000000;letter-spacing:normal;word-spacing:normal;text-transform:none;writing-mode:lr-tb;direction:ltr;text-orientation:mixed;dominant-baseline:auto;baseline-shift:baseline;text-anchor:start;white-space:normal;shape-padding:0;clip-rule:nonzero;display:inline;overflow:visible;visibility:visible;opacity:1;isolation:auto;mix-blend-mode:normal;color-interpolation:sRGB;color-interpolation-filters:linearRGB;solid-color:#000000;solid-opacity:1;vector-effect:none;fill:#000000;fill-opacity:1;fill-rule:nonzero;stroke:none;stroke-width:2.5;stroke-linecap:square;stroke-linejoin:round;stroke-miterlimit:4.30000019;stroke-dasharray:none;stroke-dashoffset:0;stroke-opacity:1;paint-order:markers stroke fill;color-rendering:auto;image-rendering:auto;shape-rendering:auto;text-rendering:auto;enable-background:accumulate"
       d="m 27.445095,201.04125 6.876325,3.49642 -6.876324,3.49618 V 205.8363 C 13.670319,205.8754 2.539202,217.00651 2.500106,230.78129 H 0 C 0.03928,215.65522 12.319028,203.37548 27.445096,203.3362 Z"
       id="path907-35"
       inkscape:connector-curvature="0" />
    <path
       inkscape:connector-curvature="0"
       style="color:#000000;font-style:normal;font-variant:normal;font-weight:normal;font-stretch:normal;font-size:medium;line-height:normal;font-family:sans-serif;font-variant-ligatures:normal;font-variant-position:normal;font-variant-caps:normal;font-variant-numeric:normal;font-variant-alternates:normal;font-feature-settings:normal;text-indent:0;text-align:start;text-decoration:none;text-decoration-line:none;text-decoration-style:solid;text-decoration-color:#000000;letter-spacing:normal;word-spacing:normal;text-transform:none;writing-mode:lr-tb;direction:ltr;text-orientation:mixed;dominant-baseline:auto;baseline-shift:baseline;text-anchor:start;white-space:normal;shape-padding:0;clip-rule:nonzero;display:inline;overflow:visible;visibility:visible;opacity:1;isolation:auto;mix-blend-mode:normal;color-interpolation:sRGB;color-interpolation-filters:linearRGB;solid-color:#000000;solid-opacity:1;vector-effect:none;fill:#000000;fill-opacity:1;fill-rule:nonzero;stroke:none;stroke-width:2.5;stroke-linecap:square;stroke-linejoin:round;stroke-miterlimit:4.30000019;stroke-dasharray:none;stroke-dashoffset:0;stroke-opacity:1;paint-order:markers stroke fill;color-rendering:auto;image-rendering:auto;shape-rendering:auto;text-rendering:auto;enable-background:accumulate"
       d="m 27.590823,260.66706 -6.876324,-3.49643 6.876324,-3.49617 V 255.872 C 41.3656,255.8329 52.496717,244.70179 52.535812,230.92701 h 2.500105 c -0.0393,15.12607 -12.319027,27.40582 -27.445094,27.4451 z"
       id="path907-3-6"
       inkscape:transform-center-x="-20.714499"
       inkscape:transform-center-y="29.885766" />
  </g>
</svg>
