<?xml version="1.0" encoding="UTF-8"?>
<svg id="Layer_1" data-name="Layer 1" xmlns="http://www.w3.org/2000/svg" viewBox="0 0 457.41 457.41">
  <path d="M228.71,0C102.4,0,0,102.4,0,228.71s102.4,228.71,228.71,228.71,228.71-102.4,228.71-228.71S355.02,0,228.71,0Zm0,25.55c19.31,0,34.96,15.65,34.96,34.96s-15.65,34.96-34.96,34.96-34.96-15.65-34.96-34.96,15.65-34.96,34.96-34.96Zm82.44,259.92v32.44H146.26V139.5h54.06v145.97h110.83Zm-82.44,126.99c-101.49,0-183.75-82.27-183.75-183.75,0-80.41,51.65-148.76,123.59-173.67-.17,1.8-.25,3.63-.25,5.47,0,7.13,1.24,13.98,3.51,20.33-59.38,22.86-101.51,80.45-101.51,147.87,0,87.48,70.92,158.4,158.41,158.4s158.4-70.92,158.4-158.4c0-67.42-42.13-125.01-101.5-147.87,2.27-6.35,3.51-13.2,3.51-20.33,0-1.84-.08-3.67-.25-5.47,71.94,24.91,123.59,93.26,123.59,173.67,0,101.48-82.27,183.75-183.75,183.75Z"/>
</svg>