<?xml version="1.0" encoding="UTF-8" standalone="no"?>
<!-- Created with Inkscape (http://www.inkscape.org/) -->

<svg
   width="500"
   height="500"
   viewBox="0 0 132.29166 132.29167"
   version="1.1"
   id="svg8"
   sodipodi:docname="analog-r-touch.svg"
   inkscape:version="1.2.2 (b0a8486541, 2022-12-01)"
   xmlns:inkscape="http://www.inkscape.org/namespaces/inkscape"
   xmlns:sodipodi="http://sodipodi.sourceforge.net/DTD/sodipodi-0.dtd"
   xmlns="http://www.w3.org/2000/svg"
   xmlns:svg="http://www.w3.org/2000/svg"
   xmlns:rdf="http://www.w3.org/1999/02/22-rdf-syntax-ns#"
   xmlns:cc="http://creativecommons.org/ns#"
   xmlns:dc="http://purl.org/dc/elements/1.1/">
  <defs
     id="defs2" />
  <sodipodi:namedview
     id="base"
     pagecolor="#ffffff"
     bordercolor="#666666"
     borderopacity="1.0"
     inkscape:pageopacity="0.0"
     inkscape:pageshadow="2"
     inkscape:zoom="0.7"
     inkscape:cx="425.71429"
     inkscape:cy="295.71429"
     inkscape:document-units="mm"
     inkscape:current-layer="layer1"
     showgrid="false"
     units="px"
     inkscape:window-width="1677"
     inkscape:window-height="2109"
     inkscape:window-x="5999"
     inkscape:window-y="25"
     inkscape:window-maximized="0"
     inkscape:showpageshadow="2"
     inkscape:pagecheckerboard="0"
     inkscape:deskcolor="#d1d1d1" />
  <metadata
     id="metadata5">
    <rdf:RDF>
      <cc:Work
         rdf:about="">
        <dc:format>image/svg+xml</dc:format>
        <dc:type
           rdf:resource="http://purl.org/dc/dcmitype/StillImage" />
      </cc:Work>
    </rdf:RDF>
  </metadata>
  <g
     inkscape:label="Layer 1"
     inkscape:groupmode="layer"
     id="layer1"
     transform="translate(0,-164.70832)">
    <path
       id="path519"
       d="m 66.146012,189.72697 c -22.713353,0 -41.12736,18.41401 -41.12736,41.12736 0,22.71335 18.414007,41.12701 41.12736,41.12701 22.713345,0 41.127008,-18.41366 41.127008,-41.12701 0,-22.71335 -18.413663,-41.12736 -41.127008,-41.12736 z m 0,4.5946 c 3.472368,0 6.286407,2.81405 6.286407,6.28642 0,3.47236 -2.814039,6.28676 -6.286407,6.28676 -3.472369,0 -6.286763,-2.8144 -6.286763,-6.28676 0,-3.47237 2.814394,-6.28642 6.286763,-6.28642 z m -10.818148,5.30266 c -0.03057,0.32368 -0.04496,0.65288 -0.04496,0.98376 0,1.28213 0.222938,2.51393 0.631135,3.6558 -10.677846,4.11073 -18.253734,14.46692 -18.253734,26.59054 0,15.73085 12.75305,28.48359 28.485705,28.48359 15.732648,0 28.483593,-12.75274 28.483593,-28.48359 0,-12.12362 -7.575933,-22.47981 -18.251976,-26.59054 0.408194,-1.14187 0.631131,-2.37367 0.631131,-3.6558 0,-0.33088 -0.01441,-0.66008 -0.04492,-0.98376 12.936419,4.47937 22.224589,16.77059 22.224589,31.2301 0,18.24837 -14.794016,33.04237 -33.042379,33.04237 -18.250166,0 -33.042378,-14.794 -33.042378,-33.04237 0,-14.45951 9.287814,-26.75073 22.224227,-31.2301 z m -3.596449,17.44102 h 20.474472 c 4.734718,0 7.102985,1.89382 7.102985,5.68267 v 5.76661 c 0,3.3429 -1.881146,5.23671 -5.641228,5.68267 l 6.894716,10.44586 H 71.536818 L 64.642456,234.1972 h -4.554917 v 10.44586 h -8.356124 z m 8.354369,5.0136 v 7.10474 h 9.40099 c 0.974637,0 1.463865,-0.39017 1.463865,-1.17059 v -4.76355 c 0,-0.78043 -0.489228,-1.1706 -1.463865,-1.1706 z"
       style="stroke-width:0.179822" />
    <text
       xml:space="preserve"
       style="font-style:normal;font-variant:normal;font-weight:normal;font-stretch:normal;font-size:10.5833px;line-height:6.61458px;font-family:Xolonium;-inkscape-font-specification:Xolonium;text-align:center;letter-spacing:0px;word-spacing:0px;text-anchor:middle;fill:#000000;fill-opacity:1;stroke:none;stroke-width:0.264583px;stroke-linecap:butt;stroke-linejoin:miter;stroke-opacity:1"
       x="52.919361"
       y="223.76813"
       id="text1408" />
  </g>
</svg>
