<?xml version="1.0" encoding="UTF-8"?>
<svg id="Layer_1" data-name="Layer 1" xmlns="http://www.w3.org/2000/svg" viewBox="0 0 457.41 457.41">
  <path d="M247.29,179.91h-52.28v39.51h52.28c5.42,0,8.14-2.17,8.14-6.51v-26.49c0-4.34-2.72-6.51-8.14-6.51Z"/>
  <path d="M228.71,0C102.4,0,0,102.4,0,228.71s102.4,228.71,228.71,228.71,228.71-102.4,228.71-228.71S355.02,0,228.71,0Zm0,25.55c19.31,0,34.96,15.65,34.96,34.96s-15.65,34.96-34.96,34.96-34.96-15.65-34.96-34.96,15.65-34.96,34.96-34.96Zm80.17,279.84h-50.19l-38.34-58.09h-25.33v58.09h-46.47V152.03h113.86c26.33,0,39.5,10.53,39.5,31.6v32.07c0,18.59-10.46,29.12-31.37,31.6l38.34,58.09Zm-80.17,107.07c-101.49,0-183.75-82.27-183.75-183.75,0-80.41,51.65-148.76,123.59-173.67-.17,1.8-.25,3.63-.25,5.47,0,7.13,1.24,13.98,3.51,20.33-59.38,22.86-101.51,80.45-101.51,147.87,0,87.48,70.92,158.4,158.41,158.4s158.4-70.92,158.4-158.4c0-67.42-42.13-125.01-101.5-147.87,2.27-6.35,3.51-13.2,3.51-20.33,0-1.84-.08-3.67-.25-5.47,71.94,24.91,123.59,93.26,123.59,173.67,0,101.48-82.27,183.75-183.75,183.75Z"/>
</svg>