<?xml version="1.0" encoding="UTF-8" standalone="no"?>
<!-- Created with Inkscape (http://www.inkscape.org/) -->

<svg
   xmlns:dc="http://purl.org/dc/elements/1.1/"
   xmlns:cc="http://creativecommons.org/ns#"
   xmlns:rdf="http://www.w3.org/1999/02/22-rdf-syntax-ns#"
   xmlns:svg="http://www.w3.org/2000/svg"
   xmlns="http://www.w3.org/2000/svg"
   xmlns:sodipodi="http://sodipodi.sourceforge.net/DTD/sodipodi-0.dtd"
   xmlns:inkscape="http://www.inkscape.org/namespaces/inkscape"
   width="500"
   height="500"
   viewBox="0 0 132.29166 132.29167"
   version="1.1"
   id="svg8"
   sodipodi:docname="analog-lr.svg"
   inkscape:version="0.92.4 5da689c313, 2019-01-14">
  <defs
     id="defs2" />
  <sodipodi:namedview
     id="base"
     pagecolor="#ffffff"
     bordercolor="#666666"
     borderopacity="1.0"
     inkscape:pageopacity="0.0"
     inkscape:pageshadow="2"
     inkscape:zoom="0.49497475"
     inkscape:cx="292.26744"
     inkscape:cy="370.32294"
     inkscape:document-units="mm"
     inkscape:current-layer="layer1"
     showgrid="false"
     units="px"
     inkscape:window-width="956"
     inkscape:window-height="1153"
     inkscape:window-x="2880"
     inkscape:window-y="45"
     inkscape:window-maximized="0" />
  <metadata
     id="metadata5">
    <rdf:RDF>
      <cc:Work
         rdf:about="">
        <dc:format>image/svg+xml</dc:format>
        <dc:type
           rdf:resource="http://purl.org/dc/dcmitype/StillImage" />
        <dc:title />
      </cc:Work>
    </rdf:RDF>
  </metadata>
  <g
     inkscape:label="Layer 1"
     inkscape:groupmode="layer"
     id="layer1"
     transform="translate(0,-164.70832)">
    <text
       xml:space="preserve"
       style="font-style:normal;font-variant:normal;font-weight:normal;font-stretch:normal;font-size:10.58333302px;line-height:6.61458302px;font-family:Xolonium;-inkscape-font-specification:Xolonium;text-align:center;letter-spacing:0px;word-spacing:0px;text-anchor:middle;fill:#000000;fill-opacity:1;stroke:none;stroke-width:0.26458332px;stroke-linecap:butt;stroke-linejoin:miter;stroke-opacity:1"
       x="52.919361"
       y="223.76813"
       id="text1408"><tspan
         sodipodi:role="line"
         id="tspan1406"
         x="52.919361"
         y="230.14459"
         style="stroke-width:0.26458332px" /></text>
    <path
       style="opacity:1;fill:#000000;fill-opacity:1;stroke:none;stroke-width:2.8167789;stroke-linecap:square;stroke-linejoin:round;stroke-miterlimit:4.30000019;stroke-dasharray:none;stroke-opacity:1;paint-order:markers stroke fill"
       d="m 102.36276,217.00197 a 13.852244,13.85224 0 0 0 -13.852179,13.85217 13.852244,13.85224 0 0 0 13.852179,13.85218 13.852244,13.85224 0 0 0 13.85218,-13.85218 13.852244,13.85224 0 0 0 -13.85218,-13.85217 z m -7.010425,7.14664 h 9.956805 c 2.30294,0 3.45447,0.9211 3.45447,2.76345 v 2.80417 c 0,1.6256 -0.91439,2.54671 -2.74319,2.76345 l 3.35276,5.08 h -4.38919 l -3.35276,-5.08 h -2.214854 v 5.08 h -4.064041 z m 4.064041,2.4383 v 3.45446 h 4.571914 c 0.47413,0 0.71128,-0.18975 0.71128,-0.56906 v -2.31633 c 0,-0.37931 -0.23715,-0.56906 -0.71128,-0.56906 z"
       id="path1225"
       inkscape:connector-curvature="0" />
    <path
       style="opacity:1;fill:#000000;fill-opacity:1;stroke:none;stroke-width:4.06688929;stroke-linecap:square;stroke-linejoin:round;stroke-miterlimit:4.30000019;stroke-dasharray:none;stroke-opacity:1;paint-order:markers stroke fill"
       d="m 102.36276,210.85414 a 19.999983,19.999979 0 0 0 -20,20 19.999983,19.999979 0 0 0 20,20 19.999983,19.999979 0 0 0 20,-20 19.999983,19.999979 0 0 0 -20,-20 z m 0,3.93113 a 16.069034,16.069031 0 0 1 16.06888,16.06887 16.069034,16.069031 0 0 1 -16.06888,16.06888 16.069034,16.069031 0 0 1 -16.068875,-16.06888 16.069034,16.069031 0 0 1 16.068875,-16.06887 z"
       id="path1225-8"
       inkscape:connector-curvature="0" />
    <path
       style="opacity:1;fill:#000000;fill-opacity:1;stroke:none;stroke-width:3.48996615;stroke-linecap:square;stroke-linejoin:round;stroke-miterlimit:4.30000019;stroke-dasharray:none;stroke-opacity:1;paint-order:markers stroke fill"
       d="m 72.433855,226.68255 8.209071,2.55702 v 3.22916 l -8.209071,2.55702 z"
       id="rect8342"
       inkscape:connector-curvature="0"
       sodipodi:nodetypes="ccccc" />
    <path
       style="opacity:1;fill:#000000;fill-opacity:1;stroke:none;stroke-width:3.48996615;stroke-linecap:square;stroke-linejoin:round;stroke-miterlimit:4.30000019;stroke-dasharray:none;stroke-opacity:1;paint-order:markers stroke fill"
       d="m 132.29167,226.68255 -8.20908,2.55702 v 3.22916 l 8.20908,2.55702 z"
       id="rect8342-7"
       inkscape:connector-curvature="0"
       sodipodi:nodetypes="ccccc" />
    <path
       style="opacity:1;fill:#000000;fill-opacity:1;stroke:none;stroke-width:3.48996615;stroke-linecap:square;stroke-linejoin:round;stroke-miterlimit:4.30000019;stroke-dasharray:none;stroke-opacity:1;paint-order:markers stroke fill"
       d="m 98.191159,260.78306 2.557021,-8.20908 h 3.22916 l 2.55702,8.20908 z"
       id="rect8342-2"
       inkscape:connector-curvature="0"
       sodipodi:nodetypes="ccccc" />
    <path
       style="opacity:1;fill:#000000;fill-opacity:1;stroke:none;stroke-width:3.48996615;stroke-linecap:square;stroke-linejoin:round;stroke-miterlimit:4.30000019;stroke-dasharray:none;stroke-opacity:1;paint-order:markers stroke fill"
       d="m 98.191159,200.92524 2.557021,8.20908 h 3.22916 l 2.55702,-8.20908 z"
       id="rect8342-7-0"
       inkscape:connector-curvature="0"
       sodipodi:nodetypes="ccccc" />
    <path
       style="opacity:1;fill:#000000;fill-opacity:1;stroke:none;stroke-width:3.48996615;stroke-linecap:square;stroke-linejoin:round;stroke-miterlimit:4.30000019;stroke-dasharray:none;stroke-opacity:1;paint-order:markers stroke fill"
       d="m 78.250063,249.06732 7.612772,-3.99661 2.283366,2.28337 -3.996607,7.61276 z"
       id="rect8342-22"
       inkscape:connector-curvature="0"
       sodipodi:nodetypes="ccccc" />
    <path
       style="opacity:1;fill:#000000;fill-opacity:1;stroke:none;stroke-width:3.48996615;stroke-linecap:square;stroke-linejoin:round;stroke-miterlimit:4.30000019;stroke-dasharray:none;stroke-opacity:1;paint-order:markers stroke fill"
       d="m 120.57593,206.74145 -3.99661,7.61277 2.28337,2.28337 7.61277,-3.99661 z"
       id="rect8342-7-8"
       inkscape:connector-curvature="0"
       sodipodi:nodetypes="ccccc" />
    <path
       style="opacity:1;fill:#000000;fill-opacity:1;stroke:none;stroke-width:3.48996615;stroke-linecap:square;stroke-linejoin:round;stroke-miterlimit:4.30000019;stroke-dasharray:none;stroke-opacity:1;paint-order:markers stroke fill"
       d="m 120.57593,254.96685 -3.99661,-7.61277 2.28337,-2.28337 7.61278,3.99661 z"
       id="rect8342-2-9"
       inkscape:connector-curvature="0"
       sodipodi:nodetypes="ccccc" />
    <path
       style="opacity:1;fill:#000000;fill-opacity:1;stroke:none;stroke-width:3.48996615;stroke-linecap:square;stroke-linejoin:round;stroke-miterlimit:4.30000019;stroke-dasharray:none;stroke-opacity:1;paint-order:markers stroke fill"
       d="m 78.250059,212.64098 7.612778,3.99661 2.283367,-2.28336 -3.996607,-7.61278 z"
       id="rect8342-7-0-7"
       inkscape:connector-curvature="0"
       sodipodi:nodetypes="ccccc" />
    <path
       style="opacity:1;fill:#000000;fill-opacity:1;stroke:none;stroke-width:2.8167789;stroke-linecap:square;stroke-linejoin:round;stroke-miterlimit:4.30000019;stroke-dasharray:none;stroke-opacity:1;paint-order:markers stroke fill"
       d="m 29.928905,217.00197 a 13.852243,13.852241 0 0 0 -13.852179,13.85218 13.852243,13.852241 0 0 0 13.852179,13.85217 13.852243,13.852241 0 0 0 13.85218,-13.85217 13.852243,13.852241 0 0 0 -13.85218,-13.85218 z m -6.19766,7.14664 h 4.06404 v 10.97276 h 8.33128 v 2.43831 h -12.39532 z"
       id="path1225-6"
       inkscape:connector-curvature="0" />
    <path
       style="opacity:1;fill:#000000;fill-opacity:1;stroke:none;stroke-width:4.06688929;stroke-linecap:square;stroke-linejoin:round;stroke-miterlimit:4.30000019;stroke-dasharray:none;stroke-opacity:1;paint-order:markers stroke fill"
       d="m 29.928905,210.85415 a 19.999984,19.99998 0 0 0 -20,20 19.999984,19.99998 0 0 0 20,20 19.999984,19.99998 0 0 0 20,-20 19.999984,19.99998 0 0 0 -20,-20 z m 0,3.93112 a 16.069035,16.069032 0 0 1 16.06888,16.06888 16.069035,16.069032 0 0 1 -16.06888,16.06887 16.069035,16.069032 0 0 1 -16.068875,-16.06887 16.069035,16.069032 0 0 1 16.068875,-16.06888 z"
       id="path1225-8-7"
       inkscape:connector-curvature="0" />
    <path
       style="opacity:1;fill:#000000;fill-opacity:1;stroke:none;stroke-width:3.48996592;stroke-linecap:square;stroke-linejoin:round;stroke-miterlimit:4.30000019;stroke-dasharray:none;stroke-opacity:1;paint-order:markers stroke fill"
       d="m 0,226.68255 8.20907,2.55702 v 3.22916 L 0,235.02575 Z"
       id="rect8342-5"
       inkscape:connector-curvature="0"
       sodipodi:nodetypes="ccccc" />
    <path
       style="opacity:1;fill:#000000;fill-opacity:1;stroke:none;stroke-width:3.48996592;stroke-linecap:square;stroke-linejoin:round;stroke-miterlimit:4.30000019;stroke-dasharray:none;stroke-opacity:1;paint-order:markers stroke fill"
       d="m 59.857815,226.68255 -8.20908,2.55702 v 3.22916 l 8.20908,2.55702 z"
       id="rect8342-7-3"
       inkscape:connector-curvature="0"
       sodipodi:nodetypes="ccccc" />
    <path
       style="opacity:1;fill:#000000;fill-opacity:1;stroke:none;stroke-width:3.48996592;stroke-linecap:square;stroke-linejoin:round;stroke-miterlimit:4.30000019;stroke-dasharray:none;stroke-opacity:1;paint-order:markers stroke fill"
       d="m 25.757304,260.78306 2.557021,-8.20908 h 3.22916 l 2.55702,8.20908 z"
       id="rect8342-2-5"
       inkscape:connector-curvature="0"
       sodipodi:nodetypes="ccccc" />
    <path
       style="opacity:1;fill:#000000;fill-opacity:1;stroke:none;stroke-width:3.48996592;stroke-linecap:square;stroke-linejoin:round;stroke-miterlimit:4.30000019;stroke-dasharray:none;stroke-opacity:1;paint-order:markers stroke fill"
       d="m 25.757304,200.92524 2.557021,8.20908 h 3.22916 l 2.55702,-8.20907 z"
       id="rect8342-7-0-6"
       inkscape:connector-curvature="0"
       sodipodi:nodetypes="ccccc" />
    <path
       style="opacity:1;fill:#000000;fill-opacity:1;stroke:none;stroke-width:3.48996592;stroke-linecap:square;stroke-linejoin:round;stroke-miterlimit:4.30000019;stroke-dasharray:none;stroke-opacity:1;paint-order:markers stroke fill"
       d="m 5.816208,249.06732 7.612772,-3.99661 2.283366,2.28337 -3.996607,7.61277 z"
       id="rect8342-22-2"
       inkscape:connector-curvature="0"
       sodipodi:nodetypes="ccccc" />
    <path
       style="opacity:1;fill:#000000;fill-opacity:1;stroke:none;stroke-width:3.48996592;stroke-linecap:square;stroke-linejoin:round;stroke-miterlimit:4.30000019;stroke-dasharray:none;stroke-opacity:1;paint-order:markers stroke fill"
       d="m 48.142075,206.74145 -3.99661,7.61277 2.28336,2.28337 7.61278,-3.99661 z"
       id="rect8342-7-8-9"
       inkscape:connector-curvature="0"
       sodipodi:nodetypes="ccccc" />
    <path
       style="opacity:1;fill:#000000;fill-opacity:1;stroke:none;stroke-width:3.48996592;stroke-linecap:square;stroke-linejoin:round;stroke-miterlimit:4.30000019;stroke-dasharray:none;stroke-opacity:1;paint-order:markers stroke fill"
       d="m 48.142075,254.96685 -3.99661,-7.61277 2.28337,-2.28337 7.61278,3.99661 z"
       id="rect8342-2-9-1"
       inkscape:connector-curvature="0"
       sodipodi:nodetypes="ccccc" />
    <path
       style="opacity:1;fill:#000000;fill-opacity:1;stroke:none;stroke-width:3.48996592;stroke-linecap:square;stroke-linejoin:round;stroke-miterlimit:4.30000019;stroke-dasharray:none;stroke-opacity:1;paint-order:markers stroke fill"
       d="m 5.816203,212.64098 7.612778,3.99661 2.283367,-2.28336 -3.996606,-7.61278 z"
       id="rect8342-7-0-7-2"
       inkscape:connector-curvature="0"
       sodipodi:nodetypes="ccccc" />
  </g>
</svg>
