<?xml version="1.0" encoding="UTF-8"?>
<svg id="Layer_1" data-name="Layer 1" xmlns="http://www.w3.org/2000/svg" viewBox="0 0 500 500">
  <path d="M191.17,223.25v20.02c0,3.28-2.05,4.92-6.14,4.92h-39.52v-29.86h39.52c4.09,0,6.14,1.64,6.14,4.92Z"/>
  <path d="M462.5,160.26H37.51c-19.61,0-35.51,15.9-35.51,35.51v118.89c0,19.61,15.9,35.5,35.51,35.5H462.5c19.61,0,35.5-15.89,35.5-35.5v-118.89c0-19.61-15.89-35.51-35.5-35.51ZM193.63,313.17l-28.98-43.91h-19.14v43.91h-35.12v-115.91h86.05c19.9,0,29.86,7.96,29.86,23.88v24.24c0,14.05-7.91,22.01-23.71,23.88l28.97,43.91h-37.93Zm195.99-94.84h-71.13c-4.1,0-6.14,1.64-6.14,4.92v63.93c0,3.27,2.04,4.91,6.14,4.91h71.13v21.08h-82.54c-19.91,0-29.86-7.96-29.86-23.89v-68.14c0-15.92,9.95-23.88,29.86-23.88h82.54v21.07Z"/>
</svg>