<?xml version="1.0" encoding="UTF-8"?>
<svg id="Layer_1" data-name="Layer 1" xmlns="http://www.w3.org/2000/svg" viewBox="0 0 500 500">
  <path d="M250,5.7C115.08,5.7,5.7,115.08,5.7,250s109.38,244.3,244.3,244.3,244.3-109.38,244.3-244.3S384.92,5.7,250,5.7Zm171.14,284.5c0,1.68-.85,3.74-2,4.95-6.26,6.55-12.69,12.93-19.19,19.23-1.01,.98-2.71,1.75-4.1,1.76-19.99,.11-39.97,.07-59.96,.06-.3,0-.6-.11-.31-.05,17.28-17.26,34.79-34.73,50.54-50.45-3.17,5.25-7.7,12.76-12.23,20.28-1.4,2.31-2.83,4.61-4.17,6.95-2.99,5.22-.42,11.08,5.58,11.6,4.81,.42,9.84,.31,14.54-.68,8.57-1.81,14.38-9.82,14.41-18.81,.05-16.97,.01-33.94,.02-50.9,0-2.31,.29-4.76-2.36-5.92-2.7-1.17-4.24,.81-5.86,2.43-25.76,25.76-51.61,51.42-77.2,77.35-5.66,5.74-11.78,8.4-19.9,8.34-33.2-.27-66.41-.18-99.61-.06-6.69,.03-12-2.16-16.71-6.9-26.12-26.28-52.36-52.44-78.56-78.63-.74-.74-1.45-1.53-2.3-2.11-2.45-1.66-5.43-.38-5.93,2.55-.15,.91-.08,1.87-.08,2.81-.01,16.44-.02,32.89,0,49.33,.01,12.52,6.71,20.08,19.18,21.38,3.18,.33,6.47,.33,9.64-.08,6.16-.82,8.8-6.51,5.63-11.84-5.15-8.67-10.41-17.28-15.62-25.92-.68-1.14-1.34-2.29-1.76-2.99,17.12,17.15,34.55,34.62,52.1,52.2-.73,.04-1.63,.14-2.54,.14-18.95,.01-37.89-.03-56.83,.05-2.59,0-4.54-.74-6.35-2.59-5.89-6.04-12.01-11.85-17.78-17.99-1.4-1.5-2.52-3.95-2.53-5.97-.16-29.46-.07-58.92-.17-88.37-.01-2.92,.85-3.75,3.71-3.66,6.44,.19,12.9,.16,19.35,.03,6.86-.13,12.43,2.3,17.29,7.18,34.52,34.66,69.14,69.23,103.72,103.82,.67,.66,1.3,1.37,2.02,1.95,2.31,1.88,5.12,1.01,5.26-1.9,.23-4.56,.25-9.17-.28-13.69-.23-1.95-1.71-4.05-3.18-5.53-32.09-32.23-64.26-64.39-96.42-96.55-3.4-3.4-7.45-5.08-12.33-5.04-12.58,.1-25.16,.03-38.23,.03,2.05-2.74,3.92-4.34,7.3-4.32,23.73,.12,47.46,.14,71.19-.01,4.41-.02,7.69,1.43,10.76,4.52,23.99,24.14,48.17,48.08,72.06,72.32,5.86,5.95,12.16,6.06,18.21-.09,23.73-24.1,47.78-47.88,71.63-71.87,3.3-3.32,6.89-4.9,11.62-4.87,23.52,.14,47.04,.12,70.57-.01,3.37-.01,5.32,1.51,7.39,4.33h-3.45c-11.03,0-22.07,.2-33.1-.07-6.18-.16-10.97,1.95-15.28,6.29-24.28,24.44-48.68,48.77-73.04,73.13-7.21,7.21-14.37,14.48-21.66,21.62-2.86,2.81-4.28,6.02-4.12,10.03,.12,2.81-.2,5.65,.14,8.42,.17,1.43,1.07,3.32,2.2,3.89,.87,.44,2.97-.51,3.92-1.45,14.57-14.43,29.05-28.95,43.55-43.45,20.53-20.53,41.1-41.02,61.56-61.64,4.77-4.81,10.3-7.13,17.03-7.03,6.76,.1,13.53,.09,20.29-.02,2.2-.04,2.87,.7,2.86,2.87-.05,29.87-.01,59.75-.13,89.62Z"/>
</svg>