<?xml version="1.0" encoding="UTF-8"?>
<svg id="Layer_1" data-name="Layer 1" xmlns="http://www.w3.org/2000/svg" viewBox="0 0 500 500">
  <path d="M250,164.96h0c29.12,0,52.72,23.61,52.72,52.72v151.49c0,29.12-23.61,52.72-52.72,52.72h0c-29.12,0-52.72-23.61-52.72-52.72V217.68c0-29.12,23.61-52.72,52.72-52.72Zm-94.9-86.86v60.23h-18.25v-26.01h-26.47v26.01h-18.25v-60.23h18.25v23.27h26.47v-23.27h18.25Zm79.39,12.41v35.41c0,8.28-5.17,12.41-15.52,12.41h-31.93c-10.35,0-15.52-4.13-15.52-12.41v-35.41c0-8.27,5.17-12.41,15.52-12.41h31.93c10.35,0,15.52,4.14,15.52,12.41Zm-18.25,1.1c0-1.7-1.07-2.56-3.2-2.56h-20.07c-2.13,0-3.2,.86-3.2,2.56v33.22c0,1.7,1.07,2.55,3.2,2.55h20.07c2.13,0,3.2-.85,3.2-2.55v-33.22Zm116.8-13.51v60.23h-18.25v-31.76l-14.14,31.76h-17.34l-14.15-31.76v31.76h-18.25v-60.23h22.36l18.71,42.07,18.7-42.07h22.36Zm34.68,10.95v12.32h35.59v10.95h-35.59v15.06h40.15v10.95h-58.4v-60.23h58.4v10.95h-40.15Z"/>
</svg>