<?xml version="1.0" encoding="UTF-8"?>
<svg id="Layer_1" data-name="Layer 1" xmlns="http://www.w3.org/2000/svg" viewBox="0 0 500 500">
  <path d="M164,127.02v-50.22h-18.6v61.37h56.72v-11.15h-38.12Zm74.85-39.06h37.66v-11.16h-43.71c-10.54,0-15.8,4.22-15.8,12.65v36.08c0,8.43,5.26,12.64,15.8,12.64h43.71v-11.15h-37.66c-2.17,0-3.26-.87-3.26-2.61v-33.84c0-1.74,1.09-2.61,3.26-2.61Zm78.1,0h37.66v-11.16h-43.7c-10.54,0-15.81,4.22-15.81,12.65v36.08c0,8.43,5.27,12.64,15.81,12.64h43.7v-11.15h-37.66c-2.17,0-3.25-.87-3.25-2.61v-33.84c0-1.74,1.08-2.61,3.25-2.61Zm-66.95,77h0c29.12,0,52.72,23.61,52.72,52.72v151.49c0,29.12-23.61,52.72-52.72,52.72h0c-29.12,0-52.72-23.61-52.72-52.72V217.68c0-29.12,23.61-52.72,52.72-52.72Z"/>
</svg>