<?xml version="1.0" encoding="UTF-8" standalone="no"?>
<!-- Created with Inkscape (http://www.inkscape.org/) -->

<svg
   width="500"
   height="500"
   viewBox="0 0 132.29166 132.29167"
   version="1.1"
   id="svg8"
   sodipodi:docname="button-share.svg"
   inkscape:version="1.1.1 (3bf5ae0d25, 2021-09-20)"
   xmlns:inkscape="http://www.inkscape.org/namespaces/inkscape"
   xmlns:sodipodi="http://sodipodi.sourceforge.net/DTD/sodipodi-0.dtd"
   xmlns="http://www.w3.org/2000/svg"
   xmlns:svg="http://www.w3.org/2000/svg"
   xmlns:rdf="http://www.w3.org/1999/02/22-rdf-syntax-ns#"
   xmlns:cc="http://creativecommons.org/ns#"
   xmlns:dc="http://purl.org/dc/elements/1.1/">
  <defs
     id="defs2">
    <rect
       x="149.54845"
       y="177.66132"
       width="463.95497"
       height="453.97097"
       id="rect23850" />
    <rect
       x="147.25193"
       y="156.08336"
       width="361.72093"
       height="326.91555"
       id="rect5407" />
  </defs>
  <sodipodi:namedview
     id="base"
     pagecolor="#ffffff"
     bordercolor="#666666"
     borderopacity="1.0"
     inkscape:pageopacity="0.0"
     inkscape:pageshadow="2"
     inkscape:zoom="0.9899495"
     inkscape:cx="354.05846"
     inkscape:cy="190.91883"
     inkscape:document-units="mm"
     inkscape:current-layer="layer1"
     showgrid="false"
     units="px"
     inkscape:window-width="3836"
     inkscape:window-height="2109"
     inkscape:window-x="1920"
     inkscape:window-y="49"
     inkscape:window-maximized="0"
     inkscape:pagecheckerboard="0" />
  <metadata
     id="metadata5">
    <rdf:RDF>
      <cc:Work
         rdf:about="">
        <dc:format>image/svg+xml</dc:format>
        <dc:type
           rdf:resource="http://purl.org/dc/dcmitype/StillImage" />
      </cc:Work>
    </rdf:RDF>
  </metadata>
  <g
     inkscape:label="Layer 1"
     inkscape:groupmode="layer"
     id="layer1"
     transform="translate(0,-164.70832)">
    <path
       id="path21106"
       style="display:inline;fill:#010101;fill-opacity:1;stroke-width:3.65171;stroke-dashoffset:4.49997"
       d="M 250,61.402344 A 188.59697,188.59697 0 0 0 61.402344,250 188.59697,188.59697 0 0 0 250,438.59766 188.59697,188.59697 0 0 0 438.59766,250 188.59697,188.59697 0 0 0 250,61.402344 Z M 132.77734,150.4082 h 135.35547 v 56.86914 h -24.34375 v -32.52343 h -86.66601 v 86.6582 h 33.61133 v 24.3457 H 132.77734 V 162.58203 Z m 75.48828,71.62696 h 147.2168 V 369.25195 H 208.26562 V 235.27148 Z m 26.47852,26.47851 v 94.25977 h 94.25977 v -94.25977 z"
       transform="matrix(0.26458333,0,0,0.26458333,0,164.70832)" />
  </g>
</svg>
