<?xml version="1.0" encoding="UTF-8" standalone="no"?>
<!-- Created with Inkscape (http://www.inkscape.org/) -->

<svg
   width="500"
   height="500"
   viewBox="0 0 132.29166 132.29167"
   version="1.1"
   id="svg8"
   sodipodi:docname="button-options-ps.svg"
   inkscape:version="1.1.1 (3bf5ae0d25, 2021-09-20, custom)"
   xmlns:inkscape="http://www.inkscape.org/namespaces/inkscape"
   xmlns:sodipodi="http://sodipodi.sourceforge.net/DTD/sodipodi-0.dtd"
   xmlns="http://www.w3.org/2000/svg"
   xmlns:svg="http://www.w3.org/2000/svg"
   xmlns:rdf="http://www.w3.org/1999/02/22-rdf-syntax-ns#"
   xmlns:cc="http://creativecommons.org/ns#"
   xmlns:dc="http://purl.org/dc/elements/1.1/">
  <defs
     id="defs2">
    <rect
       x="18.920168"
       y="-58.629632"
       width="468.1622"
       height="102.723"
       id="rect5337" />
  </defs>
  <sodipodi:namedview
     id="base"
     pagecolor="#ffffff"
     bordercolor="#666666"
     borderopacity="1.0"
     inkscape:pageopacity="0.0"
     inkscape:pageshadow="2"
     inkscape:zoom="0.9899495"
     inkscape:cx="185.86807"
     inkscape:cy="215.66757"
     inkscape:document-units="mm"
     inkscape:current-layer="layer1"
     showgrid="true"
     units="px"
     inkscape:window-width="1916"
     inkscape:window-height="1029"
     inkscape:window-x="0"
     inkscape:window-y="49"
     inkscape:window-maximized="1"
     showguides="false"
     inkscape:pagecheckerboard="0">
    <inkscape:grid
       type="xygrid"
       id="grid4988"
       spacingx="66.145832"
       spacingy="66.145832"
       snapvisiblegridlinesonly="true"
       enabled="false" />
  </sodipodi:namedview>
  <metadata
     id="metadata5">
    <rdf:RDF>
      <cc:Work
         rdf:about="">
        <dc:format>image/svg+xml</dc:format>
        <dc:type
           rdf:resource="http://purl.org/dc/dcmitype/StillImage" />
      </cc:Work>
    </rdf:RDF>
  </metadata>
  <g
     inkscape:label="Layer 1"
     inkscape:groupmode="layer"
     id="layer1"
     transform="translate(0,-164.70832)">
    <path
       d="m 1.3738522,195.53844 v -9.95308 q 0,-3.48871 4.3608839,-3.48871 h 8.9782909 q 4.360884,0 4.360884,3.48871 v 9.95308 q 0,3.4887 -4.360884,3.4887 H 5.7347361 q -4.3608839,0 -4.3608839,-3.4887 z m 5.1304517,-0.30783 q 0,0.71826 0.8978293,0.71826 H 13.04563 q 0.897829,0 0.897829,-0.71826 v -9.33742 q 0,-0.71827 -0.897829,-0.71827 H 7.4021332 q -0.8978293,0 -0.8978293,0.71827 z"
       style="font-style:normal;font-variant:normal;font-weight:normal;font-stretch:normal;font-size:85.3333px;line-height:16.1658px;font-family:sans-serif;-inkscape-font-specification:PromptFont;text-align:center;letter-spacing:0px;word-spacing:0px;text-anchor:middle;white-space:pre;display:inline;fill:#000000;fill-opacity:1;stroke:none;stroke-width:0.194386px;stroke-linecap:butt;stroke-linejoin:miter;stroke-opacity:1"
       id="path1503" />
    <path
       d="m 22.665225,199.02714 v -16.93049 h 12.569608 q 4.360884,0 4.360884,3.48871 v 3.92479 q 0,3.48871 -4.360884,3.48871 h -7.439156 v 6.02828 z m 5.130452,-9.10655 h 5.771758 q 0.89783,0 0.89783,-0.71826 v -3.30914 q 0,-0.71827 -0.89783,-0.71827 h -5.771758 z"
       style="font-style:normal;font-variant:normal;font-weight:normal;font-stretch:normal;font-size:85.3333px;line-height:16.1658px;font-family:sans-serif;-inkscape-font-specification:PromptFont;text-align:center;letter-spacing:0px;word-spacing:0px;text-anchor:middle;white-space:pre;fill:#000000;fill-opacity:1;stroke:none;stroke-width:0.194386px;stroke-linecap:butt;stroke-linejoin:miter;stroke-opacity:1"
       id="path1505" />
    <path
       d="m 41.39139,185.17492 v -3.07827 h 18.982675 v 3.07827 h -6.926113 v 13.85222 h -5.130449 v -13.85222 z"
       style="font-style:normal;font-variant:normal;font-weight:normal;font-stretch:normal;font-size:85.3333px;line-height:16.1658px;font-family:sans-serif;-inkscape-font-specification:PromptFont;text-align:center;letter-spacing:0px;word-spacing:0px;text-anchor:middle;white-space:pre;fill:#000000;fill-opacity:1;stroke:none;stroke-width:0.194386px;stroke-linecap:butt;stroke-linejoin:miter;stroke-opacity:1"
       id="path1507" />
    <path
       d="m 62.682784,199.02714 v -16.93049 h 5.130452 v 16.93049 z"
       style="font-style:normal;font-variant:normal;font-weight:normal;font-stretch:normal;font-size:85.3333px;line-height:16.1658px;font-family:sans-serif;-inkscape-font-specification:PromptFont;text-align:center;letter-spacing:0px;word-spacing:0px;text-anchor:middle;white-space:pre;fill:#000000;fill-opacity:1;stroke:none;stroke-width:0.194386px;stroke-linecap:butt;stroke-linejoin:miter;stroke-opacity:1"
       id="path1509" />
    <path
       d="m 71.404555,195.53844 v -9.95308 q 0,-3.48871 4.360884,-3.48871 h 8.978292 q 4.360884,0 4.360884,3.48871 v 9.95308 q 0,3.4887 -4.360884,3.4887 h -8.978292 q -4.360884,0 -4.360884,-3.4887 z m 5.130452,-0.30783 q 0,0.71826 0.89783,0.71826 h 5.643496 q 0.89783,0 0.89783,-0.71826 v -9.33742 q 0,-0.71827 -0.89783,-0.71827 h -5.643496 q -0.89783,0 -0.89783,0.71827 z"
       style="font-style:normal;font-variant:normal;font-weight:normal;font-stretch:normal;font-size:85.3333px;line-height:16.1658px;font-family:sans-serif;-inkscape-font-specification:PromptFont;text-align:center;letter-spacing:0px;word-spacing:0px;text-anchor:middle;white-space:pre;fill:#000000;fill-opacity:1;stroke:none;stroke-width:0.194386px;stroke-linecap:butt;stroke-linejoin:miter;stroke-opacity:1"
       id="path1511" />
    <path
       d="m 92.695928,199.02714 v -16.93049 h 5.515236 l 7.310896,10.1583 v -10.1583 h 5.13045 v 16.93049 h -5.51524 l -7.31089,-10.15829 v 10.15829 z"
       style="font-style:normal;font-variant:normal;font-weight:normal;font-stretch:normal;font-size:85.3333px;line-height:16.1658px;font-family:sans-serif;-inkscape-font-specification:PromptFont;text-align:center;letter-spacing:0px;word-spacing:0px;text-anchor:middle;white-space:pre;fill:#000000;fill-opacity:1;stroke:none;stroke-width:0.194386px;stroke-linecap:butt;stroke-linejoin:miter;stroke-opacity:1"
       id="path1513" />
    <path
       d="m 113.98731,199.02714 v -3.07827 h 10.90221 q 0.89783,0 0.89783,-0.71826 v -2.7961 q 0,-0.71826 -0.89783,-0.71826 h -6.54133 q -4.36088,0 -4.36088,-3.48871 v -2.64218 q 0,-3.48871 4.36088,-3.48871 h 11.287 v 3.07827 h -9.6196 q -0.89783,0 -0.89783,0.71827 v 2.02652 q 0,0.71827 0.89783,0.71827 h 6.54133 q 4.36088,0 4.36088,3.48871 v 3.41175 q 0,3.4887 -4.36088,3.4887 z"
       style="font-style:normal;font-variant:normal;font-weight:normal;font-stretch:normal;font-size:85.3333px;line-height:16.1658px;font-family:sans-serif;-inkscape-font-specification:PromptFont;text-align:center;letter-spacing:0px;word-spacing:0px;text-anchor:middle;white-space:pre;fill:#000000;fill-opacity:1;stroke:none;stroke-width:0.194386px;stroke-linecap:butt;stroke-linejoin:miter;stroke-opacity:1"
       id="path1515" />
    <path
       id="rect1296"
       style="display:inline;fill:#110c00;stroke-width:0.37693"
       d="m 66.145832,207.37265 c 8.566296,0 15.462627,6.89633 15.462627,15.46263 v 43.73435 c 0,8.5663 -6.896331,15.46263 -15.462627,15.46263 -8.566296,0 -15.462627,-6.89633 -15.462627,-15.46263 v -43.73435 c 0,-8.5663 6.896331,-15.46263 15.462627,-15.46263 z" />
  </g>
</svg>
