<?xml version="1.0" encoding="UTF-8" standalone="no"?>
<!-- Created with Inkscape (http://www.inkscape.org/) -->

<svg
   width="500"
   height="500"
   viewBox="0 0 132.29166 132.29167"
   version="1.1"
   id="svg8"
   sodipodi:docname="button-sd-steam.svg"
   inkscape:version="1.2.2 (b0a8486541, 2022-12-01)"
   xmlns:inkscape="http://www.inkscape.org/namespaces/inkscape"
   xmlns:sodipodi="http://sodipodi.sourceforge.net/DTD/sodipodi-0.dtd"
   xmlns="http://www.w3.org/2000/svg"
   xmlns:svg="http://www.w3.org/2000/svg"
   xmlns:rdf="http://www.w3.org/1999/02/22-rdf-syntax-ns#"
   xmlns:cc="http://creativecommons.org/ns#"
   xmlns:dc="http://purl.org/dc/elements/1.1/">
  <defs
     id="defs2" />
  <sodipodi:namedview
     id="base"
     pagecolor="#ffffff"
     bordercolor="#666666"
     borderopacity="1.0"
     inkscape:pageopacity="0.0"
     inkscape:pageshadow="2"
     inkscape:zoom="0.49497475"
     inkscape:cx="158.59395"
     inkscape:cy="349.51278"
     inkscape:document-units="mm"
     inkscape:current-layer="layer1"
     showgrid="true"
     units="px"
     inkscape:window-width="1266"
     inkscape:window-height="2109"
     inkscape:window-x="6410"
     inkscape:window-y="25"
     inkscape:window-maximized="0"
     showguides="false"
     inkscape:pagecheckerboard="0"
     inkscape:showpageshadow="2"
     inkscape:deskcolor="#d1d1d1">
    <inkscape:grid
       type="xygrid"
       id="grid4988"
       spacingx="66.145832"
       spacingy="66.145832"
       snapvisiblegridlinesonly="true"
       enabled="false" />
  </sodipodi:namedview>
  <metadata
     id="metadata5">
    <rdf:RDF>
      <cc:Work
         rdf:about="">
        <dc:format>image/svg+xml</dc:format>
        <dc:type
           rdf:resource="http://purl.org/dc/dcmitype/StillImage" />
      </cc:Work>
    </rdf:RDF>
  </metadata>
  <g
     inkscape:label="Layer 1"
     inkscape:groupmode="layer"
     id="layer1"
     transform="translate(0,-164.70832)">
    <text
       xml:space="preserve"
       style="font-style:normal;font-variant:normal;font-weight:normal;font-stretch:normal;font-size:10.5833px;line-height:6.61458px;font-family:Xolonium;-inkscape-font-specification:Xolonium;text-align:center;letter-spacing:0px;word-spacing:0px;text-anchor:middle;fill:#000000;fill-opacity:1;stroke:none;stroke-width:0.264583px;stroke-linecap:butt;stroke-linejoin:miter;stroke-opacity:1"
       x="52.919361"
       y="223.76813"
       id="text1408" />
    <path
       id="path1053"
       d="m 37.998199,197.3009 c -19.044688,0 -34.5358743,15.05231 -34.5358743,33.55196 0,18.49965 15.4911863,33.55454 34.5358743,33.55454 h 56.295277 c 19.044674,0 34.535864,-15.05224 34.535864,-33.55454 0,-18.50229 -15.49119,-33.55196 -34.535864,-33.55196 h -0.003 z m 0,8.88473 h 56.295277 c 14.051994,0 25.484744,11.06243 25.484744,24.66465 0,13.60221 -11.43275,24.66723 -25.484744,24.66723 h -0.003 -56.292687 c -14.052005,0 -25.484747,-11.06502 -25.484747,-24.66723 0,-13.60222 11.432742,-24.66465 25.484747,-24.66465 z m 0,3.77342 c -11.935341,0 -21.645705,9.37122 -21.645705,20.89381 0,11.52259 9.710364,20.89692 21.645705,20.89692 h 56.295277 c 11.935334,0 21.645694,-9.37433 21.645694,-20.89692 0,-11.52259 -9.71036,-20.89381 -21.645694,-20.89381 h -0.003 z m -7.776268,12.06231 c 1.042459,0 1.965794,0.0845 2.78071,0.25115 0.812268,0.16668 1.59275,0.43637 2.338875,0.8015 v 3.88968 c -1.42875,-0.76993 -2.867774,-1.15651 -4.312399,-1.15651 -0.780521,0 -1.402499,0.12976 -1.865519,0.3917 -0.463021,0.25929 -0.695565,0.62996 -0.695565,1.11415 0,0.48418 0.235459,0.87815 0.706417,1.17977 0.470958,0.30162 1.341272,0.71189 2.608626,1.22783 1.153583,0.48419 2.053024,0.96054 2.695959,1.42885 0.642937,0.46832 1.108813,1.0134 1.402498,1.62988 0.293687,0.61912 0.43925,1.40492 0.43925,2.36006 0,1.62189 -0.574145,2.88644 -1.719791,3.79925 l -0.0026,-0.003 c -1.145643,0.91017 -2.855021,1.36529 -5.130435,1.36529 -1.071561,0 -2.137855,-0.10575 -3.196187,-0.31212 -1.055733,-0.20902 -1.926048,-0.49775 -2.608672,-0.86816 v -3.98477 c 0.878415,0.46831 1.793648,0.81768 2.743501,1.05316 0.952499,0.23548 1.857252,0.34934 2.717147,0.34934 0.799042,0 1.399728,-0.1244 1.804541,-0.37311 0.404812,-0.254 0.611333,-0.61121 0.611333,-1.07952 0,-0.34925 -0.108543,-0.65325 -0.328147,-0.91519 -0.219604,-0.25929 -0.542499,-0.49508 -0.965832,-0.71468 -0.423332,-0.21696 -1.079232,-0.51857 -1.973522,-0.90486 -1.576915,-0.68527 -2.722626,-1.44439 -3.437,-2.28048 -0.71702,-0.83608 -1.071769,-1.86277 -1.071769,-3.0825 0,-1.00541 0.272542,-1.89981 0.814937,-2.68562 0.545041,-0.78581 1.304686,-1.39434 2.280998,-1.8309 0.973665,-0.43391 2.095232,-0.6506 3.362585,-0.6506 z m 7.802624,0.3731 h 13.946436 v 3.73569 h -0.0031 -4.825545 v 13.79813 h -4.31292 v -13.79813 h -4.804875 z m 16.748331,0.003 h 12.091252 v 3.73311 h -7.778854 v 3.28604 h 5.683375 v 3.48713 h -5.683375 v 3.28615 h 7.778854 v 3.73879 H 54.772886 Z m 21.600234,0 h 4.244183 l 6.802173,17.53124 h -4.41317 -0.0026 l -1.36529,-3.61426 h -6.28896 l -1.365293,3.61419 h -4.436938 z m 13.602266,0 h 4.14342 l 4.92683,10.85826 4.950084,-10.85826 h 4.11964 v 17.53128 h -4.02456 v -8.80256 l -4.07159,8.80256 h -1.950254 l -4.04524,-8.80256 v 8.80256 h -4.04833 z m -11.479917,4.61161 -2.098579,5.89473 h 4.170288 0.0026 l -2.071706,-5.89473 -0.0016,0.004 z"
       style="stroke-width:0.264583" />
  </g>
</svg>
