<?xml version="1.0" encoding="UTF-8" standalone="no"?>
<!-- Created with Inkscape (http://www.inkscape.org/) -->

<svg
   width="500"
   height="500"
   viewBox="0 0 132.29166 132.29167"
   version="1.1"
   id="svg8"
   sodipodi:docname="button-hold.svg"
   inkscape:version="1.3.2 (091e20ef0f, 2023-11-25, custom)"
   xmlns:inkscape="http://www.inkscape.org/namespaces/inkscape"
   xmlns:sodipodi="http://sodipodi.sourceforge.net/DTD/sodipodi-0.dtd"
   xmlns="http://www.w3.org/2000/svg"
   xmlns:svg="http://www.w3.org/2000/svg"
   xmlns:rdf="http://www.w3.org/1999/02/22-rdf-syntax-ns#"
   xmlns:cc="http://creativecommons.org/ns#"
   xmlns:dc="http://purl.org/dc/elements/1.1/">
  <defs
     id="defs2">
    <rect
       x="149.54845"
       y="177.66132"
       width="463.95497"
       height="453.97097"
       id="rect23850" />
    <rect
       x="147.25193"
       y="156.08336"
       width="361.72093"
       height="326.91555"
       id="rect5407" />
  </defs>
  <sodipodi:namedview
     id="base"
     pagecolor="#ffffff"
     bordercolor="#666666"
     borderopacity="1.0"
     inkscape:pageopacity="0.0"
     inkscape:pageshadow="2"
     inkscape:zoom="0.73085588"
     inkscape:cx="333.85515"
     inkscape:cy="492.57317"
     inkscape:document-units="mm"
     inkscape:current-layer="layer1"
     showgrid="false"
     units="px"
     inkscape:window-width="1916"
     inkscape:window-height="1156"
     inkscape:window-x="0"
     inkscape:window-y="21"
     inkscape:window-maximized="0"
     inkscape:pagecheckerboard="0"
     inkscape:showpageshadow="2"
     inkscape:deskcolor="#d1d1d1" />
  <metadata
     id="metadata5">
    <rdf:RDF>
      <cc:Work
         rdf:about="">
        <dc:format>image/svg+xml</dc:format>
        <dc:type
           rdf:resource="http://purl.org/dc/dcmitype/StillImage" />
      </cc:Work>
    </rdf:RDF>
  </metadata>
  <g
     inkscape:label="Layer 1"
     inkscape:groupmode="layer"
     id="layer1"
     transform="translate(0,-164.70832)">
    <path
       id="path21106-1"
       style="display:inline;fill:#010101;fill-opacity:1;stroke-width:0.577607;stroke-dashoffset:4.49997"
       d="M 37.04115 194.49978 L 37.04115 199.79093 L 37.04115 260.02912 L 73.470968 260.02912 L 78.762118 260.02912 L 91.982499 260.02912 L 91.982499 225.40797 L 101.65839 225.40797 L 85.371533 197.23243 L 69.086222 225.40797 L 78.762118 225.40797 L 78.762118 254.7545 L 73.470968 254.7545 L 47.625 254.7545 L 47.625 199.79093 L 47.625 194.49978 L 37.04115 194.49978 z M 66.145833 245.08636 C 60.589462 245.08635 55.263173 245.42429 50.27135 246.02325 L 50.27135 252.10815 L 70.824101 252.10815 L 76.115767 252.10815 L 76.115767 245.44396 C 72.893885 245.21045 69.560506 245.08635 66.145833 245.08636 z M 94.629366 248.28823 L 94.629366 262.67598 L 78.761601 262.67598 L 76.115767 262.67598 L 70.824101 262.67598 L 34.394283 262.67598 L 34.394283 249.16208 C 23.310717 252.43301 16.24598 257.38152 16.246037 262.9199 C 16.245936 272.76926 38.587035 280.75399 66.145833 280.75395 C 93.704637 280.75399 116.04573 272.76926 116.04563 262.9199 C 116.04569 256.85761 107.56389 251.51049 94.629366 248.28823 z "
       transform="translate(0)" />
  </g>
</svg>
