<?xml version="1.0" encoding="UTF-8"?>
<svg id="Layer_1" data-name="Layer 1" xmlns="http://www.w3.org/2000/svg" viewBox="0 0 500 500">
  <path d="M356.38,171.03H143.62c-45.11,0-81.81,35.42-81.81,78.97s36.7,78.98,81.81,78.98h212.76c45.11,0,81.82-35.44,81.82-78.98s-36.71-78.97-81.82-78.97Zm-174.52,110.44h-13.34v-36.53l-17.02,36.53h-6.44l-16.94-36.53v36.53h-13.43v-64.32h13.8l19.79,43.07,19.87-43.07h13.71v64.32Zm61.66-52.63h-30.65v14.91h22.55v11.22h-22.55v14.82h30.65v11.68h-44.63v-64.32h44.63v11.69Zm68.64,52.63h-13.53l-26.96-41.59v41.59h-13.98v-64.32h13.61l26.87,41.6v-41.6h13.99v64.32Zm73.15-25.94c0,8.34-2.36,14.98-7.08,19.92-4.73,4.94-11.78,7.41-21.17,7.41s-16.47-2.47-21.25-7.41c-4.79-4.94-7.18-11.58-7.18-19.92v-38.38h13.99v38.56c0,4.66,1.28,8.22,3.86,10.67,2.58,2.46,6.11,3.68,10.58,3.68s7.9-1.22,10.45-3.68c2.54-2.45,3.82-6.01,3.82-10.67v-38.56h13.98v38.38Zm-28.93-132.34H143.62c-71.98,0-130.53,56.89-130.53,126.81s58.55,126.82,130.53,126.82h212.77c71.98,0,130.53-56.89,130.53-126.82s-58.55-126.81-130.53-126.81Zm0,220.03H143.62c-53.11,0-96.32-41.82-96.32-93.23s43.21-93.22,96.32-93.22h212.77c53.11,0,96.32,41.81,96.32,93.22s-43.21,93.23-96.32,93.23Z"/>
</svg>