<?xml version="1.0" encoding="UTF-8"?>
<svg id="Layer_1" data-name="Layer 1" xmlns="http://www.w3.org/2000/svg" viewBox="0 0 500 500">
  <path d="M462.5,157.66H37.51c-19.61,0-35.51,15.89-35.51,35.5v118.89c0,19.61,15.9,35.5,35.51,35.5H462.5c19.61,0,35.5-15.89,35.5-35.5v-118.89c0-19.61-15.89-35.5-35.5-35.5Zm-213.79,58.84h-69.63c-4.02,0-6.02,1.6-6.02,4.81v62.59c0,3.21,2,4.81,6.02,4.81h69.63v20.64h-80.81c-19.49,0-29.23-7.8-29.23-23.39v-66.71c0-15.59,9.74-23.39,29.23-23.39h80.81v20.64Zm112.63,92.85h-34.39v-92.85h-30.95v-20.64h65.34v113.49Z"/>
</svg>