<?xml version="1.0" encoding="UTF-8"?>
<svg id="Layer_1" data-name="Layer 1" xmlns="http://www.w3.org/2000/svg" viewBox="0 0 500 500">
  <path d="M462.5,156.35H37.5c-19.6,0-35.5,15.9-35.5,35.51v118.89c0,19.61,15.9,35.5,35.5,35.5H462.5c19.61,0,35.5-15.89,35.5-35.5v-118.89c0-19.61-15.89-35.51-35.5-35.51Zm-227.11,58.85h-69.64c-4.01,0-6.02,1.6-6.02,4.81v62.59c0,3.21,2.01,4.81,6.02,4.81h69.64v20.63h-80.82c-19.49,0-29.23-7.79-29.23-23.38v-66.71c0-15.59,9.74-23.39,29.23-23.39h80.82v20.64Zm139.27,20.46c0,15.59-9.74,23.38-29.23,23.38h-36.97c-4.01,0-6.02,1.61-6.02,4.82v23.55h72.22v20.63h-106.61v-46.25c0-15.59,9.75-23.38,29.24-23.38h36.96c4.01,0,6.02-1.61,6.02-4.82v-13.58c0-3.21-2.01-4.81-6.02-4.81h-57.6v-20.64h68.78c19.49,0,29.23,7.8,29.23,23.39v17.71Z"/>
</svg>