<?xml version="1.0" encoding="UTF-8"?>
<svg id="Layer_1" data-name="Layer 1" xmlns="http://www.w3.org/2000/svg" viewBox="0 0 500 500">
  <path d="M462.5,155.06H37.51c-19.61,0-35.51,15.89-35.51,35.5v118.89c0,19.61,15.9,35.5,35.51,35.5H462.5c19.61,0,35.5-15.89,35.5-35.5v-118.89c0-19.61-15.89-35.5-35.5-35.5Zm-223.32,128.3c0,15.59-9.75,23.39-29.23,23.39H125.69v-20.64h73.08c4.01,0,6.02-1.6,6.02-4.81v-18.74c0-3.21-2.01-4.82-6.02-4.82h-43.85c-19.48,0-29.23-7.79-29.23-23.38v-17.71c0-15.59,9.75-23.39,29.23-23.39h75.66v20.64h-64.48c-4.01,0-6.02,1.6-6.02,4.81v13.58c0,3.21,2.01,4.82,6.02,4.82h43.85c19.48,0,29.23,7.79,29.23,23.38v22.87Zm134.11,23.39h-104.88v-113.49h34.39v92.85h70.49v20.64Z"/>
</svg>