<?xml version="1.0" encoding="UTF-8"?>
<svg id="Layer_1" data-name="Layer 1" xmlns="http://www.w3.org/2000/svg" viewBox="0 0 500 500">
  <path d="M462.49,155.06H37.5c-19.61,0-35.5,15.89-35.5,35.5v118.89c0,19.61,15.89,35.5,35.5,35.5H462.49c19.61,0,35.51-15.89,35.51-35.5v-118.89c0-19.61-15.9-35.5-35.51-35.5Zm-229.69,128.3c0,15.59-9.74,23.39-29.23,23.39H119.32v-20.64h73.07c4.02,0,6.02-1.6,6.02-4.81v-18.74c0-3.21-2-4.82-6.02-4.82h-43.84c-19.49,0-29.23-7.79-29.23-23.38v-17.71c0-15.59,9.74-23.39,29.23-23.39h75.66v20.64h-64.48c-4.02,0-6.02,1.6-6.02,4.81v13.58c0,3.21,2,4.82,6.02,4.82h43.84c19.49,0,29.23,7.79,29.23,23.38v22.87Zm110.73,23.39l-28.37-42.99h-18.74v42.99h-34.39v-113.49h84.26c19.48,0,29.23,7.8,29.23,23.39v23.73c0,13.75-7.74,21.55-23.22,23.38l28.37,42.99h-37.14Zm-8.42-92.85h-38.69v29.23h38.69c4.01,0,6.02-1.61,6.02-4.82v-19.6c0-3.21-2.01-4.81-6.02-4.81Z"/>
</svg>