<?xml version="1.0" encoding="UTF-8"?>
<svg id="Layer_1" data-name="Layer 1" xmlns="http://www.w3.org/2000/svg" viewBox="0 0 500 500">
  <path d="M250,5.7C115.08,5.7,5.7,115.08,5.7,250s109.38,244.3,244.3,244.3,244.3-109.38,244.3-244.3S384.92,5.7,250,5.7Zm-25.11,400.25c-74.65-12.05-131.86-76.94-131.86-154.92,0-19.9,3.73-38.92,10.5-56.44l41.98,24.5c-2.89,9.8-4.45,20.17-4.45,30.91,0,51.53,35.77,94.7,83.83,106.04v49.91Zm-54.38-230.44l-41.6-24.28c28.82-34.91,72.41-57.18,121.09-57.18s93.57,22.96,122.35,58.76l-41.9,23.74c-19.92-21.81-48.58-35.49-80.45-35.49s-59.62,13.26-79.49,34.45Zm104.61,230.44v-49.91c48.06-11.34,83.83-54.51,83.83-106.04,0-10.23-1.41-20.16-4.07-29.54l42.31-23.98c6.33,16.99,9.78,35.36,9.78,54.55,0,78-57.2,142.87-131.85,154.92Z"/>
</svg>