<?xml version="1.0" encoding="UTF-8"?>
<svg id="Layer_1" data-name="Layer 1" xmlns="http://www.w3.org/2000/svg" viewBox="0 0 322.74 478.7">
  <defs>
    <style>
      .cls-1 {
        fill: none;
        stroke: #231f20;
        stroke-miterlimit: 10;
      }

      .cls-2 {
        fill: #fff;
      }
    </style>
  </defs>
  <path d="M300.19,71.22L38.29,1.05C18.97-4.12,0,10.44,0,30.44V401.85c36.2,99.46,285.51,105.44,322.74,0V100.6c0-13.77-9.25-25.82-22.55-29.38Zm-156.54,112.45h124.86v20.25h-45.56v91.11h-33.74v-91.11h-45.56v-20.25Zm-89.42,0h33.74v91.12h69.18v20.24H54.23v-111.36Zm195.34,245.94c-23.28,10.38-53.62,16.09-85.4,16.09h-.02c-32.67,0-64.35-5.96-89.21-16.77-20.56-8.94-35.21-20.83-41.9-33.83v-68.93l256.63,69.35h.03c-8.18,16.94-26.01,27.81-40.13,34.09Z"/>
  <polygon class="cls-2" points="289.7 395.52 289.7 395.53 289.67 395.52 33.04 326.17 33.04 326.16 289.7 395.52"/>
  <polyline class="cls-1" points="289.74 395.54 289.7 395.53 289.67 395.52 33.04 326.17 33 326.16"/>
</svg>