<?xml version="1.0" encoding="UTF-8"?>
<svg id="Layer_1" data-name="Layer 1" xmlns="http://www.w3.org/2000/svg" viewBox="0 0 500 500">
  <path d="M462.5,155.05H37.51c-19.61,0-35.51,15.9-35.51,35.51v118.89c0,19.61,15.9,35.5,35.51,35.5H462.5c19.61,0,35.5-15.89,35.5-35.5v-118.89c0-19.61-15.89-35.51-35.5-35.51ZM102.82,305.04v-113.48h42.13l35.25,79.27,35.25-79.27h42.13v113.48h-34.39v-59.84l-26.65,59.84h-32.67l-26.65-59.84v59.84h-34.39Zm187.42,0v-20.63h62.76c4.01,0,6.02-1.6,6.02-4.81v-18.74c0-3.21-2.01-4.81-6.02-4.81h-47.29v-20.63h47.29c4.01,0,6.02-1.6,6.02-4.81v-13.58c0-3.21-2.01-4.81-6.02-4.81h-62.76v-20.63h73.94c19.49,0,29.23,7.8,29.23,23.38v9.46c0,9.97-4.07,16.79-12.21,20.46,8.14,3.67,12.21,10.49,12.21,20.46v16.33c0,15.59-9.74,23.38-29.23,23.38h-73.94Z"/>
</svg>