<?xml version="1.0" encoding="utf-8"?>
<svg viewBox="0 0 500 500" xmlns="http://www.w3.org/2000/svg">
  <defs>
    <rect x="18.920168" y="-58.629632" width="468.1622" height="102.723" id="rect5337"/>
  </defs>
  <path d="M 176.905 412.107 C 159.895 404.747 148.885 387.997 148.885 369.467 L 148.885 81.107 C 148.885 50.187 179.325 28.457 208.575 38.507 L 319.765 76.727 C 338.525 83.177 351.115 100.827 351.115 120.657 L 351.115 418.877 C 351.115 451.277 317.925 473.087 288.185 460.227 L 176.895 412.107 L 176.905 412.107 Z M 192.094 284.194 L 248.839 231.173 L 250.968 200.257 L 221.651 213.545 L 192.094 284.194 Z M 169.308 213.519 L 187.498 262.063 L 198.866 211.294 L 182.998 193.645 L 169.308 213.518 L 169.308 213.519 Z M 244.292 288.619 L 262.481 288.586 L 280.671 295.165 L 291.991 304.067 L 300.892 317.258 L 303.021 299.616 L 303.021 284.135 L 298.183 275.36 L 293.346 266.459 L 289.137 262.089 L 330.692 240.03 L 264.804 182.615 L 278.397 235.624 L 194.422 306.448 L 194.419 317.385 L 244.292 288.619 Z" style=""/>
</svg>