<?xml version="1.0" encoding="utf-8"?>
<svg viewBox="0 0 500 500" xmlns="http://www.w3.org/2000/svg">
  <defs>
    <rect x="18.920168" y="-58.629632" width="468.1622" height="102.723" id="rect5337"/>
  </defs>
  <path d="M 323.105 412.107 L 211.815 460.227 C 182.075 473.087 148.885 451.277 148.885 418.877 L 148.885 120.657 C 148.885 100.827 161.475 83.177 180.235 76.727 L 291.425 38.507 C 320.675 28.457 351.115 50.187 351.115 81.107 L 351.115 369.467 C 351.115 387.997 340.105 404.747 323.095 412.107 Z M 322.408 213.277 C 319.354 214.441 316.047 215.081 312.586 215.081 L 312.586 307.807 C 312.586 313.63 307.848 318.368 302.027 318.368 L 192.197 318.368 C 186.372 318.368 181.633 313.63 181.633 307.807 L 181.633 201.466 C 181.633 193.721 187.938 187.42 195.685 187.42 L 284.92 187.42 C 284.92 183.959 285.56 180.652 286.725 177.597 L 195.685 177.597 C 182.522 177.597 171.81 188.305 171.81 201.466 L 171.81 307.807 C 171.81 319.047 180.955 328.189 192.197 328.189 L 302.027 328.189 C 313.264 328.189 322.408 319.047 322.408 307.807 Z M 328.19 187.42 C 328.19 178.799 321.207 171.811 312.586 171.811 C 303.965 171.811 296.976 178.802 296.976 187.42 C 296.976 196.037 303.965 203.026 312.586 203.026 C 321.202 203.026 328.19 196.042 328.19 187.42 Z"/>
</svg>