<?xml version="1.0" encoding="UTF-8"?>
<svg id="Layer_1" data-name="Layer 1" xmlns="http://www.w3.org/2000/svg" viewBox="0 0 500 500">
  <path d="M462.5,155.05H37.51c-19.61,0-35.51,15.9-35.51,35.51v118.89c0,19.61,15.9,35.5,35.51,35.5H462.5c19.61,0,35.5-15.89,35.5-35.5v-118.89c0-19.61-15.89-35.51-35.5-35.51ZM164.59,293.05h-24.77v-86.1h24.77v86.1Zm48.9,27.58h-24.77V179.37h24.77v141.26Zm48.9-22.25h-24.77v-96.76h24.77v96.76Zm48.9-13.43h-24.77v-69.89h24.77v69.89Zm48.9-12.18h-24.77v-45.53h24.77v45.53Z"/>
</svg>