<?xml version="1.0" encoding="UTF-8"?>
<svg id="Layer_1" data-name="Layer 1" xmlns="http://www.w3.org/2000/svg" viewBox="0 0 500 500">
  <path d="M443.94,91.13H56.06c-29.86,0-54.06,24.2-54.06,54.06v209.62c0,29.86,24.2,54.06,54.06,54.06H443.94c29.86,0,54.06-24.2,54.06-54.06V145.19c0-29.86-24.2-54.06-54.06-54.06Zm-173.85,69.98h46.94v24.05h-46.94v-24.05Zm0,76.86h46.94v24.05h-46.94v-24.05Zm-87.12-76.86h46.94v24.05h-46.94v-24.05Zm0,76.86h46.94v24.05h-46.94v-24.05Zm-87.12-76.86h46.94v24.05h-46.94v-24.05Zm0,76.86h46.94v24.05h-46.94v-24.05Zm281.23,100.92H125.48v-24.05h251.6v24.05Zm27.07-76.87h-46.94v-24.05h46.94v24.05Zm0-76.86h-46.94v-24.05h46.94v24.05Z"/>
</svg>