<?xml version="1.0" encoding="UTF-8"?>
<svg id="Layer_1" data-name="Layer 1" xmlns="http://www.w3.org/2000/svg" viewBox="0 0 500 500">
  <path d="M262.35,227.45h-24.17v18.25h24.17c2.5,0,3.76-1,3.76-3v-12.25c0-2-1.26-3-3.76-3Zm89.13,0h-24.16v14.5h24.16c2.51,0,3.76-1.01,3.76-3.01v-8.49c0-2-1.25-3-3.76-3Zm1.08,27.38h-25.24v17.72h25.24c2.5,0,3.75-1,3.75-3v-11.71c0-2-1.25-3.01-3.75-3.01Zm0,0h-25.24v17.72h25.24c2.5,0,3.75-1,3.75-3v-11.71c0-2-1.25-3.01-3.75-3.01Zm-1.08-27.38h-24.16v14.5h24.16c2.51,0,3.76-1.01,3.76-3.01v-8.49c0-2-1.25-3-3.76-3Zm-89.13,0h-24.17v18.25h24.17c2.5,0,3.76-1,3.76-3v-12.25c0-2-1.26-3-3.76-3Zm0,0h-24.17v18.25h24.17c2.5,0,3.76-1,3.76-3v-12.25c0-2-1.26-3-3.76-3Zm89.13,0h-24.16v14.5h24.16c2.51,0,3.76-1.01,3.76-3.01v-8.49c0-2-1.25-3-3.76-3Zm1.08,27.38h-25.24v17.72h25.24c2.5,0,3.75-1,3.75-3v-11.71c0-2-1.25-3.01-3.75-3.01Zm92.35-27.38h-23.62c-2.51,0-3.76,1-3.76,3v39.1c0,2,1.25,3,3.76,3h23.62c2.51,0,3.76-1,3.76-3v-39.1c0-2-1.25-3-3.76-3Zm0,0h-23.62c-2.51,0-3.76,1-3.76,3v39.1c0,2,1.25,3,3.76,3h23.62c2.51,0,3.76-1,3.76-3v-39.1c0-2-1.25-3-3.76-3Zm-92.35,27.38h-25.24v17.72h25.24c2.5,0,3.75-1,3.75-3v-11.71c0-2-1.25-3.01-3.75-3.01Zm-1.08-27.38h-24.16v14.5h24.16c2.51,0,3.76-1.01,3.76-3.01v-8.49c0-2-1.25-3-3.76-3Zm-89.13,0h-24.17v18.25h24.17c2.5,0,3.76-1,3.76-3v-12.25c0-2-1.26-3-3.76-3Zm0,0h-24.17v18.25h24.17c2.5,0,3.76-1,3.76-3v-12.25c0-2-1.26-3-3.76-3Zm89.13,0h-24.16v14.5h24.16c2.51,0,3.76-1.01,3.76-3.01v-8.49c0-2-1.25-3-3.76-3Zm1.08,27.38h-25.24v17.72h25.24c2.5,0,3.75-1,3.75-3v-11.71c0-2-1.25-3.01-3.75-3.01Zm92.35-27.38h-23.62c-2.51,0-3.76,1-3.76,3v39.1c0,2,1.25,3,3.76,3h23.62c2.51,0,3.76-1,3.76-3v-39.1c0-2-1.25-3-3.76-3Zm0,0h-23.62c-2.51,0-3.76,1-3.76,3v39.1c0,2,1.25,3,3.76,3h23.62c2.51,0,3.76-1,3.76-3v-39.1c0-2-1.25-3-3.76-3Zm-92.35,27.38h-25.24v17.72h25.24c2.5,0,3.75-1,3.75-3v-11.71c0-2-1.25-3.01-3.75-3.01Zm-1.08-27.38h-24.16v14.5h24.16c2.51,0,3.76-1.01,3.76-3.01v-8.49c0-2-1.25-3-3.76-3Zm-89.13,0h-24.17v18.25h24.17c2.5,0,3.76-1,3.76-3v-12.25c0-2-1.26-3-3.76-3Zm0,0h-24.17v18.25h24.17c2.5,0,3.76-1,3.76-3v-12.25c0-2-1.26-3-3.76-3Zm89.13,0h-24.16v14.5h24.16c2.51,0,3.76-1.01,3.76-3.01v-8.49c0-2-1.25-3-3.76-3Zm1.08,27.38h-25.24v17.72h25.24c2.5,0,3.75-1,3.75-3v-11.71c0-2-1.25-3.01-3.75-3.01Zm92.35-27.38h-23.62c-2.51,0-3.76,1-3.76,3v39.1c0,2,1.25,3,3.76,3h23.62c2.51,0,3.76-1,3.76-3v-39.1c0-2-1.25-3-3.76-3Zm0,0h-23.62c-2.51,0-3.76,1-3.76,3v39.1c0,2,1.25,3,3.76,3h23.62c2.51,0,3.76-1,3.76-3v-39.1c0-2-1.25-3-3.76-3Zm-92.35,27.38h-25.24v17.72h25.24c2.5,0,3.75-1,3.75-3v-11.71c0-2-1.25-3.01-3.75-3.01Zm-1.08-27.38h-24.16v14.5h24.16c2.51,0,3.76-1.01,3.76-3.01v-8.49c0-2-1.25-3-3.76-3Zm-89.13,0h-24.17v18.25h24.17c2.5,0,3.76-1,3.76-3v-12.25c0-2-1.26-3-3.76-3Zm0,0h-24.17v18.25h24.17c2.5,0,3.76-1,3.76-3v-12.25c0-2-1.26-3-3.76-3Zm89.13,0h-24.16v14.5h24.16c2.51,0,3.76-1.01,3.76-3.01v-8.49c0-2-1.25-3-3.76-3Zm1.08,27.38h-25.24v17.72h25.24c2.5,0,3.75-1,3.75-3v-11.71c0-2-1.25-3.01-3.75-3.01Zm92.35-27.38h-23.62c-2.51,0-3.76,1-3.76,3v39.1c0,2,1.25,3,3.76,3h23.62c2.51,0,3.76-1,3.76-3v-39.1c0-2-1.25-3-3.76-3Zm0,0h-23.62c-2.51,0-3.76,1-3.76,3v39.1c0,2,1.25,3,3.76,3h23.62c2.51,0,3.76-1,3.76-3v-39.1c0-2-1.25-3-3.76-3Zm-92.35,27.38h-25.24v17.72h25.24c2.5,0,3.75-1,3.75-3v-11.71c0-2-1.25-3.01-3.75-3.01Zm-1.08-27.38h-24.16v14.5h24.16c2.51,0,3.76-1.01,3.76-3.01v-8.49c0-2-1.25-3-3.76-3Zm-89.13,0h-24.17v18.25h24.17c2.5,0,3.76-1,3.76-3v-12.25c0-2-1.26-3-3.76-3Zm0,0h-24.17v18.25h24.17c2.5,0,3.76-1,3.76-3v-12.25c0-2-1.26-3-3.76-3Zm89.13,0h-24.16v14.5h24.16c2.51,0,3.76-1.01,3.76-3.01v-8.49c0-2-1.25-3-3.76-3Zm1.08,27.38h-25.24v17.72h25.24c2.5,0,3.75-1,3.75-3v-11.71c0-2-1.25-3.01-3.75-3.01Zm92.35-27.38h-23.62c-2.51,0-3.76,1-3.76,3v39.1c0,2,1.25,3,3.76,3h23.62c2.51,0,3.76-1,3.76-3v-39.1c0-2-1.25-3-3.76-3Zm0,0h-23.62c-2.51,0-3.76,1-3.76,3v39.1c0,2,1.25,3,3.76,3h23.62c2.51,0,3.76-1,3.76-3v-39.1c0-2-1.25-3-3.76-3Zm-92.35,27.38h-25.24v17.72h25.24c2.5,0,3.75-1,3.75-3v-11.71c0-2-1.25-3.01-3.75-3.01Zm-1.08-27.38h-24.16v14.5h24.16c2.51,0,3.76-1.01,3.76-3.01v-8.49c0-2-1.25-3-3.76-3Zm-89.13,0h-24.17v18.25h24.17c2.5,0,3.76-1,3.76-3v-12.25c0-2-1.26-3-3.76-3Zm0,0h-24.17v18.25h24.17c2.5,0,3.76-1,3.76-3v-12.25c0-2-1.26-3-3.76-3Zm89.13,0h-24.16v14.5h24.16c2.51,0,3.76-1.01,3.76-3.01v-8.49c0-2-1.25-3-3.76-3Zm1.08,27.38h-25.24v17.72h25.24c2.5,0,3.75-1,3.75-3v-11.71c0-2-1.25-3.01-3.75-3.01Zm92.35-27.38h-23.62c-2.51,0-3.76,1-3.76,3v39.1c0,2,1.25,3,3.76,3h23.62c2.51,0,3.76-1,3.76-3v-39.1c0-2-1.25-3-3.76-3Zm0,0h-23.62c-2.51,0-3.76,1-3.76,3v39.1c0,2,1.25,3,3.76,3h23.62c2.51,0,3.76-1,3.76-3v-39.1c0-2-1.25-3-3.76-3Zm-92.35,27.38h-25.24v17.72h25.24c2.5,0,3.75-1,3.75-3v-11.71c0-2-1.25-3.01-3.75-3.01Zm-1.08-27.38h-24.16v14.5h24.16c2.51,0,3.76-1.01,3.76-3.01v-8.49c0-2-1.25-3-3.76-3Zm-89.13,0h-24.17v18.25h24.17c2.5,0,3.76-1,3.76-3v-12.25c0-2-1.26-3-3.76-3Zm0,0h-24.17v18.25h24.17c2.5,0,3.76-1,3.76-3v-12.25c0-2-1.26-3-3.76-3Zm89.13,0h-24.16v14.5h24.16c2.51,0,3.76-1.01,3.76-3.01v-8.49c0-2-1.25-3-3.76-3Zm1.08,27.38h-25.24v17.72h25.24c2.5,0,3.75-1,3.75-3v-11.71c0-2-1.25-3.01-3.75-3.01Zm92.35-27.38h-23.62c-2.51,0-3.76,1-3.76,3v39.1c0,2,1.25,3,3.76,3h23.62c2.51,0,3.76-1,3.76-3v-39.1c0-2-1.25-3-3.76-3Zm0,0h-23.62c-2.51,0-3.76,1-3.76,3v39.1c0,2,1.25,3,3.76,3h23.62c2.51,0,3.76-1,3.76-3v-39.1c0-2-1.25-3-3.76-3Zm-92.35,27.38h-25.24v17.72h25.24c2.5,0,3.75-1,3.75-3v-11.71c0-2-1.25-3.01-3.75-3.01Zm-1.08-27.38h-24.16v14.5h24.16c2.51,0,3.76-1.01,3.76-3.01v-8.49c0-2-1.25-3-3.76-3Zm-89.13,0h-24.17v18.25h24.17c2.5,0,3.76-1,3.76-3v-12.25c0-2-1.26-3-3.76-3Zm0,0h-24.17v18.25h24.17c2.5,0,3.76-1,3.76-3v-12.25c0-2-1.26-3-3.76-3Zm89.13,0h-24.16v14.5h24.16c2.51,0,3.76-1.01,3.76-3.01v-8.49c0-2-1.25-3-3.76-3Zm1.08,27.38h-25.24v17.72h25.24c2.5,0,3.75-1,3.75-3v-11.71c0-2-1.25-3.01-3.75-3.01Zm92.35-27.38h-23.62c-2.51,0-3.76,1-3.76,3v39.1c0,2,1.25,3,3.76,3h23.62c2.51,0,3.76-1,3.76-3v-39.1c0-2-1.25-3-3.76-3Zm0,0h-23.62c-2.51,0-3.76,1-3.76,3v39.1c0,2,1.25,3,3.76,3h23.62c2.51,0,3.76-1,3.76-3v-39.1c0-2-1.25-3-3.76-3Zm-92.35,27.38h-25.24v17.72h25.24c2.5,0,3.75-1,3.75-3v-11.71c0-2-1.25-3.01-3.75-3.01Zm-1.08-27.38h-24.16v14.5h24.16c2.51,0,3.76-1.01,3.76-3.01v-8.49c0-2-1.25-3-3.76-3Zm-89.13,0h-24.17v18.25h24.17c2.5,0,3.76-1,3.76-3v-12.25c0-2-1.26-3-3.76-3Zm0,0h-24.17v18.25h24.17c2.5,0,3.76-1,3.76-3v-12.25c0-2-1.26-3-3.76-3Zm89.13,0h-24.16v14.5h24.16c2.51,0,3.76-1.01,3.76-3.01v-8.49c0-2-1.25-3-3.76-3Zm1.08,27.38h-25.24v17.72h25.24c2.5,0,3.75-1,3.75-3v-11.71c0-2-1.25-3.01-3.75-3.01Zm92.35-27.38h-23.62c-2.51,0-3.76,1-3.76,3v39.1c0,2,1.25,3,3.76,3h23.62c2.51,0,3.76-1,3.76-3v-39.1c0-2-1.25-3-3.76-3Zm0,0h-23.62c-2.51,0-3.76,1-3.76,3v39.1c0,2,1.25,3,3.76,3h23.62c2.51,0,3.76-1,3.76-3v-39.1c0-2-1.25-3-3.76-3Zm-92.35,27.38h-25.24v17.72h25.24c2.5,0,3.75-1,3.75-3v-11.71c0-2-1.25-3.01-3.75-3.01Zm-1.08-27.38h-24.16v14.5h24.16c2.51,0,3.76-1.01,3.76-3.01v-8.49c0-2-1.25-3-3.76-3Zm-89.13,0h-24.17v18.25h24.17c2.5,0,3.76-1,3.76-3v-12.25c0-2-1.26-3-3.76-3Zm0,0h-24.17v18.25h24.17c2.5,0,3.76-1,3.76-3v-12.25c0-2-1.26-3-3.76-3Zm89.13,0h-24.16v14.5h24.16c2.51,0,3.76-1.01,3.76-3.01v-8.49c0-2-1.25-3-3.76-3Zm1.08,27.38h-25.24v17.72h25.24c2.5,0,3.75-1,3.75-3v-11.71c0-2-1.25-3.01-3.75-3.01Zm92.35-27.38h-23.62c-2.51,0-3.76,1-3.76,3v39.1c0,2,1.25,3,3.76,3h23.62c2.51,0,3.76-1,3.76-3v-39.1c0-2-1.25-3-3.76-3Zm0,0h-23.62c-2.51,0-3.76,1-3.76,3v39.1c0,2,1.25,3,3.76,3h23.62c2.51,0,3.76-1,3.76-3v-39.1c0-2-1.25-3-3.76-3Zm-92.35,27.38h-25.24v17.72h25.24c2.5,0,3.75-1,3.75-3v-11.71c0-2-1.25-3.01-3.75-3.01Zm-1.08-27.38h-24.16v14.5h24.16c2.51,0,3.76-1.01,3.76-3.01v-8.49c0-2-1.25-3-3.76-3Zm-89.13,0h-24.17v18.25h24.17c2.5,0,3.76-1,3.76-3v-12.25c0-2-1.26-3-3.76-3Zm0,0h-24.17v18.25h24.17c2.5,0,3.76-1,3.76-3v-12.25c0-2-1.26-3-3.76-3Zm89.13,0h-24.16v14.5h24.16c2.51,0,3.76-1.01,3.76-3.01v-8.49c0-2-1.25-3-3.76-3Zm1.08,27.38h-25.24v17.72h25.24c2.5,0,3.75-1,3.75-3v-11.71c0-2-1.25-3.01-3.75-3.01Zm92.35-27.38h-23.62c-2.51,0-3.76,1-3.76,3v39.1c0,2,1.25,3,3.76,3h23.62c2.51,0,3.76-1,3.76-3v-39.1c0-2-1.25-3-3.76-3Zm0,0h-23.62c-2.51,0-3.76,1-3.76,3v39.1c0,2,1.25,3,3.76,3h23.62c2.51,0,3.76-1,3.76-3v-39.1c0-2-1.25-3-3.76-3Zm-92.35,27.38h-25.24v17.72h25.24c2.5,0,3.75-1,3.75-3v-11.71c0-2-1.25-3.01-3.75-3.01Zm-1.08-27.38h-24.16v14.5h24.16c2.51,0,3.76-1.01,3.76-3.01v-8.49c0-2-1.25-3-3.76-3Zm-89.13,0h-24.17v18.25h24.17c2.5,0,3.76-1,3.76-3v-12.25c0-2-1.26-3-3.76-3Zm0,0h-24.17v18.25h24.17c2.5,0,3.76-1,3.76-3v-12.25c0-2-1.26-3-3.76-3Zm89.13,0h-24.16v14.5h24.16c2.51,0,3.76-1.01,3.76-3.01v-8.49c0-2-1.25-3-3.76-3Zm1.08,27.38h-25.24v17.72h25.24c2.5,0,3.75-1,3.75-3v-11.71c0-2-1.25-3.01-3.75-3.01Zm92.35-27.38h-23.62c-2.51,0-3.76,1-3.76,3v39.1c0,2,1.25,3,3.76,3h23.62c2.51,0,3.76-1,3.76-3v-39.1c0-2-1.25-3-3.76-3Zm0,0h-23.62c-2.51,0-3.76,1-3.76,3v39.1c0,2,1.25,3,3.76,3h23.62c2.51,0,3.76-1,3.76-3v-39.1c0-2-1.25-3-3.76-3Zm-92.35,27.38h-25.24v17.72h25.24c2.5,0,3.75-1,3.75-3v-11.71c0-2-1.25-3.01-3.75-3.01Zm2.68-15.89v-8.49c0-2-1.25-3-3.76-3h-24.16v14.5h24.16c2.51,0,3.76-1.01,3.76-3.01Zm-92.89-11.49h-24.17v18.25h24.17c2.5,0,3.76-1,3.76-3v-12.25c0-2-1.26-3-3.76-3Zm200.14-67.19H37.5c-19.61,0-35.5,15.9-35.5,35.51v118.89c0,19.61,15.89,35.5,35.5,35.5H462.49c19.61,0,35.51-15.89,35.51-35.5v-118.89c0-19.61-15.9-35.51-35.51-35.51ZM109.31,227.45h-28.99v57.99h-21.48v-57.99H29.84v-12.89H109.31v12.89Zm88.07,43.38c0,9.74-6.09,14.61-18.26,14.61h-37.59c-12.17,0-18.25-4.87-18.25-14.61v-56.27h21.47v54.99c0,2,1.26,3,3.76,3h23.63c2.5,0,3.76-1,3.76-3v-54.99h21.48v56.27Zm70.23,14.61l-17.72-26.85h-11.71v26.85h-21.47v-70.88h52.62c12.17,0,18.25,4.87,18.25,14.61v14.82c0,8.59-4.83,13.46-14.49,14.6l17.72,26.85h-23.2Zm110.18-14.61c0,9.74-6.08,14.61-18.25,14.61h-53.7v-70.88h52.62c12.17,0,18.26,4.87,18.26,14.61v6.22c0,6.02-2.33,10.17-6.98,12.46,5.37,2.15,8.05,6.48,8.05,13v9.98Zm92.36,0c0,9.74-6.09,14.61-18.26,14.61h-37.58c-12.18,0-18.26-4.87-18.26-14.61v-41.66c0-9.74,6.08-14.61,18.26-14.61h37.58c12.17,0,18.26,4.87,18.26,14.61v41.66Zm-25.24-43.38h-23.62c-2.51,0-3.76,1-3.76,3v39.1c0,2,1.25,3,3.76,3h23.62c2.51,0,3.76-1,3.76-3v-39.1c0-2-1.25-3-3.76-3Zm-92.35,27.38h-25.24v17.72h25.24c2.5,0,3.75-1,3.75-3v-11.71c0-2-1.25-3.01-3.75-3.01Zm2.68-15.89v-8.49c0-2-1.25-3-3.76-3h-24.16v14.5h24.16c2.51,0,3.76-1.01,3.76-3.01Zm-92.89-11.49h-24.17v18.25h24.17c2.5,0,3.76-1,3.76-3v-12.25c0-2-1.26-3-3.76-3Zm0,0h-24.17v18.25h24.17c2.5,0,3.76-1,3.76-3v-12.25c0-2-1.26-3-3.76-3Zm89.13,0h-24.16v14.5h24.16c2.51,0,3.76-1.01,3.76-3.01v-8.49c0-2-1.25-3-3.76-3Zm1.08,27.38h-25.24v17.72h25.24c2.5,0,3.75-1,3.75-3v-11.71c0-2-1.25-3.01-3.75-3.01Zm92.35-27.38h-23.62c-2.51,0-3.76,1-3.76,3v39.1c0,2,1.25,3,3.76,3h23.62c2.51,0,3.76-1,3.76-3v-39.1c0-2-1.25-3-3.76-3Zm0,0h-23.62c-2.51,0-3.76,1-3.76,3v39.1c0,2,1.25,3,3.76,3h23.62c2.51,0,3.76-1,3.76-3v-39.1c0-2-1.25-3-3.76-3Zm-92.35,27.38h-25.24v17.72h25.24c2.5,0,3.75-1,3.75-3v-11.71c0-2-1.25-3.01-3.75-3.01Zm-1.08-27.38h-24.16v14.5h24.16c2.51,0,3.76-1.01,3.76-3.01v-8.49c0-2-1.25-3-3.76-3Zm-89.13,0h-24.17v18.25h24.17c2.5,0,3.76-1,3.76-3v-12.25c0-2-1.26-3-3.76-3Zm0,0h-24.17v18.25h24.17c2.5,0,3.76-1,3.76-3v-12.25c0-2-1.26-3-3.76-3Zm89.13,0h-24.16v14.5h24.16c2.51,0,3.76-1.01,3.76-3.01v-8.49c0-2-1.25-3-3.76-3Zm1.08,27.38h-25.24v17.72h25.24c2.5,0,3.75-1,3.75-3v-11.71c0-2-1.25-3.01-3.75-3.01Zm92.35-27.38h-23.62c-2.51,0-3.76,1-3.76,3v39.1c0,2,1.25,3,3.76,3h23.62c2.51,0,3.76-1,3.76-3v-39.1c0-2-1.25-3-3.76-3Zm0,0h-23.62c-2.51,0-3.76,1-3.76,3v39.1c0,2,1.25,3,3.76,3h23.62c2.51,0,3.76-1,3.76-3v-39.1c0-2-1.25-3-3.76-3Zm-92.35,27.38h-25.24v17.72h25.24c2.5,0,3.75-1,3.75-3v-11.71c0-2-1.25-3.01-3.75-3.01Zm-1.08-27.38h-24.16v14.5h24.16c2.51,0,3.76-1.01,3.76-3.01v-8.49c0-2-1.25-3-3.76-3Zm-89.13,0h-24.17v18.25h24.17c2.5,0,3.76-1,3.76-3v-12.25c0-2-1.26-3-3.76-3Zm0,0h-24.17v18.25h24.17c2.5,0,3.76-1,3.76-3v-12.25c0-2-1.26-3-3.76-3Zm89.13,0h-24.16v14.5h24.16c2.51,0,3.76-1.01,3.76-3.01v-8.49c0-2-1.25-3-3.76-3Zm1.08,27.38h-25.24v17.72h25.24c2.5,0,3.75-1,3.75-3v-11.71c0-2-1.25-3.01-3.75-3.01Zm92.35-27.38h-23.62c-2.51,0-3.76,1-3.76,3v39.1c0,2,1.25,3,3.76,3h23.62c2.51,0,3.76-1,3.76-3v-39.1c0-2-1.25-3-3.76-3Zm0,0h-23.62c-2.51,0-3.76,1-3.76,3v39.1c0,2,1.25,3,3.76,3h23.62c2.51,0,3.76-1,3.76-3v-39.1c0-2-1.25-3-3.76-3Zm-92.35,27.38h-25.24v17.72h25.24c2.5,0,3.75-1,3.75-3v-11.71c0-2-1.25-3.01-3.75-3.01Zm-1.08-27.38h-24.16v14.5h24.16c2.51,0,3.76-1.01,3.76-3.01v-8.49c0-2-1.25-3-3.76-3Zm-89.13,0h-24.17v18.25h24.17c2.5,0,3.76-1,3.76-3v-12.25c0-2-1.26-3-3.76-3Zm0,0h-24.17v18.25h24.17c2.5,0,3.76-1,3.76-3v-12.25c0-2-1.26-3-3.76-3Zm89.13,0h-24.16v14.5h24.16c2.51,0,3.76-1.01,3.76-3.01v-8.49c0-2-1.25-3-3.76-3Zm1.08,27.38h-25.24v17.72h25.24c2.5,0,3.75-1,3.75-3v-11.71c0-2-1.25-3.01-3.75-3.01Zm92.35-27.38h-23.62c-2.51,0-3.76,1-3.76,3v39.1c0,2,1.25,3,3.76,3h23.62c2.51,0,3.76-1,3.76-3v-39.1c0-2-1.25-3-3.76-3Zm0,0h-23.62c-2.51,0-3.76,1-3.76,3v39.1c0,2,1.25,3,3.76,3h23.62c2.51,0,3.76-1,3.76-3v-39.1c0-2-1.25-3-3.76-3Zm-92.35,27.38h-25.24v17.72h25.24c2.5,0,3.75-1,3.75-3v-11.71c0-2-1.25-3.01-3.75-3.01Zm-1.08-27.38h-24.16v14.5h24.16c2.51,0,3.76-1.01,3.76-3.01v-8.49c0-2-1.25-3-3.76-3Zm-89.13,0h-24.17v18.25h24.17c2.5,0,3.76-1,3.76-3v-12.25c0-2-1.26-3-3.76-3Zm0,0h-24.17v18.25h24.17c2.5,0,3.76-1,3.76-3v-12.25c0-2-1.26-3-3.76-3Zm89.13,0h-24.16v14.5h24.16c2.51,0,3.76-1.01,3.76-3.01v-8.49c0-2-1.25-3-3.76-3Zm1.08,27.38h-25.24v17.72h25.24c2.5,0,3.75-1,3.75-3v-11.71c0-2-1.25-3.01-3.75-3.01Zm92.35-27.38h-23.62c-2.51,0-3.76,1-3.76,3v39.1c0,2,1.25,3,3.76,3h23.62c2.51,0,3.76-1,3.76-3v-39.1c0-2-1.25-3-3.76-3Zm0,0h-23.62c-2.51,0-3.76,1-3.76,3v39.1c0,2,1.25,3,3.76,3h23.62c2.51,0,3.76-1,3.76-3v-39.1c0-2-1.25-3-3.76-3Zm-92.35,27.38h-25.24v17.72h25.24c2.5,0,3.75-1,3.75-3v-11.71c0-2-1.25-3.01-3.75-3.01Zm-1.08-27.38h-24.16v14.5h24.16c2.51,0,3.76-1.01,3.76-3.01v-8.49c0-2-1.25-3-3.76-3Zm-89.13,0h-24.17v18.25h24.17c2.5,0,3.76-1,3.76-3v-12.25c0-2-1.26-3-3.76-3Zm0,0h-24.17v18.25h24.17c2.5,0,3.76-1,3.76-3v-12.25c0-2-1.26-3-3.76-3Zm89.13,0h-24.16v14.5h24.16c2.51,0,3.76-1.01,3.76-3.01v-8.49c0-2-1.25-3-3.76-3Zm1.08,27.38h-25.24v17.72h25.24c2.5,0,3.75-1,3.75-3v-11.71c0-2-1.25-3.01-3.75-3.01Zm92.35-27.38h-23.62c-2.51,0-3.76,1-3.76,3v39.1c0,2,1.25,3,3.76,3h23.62c2.51,0,3.76-1,3.76-3v-39.1c0-2-1.25-3-3.76-3Zm0,0h-23.62c-2.51,0-3.76,1-3.76,3v39.1c0,2,1.25,3,3.76,3h23.62c2.51,0,3.76-1,3.76-3v-39.1c0-2-1.25-3-3.76-3Zm-92.35,27.38h-25.24v17.72h25.24c2.5,0,3.75-1,3.75-3v-11.71c0-2-1.25-3.01-3.75-3.01Zm-1.08-27.38h-24.16v14.5h24.16c2.51,0,3.76-1.01,3.76-3.01v-8.49c0-2-1.25-3-3.76-3Zm-89.13,0h-24.17v18.25h24.17c2.5,0,3.76-1,3.76-3v-12.25c0-2-1.26-3-3.76-3Zm0,0h-24.17v18.25h24.17c2.5,0,3.76-1,3.76-3v-12.25c0-2-1.26-3-3.76-3Zm89.13,0h-24.16v14.5h24.16c2.51,0,3.76-1.01,3.76-3.01v-8.49c0-2-1.25-3-3.76-3Zm1.08,27.38h-25.24v17.72h25.24c2.5,0,3.75-1,3.75-3v-11.71c0-2-1.25-3.01-3.75-3.01Zm92.35-27.38h-23.62c-2.51,0-3.76,1-3.76,3v39.1c0,2,1.25,3,3.76,3h23.62c2.51,0,3.76-1,3.76-3v-39.1c0-2-1.25-3-3.76-3Zm0,0h-23.62c-2.51,0-3.76,1-3.76,3v39.1c0,2,1.25,3,3.76,3h23.62c2.51,0,3.76-1,3.76-3v-39.1c0-2-1.25-3-3.76-3Zm-92.35,27.38h-25.24v17.72h25.24c2.5,0,3.75-1,3.75-3v-11.71c0-2-1.25-3.01-3.75-3.01Zm-1.08-27.38h-24.16v14.5h24.16c2.51,0,3.76-1.01,3.76-3.01v-8.49c0-2-1.25-3-3.76-3Zm-89.13,0h-24.17v18.25h24.17c2.5,0,3.76-1,3.76-3v-12.25c0-2-1.26-3-3.76-3Zm0,0h-24.17v18.25h24.17c2.5,0,3.76-1,3.76-3v-12.25c0-2-1.26-3-3.76-3Zm89.13,0h-24.16v14.5h24.16c2.51,0,3.76-1.01,3.76-3.01v-8.49c0-2-1.25-3-3.76-3Zm1.08,27.38h-25.24v17.72h25.24c2.5,0,3.75-1,3.75-3v-11.71c0-2-1.25-3.01-3.75-3.01Zm92.35-27.38h-23.62c-2.51,0-3.76,1-3.76,3v39.1c0,2,1.25,3,3.76,3h23.62c2.51,0,3.76-1,3.76-3v-39.1c0-2-1.25-3-3.76-3Zm0,0h-23.62c-2.51,0-3.76,1-3.76,3v39.1c0,2,1.25,3,3.76,3h23.62c2.51,0,3.76-1,3.76-3v-39.1c0-2-1.25-3-3.76-3Zm-92.35,27.38h-25.24v17.72h25.24c2.5,0,3.75-1,3.75-3v-11.71c0-2-1.25-3.01-3.75-3.01Zm-1.08-27.38h-24.16v14.5h24.16c2.51,0,3.76-1.01,3.76-3.01v-8.49c0-2-1.25-3-3.76-3Zm-89.13,0h-24.17v18.25h24.17c2.5,0,3.76-1,3.76-3v-12.25c0-2-1.26-3-3.76-3Zm0,0h-24.17v18.25h24.17c2.5,0,3.76-1,3.76-3v-12.25c0-2-1.26-3-3.76-3Zm89.13,0h-24.16v14.5h24.16c2.51,0,3.76-1.01,3.76-3.01v-8.49c0-2-1.25-3-3.76-3Zm1.08,27.38h-25.24v17.72h25.24c2.5,0,3.75-1,3.75-3v-11.71c0-2-1.25-3.01-3.75-3.01Zm92.35-27.38h-23.62c-2.51,0-3.76,1-3.76,3v39.1c0,2,1.25,3,3.76,3h23.62c2.51,0,3.76-1,3.76-3v-39.1c0-2-1.25-3-3.76-3Zm0,0h-23.62c-2.51,0-3.76,1-3.76,3v39.1c0,2,1.25,3,3.76,3h23.62c2.51,0,3.76-1,3.76-3v-39.1c0-2-1.25-3-3.76-3Zm-92.35,27.38h-25.24v17.72h25.24c2.5,0,3.75-1,3.75-3v-11.71c0-2-1.25-3.01-3.75-3.01Zm-1.08-27.38h-24.16v14.5h24.16c2.51,0,3.76-1.01,3.76-3.01v-8.49c0-2-1.25-3-3.76-3Zm-89.13,0h-24.17v18.25h24.17c2.5,0,3.76-1,3.76-3v-12.25c0-2-1.26-3-3.76-3Zm0,0h-24.17v18.25h24.17c2.5,0,3.76-1,3.76-3v-12.25c0-2-1.26-3-3.76-3Zm89.13,0h-24.16v14.5h24.16c2.51,0,3.76-1.01,3.76-3.01v-8.49c0-2-1.25-3-3.76-3Zm1.08,27.38h-25.24v17.72h25.24c2.5,0,3.75-1,3.75-3v-11.71c0-2-1.25-3.01-3.75-3.01Zm92.35-27.38h-23.62c-2.51,0-3.76,1-3.76,3v39.1c0,2,1.25,3,3.76,3h23.62c2.51,0,3.76-1,3.76-3v-39.1c0-2-1.25-3-3.76-3Zm0,0h-23.62c-2.51,0-3.76,1-3.76,3v39.1c0,2,1.25,3,3.76,3h23.62c2.51,0,3.76-1,3.76-3v-39.1c0-2-1.25-3-3.76-3Zm-92.35,27.38h-25.24v17.72h25.24c2.5,0,3.75-1,3.75-3v-11.71c0-2-1.25-3.01-3.75-3.01Zm-1.08-27.38h-24.16v14.5h24.16c2.51,0,3.76-1.01,3.76-3.01v-8.49c0-2-1.25-3-3.76-3Zm-89.13,0h-24.17v18.25h24.17c2.5,0,3.76-1,3.76-3v-12.25c0-2-1.26-3-3.76-3Zm0,0h-24.17v18.25h24.17c2.5,0,3.76-1,3.76-3v-12.25c0-2-1.26-3-3.76-3Zm89.13,0h-24.16v14.5h24.16c2.51,0,3.76-1.01,3.76-3.01v-8.49c0-2-1.25-3-3.76-3Zm1.08,27.38h-25.24v17.72h25.24c2.5,0,3.75-1,3.75-3v-11.71c0-2-1.25-3.01-3.75-3.01Zm92.35-27.38h-23.62c-2.51,0-3.76,1-3.76,3v39.1c0,2,1.25,3,3.76,3h23.62c2.51,0,3.76-1,3.76-3v-39.1c0-2-1.25-3-3.76-3Zm0,0h-23.62c-2.51,0-3.76,1-3.76,3v39.1c0,2,1.25,3,3.76,3h23.62c2.51,0,3.76-1,3.76-3v-39.1c0-2-1.25-3-3.76-3Zm-92.35,27.38h-25.24v17.72h25.24c2.5,0,3.75-1,3.75-3v-11.71c0-2-1.25-3.01-3.75-3.01Zm-1.08-27.38h-24.16v14.5h24.16c2.51,0,3.76-1.01,3.76-3.01v-8.49c0-2-1.25-3-3.76-3Zm-89.13,0h-24.17v18.25h24.17c2.5,0,3.76-1,3.76-3v-12.25c0-2-1.26-3-3.76-3Zm0,0h-24.17v18.25h24.17c2.5,0,3.76-1,3.76-3v-12.25c0-2-1.26-3-3.76-3Zm89.13,0h-24.16v14.5h24.16c2.51,0,3.76-1.01,3.76-3.01v-8.49c0-2-1.25-3-3.76-3Zm1.08,27.38h-25.24v17.72h25.24c2.5,0,3.75-1,3.75-3v-11.71c0-2-1.25-3.01-3.75-3.01Zm92.35-27.38h-23.62c-2.51,0-3.76,1-3.76,3v39.1c0,2,1.25,3,3.76,3h23.62c2.51,0,3.76-1,3.76-3v-39.1c0-2-1.25-3-3.76-3Zm0,0h-23.62c-2.51,0-3.76,1-3.76,3v39.1c0,2,1.25,3,3.76,3h23.62c2.51,0,3.76-1,3.76-3v-39.1c0-2-1.25-3-3.76-3Zm-92.35,27.38h-25.24v17.72h25.24c2.5,0,3.75-1,3.75-3v-11.71c0-2-1.25-3.01-3.75-3.01Zm-1.08-27.38h-24.16v14.5h24.16c2.51,0,3.76-1.01,3.76-3.01v-8.49c0-2-1.25-3-3.76-3Zm-89.13,0h-24.17v18.25h24.17c2.5,0,3.76-1,3.76-3v-12.25c0-2-1.26-3-3.76-3Zm0,0h-24.17v18.25h24.17c2.5,0,3.76-1,3.76-3v-12.25c0-2-1.26-3-3.76-3Zm0,0h-24.17v18.25h24.17c2.5,0,3.76-1,3.76-3v-12.25c0-2-1.26-3-3.76-3Z"/>
</svg>