<?xml version="1.0" encoding="UTF-8"?>
<svg id="Layer_1" data-name="Layer 1" xmlns="http://www.w3.org/2000/svg" viewBox="0 0 500 500">
  <path d="M257.22,114.75c-1.34-1.33-3.03-2.04-4.81-2.04-.1,0-.21,0-.31,.01-.1-.01-.21-.01-.31-.01-1.79,0-3.47,.71-4.71,1.97l-103.13,101.86v122.75h34.33l6.54-20.56c5.59-17.56,22.26-29.34,41.5-29.34h49.58c19.25,0,35.91,11.78,41.5,29.34l6.55,20.56h35.48v-123.9l-102.21-100.64Zm15.98,158.34h-39.16c-23.32,0-42.23-15.76-42.23-35.18v-4.81l2.37-8.41c4.75-16.79,22.73-28.66,43.44-28.66h32.67c21.98,0,40.68,13.32,44.09,31.41l1.06,5.66v4.81c0,19.42-18.9,35.18-42.24,35.18Zm-23.2-236.06c-117.62,0-212.96,95.36-212.96,212.97s95.34,212.97,212.96,212.97,212.96-95.36,212.96-212.97S367.62,37.03,250,37.03Zm144.27,194.52h-16.85v115.31c0,5.4-4.7,9.8-10.49,9.8h-49.04c-4.6,0-8.74-2.87-10.06-7.01l-8.27-25.97c-3.21-10.12-12.73-16.91-23.66-16.91h-50.2c-10.94,0-20.44,6.79-23.67,16.91l-8.27,25.97c-1.31,4.14-5.44,7.01-10.06,7.01h-47.85c-5.8,0-10.52-4.4-10.52-9.8v-115.31h-15.61c-2.39,0-3.6-2.93-1.9-4.63l125.66-124.11c4.69-4.71,11.37-7.47,18.31-7.47,3.47,0,6.87,.7,10.01,1.98,3.15,1.29,5.99,3.15,8.36,5.57l126.01,124.02c1.72,1.71,.5,4.64-1.9,4.64ZM169.53,110.75s.02,0,.03,0c0,0-.12,0-.03,0Z"/>
</svg>