<?xml version="1.0" encoding="UTF-8"?>
<svg id="Layer_1" data-name="Layer 1" xmlns="http://www.w3.org/2000/svg" viewBox="0 0 500 500">
  <path d="M367.62,144.12c-.11-.08-.22-.18-.35-.3-3.28-2.81-5.15-6.9-5.15-11.19v-.81c-6.19-4.36-16.85-10.44-28.34-10.44-4.04,0-7.32,.28-10.18,.88-.87,4.66-3.96,8.75-8.39,10.8-2.86,1.32-5.48,2.91-8.24,4.56l-.19,.12c-10.49,6.31-23.55,14.19-56.77,14.19s-46.67-7.97-57.05-14.35l-.24-.15c-2.81-1.73-5.25-3.22-7.92-4.44-4.41-1.98-7.5-6.01-8.38-10.68-3.09-.63-6.47-.93-10.19-.93-11.62,0-22.28,6.11-28.34,10.43v.84c0,4.23-1.82,8.27-5,11.08l-.53,.47c-4.54,9.91-34.04,76.93-34.04,139.44,0,36.01,9.11,48.83,17.66,48.83,22.35,0,29.38-8.1,39.1-19.32l.08-.12c14.02-16.18,31.41-36.23,94.85-36.23s81.13,20.13,94.89,36.29l.03,.06c9.73,11.22,16.75,19.32,39.1,19.32,8.14,0,17.67-12.79,17.67-48.83,0-62.54-29.54-129.57-34.08-139.52Zm-189.7,104.76c-22.71,0-41.07-18.34-41.07-41.04s18.36-41.05,41.07-41.05,41.04,18.5,41.04,41.05-18.35,41.04-41.04,41.04Zm164.07-22.63h-7.26v4.75c0,9.81-8.06,17.88-17.87,17.88s-17.87-8.07-17.87-17.88v-4.75h-7.9c-9.98,0-17.91-8.06-17.91-17.87s8.11-17.88,17.91-17.88h7.9v-5.83c0-9.8,8.06-17.88,17.87-17.88s17.9,8.08,17.9,17.88c0,.26,0,.51-.03,.77v5.06h7.26c10,0,17.9,8.05,17.9,17.88s-8.07,17.87-17.9,17.87ZM250,36.72c-117.79,0-213.28,95.49-213.28,213.28s95.49,213.28,213.28,213.28,213.28-95.49,213.28-213.28S367.79,36.72,250,36.72Zm134.03,313.8c-30.58,0-42.35-13.57-52.73-25.56l-.09-.1c-12.59-14.79-25.54-30.02-81.2-30.02s-68.4,15.23-81.15,29.94l-.16,.18c-10.37,11.99-22.15,25.56-52.72,25.56-10.74,0-35.71-6.52-35.71-66.88,0-69.03,32.61-140.44,36.21-148.11,.44-1.09,1.13-2.26,2.25-3.36l1.11-1.09v-1.07c0-4.58,2.18-8.94,5.84-11.62,7.53-5.64,22.78-15.04,40.55-15.04,6.26,0,11.91,.68,17.25,2.1,5.69,1.57,9.79,6.33,10.57,11.97,2.93,1.46,5.56,3.07,8.1,4.63l.25,.15c9.33,5.75,18.98,11.69,47.61,11.69s38.01-5.9,47.47-11.61l.19-.13c2.6-1.56,5.25-3.14,8.26-4.65,.77-5.65,4.84-10.43,10.4-12.01,5.02-1.47,10.57-2.14,17.45-2.14,17.7,0,33.02,9.42,40.58,15.05,3.6,2.62,5.81,6.99,5.81,11.61v1.12c.43,.39,.84,.75,1.04,.97,.34,.33,.65,.69,.91,1.05l.43,.43,.66,1.29c.36,.72,36.52,76.08,36.52,148.77,0,60.36-24.96,66.88-35.7,66.88Z"/>
</svg>