<?xml version="1.0" encoding="UTF-8" standalone="no"?>
<!-- Created with Inkscape (http://www.inkscape.org/) -->

<svg
   width="500"
   height="500"
   viewBox="0 0 132.29166 132.29167"
   version="1.1"
   id="svg8"
   sodipodi:docname="RB.svg"
   inkscape:version="1.1.1 (3bf5ae0d25, 2021-09-20)"
   xmlns:inkscape="http://www.inkscape.org/namespaces/inkscape"
   xmlns:sodipodi="http://sodipodi.sourceforge.net/DTD/sodipodi-0.dtd"
   xmlns="http://www.w3.org/2000/svg"
   xmlns:svg="http://www.w3.org/2000/svg"
   xmlns:rdf="http://www.w3.org/1999/02/22-rdf-syntax-ns#"
   xmlns:cc="http://creativecommons.org/ns#"
   xmlns:dc="http://purl.org/dc/elements/1.1/">
  <defs
     id="defs2">
    <rect
       x="143.07227"
       y="188.85742"
       width="532.73606"
       height="267.39403"
       id="rect67611" />
  </defs>
  <sodipodi:namedview
     id="base"
     pagecolor="#ffffff"
     bordercolor="#666666"
     borderopacity="1.0"
     inkscape:pageopacity="0.0"
     inkscape:pageshadow="2"
     inkscape:zoom="0.9899495"
     inkscape:cx="202.03051"
     inkscape:cy="215.16249"
     inkscape:document-units="mm"
     inkscape:current-layer="layer1"
     showgrid="true"
     units="px"
     inkscape:window-width="2059"
     inkscape:window-height="2109"
     inkscape:window-x="1920"
     inkscape:window-y="49"
     inkscape:window-maximized="0"
     showguides="false"
     inkscape:pagecheckerboard="0">
    <inkscape:grid
       type="xygrid"
       id="grid4988"
       spacingx="66.145832"
       spacingy="66.145832"
       snapvisiblegridlinesonly="true"
       enabled="false" />
  </sodipodi:namedview>
  <metadata
     id="metadata5">
    <rdf:RDF>
      <cc:Work
         rdf:about="">
        <dc:format>image/svg+xml</dc:format>
        <dc:type
           rdf:resource="http://purl.org/dc/dcmitype/StillImage" />
      </cc:Work>
    </rdf:RDF>
  </metadata>
  <g
     inkscape:label="Layer 1"
     inkscape:groupmode="layer"
     id="layer1"
     transform="translate(0,-164.70832)">
    <path
       id="rect6446"
       style="display:inline;opacity:1;fill:#000000;fill-opacity:1;stroke:none;stroke-width:24.3262;stroke-linecap:square;stroke-linejoin:round;stroke-miterlimit:4.3;stroke-dasharray:none;stroke-opacity:1;paint-order:markers stroke fill"
       d="m 55.599609,159.62695 c -25.213432,0 -45.511718,20.29829 -45.511718,45.51172 v 89.72266 c 0,25.21343 20.298286,45.51172 45.511718,45.51172 H 444.40039 c 25.21343,0 45.51172,-20.29829 45.51172,-45.51172 v -89.72266 c 0,-25.21343 -20.29829,-45.51172 -45.51172,-45.51172 z m 54.240231,27.01367 h 94.08008 c 21.76,0 32.64063,8.70333 32.64063,26.11133 v 26.4961 c 0,15.36 -8.63993,24.06333 -25.91993,26.11133 l 31.67969,48 h -41.47265 l -31.67969,-48 h -20.92774 v 48 h -38.40039 z m 151.67969,0 h 94.08008 c 21.76,0 32.64062,8.70333 32.64062,26.11133 v 11.13672 c 0,10.752 -4.16046,18.17549 -12.48046,22.27149 9.6,3.84 14.40039,11.58442 14.40039,23.23242 v 17.85547 c 0,17.408 -10.88063,26.11133 -32.64063,26.11133 h -96 z m -113.2793,23.03907 v 32.64062 h 43.19922 c 4.48,0 6.72071,-1.79295 6.72071,-5.37695 v -21.88672 c 0,-3.584 -2.24071,-5.37695 -6.72071,-5.37695 z m 151.67969,0 v 25.91992 h 43.19922 c 4.48,0 6.7207,-1.791 6.7207,-5.375 v -15.16797 c 0,-3.584 -2.2407,-5.37695 -6.7207,-5.37695 z m 0,48.96093 v 31.67969 h 45.11914 c 4.48,0 6.72071,-1.79295 6.72071,-5.37695 v -20.92774 c 0,-3.58399 -2.24071,-5.375 -6.72071,-5.375 z"
       transform="matrix(0.26458333,0,0,0.26458333,0,164.70832)" />
  </g>
</svg>
