<?xml version="1.0" encoding="UTF-8"?>
<svg id="Layer_1" data-name="Layer 1" xmlns="http://www.w3.org/2000/svg" viewBox="0 0 500 500">
  <path d="M71.94,92.71V407.3l356.12,84.09V8.61L71.94,92.71ZM200.95,349.4c-3.76,2.17-7.89,3.26-12.03,3.26s-8.22-1.08-11.97-3.23c-7.53-4.32-12.04-12.07-12.09-20.75l-.82-160.87c-.05-8.72,4.43-16.55,11.97-20.93,7.55-4.38,16.56-4.39,24.12-.03l96.97,55.99,.55,.42c6.88,5.26,10.65,13.59,10.08,22.3-.56,8.67-5.39,16.44-12.93,20.79l-88.41,51.04-10.71-18.55,88.41-51.04c1.83-1.06,2.2-2.73,2.26-3.63,.05-.68,0-2.31-1.34-3.57l-1.6-.92-94-54.28c-1.09-.62-2.03-.34-2.64,.01-.6,.35-1.32,1.03-1.31,2.29l.83,160.87c0,1.26,.72,1.93,1.32,2.28,.6,.34,1.53,.62,2.61,0l112.38-65.31,7.74,19.85-109.39,64.01Zm148.56-87.62l-26.53,15.85c10.51-11.79,17.11-42.21,0-58.82l26.53,15.86c10.26,6.12,10.26,20.98,0,27.11Z"/>
</svg>