<?xml version="1.0" encoding="UTF-8"?>
<svg id="Layer_1" data-name="Layer 1" xmlns="http://www.w3.org/2000/svg" viewBox="0 0 500 500">
  <path d="M81.4,9.87V491.39l355.18-83.87V93.74L81.4,9.87Zm88.38,187.56l61.23-35.34,20.56,25.85-81.79,94.19v-84.7Zm89.22,154.52l-84.7-48.9,13.58-15.63,101.41-2.88,1.22,49.2-31.51,18.21Zm48.41-27.95l-1-39.94-.69-28.06,21.85,27.47,15.76,19.79-35.92,20.74Zm40.79-42.13l-43.18-54.27-17.69-22.23-13.49-16.96-10.85-13.64-16.99-21.34,13-7.5,19.34,11.17,7.91,4.56,7.2,4.17,10.19,5.87,44.56,25.73v84.44Z"/>
</svg>