<?xml version="1.0" encoding="UTF-8"?>
<svg id="Layer_1" data-name="Layer 1" xmlns="http://www.w3.org/2000/svg" viewBox="0 0 500 500">
  <path d="M462.49,155.06H37.5c-19.61,0-35.5,15.89-35.5,35.5v118.89c0,19.61,15.89,35.5,35.5,35.5H462.49c19.61,0,35.51-15.89,35.51-35.5v-118.89c0-19.61-15.9-35.5-35.51-35.5Zm-204.75,151.68h-34.39v-59.83l-26.65,59.83h-32.67l-26.66-59.83v59.83h-34.38v-113.48h42.12l35.25,79.27,35.25-79.27h42.13v113.48Zm139.27-72.38c0,15.59-9.74,23.38-29.23,23.38h-36.97c-4.01,0-6.02,1.61-6.02,4.82v23.55h72.22v20.63h-106.61v-46.25c0-15.58,9.75-23.38,29.23-23.38h36.97c4.01,0,6.02-1.61,6.02-4.82v-13.58c0-3.21-2.01-4.81-6.02-4.81h-57.6v-20.64h68.78c19.49,0,29.23,7.8,29.23,23.39v17.71Z"/>
</svg>