<?xml version="1.0" encoding="UTF-8"?>
<svg id="Layer_1" data-name="Layer 1" xmlns="http://www.w3.org/2000/svg" viewBox="0 0 322.74 478.71">
  <path d="M113.87,205.14h-39.16v29.59h39.16c4.05,0,6.08-1.63,6.08-4.88v-19.84c0-3.25-2.03-4.87-6.08-4.87Zm0,0h-39.16v29.59h39.16c4.05,0,6.08-1.63,6.08-4.88v-19.84c0-3.25-2.03-4.87-6.08-4.87ZM284.45,1.05L22.55,71.21C9.25,74.77,0,86.83,0,100.59V401.85c37.23,105.44,286.53,99.46,322.74,0V30.43c0-20-18.97-34.56-38.29-29.38ZM39.9,184.25H125.17c19.73,0,29.59,7.89,29.59,23.67v24.02c0,13.92-7.83,21.81-23.49,23.66l28.71,43.52h-37.59l-28.71-43.52h-18.97v43.52H39.9v-114.87Zm249.8,212.26c-6.69,13-21.34,24.89-41.9,33.83-24.86,10.81-56.54,16.77-89.2,16.77h-.03c-31.78,0-62.12-5.71-85.4-16.09-14.12-6.28-31.95-17.15-40.13-34.09l256.66-69.36v68.94Zm7.77-191.37h-46.99v93.98h-34.81v-93.98h-46.99v-20.89h128.79v20.89Zm-177.52,24.71v-19.84c0-3.25-2.03-4.87-6.08-4.87h-39.16v29.59h39.16c4.05,0,6.08-1.63,6.08-4.88Z"/>
  <path d="M119.95,210.01v19.84c0,3.25-2.03,4.88-6.08,4.88h-39.16v-29.59h39.16c4.05,0,6.08,1.62,6.08,4.87Z"/>
  <path d="M119.95,210.01v19.84c0,3.25-2.03,4.88-6.08,4.88h-39.16v-29.59h39.16c4.05,0,6.08,1.62,6.08,4.87Z"/>
</svg>