<?xml version="1.0" encoding="UTF-8" standalone="no"?>
<!-- Created with Inkscape (http://www.inkscape.org/) -->

<svg
   width="500"
   height="500"
   viewBox="0 0 132.29166 132.29167"
   version="1.1"
   id="svg8"
   sodipodi:docname="RT.svg"
   inkscape:version="1.1.1 (3bf5ae0d25, 2021-09-20)"
   xmlns:inkscape="http://www.inkscape.org/namespaces/inkscape"
   xmlns:sodipodi="http://sodipodi.sourceforge.net/DTD/sodipodi-0.dtd"
   xmlns="http://www.w3.org/2000/svg"
   xmlns:svg="http://www.w3.org/2000/svg"
   xmlns:rdf="http://www.w3.org/1999/02/22-rdf-syntax-ns#"
   xmlns:cc="http://creativecommons.org/ns#"
   xmlns:dc="http://purl.org/dc/elements/1.1/">
  <defs
     id="defs2">
    <rect
       x="62.372973"
       y="154.08316"
       width="372.49301"
       height="217.32978"
       id="rect100091" />
  </defs>
  <sodipodi:namedview
     id="base"
     pagecolor="#ffffff"
     bordercolor="#666666"
     borderopacity="1.0"
     inkscape:pageopacity="0.0"
     inkscape:pageshadow="2"
     inkscape:zoom="0.9899495"
     inkscape:cx="229.8097"
     inkscape:cy="197.9899"
     inkscape:document-units="mm"
     inkscape:current-layer="layer1"
     showgrid="true"
     units="px"
     inkscape:window-width="1990"
     inkscape:window-height="2109"
     inkscape:window-x="1920"
     inkscape:window-y="49"
     inkscape:window-maximized="0"
     showguides="false"
     inkscape:pagecheckerboard="0">
    <inkscape:grid
       type="xygrid"
       id="grid4988"
       spacingx="66.145832"
       spacingy="66.145832"
       snapvisiblegridlinesonly="true"
       enabled="false" />
  </sodipodi:namedview>
  <metadata
     id="metadata5">
    <rdf:RDF>
      <cc:Work
         rdf:about="">
        <dc:format>image/svg+xml</dc:format>
        <dc:type
           rdf:resource="http://purl.org/dc/dcmitype/StillImage" />
      </cc:Work>
    </rdf:RDF>
  </metadata>
  <g
     inkscape:label="Layer 1"
     inkscape:groupmode="layer"
     id="layer1"
     transform="translate(0,-164.70832)">
    <path
       id="rect6526"
       style="opacity:1;fill:#000000;fill-opacity:1;stroke:none;stroke-width:22.2553;stroke-linecap:square;stroke-linejoin:round;stroke-miterlimit:4.3;stroke-dasharray:none;stroke-opacity:1;paint-order:markers stroke fill"
       d="m 143.17578,11.439453 c -20.64908,0 -37.27344,14.787557 -37.27344,33.15625 V 419.92969 c 32.32536,88.82003 254.96356,94.15793 288.19532,0 V 44.595703 c 0,-18.368693 -16.62432,-33.15625 -37.27344,-33.15625 z M 114.36133,189.51172 h 89.81445 c 20.77347,0 31.16016,8.31091 31.16016,24.92969 v 25.29492 c 0,14.66362 -8.24756,22.97258 -24.74414,24.92773 l 30.24414,45.82422 h -39.5918 L 171,264.66406 h -19.97852 v 45.82422 h -36.66015 z m 135.63867,0 h 135.63867 v 21.99609 h -49.49023 v 98.98047 H 299.49023 V 211.50781 H 250 Z m -98.97852,21.99609 v 31.16016 h 41.24024 c 4.27689,0 6.41601,-1.7113 6.41601,-5.13281 v -20.89454 c 0,-3.42151 -2.13912,-5.13281 -6.41601,-5.13281 z"
       transform="matrix(0.26458333,0,0,0.26458333,0,164.70832)" />
  </g>
</svg>
