<?xml version="1.0" encoding="UTF-8" standalone="no"?>
<!-- Created with Inkscape (http://www.inkscape.org/) -->

<svg
   xmlns:dc="http://purl.org/dc/elements/1.1/"
   xmlns:cc="http://creativecommons.org/ns#"
   xmlns:rdf="http://www.w3.org/1999/02/22-rdf-syntax-ns#"
   xmlns:svg="http://www.w3.org/2000/svg"
   xmlns="http://www.w3.org/2000/svg"
   xmlns:sodipodi="http://sodipodi.sourceforge.net/DTD/sodipodi-0.dtd"
   xmlns:inkscape="http://www.inkscape.org/namespaces/inkscape"
   width="500"
   height="500"
   viewBox="0 0 132.29166 132.29167"
   version="1.1"
   id="svg8"
   sodipodi:docname="start.svg"
   inkscape:version="0.92.2 2405546, 2018-03-11">
  <defs
     id="defs2" />
  <sodipodi:namedview
     id="base"
     pagecolor="#ffffff"
     bordercolor="#666666"
     borderopacity="1.0"
     inkscape:pageopacity="0.0"
     inkscape:pageshadow="2"
     inkscape:zoom="0.7"
     inkscape:cx="-14.788837"
     inkscape:cy="187.07218"
     inkscape:document-units="mm"
     inkscape:current-layer="layer1"
     showgrid="true"
     units="px"
     inkscape:window-width="636"
     inkscape:window-height="1153"
     inkscape:window-x="3200"
     inkscape:window-y="45"
     inkscape:window-maximized="0">
    <inkscape:grid
       type="xygrid"
       id="grid4988"
       spacingx="66.145832"
       spacingy="66.145832"
       snapvisiblegridlinesonly="true"
       enabled="false" />
  </sodipodi:namedview>
  <metadata
     id="metadata5">
    <rdf:RDF>
      <cc:Work
         rdf:about="">
        <dc:format>image/svg+xml</dc:format>
        <dc:type
           rdf:resource="http://purl.org/dc/dcmitype/StillImage" />
        <dc:title />
      </cc:Work>
    </rdf:RDF>
  </metadata>
  <g
     inkscape:label="Layer 1"
     inkscape:groupmode="layer"
     id="layer1"
     transform="translate(0,-164.70832)">
    <text
       xml:space="preserve"
       style="font-style:normal;font-variant:normal;font-weight:normal;font-stretch:normal;font-size:10.58333302px;line-height:6.61458302px;font-family:Xolonium;-inkscape-font-specification:Xolonium;text-align:center;letter-spacing:0px;word-spacing:0px;text-anchor:middle;fill:#000000;fill-opacity:1;stroke:none;stroke-width:0.26458332px;stroke-linecap:butt;stroke-linejoin:miter;stroke-opacity:1"
       x="52.919361"
       y="223.76813"
       id="text1408"><tspan
         sodipodi:role="line"
         id="tspan1406"
         x="52.919361"
         y="229.8246"
         style="stroke-width:0.26458332px" /></text>
    <path
       style="opacity:1;fill:#000000;fill-opacity:1;stroke:none;stroke-width:23.1266613;stroke-linecap:square;stroke-linejoin:round;stroke-miterlimit:4.30000019;stroke-dasharray:none;stroke-opacity:1;paint-order:markers stroke fill"
       d="M 47.894531 104.18164 C 31.603551 104.18164 18.488281 117.29691 18.488281 133.58789 L 18.488281 276.93164 C 18.488281 293.22262 31.603551 306.33789 47.894531 306.33789 L 452.10547 306.33789 C 468.39645 306.33789 481.51172 293.22262 481.51172 276.93164 L 481.51172 133.58789 C 481.51172 117.29691 468.39645 104.18164 452.10547 104.18164 L 47.894531 104.18164 z M 209.60938 125.97461 L 290.39062 205.25977 L 209.60938 284.54492 L 209.60938 125.97461 z "
       transform="matrix(0.26458333,0,0,0.26458333,0,164.70832)"
       id="rect5066" />
    <g
       aria-label="START"
       style="font-style:normal;font-variant:normal;font-weight:bold;font-stretch:normal;font-size:25.86532211px;line-height:16.1658268px;font-family:Xolonium;-inkscape-font-specification:'Xolonium Bold';text-align:center;letter-spacing:0px;word-spacing:0px;text-anchor:middle;fill:#000000;fill-opacity:1;stroke:none;stroke-width:0.64663309px;stroke-linecap:butt;stroke-linejoin:miter;stroke-opacity:1"
       id="text5070">
      <path
         d="m 17.916105,269.43533 v -3.10384 h 10.992762 q 0.905287,0 0.905287,-0.72422 v -2.81932 q 0,-0.72423 -0.905287,-0.72423 H 22.31321 q -4.397105,0 -4.397105,-3.51769 v -2.66413 q 0,-3.51768 4.397105,-3.51768 h 11.380742 v 3.10384 h -9.699496 q -0.905286,0 -0.905286,0.72423 v 2.04336 q 0,0.72423 0.905286,0.72423 h 6.595657 q 4.397105,0 4.397105,3.51768 v 3.44009 q 0,3.51768 -4.397105,3.51768 z"
         style="fill:#000000;fill-opacity:1;stroke-width:0.64663309px"
         id="path6366" />
      <path
         d="m 36.280483,255.46806 v -3.10384 h 19.140339 v 3.10384 h -6.983637 v 13.96727 H 43.26412 v -13.96727 z"
         style="fill:#000000;fill-opacity:1;stroke-width:0.64663309px"
         id="path6368" />
      <path
         d="m 52.967657,269.43533 7.371616,-17.07111 h 6.466331 l 7.371617,17.07111 h -5.069603 l -1.55192,-3.62114 h -7.966519 l -1.551919,3.62114 z m 7.966519,-6.72498 h 5.276526 L 63.572439,256.632 Z"
         style="fill:#000000;fill-opacity:1;stroke-width:0.64663309px"
         id="path6370" />
      <path
         d="m 76.11914,269.43533 v -17.07111 h 12.674008 q 4.397105,0 4.397105,3.51768 v 3.56942 q 0,3.10384 -3.491819,3.51768 l 4.267779,6.46633 h -5.58691 L 84.111525,262.969 h -2.81932 v 6.46633 z m 5.173065,-9.57017 h 5.819697 q 0.905287,0 0.905287,-0.72422 v -2.94865 q 0,-0.72423 -0.905287,-0.72423 h -5.819697 z"
         style="fill:#000000;fill-opacity:1;stroke-width:0.64663309px"
         id="path6372" />
      <path
         d="m 95.235229,255.46806 v -3.10384 h 19.140341 v 3.10384 h -6.98364 v 13.96727 h -5.17306 v -13.96727 z"
         style="fill:#000000;fill-opacity:1;stroke-width:0.64663309px"
         id="path6374" />
    </g>
  </g>
</svg>
