<?xml version="1.0" encoding="UTF-8"?>
<svg id="Layer_1" data-name="Layer 1" xmlns="http://www.w3.org/2000/svg" viewBox="0 0 500 500">
  <path d="M192.77,212.7c0,9.72-3.02,16.84-9.04,21.33-6.04,4.51-14.27,6.75-24.71,6.75h-33.48v-56.16h33.48c10.62,0,18.9,2.12,24.84,6.35,5.94,4.23,8.91,11.47,8.91,21.73Z"/>
  <path d="M458.68,1.83H41.31C19.51,1.83,1.83,19.51,1.83,41.32V458.69c0,21.8,17.68,39.48,39.48,39.48H458.68c21.81,0,39.48-17.68,39.48-39.48V41.32c0-21.81-17.67-39.49-39.48-39.49ZM233,339.07h-42.12l-33.21-63.99h-32.13v63.99h-41.04V150.33h81.81c21.42,0,38.11,5.36,50.09,16.07,11.96,10.71,17.95,26.15,17.95,46.3,0,14.04-3.24,25.97-9.72,35.78s-15.66,16.97-27.54,21.47l35.91,69.12Zm158.08-12.96c-13.76,11.34-34.15,17.01-61.15,17.01-10.44,0-20.75-1.13-30.91-3.38-10.18-2.25-18.68-5.35-25.52-9.31v-35.37c7.92,5.04,16.78,8.95,26.6,11.74,9.8,2.79,19.12,4.19,27.94,4.19,14.04,0,24.57-2.75,31.59-8.24s10.53-13.45,10.53-23.89-3.47-17.83-10.39-23.23c-6.94-5.39-16.7-8.1-29.3-8.1-6.3,0-12.92,.64-19.85,1.89-6.93,1.27-13,2.98-18.22,5.14l-16.47-9.46,7.56-94.77h115.83v33.75h-77.22l-2.97,36.45c9.9-2.16,19.8-3.24,29.7-3.24,19.8,0,35.24,5.36,46.31,16.07,11.06,10.71,16.6,25.61,16.6,44.68,0,20.71-6.88,36.73-20.66,48.07Z"/>
</svg>