<?xml version="1.0" encoding="UTF-8"?>
<svg id="Layer_1" data-name="Layer 1" xmlns="http://www.w3.org/2000/svg" viewBox="0 0 500 500">
  <path d="M458.69,1.83H41.32C19.51,1.83,1.84,19.51,1.84,41.32V458.69c0,21.8,17.67,39.48,39.48,39.48H458.69c21.8,0,39.48-17.68,39.48-39.48V41.32c0-21.81-17.68-39.49-39.48-39.49ZM227.73,342.34H100.29V153.61h41.04v154.44h86.4v34.29Zm151.33-12.96c-13.77,11.34-34.15,17.01-61.15,17.01-10.44,0-20.75-1.12-30.92-3.37-10.17-2.25-18.67-5.36-25.51-9.32v-35.37c7.92,5.04,16.78,8.96,26.59,11.75,9.81,2.79,19.12,4.18,27.95,4.18,14.04,0,24.57-2.74,31.59-8.23,7.02-5.49,10.53-13.46,10.53-23.9s-3.47-17.82-10.4-23.22c-6.93-5.4-16.7-8.1-29.29-8.1-6.31,0-12.92,.63-19.85,1.89s-13,2.97-18.22,5.13l-16.47-9.45,7.56-94.77h115.83v33.75h-77.22l-2.97,36.45c9.89-2.16,19.79-3.24,29.7-3.24,19.8,0,35.23,5.36,46.3,16.07,11.07,10.71,16.61,25.6,16.61,44.68,0,20.7-6.89,36.72-20.66,48.06Z"/>
</svg>