<?xml version="1.0" encoding="UTF-8"?>
<svg id="Layer_1" data-name="Layer 1" xmlns="http://www.w3.org/2000/svg" viewBox="0 0 500 500">
  <path d="M192.77,212.7c0,9.72-3.01,16.84-9.04,21.33-6.03,4.51-14.27,6.75-24.71,6.75h-33.48v-56.16h33.48c10.62,0,18.9,2.12,24.84,6.35,5.94,4.23,8.91,11.47,8.91,21.73Z"/>
  <path d="M314,265.62h48.6v-66.42l-48.6,66.42Zm0,0h48.6v-66.42l-48.6,66.42Zm0,0h48.6v-66.42l-48.6,66.42Zm0,0h48.6v-66.42l-48.6,66.42Zm0,0h48.6v-66.42l-48.6,66.42Zm0,0h48.6v-66.42l-48.6,66.42Zm0,0h48.6v-66.42l-48.6,66.42Zm0,0h48.6v-66.42l-48.6,66.42Zm0,0h48.6v-66.42l-48.6,66.42Zm0,0h48.6v-66.42l-48.6,66.42ZM458.68,1.83H41.31C19.51,1.83,1.83,19.51,1.83,41.32V458.69c0,21.8,17.68,39.48,39.48,39.48H458.68c21.81,0,39.49-17.68,39.49-39.48V41.32c0-21.81-17.68-39.49-39.49-39.49ZM233,339.07h-42.12l-33.21-63.99h-32.13v63.99h-41.04V150.33h81.81c21.42,0,38.12,5.36,50.09,16.07,11.97,10.71,17.95,26.15,17.95,46.3,0,14.04-3.24,25.97-9.72,35.78-6.48,9.81-15.66,16.97-27.54,21.47l35.91,69.12Zm193.59-41.86h-27.81v41.86h-42.12v-41.86h-88.56v-24.84l90.18-122.04h40.5v115.29h27.81v31.59Zm-63.99-31.59v-66.42l-48.6,66.42h48.6Zm-48.6,0h48.6v-66.42l-48.6,66.42Zm0,0h48.6v-66.42l-48.6,66.42Zm0,0h48.6v-66.42l-48.6,66.42Zm0,0h48.6v-66.42l-48.6,66.42Zm0,0h48.6v-66.42l-48.6,66.42Zm0,0h48.6v-66.42l-48.6,66.42Zm0,0h48.6v-66.42l-48.6,66.42Zm0,0h48.6v-66.42l-48.6,66.42Zm0,0h48.6v-66.42l-48.6,66.42Zm0,0h48.6v-66.42l-48.6,66.42Z"/>
</svg>