<?xml version="1.0" encoding="UTF-8"?>
<svg id="Layer_1" data-name="Layer 1" xmlns="http://www.w3.org/2000/svg" viewBox="0 0 500 500">
  <polygon points="294.55 270.92 343.15 204.51 343.15 270.92 294.55 270.92"/>
  <path d="M458.68,1.83H41.32C19.51,1.83,1.83,19.51,1.83,41.32V458.68c0,21.81,17.68,39.49,39.49,39.49H458.68c21.81,0,39.49-17.68,39.49-39.49V41.32c0-21.81-17.68-39.49-39.49-39.49ZM220.3,344.36H92.86V155.64h41.04v154.43h86.4v34.29Zm186.84-41.85h-27.81v41.85h-42.12v-41.85h-88.56v-24.84l90.18-122.03h40.5v115.28h27.81v31.59Z"/>
</svg>