<?xml version="1.0" encoding="UTF-8" standalone="no"?>
<!-- Created with Inkscape (http://www.inkscape.org/) -->

<svg
   width="500"
   height="500"
   viewBox="0 0 132.29166 132.29167"
   version="1.1"
   id="svg8"
   sodipodi:docname="touchpad-r-analog.svg"
   inkscape:version="1.2.2 (b0a8486541, 2022-12-01)"
   xml:space="preserve"
   xmlns:inkscape="http://www.inkscape.org/namespaces/inkscape"
   xmlns:sodipodi="http://sodipodi.sourceforge.net/DTD/sodipodi-0.dtd"
   xmlns="http://www.w3.org/2000/svg"
   xmlns:svg="http://www.w3.org/2000/svg"
   xmlns:rdf="http://www.w3.org/1999/02/22-rdf-syntax-ns#"
   xmlns:cc="http://creativecommons.org/ns#"
   xmlns:dc="http://purl.org/dc/elements/1.1/"><defs
     id="defs2"><rect
       x="18.920168"
       y="-58.629632"
       width="468.1622"
       height="102.723"
       id="rect5337" /></defs><sodipodi:namedview
     id="base"
     pagecolor="#ffffff"
     bordercolor="#666666"
     borderopacity="1.0"
     inkscape:pageopacity="0.0"
     inkscape:pageshadow="2"
     inkscape:zoom="1.0035313"
     inkscape:cx="347.27367"
     inkscape:cy="275.02879"
     inkscape:document-units="mm"
     inkscape:current-layer="layer1"
     showgrid="true"
     units="px"
     inkscape:window-width="1582"
     inkscape:window-height="2109"
     inkscape:window-x="6094"
     inkscape:window-y="25"
     inkscape:window-maximized="1"
     showguides="false"
     inkscape:pagecheckerboard="0"
     inkscape:snap-global="false"
     inkscape:showpageshadow="2"
     inkscape:deskcolor="#d1d1d1"><inkscape:grid
       type="xygrid"
       id="grid4988"
       spacingx="66.145832"
       spacingy="66.145832"
       snapvisiblegridlinesonly="true"
       enabled="false" /></sodipodi:namedview><metadata
     id="metadata5"><rdf:RDF><cc:Work
         rdf:about=""><dc:format>image/svg+xml</dc:format><dc:type
           rdf:resource="http://purl.org/dc/dcmitype/StillImage" /></cc:Work></rdf:RDF></metadata><g
     inkscape:label="Layer 1"
     inkscape:groupmode="layer"
     id="layer1"
     transform="translate(0,-164.70832)"><path
       d="M 71.027396,217.94248 H 57.189687 v 10.45104 h 13.837709 c 1.42875,0 2.143125,-0.58208 2.143125,-1.71979 v -7.01146 c 0,-1.13771 -0.714375,-1.71979 -2.143125,-1.71979 z m 0,0 H 57.189687 v 10.45104 h 13.837709 c 1.42875,0 2.143125,-0.58208 2.143125,-1.71979 v -7.01146 c 0,-1.13771 -0.714375,-1.71979 -2.143125,-1.71979 z M 103.57115,172.72519 H 28.641146 c -11.403542,0 -20.6374998,9.23396 -20.6374998,20.66396 v 77.02021 c 0,10.26583 8.3343748,18.57375 18.6002078,18.57375 h 79.083956 c 10.26583,0 18.60021,-8.30792 18.60021,-18.57375 v -77.02021 c -0.0529,-11.40354 -9.31334,-20.66396 -20.71687,-20.66396 z m -6.985004,13.52021 c 7.805204,0 14.155204,6.35 14.155204,14.15521 v 14.41979 l -5.82083,-5.82084 v -8.59895 c 0,-4.5773 -3.73062,-8.33438 -8.334374,-8.33438 h -7.646459 l -5.820833,-5.82083 z m -9.260417,64.90229 H 74.043646 L 63.910104,235.7754 h -6.693958 v 15.37229 H 44.913021 v -40.58708 h 30.136041 c 6.958542,0 10.451042,2.77812 10.451042,8.36083 v 8.49312 c 0,4.92125 -2.778125,7.69938 -8.307917,8.36084 z M 66.106146,178.9429 80.684687,193.52144 H 51.527604 Z m -44.60875,21.43125 c 0,-7.80521 6.35,-14.15521 14.155208,-14.15521 h 13.467292 l -5.820834,5.82083 h -7.646458 c -4.60375,0 -8.334375,3.73063 -8.334375,8.33438 v 9.02229 l -5.820833,5.82083 z m 8.651875,15.90146 v 29.13062 L 15.570729,230.82769 Z m 2.487083,59.53125 c -6.6675,0 -12.065,-5.42396 -12.065,-12.09146 v -16.90688 l 5.820833,5.82084 v 11.08604 c 0,3.43958 2.804584,6.27062 6.244167,6.27062 h 9.710208 l 5.820834,5.82084 z m 33.469792,6.95854 -14.578542,-14.57854 h 29.157083 z m 44.608744,-19.3675 c 0,6.6675 -5.42395,12.09146 -12.091453,12.09146 H 83.092396 l 5.820833,-5.82084 h 9.710208 c 3.439583,0 6.270623,-2.80458 6.270623,-6.27062 v -10.66271 l 5.82083,-5.82083 z m -8.22854,-17.96521 v -29.15708 l 14.57854,14.57854 z M 71.027396,217.94248 H 57.189687 v 10.45104 h 13.837709 c 1.42875,0 2.143125,-0.58208 2.143125,-1.71979 v -7.01146 c 0,-1.13771 -0.714375,-1.71979 -2.143125,-1.71979 z m 0,0 H 57.189687 v 10.45104 h 13.837709 c 1.42875,0 2.143125,-0.58208 2.143125,-1.71979 v -7.01146 c 0,-1.13771 -0.714375,-1.71979 -2.143125,-1.71979 z m 0,0 H 57.189687 v 10.45104 h 13.837709 c 1.42875,0 2.143125,-0.58208 2.143125,-1.71979 v -7.01146 c 0,-1.13771 -0.714375,-1.71979 -2.143125,-1.71979 z"
       id="path737"
       style="stroke-width:0.264583" /></g></svg>
