<?xml version="1.0" encoding="UTF-8"?>
<svg id="Layer_1" data-name="Layer 1" xmlns="http://www.w3.org/2000/svg" viewBox="0 0 500 500">
  <path d="M391.64,30.3H108.36c-43.11,0-78.06,34.95-78.06,78.06V399.45c0,38.8,31.46,70.25,70.26,70.25H399.44c38.8,0,70.26-31.45,70.26-70.25V108.37c0-43.11-34.95-78.06-78.06-78.06ZM80.29,133.26c0-28.86,23.47-52.33,52.33-52.33h233.49c28.86,0,52.33,23.47,52.33,52.33v56.2l-23-23v-33.2c0-16.17-13.16-29.33-29.33-29.33H132.62c-16.17,0-29.33,13.16-29.33,29.33v34.47l-23,23v-57.47Zm254.87,193.43h-50.19l-38.34-58.1h-25.33v58.1h-46.47V173.32h113.87c26.31,0,39.5,10.53,39.5,31.61v32.06c0,18.59-10.47,29.12-31.38,31.6l38.34,58.1ZM113.29,194.49v110.15l-55.08-55.07,55.08-55.08Zm305.15,172.25c0,28.86-23.47,52.33-52.33,52.33H132.62c-28.86,0-52.33-23.47-52.33-52.33v-58.33l23,23v35.33c0,16.17,13.16,29.33,29.33,29.33h233.49c16.17,0,29.33-13.16,29.33-29.33v-34.07l23-23v57.07Zm-31.73-62.1v-110.15l55.07,55.08-55.07,55.07Z"/>
  <path d="M273.58,201.2h-52.28v39.52h52.28c5.42,0,8.14-2.18,8.14-6.52v-26.48c0-4.35-2.72-6.52-8.14-6.52Z"/>
</svg>