<?xml version="1.0" encoding="UTF-8"?>
<svg id="Layer_1" data-name="Layer 1" xmlns="http://www.w3.org/2000/svg" viewBox="0 0 500 500">
  <path d="M391.64,30.3H108.36c-43.11,0-78.06,34.95-78.06,78.06V399.45c0,38.8,31.46,70.25,70.26,70.25H399.44c38.8,0,70.26-31.45,70.26-70.25V108.37c0-43.11-34.95-78.06-78.06-78.06ZM81.1,133.69c0-28.86,23.47-52.33,52.33-52.33h233.49c28.86,0,52.33,23.47,52.33,52.33v56.2l-23-23v-33.2c0-16.17-13.16-29.33-29.33-29.33H133.43c-16.17,0-29.33,13.16-29.33,29.33v34.47l-23,23v-57.47Zm251.34,182.31v32.44H167.56V170.03h54.06v145.96h110.82ZM114.1,194.93v110.15l-55.08-55.07,55.08-55.08Zm305.15,172.25c0,28.86-23.47,52.33-52.33,52.33H133.43c-28.86,0-52.33-23.47-52.33-52.33v-58.33l23,23v35.33c0,16.17,13.16,29.33,29.33,29.33h233.49c16.17,0,29.33-13.16,29.33-29.33v-34.07l23-23v57.07Zm-31.73-62.1v-110.15l55.07,55.08-55.07,55.07Z"/>
</svg>