<?xml version="1.0" encoding="UTF-8"?>
<svg id="Layer_1" data-name="Layer 1" xmlns="http://www.w3.org/2000/svg" viewBox="0 0 439.4 439.4">
  <path d="M361.34,0H78.06C34.95,0,0,34.95,0,78.07V369.15c0,38.8,31.46,70.25,70.26,70.25H369.14c38.8,0,70.26-31.45,70.26-70.25V78.07C439.4,34.95,404.45,0,361.34,0Zm-110.77,360.4l-39.49-59.83h-26.08v59.83h-47.87V202.44h117.27c27.12,0,40.69,10.85,40.69,32.55v33.03c0,19.15-10.78,29.99-32.31,32.55l39.49,59.83h-51.7Zm-114.28-197.98l83.41-83.41,83.41,83.41H136.29Zm102.55,68.74h-53.84v40.69h53.84c5.58,0,8.39-2.23,8.39-6.7v-27.29c0-4.47-2.81-6.7-8.39-6.7Z"/>
</svg>