<?xml version="1.0" encoding="UTF-8"?>
<svg id="Layer_1" data-name="Layer 1" xmlns="http://www.w3.org/2000/svg" viewBox="0 0 500 500">
  <path d="M391.64,30.3H108.36c-43.11,0-78.06,34.95-78.06,78.06V399.45c0,38.8,31.46,70.25,70.26,70.25H399.44c38.8,0,70.26-31.45,70.26-70.25V108.37c0-43.11-34.95-78.06-78.06-78.06Zm-141.27,28.34l55.07,55.07h-110.15l55.08-55.07Zm82.06,257.35v32.44H167.56V170.03h54.06v145.96h110.82Zm-198.38,104.15c-28.86,0-52.33-23.47-52.33-52.33V134.32c0-28.86,23.47-52.33,52.33-52.33h56.2l-23,23h-33.2c-16.17,0-29.33,13.16-29.33,29.33v233.49c0,16.17,13.16,29.33,29.33,29.33h34.47l23,23h-57.47Zm116.31,22.08l-55.08-55.08h110.15l-55.07,55.08Zm169.51-74.41c0,28.86-23.47,52.33-52.33,52.33h-58.33l23-23h35.33c16.17,0,29.33-13.16,29.33-29.33V134.32c0-16.17-13.16-29.33-29.33-29.33h-34.07l-23-23h57.07c28.86,0,52.33,23.47,52.33,52.33v233.49Z"/>
</svg>