<?xml version="1.0" encoding="UTF-8"?>
<svg id="Layer_1" data-name="Layer 1" xmlns="http://www.w3.org/2000/svg" viewBox="0 0 439.4 439.4">
  <path d="M361.34,0H78.07C34.95,0,0,34.95,0,78.06V369.14c0,38.8,31.46,70.26,70.26,70.26H369.15c38.8,0,70.25-31.46,70.25-70.26V78.06C439.4,34.95,404.45,0,361.34,0Zm27.01,342.69c0,25.17-20.48,45.65-45.65,45.65H96.72c-25.18,0-45.66-20.48-45.66-45.65V104.52c0-29.48,23.99-53.46,53.47-53.46h203.9c-2.61,6.84-4.04,14.25-4.04,22H104.53c-17.35,0-31.47,14.11-31.47,31.46v238.17c0,13.04,10.61,23.65,23.66,23.65h245.98c13.04,0,23.65-10.61,23.65-23.65V135.01c7.75,0,15.16-1.43,22-4.04v211.72Zm-86.2-66.23v32.44H137.26V130.5h54.06v145.96h110.83Zm64.2-168.45c-19.31,0-34.96-15.65-34.96-34.95s15.65-34.96,34.96-34.96,34.95,15.65,34.95,34.96-15.65,34.95-34.95,34.95Z"/>
</svg>