<?xml version="1.0" encoding="UTF-8"?>
<svg id="Layer_1" data-name="Layer 1" xmlns="http://www.w3.org/2000/svg" viewBox="0 0 439.4 439.4">
  <path d="M361.34,0H78.07C34.95,0,0,34.95,0,78.06V369.14c0,38.8,31.46,70.26,70.26,70.26H369.15c38.8,0,70.25-31.46,70.25-70.26V78.06C439.4,34.95,404.45,0,361.34,0Zm-61.48,296.38h-50.19l-38.33-58.09h-25.34v58.09h-46.46V143.02h113.86c26.32,0,39.5,10.53,39.5,31.6v32.07c0,18.59-10.47,29.12-31.37,31.6l38.33,58.09Zm-25.08-250.86l-55.08,55.07-55.07-55.07h110.15Zm113.56,297.17c0,25.18-20.48,45.66-45.65,45.66H96.71c-25.17,0-45.65-20.48-45.65-45.66V104.52c0-29.48,23.98-53.46,53.46-53.46h27.46l22,22h-49.46c-17.35,0-31.46,14.11-31.46,31.46v238.17c0,13.05,10.61,23.66,23.65,23.66h245.98c13.04,0,23.65-10.61,23.65-23.66V104.52c0-17.35-14.11-31.46-31.46-31.46h-49.46l22-22h27.46c29.48,0,53.46,23.98,53.46,53.46v238.17ZM238.29,170.9h-52.29v39.51h52.29c5.41,0,8.13-2.17,8.13-6.51v-26.49c0-4.34-2.72-6.51-8.13-6.51Z"/>
</svg>