<?xml version="1.0" encoding="UTF-8" standalone="no"?>
<!-- Created with Inkscape (http://www.inkscape.org/) -->

<svg
   width="500"
   height="500"
   viewBox="0 0 132.29166 132.29167"
   version="1.1"
   id="svg8"
   sodipodi:docname="touchpad-r-touch.svg"
   inkscape:version="1.2.2 (b0a8486541, 2022-12-01)"
   xml:space="preserve"
   xmlns:inkscape="http://www.inkscape.org/namespaces/inkscape"
   xmlns:sodipodi="http://sodipodi.sourceforge.net/DTD/sodipodi-0.dtd"
   xmlns="http://www.w3.org/2000/svg"
   xmlns:svg="http://www.w3.org/2000/svg"
   xmlns:rdf="http://www.w3.org/1999/02/22-rdf-syntax-ns#"
   xmlns:cc="http://creativecommons.org/ns#"
   xmlns:dc="http://purl.org/dc/elements/1.1/"><defs
     id="defs2"><rect
       x="18.920168"
       y="-58.629632"
       width="468.1622"
       height="102.723"
       id="rect5337" /></defs><sodipodi:namedview
     id="base"
     pagecolor="#ffffff"
     bordercolor="#666666"
     borderopacity="1.0"
     inkscape:pageopacity="0.0"
     inkscape:pageshadow="2"
     inkscape:zoom="1.0035313"
     inkscape:cx="347.27367"
     inkscape:cy="275.02879"
     inkscape:document-units="mm"
     inkscape:current-layer="layer1"
     showgrid="true"
     units="px"
     inkscape:window-width="1582"
     inkscape:window-height="2109"
     inkscape:window-x="6094"
     inkscape:window-y="25"
     inkscape:window-maximized="1"
     showguides="false"
     inkscape:pagecheckerboard="0"
     inkscape:snap-global="false"
     inkscape:showpageshadow="2"
     inkscape:deskcolor="#d1d1d1"><inkscape:grid
       type="xygrid"
       id="grid4988"
       spacingx="66.145832"
       spacingy="66.145832"
       snapvisiblegridlinesonly="true"
       enabled="false" /></sodipodi:namedview><metadata
     id="metadata5"><rdf:RDF><cc:Work
         rdf:about=""><dc:format>image/svg+xml</dc:format><dc:type
           rdf:resource="http://purl.org/dc/dcmitype/StillImage" /></cc:Work></rdf:RDF></metadata><g
     inkscape:label="Layer 1"
     inkscape:groupmode="layer"
     id="layer1"
     transform="translate(0,-164.70832)"><path
       d="M 103.62142,172.72519 H 28.672892 c -11.408833,0 -20.6560207,9.24719 -20.6560207,20.65337 v 77.01492 c 0,10.26583 8.3237917,18.58963 18.5896247,18.58963 h 79.081314 c 10.26584,0 18.58699,-8.3238 18.58699,-18.58963 v -77.01492 c 0,-11.40618 -9.24719,-20.65337 -20.65338,-20.65337 z m 7.1464,90.67006 c 0,6.65956 -5.41867,12.07823 -12.078245,12.07823 H 33.607371 c -6.662208,0 -12.080875,-5.41867 -12.080875,-12.07823 v -63.01581 c 0,-7.79992 6.347354,-14.14463 14.147271,-14.14463 h 53.948538 c -0.69056,1.80975 -1.06891,3.77032 -1.06891,5.82084 H 35.673767 c -4.590521,0 -8.326438,3.73327 -8.326438,8.32379 v 63.01581 c 0,3.45017 2.807229,6.2574 6.260042,6.2574 h 65.082204 c 3.450175,0 6.257405,-2.80723 6.257405,-6.2574 v -54.94866 c 2.05052,0 4.01109,-0.37836 5.82084,-1.06892 z M 87.354825,251.1424 H 74.075395 L 63.933915,235.77275 H 57.229371 V 251.1424 H 44.936829 v -40.5765 h 30.125456 c 6.96384,0 10.45104,2.78606 10.45104,8.36083 v 8.48519 c 0,4.9186 -2.77018,7.70467 -8.29997,8.36083 z m 17.592155,-49.83956 c -5.109105,0 -9.249835,-4.14073 -9.249835,-9.24719 0,-5.10646 4.14073,-9.24984 9.249835,-9.24984 5.10911,0 9.24719,4.14073 9.24719,9.24984 0,5.1091 -4.14073,9.24719 -9.24719,9.24719 z M 71.064435,217.94248 H 57.229371 v 10.45369 h 13.835064 c 1.43139,0 2.15106,-0.57415 2.15106,-1.72244 v -7.00881 c 0,-1.14829 -0.71967,-1.72244 -2.15106,-1.72244 z"
       id="path978"
       style="stroke-width:0.264583" /></g></svg>
