<?xml version="1.0" encoding="utf-8"?>
<!-- Generator: Adobe Illustrator 27.0.0, SVG Export Plug-In . SVG Version: 6.00 Build 0)  -->
<svg version="1.1" id="Layer_1" xmlns="http://www.w3.org/2000/svg" xmlns:xlink="http://www.w3.org/1999/xlink" x="0px" y="0px"
	 viewBox="0 0 438.1 438.1" style="enable-background:new 0 0 438.1 438.1;" xml:space="preserve">
<path d="M241.1,171.5h-52.3V211h52.3c5.4,0,8.1-2.2,8.1-6.5V178C249.2,173.7,246.5,171.5,241.1,171.5z M241.1,171.5h-52.3V211h52.3
	c5.4,0,8.1-2.2,8.1-6.5V178C249.2,173.7,246.5,171.5,241.1,171.5z M364.1,0.6H80.9c-43.1,0-78,34.9-78,78.1v291.1
	c0,38.8,31.5,70.2,70.3,70.2h298.9c38.8,0,70.3-31.4,70.3-70.2V78.7C442.2,35.6,407.2,0.6,364.1,0.6z M337.7,51.7
	c29.5,0,53.5,24,53.5,53.5v54.5l-22-22v-32.5c0-17.3-14.1-31.5-31.5-31.5h-28.9l-22-22H337.7z M302.7,297h-50.2l-38.3-58.1h-25.3
	V297h-46.5V143.6h113.9c26.3,0,39.5,10.5,39.5,31.6v32.1c0,18.6-10.5,29.1-31.4,31.6L302.7,297z M222.5,24.1l55.1,55.1H167.4
	L222.5,24.1z M53.9,105.1c0-29.5,24-53.5,53.5-53.5h50.9l-22,22h-28.9c-17.4,0-31.5,14.1-31.5,31.5v34.1l-22,22V105.1z M86.6,165.2
	v110.1l-55.1-55.1L86.6,165.2z M96,390.2c-25.2,0-45.6-20.5-45.6-45.7v-63.9l22,22v41.9c0,13,10.6,23.7,23.6,23.7h36.7l22,22H96z
	 M222.5,416.5l-55.1-55.1h110.2L222.5,416.5z M391.1,343.3c0,25.2-20.5,45.7-45.7,45.7h-58.7l22-22h36.7c13,0,23.7-10.6,23.7-23.7
	V303l22-22V343.3z M360,275.4V165.2l55.1,55.1L360,275.4z M241.1,171.5h-52.3V211h52.3c5.4,0,8.1-2.2,8.1-6.5V178
	C249.2,173.7,246.5,171.5,241.1,171.5z M241.1,171.5h-52.3V211h52.3c5.4,0,8.1-2.2,8.1-6.5V178C249.2,173.7,246.5,171.5,241.1,171.5
	z M241.1,171.5h-52.3V211h52.3c5.4,0,8.1-2.2,8.1-6.5V178C249.2,173.7,246.5,171.5,241.1,171.5z"/>
</svg>
