<?xml version="1.0" encoding="UTF-8"?>
<svg id="Layer_1" data-name="Layer 1" xmlns="http://www.w3.org/2000/svg" viewBox="0 0 438.09 438.09">
  <path d="M360.69-.65H77.41C34.3-.65-.65,34.3-.65,77.41V368.49c0,38.8,31.46,70.25,70.26,70.25H368.49c38.8,0,70.26-31.45,70.26-70.25V77.41C438.75,34.3,403.8-.65,360.69-.65Zm-26.46,51.05c29.48,0,53.46,23.98,53.46,53.46v54.46l-22-22v-32.46c0-17.35-14.11-31.46-31.46-31.46h-28.88l-22-22h50.88Zm-32.74,234.64v32.44H136.61V139.08h54.06v145.96h110.82ZM219.05,22.86l55.07,55.08h-110.14l55.07-55.08ZM50.41,103.86c0-29.48,23.98-53.46,53.46-53.46h50.88l-22,22h-28.88c-17.35,0-31.46,14.11-31.46,31.46v34.08l-22,22v-56.08Zm32.74,60.11v110.15l-55.08-55.07,55.08-55.08Zm12.91,223.72c-25.17,0-45.65-20.48-45.65-45.66v-63.88l22,22v41.88c0,13.05,10.61,23.66,23.65,23.66h36.69l22,22h-58.69Zm122.99,27.54l-55.07-55.08h110.14l-55.07,55.08Zm168.64-73.2c0,25.18-20.48,45.66-45.65,45.66h-58.69l22-22h36.69c13.04,0,23.65-10.61,23.65-23.66v-40.26l22-22v62.26Zm-31.12-67.91v-110.15l55.07,55.08-55.07,55.07Z"/>
</svg>