<?xml version="1.0" encoding="UTF-8"?>
<svg id="Layer_1" data-name="Layer 1" xmlns="http://www.w3.org/2000/svg" viewBox="0 0 500 500">
  <path d="M391.64,30.3H108.36c-43.11,0-78.06,34.95-78.06,78.06V399.45c0,38.8,31.46,70.25,70.26,70.25H399.44c38.8,0,70.26-31.45,70.26-70.25V108.37c0-43.11-34.95-78.06-78.06-78.06Zm-141.21,27.91l55.08,55.08h-110.15l55.07-55.08Zm84.73,268.47h-50.19l-38.34-58.1h-25.33v58.1h-46.47V173.32h113.87c26.31,0,39.5,10.53,39.5,31.61v32.06c0,18.59-10.47,29.12-31.38,31.6l38.34,58.1Zm-201.91,91.76c-28.86,0-52.33-23.47-52.33-52.33V132.62c0-28.86,23.47-52.33,52.33-52.33h58.33l-23,23h-35.33c-16.17,0-29.33,13.16-29.33,29.33v233.49c0,16.17,13.16,29.33,29.33,29.33h34.07l23,23h-57.07Zm117.18,23.34l-55.07-55.07h110.15l-55.08,55.07Zm168.65-75.67c0,28.86-23.47,52.33-52.33,52.33h-56.2l23-23h33.2c16.17,0,29.33-13.16,29.33-29.33V132.62c0-16.17-13.16-29.33-29.33-29.33h-34.47l-23-23h57.47c28.86,0,52.33,23.47,52.33,52.33v233.49Z"/>
  <path d="M273.58,201.2h-52.28v39.52h52.28c5.42,0,8.14-2.18,8.14-6.52v-26.48c0-4.35-2.72-6.52-8.14-6.52Z"/>
</svg>