<?xml version="1.0" encoding="UTF-8"?>
<svg id="Layer_1" data-name="Layer 1" xmlns="http://www.w3.org/2000/svg" viewBox="0 0 439.4 439.4">
  <path d="M361.34,0H78.07C34.95,0,0,34.95,0,78.06V369.14c0,38.8,31.46,70.26,70.26,70.26H369.15c38.8,0,70.25-31.46,70.25-70.26V78.06C439.4,34.95,404.45,0,361.34,0Zm-86.56,45.52l-55.08,55.07-55.07-55.07h110.15Zm27.37,240.17v32.44H137.26V139.73h54.06v145.96h110.83Zm86.19,57c0,25.18-20.48,45.66-45.65,45.66H96.71c-25.17,0-45.65-20.48-45.65-45.66V104.52c0-29.48,23.98-53.46,53.46-53.46h27.46l22,22h-49.46c-17.35,0-31.46,14.11-31.46,31.46v238.17c0,13.05,10.61,23.66,23.65,23.66h245.98c13.04,0,23.65-10.61,23.65-23.66V104.52c0-17.35-14.11-31.46-31.46-31.46h-49.46l22-22h27.46c29.48,0,53.46,23.98,53.46,53.46v238.17Z"/>
</svg>