<?xml version="1.0" encoding="UTF-8"?>
<svg id="Layer_1" data-name="Layer 1" xmlns="http://www.w3.org/2000/svg" viewBox="0 0 439.4 439.4">
  <path d="M305.35,166.89h-53.85v40.69h53.85c5.58,0,8.38-2.24,8.38-6.71v-27.28c0-4.47-2.8-6.7-8.38-6.7Zm0,0h-53.85v40.69h53.85c5.58,0,8.38-2.24,8.38-6.71v-27.28c0-4.47-2.8-6.7-8.38-6.7Zm0,0h-53.85v40.69h53.85c5.58,0,8.38-2.24,8.38-6.71v-27.28c0-4.47-2.8-6.7-8.38-6.7Zm0,0h-53.85v40.69h53.85c5.58,0,8.38-2.24,8.38-6.71v-27.28c0-4.47-2.8-6.7-8.38-6.7Zm0,0h-53.85v40.69h53.85c5.58,0,8.38-2.24,8.38-6.71v-27.28c0-4.47-2.8-6.7-8.38-6.7Zm0,0h-53.85v40.69h53.85c5.58,0,8.38-2.24,8.38-6.71v-27.28c0-4.47-2.8-6.7-8.38-6.7ZM361.34,0H78.06C34.95,0,0,34.95,0,78.07V369.15c0,38.8,31.46,70.25,70.26,70.25H369.14c38.8,0,70.26-31.45,70.26-70.25V78.07C439.4,34.95,404.45,0,361.34,0ZM154.04,303.12l-83.41-83.42,83.41-83.41v166.83Zm163.04-7l-39.49-59.83h-26.09v59.83h-47.86V138.17h117.27c27.12,0,40.68,10.85,40.68,32.55v33.03c0,19.14-10.77,29.99-32.3,32.54l39.48,59.83h-51.69Zm-11.73-129.23h-53.85v40.69h53.85c5.58,0,8.38-2.24,8.38-6.71v-27.28c0-4.47-2.8-6.7-8.38-6.7Zm0,0h-53.85v40.69h53.85c5.58,0,8.38-2.24,8.38-6.71v-27.28c0-4.47-2.8-6.7-8.38-6.7Zm0,0h-53.85v40.69h53.85c5.58,0,8.38-2.24,8.38-6.71v-27.28c0-4.47-2.8-6.7-8.38-6.7Zm0,0h-53.85v40.69h53.85c5.58,0,8.38-2.24,8.38-6.71v-27.28c0-4.47-2.8-6.7-8.38-6.7Zm0,0h-53.85v40.69h53.85c5.58,0,8.38-2.24,8.38-6.71v-27.28c0-4.47-2.8-6.7-8.38-6.7Zm0,0h-53.85v40.69h53.85c5.58,0,8.38-2.24,8.38-6.71v-27.28c0-4.47-2.8-6.7-8.38-6.7Zm0,0h-53.85v40.69h53.85c5.58,0,8.38-2.24,8.38-6.71v-27.28c0-4.47-2.8-6.7-8.38-6.7Z"/>
</svg>