<?xml version="1.0" encoding="UTF-8"?>
<svg id="Layer_1" data-name="Layer 1" xmlns="http://www.w3.org/2000/svg" viewBox="0 0 500 500">
  <path d="M449.74,163.92h-113.66V50.26c0-18.94-40.65-34.29-59.57-34.29h-54.96c-18.93,0-57.61,15.35-57.61,34.29v113.66H50.26c-18.94,0-34.29,40.63-34.29,59.58v54.96c0,18.92,15.35,57.61,34.29,57.61h113.68v113.68c0,18.92,38.68,34.28,57.61,34.28h58.85c18.92,0,55.68-15.36,55.68-34.28v-113.68h113.66c18.94,0,34.29-38.69,34.29-57.61v-58.85c0-18.95-15.35-55.69-34.29-55.69ZM114.41,311.92l-61.92-61.91,61.92-61.92v123.83Zm271.18,0v-123.83l61.92,61.92-61.92,61.91Z"/>
</svg>