<?xml version="1.0" encoding="UTF-8"?>
<svg id="Layer_1" data-name="Layer 1" xmlns="http://www.w3.org/2000/svg" viewBox="0 0 500 500">
  <path d="M484.03,219.6v58.85c0,18.92-15.35,57.61-34.29,57.61h-113.66v113.68c0,18.92-36.76,34.29-55.68,34.29h-58.85c-18.92,0-57.61-15.36-57.61-34.29v-113.68H50.26c-18.94,0-34.29-38.68-34.29-57.61v-54.96c0-18.94,15.35-59.57,34.29-59.57h113.68V50.26c0-18.94,38.68-34.29,57.61-34.29h54.96c18.92,0,59.57,15.35,59.57,34.29v113.66h113.66c18.94,0,34.29,36.74,34.29,55.68Z"/>
</svg>