<?xml version="1.0" encoding="UTF-8"?>
<svg id="Layer_1" data-name="Layer 1" xmlns="http://www.w3.org/2000/svg" viewBox="0 0 500 500">
  <path d="M462.5,155.05H37.51c-19.61,0-35.51,15.9-35.51,35.51v118.89c0,19.61,15.9,35.5,35.51,35.5H462.5c19.61,0,35.5-15.89,35.5-35.5v-118.89c0-19.61-15.89-35.51-35.5-35.51ZM118.89,193.26h37.14l31.64,43.85,31.64-43.85h37.14l-51.58,71.36v42.13h-34.39v-42.13l-51.58-71.36Zm155.61,113.48v-46.25c0-15.59,9.74-23.38,29.23-23.38h36.97c4.01,0,6.02-1.6,6.02-4.81v-13.58c0-3.21-2.01-4.81-6.02-4.81h-57.6v-20.63h68.78c19.49,0,29.23,7.8,29.23,23.38v17.71c0,15.59-9.74,23.38-29.23,23.38h-36.97c-4.01,0-6.02,1.61-6.02,4.81v23.56h72.22v20.63h-106.61Z"/>
</svg>