<?xml version="1.0" encoding="UTF-8"?>
<svg id="Layer_1" data-name="Layer 1" xmlns="http://www.w3.org/2000/svg" viewBox="0 0 500 500">
  <path d="M470.43,171.38H30.56c-6.7,0-10.02,8.14-5.23,12.82l145.42,142.3c1.4,1.37,3.28,2.13,5.23,2.13H470.43c3.59,0,6.51-2.91,6.51-6.51V177.89c0-3.59-2.92-6.51-6.51-6.51Zm-185,126.95l-7.41-11.82,1.25-2.32,31.89,14.97,.97,3.34-26.7-4.17Zm66.39-12.65l6.74-4.03,3.76,2.56-6.66,11.3-24.77,6.13-1.46-3.04-8.05,9.67-43.74-49.37,12.63-34.15-10.57,20.85-3.36-5.87,18.21-47.99,3.55,51.76,15.04,36.26,6.45,6.15,7.55-6.23,14.45-36.12,3.36-47.04,3.11-3.11,11.82,37.14-6.75,15.81,3.26-3.2h3.23l3.24,15.31-32.58,39.11,21.54-11.9Z"/>
</svg>